%FSTAX44Y44*%
%MOMM*%
%SFA1B1*%

%IPPOS*%
%AMD22*
4,1,8,0.749300,-0.375920,0.749300,0.375920,0.375920,0.749300,-0.375920,0.749300,-0.749300,0.375920,-0.749300,-0.375920,-0.375920,-0.749300,0.375920,-0.749300,0.749300,-0.375920,0.0*
1,1,0.750000,0.375920,-0.375920*
1,1,0.750000,0.375920,0.375920*
1,1,0.750000,-0.375920,0.375920*
1,1,0.750000,-0.375920,-0.375920*
%
%AMD23*
4,1,4,0.764540,-1.033780,1.033780,-0.764540,-0.764540,1.033780,-1.033780,0.764540,0.764540,-1.033780,0.0*
%
%AMD24*
4,1,4,-1.033780,-0.764540,-0.764540,-1.033780,1.033780,0.764540,0.764540,1.033780,-1.033780,-0.764540,0.0*
%
%AMD47*
4,1,8,1.206500,3.175000,-1.206500,3.175000,-2.413000,1.968500,-2.413000,-1.968500,-1.206500,-3.175000,1.206500,-3.175000,2.413000,-1.968500,2.413000,1.968500,1.206500,3.175000,0.0*
1,1,2.413000,1.206500,1.968500*
1,1,2.413000,-1.206500,1.968500*
1,1,2.413000,-1.206500,-1.968500*
1,1,2.413000,1.206500,-1.968500*
%
%ADD10C,1.499997*%
%ADD11R,1.149998X1.349997*%
%ADD12R,1.349997X1.149998*%
%ADD13R,1.299997X1.399997*%
%ADD14R,2.899994X1.999996*%
%ADD15R,1.549997X0.699999*%
%ADD16R,1.399997X1.299997*%
%ADD17R,0.699999X1.549997*%
%ADD18O,2.299995X0.649999*%
%ADD19R,3.999992X1.499997*%
%ADD20R,8.199984X2.599995*%
%ADD21R,1.524997X0.649999*%
G04~CAMADD=22~8~0.0~0.0~590.6~590.6~147.6~0.0~15~0.0~0.0~0.0~0.0~0~0.0~0.0~0.0~0.0~0~0.0~0.0~0.0~270.0~590.0~590.0*
%ADD22D22*%
G04~CAMADD=23~9~0.0~0.0~150.0~1000.0~0.0~0.0~0~0.0~0.0~0.0~0.0~0~0.0~0.0~0.0~0.0~0~0.0~0.0~0.0~225.0~814.0~813.0*
%ADD23D23*%
G04~CAMADD=24~9~0.0~0.0~150.0~1000.0~0.0~0.0~0~0.0~0.0~0.0~0.0~0~0.0~0.0~0.0~0.0~0~0.0~0.0~0.0~135.0~814.0~813.0*
%ADD24D24*%
%ADD25R,0.699999X2.999994*%
%ADD26O,0.699999X2.999994*%
%ADD27O,2.999994X0.639999*%
%ADD28R,2.999994X0.639999*%
%ADD29R,1.749997X0.799998*%
%ADD30R,1.749997X0.699999*%
%ADD31R,0.899998X1.149998*%
%ADD32R,0.799998X1.149998*%
%ADD33R,0.699999X1.149998*%
%ADD34R,0.899998X0.949998*%
G04~CAMADD=47~8~0.0~0.0~1900.0~2500.0~475.0~0.0~15~0.0~0.0~0.0~0.0~0~0.0~0.0~0.0~0.0~0~0.0~0.0~0.0~0.0~1900.0~2500.0*
%ADD47D47*%
%ADD48C,1.689997*%
%ADD49R,1.689997X1.689997*%
%ADD50O,1.299997X1.949996*%
%ADD51O,1.949996X1.299997*%
%ADD52C,2.099996*%
%ADD53C,5.217990*%
%ADD54C,1.332997*%
%ADD55C,1.299997*%
%ADD56C,1.874996*%
%ADD57C,1.269997*%
%ADD58C,2.249995*%
%ADD59C,2.499995*%
%ADD60C,3.999992*%
%ADD61C,4.999990*%
%ADD62C,1.499997*%
%ADD63C,1.523997*%
%ADD64C,2.999994*%
%ADD65O,1.406397X3.107994*%
%ADD66R,1.299997X1.299997*%
%ADD67C,2.474995*%
%ADD68C,1.154998*%
%ADD69C,1.899996*%
%ADD70R,1.499997X1.499997*%
%ADD71O,3.999992X2.499995*%
%LNsega_801_remake_pads_top-1*%
%LPD*%
G54D10*
X01020857Y01603258D03*
X00493983Y00549441D03*
X0038354Y0160528D03*
X00487662Y01515229D03*
X0044958Y0138684D03*
X0097028Y003937D03*
X0096774Y0047752D03*
X0098552Y004318D03*
X0100838Y0046482D03*
X0140716Y0145288D03*
X0139954Y014732D03*
X0140208Y0143256D03*
X0142494Y0138176D03*
X014097Y015748D03*
G54D11*
X00358419Y0149606D03*
X0037592D03*
X0056896Y0141732D03*
X00551459D03*
X0160782Y0143256D03*
X01590319D03*
X0160782Y0147828D03*
X01590319D03*
X0160782Y01524D03*
X01590319D03*
X00519289Y0142748D03*
X00501789D03*
X00519289Y0147574D03*
X00501789D03*
X00519289Y0138684D03*
X00501789D03*
X00393979Y0151892D03*
X0041148D03*
X0130302Y0175514D03*
X01285519D03*
X00978179Y0019304D03*
X0099568D03*
X015367Y0175514D03*
X01519199D03*
X01426349D03*
X01443849D03*
X01046759Y0054102D03*
X0106426D03*
X0108458Y0019304D03*
X01067079D03*
X0051308Y0084582D03*
X00495579D03*
X0038354Y0137414D03*
X00401039D03*
X00501789Y0153924D03*
X00519289D03*
X00501789Y0162052D03*
X00519289D03*
X0050038Y0157988D03*
X00517879D03*
X006604Y0110744D03*
X00642899D03*
X006604Y0113538D03*
X00642899D03*
X00661529Y0105156D03*
X00644029D03*
X00662309Y01025779D03*
X00644809D03*
X00661529Y0100076D03*
X00644029D03*
X01430299Y0155956D03*
X014478D03*
Y0153416D03*
X01430299D03*
X01590319Y014097D03*
X0160782D03*
X01590319Y0145542D03*
X0160782D03*
X015906Y0150114D03*
X01608099D03*
G54D12*
X0099568Y0065278D03*
Y00635279D03*
X0101854Y0065278D03*
Y00635279D03*
X009398Y0026924D03*
Y00286739D03*
X01536979Y0149098D03*
Y01508479D03*
X0108458Y01561349D03*
Y01578849D03*
X0114046Y01407439D03*
Y0142494D03*
X0115316Y01561349D03*
Y01578849D03*
X0060452Y01640559D03*
Y0162306D03*
X0071628Y01615719D03*
Y0163322D03*
X0136144Y016383D03*
Y01620799D03*
X0139446Y016383D03*
Y01620799D03*
X0132842D03*
Y016383D03*
X012954Y01620799D03*
Y016383D03*
X0076962Y0019304D03*
Y00210539D03*
X0071628Y0019304D03*
Y00210539D03*
X007874Y01201139D03*
Y0118364D03*
X01306929Y0082296D03*
Y00805459D03*
X011557Y00807529D03*
Y00790029D03*
X0086614Y01182509D03*
Y01200009D03*
X0069088Y01009789D03*
Y01027289D03*
X0126492Y0159004D03*
Y01572539D03*
X01411763Y01006947D03*
Y00989447D03*
X0071628Y01572539D03*
Y0159004D03*
X010541Y0032766D03*
Y00345159D03*
X0140208Y00794739D03*
Y0077724D03*
X010668Y00623429D03*
Y00605929D03*
X009398Y003175D03*
Y00334999D03*
X0083566Y01182509D03*
Y01200009D03*
X0089408Y01182509D03*
Y01200009D03*
X0062484Y0118364D03*
Y01201139D03*
X0065532Y0118364D03*
Y01201139D03*
X0072136Y01492389D03*
Y01509889D03*
X00676918Y01545368D03*
Y01562868D03*
X006477Y01544599D03*
Y015621D03*
X00592194Y01509414D03*
Y01526914D03*
X00572028Y0159766D03*
Y01580159D03*
X0060452D03*
Y0159766D03*
X0110236Y0140716D03*
Y01424659D03*
X01536979Y01451749D03*
Y01469249D03*
Y01412519D03*
Y0143002D03*
G54D13*
X0042164Y016637D03*
X00405639D03*
X014478Y0140716D03*
X01431799D03*
X00552959Y013843D03*
X0056896D03*
X01232279Y0141732D03*
X01216279D03*
X014478Y0148336D03*
X01431799D03*
X014478Y0150876D03*
X01431799D03*
X0093218Y0063754D03*
X00916179D03*
X01286609Y0077724D03*
X01302609D03*
X014478Y0158496D03*
X01431799D03*
X01322579Y0137922D03*
X0133858D03*
X00655699Y0088138D03*
X00639699D03*
X004699Y0119126D03*
X00453899D03*
X01431799Y0145796D03*
X014478D03*
X01431799Y0143256D03*
X014478D03*
G54D14*
X0078994Y00350879D03*
Y0030988D03*
X0119634Y0030734D03*
Y00348339D03*
G54D15*
X00971659Y003556D03*
Y003429D03*
Y003302D03*
Y003175D03*
Y003048D03*
Y002921D03*
Y002794D03*
X0102616D03*
Y002921D03*
Y003048D03*
Y003175D03*
Y003302D03*
Y003429D03*
Y003556D03*
G54D16*
X0115316Y00330959D03*
Y0031496D03*
X008382Y00333499D03*
Y003175D03*
X0106172Y0140716D03*
Y01423159D03*
X0112014Y015621D03*
Y01578099D03*
X0118618Y015621D03*
Y01578099D03*
X007366Y00621539D03*
Y0063754D03*
X0085344Y00509779D03*
Y0052578D03*
X0032512Y0061722D03*
Y00633219D03*
X011811Y00790399D03*
Y00806399D03*
X010414Y00565659D03*
Y0058166D03*
X0142494Y01636139D03*
Y01620139D03*
X0123444Y01588259D03*
Y0157226D03*
X0136144Y0117348D03*
Y01189479D03*
X0102616Y00390399D03*
Y004064D03*
X0115316Y00364999D03*
Y00381D03*
X008382Y00367539D03*
Y0038354D03*
X010668Y00565659D03*
Y0058166D03*
X010414Y006223D03*
Y00606299D03*
X01278989Y0082296D03*
Y00806959D03*
X0124714Y01172719D03*
Y0118872D03*
X007239Y01184389D03*
Y01200389D03*
X0075438Y01184389D03*
Y01200389D03*
Y01509139D03*
Y01493139D03*
X00559174Y01526164D03*
Y01510164D03*
G54D17*
X0110236Y01520769D03*
X0111506D03*
X0112776D03*
X0114046D03*
X0115316D03*
X0116586D03*
X0117856D03*
Y01466269D03*
X0116586D03*
X0115316D03*
X0114046D03*
X0112776D03*
X0111506D03*
X0110236D03*
G54D18*
X01285709Y0154813D03*
Y0153543D03*
Y0152273D03*
Y0151003D03*
Y0149733D03*
Y0148463D03*
Y0147193D03*
Y0145923D03*
Y0144653D03*
Y0143383D03*
Y0142113D03*
Y0140843D03*
X01376209Y0154813D03*
Y0153543D03*
Y0152273D03*
Y0151003D03*
Y0149733D03*
Y0148463D03*
Y0147193D03*
Y0145923D03*
Y0144653D03*
Y0143383D03*
Y0142113D03*
Y0140843D03*
G54D19*
X003937Y01698819D03*
Y0173482D03*
G54D20*
X0037592Y00549059D03*
Y00493059D03*
G54D21*
X00686258Y01519355D03*
Y01506655D03*
Y01493955D03*
Y01481255D03*
X00632018D03*
Y01493955D03*
Y01506655D03*
Y01519355D03*
X00686699Y0162814D03*
Y0161544D03*
Y0160274D03*
Y0159004D03*
X0063246D03*
Y0160274D03*
Y0161544D03*
Y0162814D03*
G54D22*
X0063754Y0051308D03*
X0065786D03*
X0067691D03*
X0047244Y008763D03*
X0049276D03*
X0051181D03*
G54D23*
X00705883Y00890057D03*
X00710481Y00894655D03*
X00715078Y00899253D03*
X00719676Y00903851D03*
X00724274Y00908449D03*
X00728872Y00913047D03*
X0073347Y00917645D03*
X00738068Y00922242D03*
X00742665Y0092684D03*
X00747264Y00931438D03*
X00751861Y00936036D03*
X0075646Y00940634D03*
X00761057Y00945232D03*
X00765655Y0094983D03*
X00770253Y00954428D03*
X00774851Y00959025D03*
X00779449Y00963624D03*
X00784047Y00968221D03*
X00788644Y0097282D03*
X00793243Y00977417D03*
X0079784Y00982015D03*
X00802439Y00986613D03*
X00807036Y00991211D03*
X00811634Y00995808D03*
X00816232Y01000407D03*
X0082083Y01005004D03*
X00825428Y01009603D03*
X00830026Y010142D03*
X00834623Y01018798D03*
X00839222Y01023396D03*
X00843819Y01027994D03*
X00848418Y01032592D03*
X00853015Y0103719D03*
X00857613Y01041787D03*
X00862211Y01046386D03*
X00866809Y01050983D03*
X00871407Y01055582D03*
X00876005Y01060179D03*
X00880602Y01064777D03*
X00885201Y01069375D03*
X01101301Y00853275D03*
X01096703Y00848677D03*
X01092105Y00844079D03*
X01087507Y00839481D03*
X01082909Y00834883D03*
X01078311Y00830285D03*
X01073713Y00825687D03*
X01069116Y00821089D03*
X01064518Y00816492D03*
X0105992Y00811894D03*
X01055322Y00807296D03*
X01050724Y00802698D03*
X01046126Y007981D03*
X01041528Y00793502D03*
X0103693Y00788904D03*
X01032333Y00784306D03*
X01027734Y00779708D03*
X01023137Y00775111D03*
X0101854Y00770513D03*
X01013941Y00765915D03*
X01009343Y00761317D03*
X01004745Y00756719D03*
X01000147Y00752121D03*
X0099555Y00747523D03*
X00990951Y00742925D03*
X00986354Y00738328D03*
X00981755Y00733729D03*
X00977158Y00729132D03*
X0097256Y00724535D03*
X00967962Y00719936D03*
X00963364Y00715338D03*
X00958766Y0071074D03*
X00954168Y00706142D03*
X00949571Y00701545D03*
X00944972Y00696946D03*
X00940375Y00692349D03*
X00935776Y0068775D03*
X00931179Y00683153D03*
X00926581Y00678555D03*
X00921983Y00673957D03*
G54D24*
X00921983Y01069375D03*
X00926581Y01064777D03*
X00931179Y01060179D03*
X00935776Y01055582D03*
X00940375Y01050983D03*
X00944972Y01046386D03*
X00949571Y01041787D03*
X00954168Y0103719D03*
X00958766Y01032592D03*
X00963364Y01027994D03*
X00967962Y01023396D03*
X0097256Y01018798D03*
X00977158Y010142D03*
X00981755Y01009603D03*
X00986354Y01005004D03*
X00990951Y01000407D03*
X0099555Y00995808D03*
X01000147Y00991211D03*
X01004745Y00986613D03*
X01009343Y00982015D03*
X01013941Y00977417D03*
X0101854Y0097282D03*
X01023137Y00968221D03*
X01027734Y00963624D03*
X01032333Y00959025D03*
X0103693Y00954428D03*
X01041528Y0094983D03*
X01046126Y00945232D03*
X01050724Y00940634D03*
X01055322Y00936036D03*
X0105992Y00931438D03*
X01064518Y0092684D03*
X01069116Y00922242D03*
X01073713Y00917645D03*
X01078311Y00913047D03*
X01082909Y00908449D03*
X01087507Y00903851D03*
X01092105Y00899253D03*
X01096703Y00894655D03*
X01101301Y00890057D03*
X00885201Y00673957D03*
X00880602Y00678555D03*
X00876005Y00683153D03*
X00871407Y0068775D03*
X00866809Y00692349D03*
X00862211Y00696946D03*
X00857613Y00701545D03*
X00853015Y00706142D03*
X00848418Y0071074D03*
X00843819Y00715338D03*
X00839222Y00719936D03*
X00834623Y00724535D03*
X00830026Y00729132D03*
X00825428Y00733729D03*
X0082083Y00738328D03*
X00816232Y00742925D03*
X00811634Y00747523D03*
X00807036Y00752121D03*
X00802439Y00756719D03*
X0079784Y00761317D03*
X00793243Y00765915D03*
X00788644Y00770513D03*
X00784047Y00775111D03*
X00779449Y00779708D03*
X00774851Y00784306D03*
X00770253Y00788904D03*
X00765655Y00793502D03*
X00761057Y007981D03*
X0075646Y00802698D03*
X00751861Y00807296D03*
X00747264Y00811894D03*
X00742665Y00816492D03*
X00738068Y00821089D03*
X0073347Y00825687D03*
X00728872Y00830285D03*
X00724274Y00834883D03*
X00719676Y00839481D03*
X00715078Y00844079D03*
X00710481Y00848677D03*
X00705883Y00853275D03*
G54D25*
X004699Y0061976D03*
G54D26*
X004826Y0061976D03*
X004953D03*
X00508D03*
X005207D03*
X005334D03*
X005461D03*
X005588D03*
X005715D03*
X005842D03*
X005969D03*
X006096D03*
X006223D03*
X00635D03*
X006477D03*
X006604D03*
X006731D03*
X006858D03*
X006985D03*
X007112D03*
X004699Y00731759D03*
X004826D03*
X004953D03*
X00508D03*
X005207D03*
X005334D03*
X005461D03*
X005588D03*
X005715D03*
X005842D03*
X005969D03*
X006096D03*
X006223D03*
X00635D03*
X006477D03*
X006604D03*
X006731D03*
X006858D03*
X006985D03*
X007112D03*
G54D27*
X0137922Y0098298D03*
Y0099568D03*
Y0100838D03*
Y0102108D03*
Y0103378D03*
Y0104648D03*
Y0105918D03*
Y0107188D03*
Y0108458D03*
Y0109728D03*
Y0110998D03*
Y0112268D03*
Y0113538D03*
Y0114808D03*
X01284319Y0098298D03*
Y0099568D03*
Y0100838D03*
Y0102108D03*
Y0103378D03*
Y0104648D03*
Y0105918D03*
Y0107188D03*
Y0108458D03*
Y0109728D03*
Y0110998D03*
Y0112268D03*
Y0113538D03*
X01222659Y0098298D03*
Y0099568D03*
Y0100838D03*
Y0102108D03*
Y0103378D03*
Y0104648D03*
Y0105918D03*
Y0107188D03*
Y0108458D03*
Y0109728D03*
Y0110998D03*
Y0112268D03*
Y0113538D03*
Y0114808D03*
X0112776Y0098298D03*
Y0099568D03*
Y0100838D03*
Y0102108D03*
Y0103378D03*
Y0104648D03*
Y0105918D03*
Y0107188D03*
Y0108458D03*
Y0109728D03*
Y0110998D03*
Y0112268D03*
Y0113538D03*
G54D28*
X01284319Y0114808D03*
X0112776D03*
G54D29*
X00896309Y00511309D03*
Y00601209D03*
X00952809D03*
Y00511309D03*
G54D30*
X00896309Y0052451D03*
Y0053721D03*
Y0054991D03*
Y0056261D03*
Y0057531D03*
Y0058801D03*
X00952809D03*
Y0057531D03*
Y0056261D03*
Y0054991D03*
Y0053721D03*
Y0052451D03*
G54D31*
X00319599Y01885609D03*
X00264599D03*
G54D32*
X00307299Y01885609D03*
X00276899D03*
G54D33*
X00287099Y01885609D03*
X00297099D03*
G54D34*
X00674529Y01079659D03*
X00643029D03*
G54D47*
X00925339Y0005334D03*
X01175239D03*
X00605779D03*
X00855679D03*
G54D48*
X01105689Y00078719D03*
X01091839Y00050319D03*
X01077989Y00078719D03*
X01064139Y00050319D03*
X0105029Y00078719D03*
X01036439Y00050319D03*
X01022589Y00078719D03*
X01008739Y00050319D03*
X00689179Y00099849D03*
X00703029Y00128249D03*
X00716879Y00099849D03*
X00730729Y00128249D03*
X00744579Y00099849D03*
X00758429Y00128249D03*
X00772279Y00099849D03*
X0078613Y00128249D03*
X01008739Y00099849D03*
X01022589Y00128249D03*
X01036439Y00099849D03*
X0105029Y00128249D03*
X01064139Y00099849D03*
X01077989Y00128249D03*
X01091839Y00099849D03*
X01105689Y00128249D03*
X00689179Y00050319D03*
X00703029Y00078719D03*
X00716879Y00050319D03*
X00730729Y00078719D03*
X00744579Y00050319D03*
X00758429Y00078719D03*
X00772279Y00050319D03*
X0078613Y00078719D03*
G54D49*
X00994889Y00078719D03*
X00675329Y00128249D03*
X00994889D03*
X00675329Y00078719D03*
G54D50*
X00479859Y017653D03*
X00454859D03*
X01214279Y014605D03*
X01234279D03*
X00830179Y0173736D03*
X0080518D03*
X0083058Y0157988D03*
X00805579D03*
X0043688Y0143002D03*
X00456879D03*
X00558999Y0175006D03*
X00583999D03*
X00437199Y0162306D03*
X004572D03*
X0083058Y0165862D03*
X00805579D03*
X00388419Y004191D03*
X00363419D03*
X0045212Y0113284D03*
X00472119D03*
G54D51*
X0139446Y0169418D03*
Y01719179D03*
X0108712Y01692039D03*
Y0171704D03*
X0124206Y01719179D03*
Y0169418D03*
X0044704Y015494D03*
Y01569399D03*
Y01503359D03*
Y0148336D03*
X00381Y0141986D03*
Y01439859D03*
X0064516Y01762559D03*
Y01737559D03*
X00381Y015494D03*
Y01569399D03*
X0116586Y01719179D03*
Y0169418D03*
X0046736Y0170434D03*
Y01679339D03*
X0131826Y01719179D03*
Y0169418D03*
X0146812Y01719179D03*
Y0169418D03*
X0091948Y014605D03*
Y01485499D03*
X0154432Y01719379D03*
Y01694379D03*
X0059436Y0104902D03*
Y01069019D03*
X0084582Y00558959D03*
Y00578959D03*
X01235809Y00805339D03*
Y00825339D03*
X00372849Y00636346D03*
Y00616346D03*
X0055626Y01668459D03*
Y0164846D03*
X0146812Y016383D03*
Y01618299D03*
X012446Y0162306D03*
Y01643059D03*
G54D52*
X00804999Y01849999D03*
X00474999D03*
X00639999D03*
G54D53*
X00854999Y01851999D03*
X00804999Y01902999D03*
X00754999Y01851999D03*
X00424999D03*
X00474999Y01902999D03*
X00524999Y01851999D03*
X00689999D03*
X00639999Y01902999D03*
X00589999Y01851999D03*
G54D54*
X0145542Y0076962D03*
Y0079502D03*
Y0082042D03*
G54D55*
X0154178Y00778519D03*
Y00798519D03*
Y00818519D03*
X0084328Y01477599D03*
Y01457599D03*
Y01437599D03*
X0153924Y01029659D03*
Y01049659D03*
Y0108966D03*
G54D56*
X0154178Y00757519D03*
Y00839519D03*
X0084328Y014986D03*
Y01416599D03*
G54D57*
X01148719Y0162814D03*
X0118872D03*
X01062359D03*
X0110236D03*
G54D58*
X011684Y01796999D03*
X0118745Y01847799D03*
X012065Y01796999D03*
X0122555Y01847799D03*
X012446Y01796999D03*
X0126365Y01847799D03*
X012827Y01796999D03*
X0130175Y01847799D03*
X013208Y01796999D03*
X0133985Y01847799D03*
X013589Y01796999D03*
X0137795Y01847799D03*
X01397Y01796999D03*
X0141605Y01847799D03*
X014351Y01796999D03*
X0145415Y01847799D03*
X014732Y01796999D03*
X0149225Y01847799D03*
X015113Y01796999D03*
X0153035Y01847799D03*
X015494Y01796999D03*
X00248899Y01923659D03*
X00335299D03*
G54D59*
X01623899Y01869799D03*
X01093899D03*
X01256759Y0030861D03*
X0138176D03*
X01256759Y00258609D03*
X0138176D03*
G54D60*
X01369739Y01274373D03*
G54D61*
X00409439Y01274373D03*
G54D62*
X00494899Y01299773D03*
X00520299D03*
X00545699D03*
X00571099D03*
X00596499D03*
X00621899D03*
X00647299D03*
X00672699D03*
X00698099D03*
X00723499D03*
X00748899D03*
X00774299D03*
X00799699D03*
X00825099D03*
X00850499D03*
X00875899D03*
X00901299D03*
X00926699D03*
X00952099D03*
X00977499D03*
X01002899D03*
X01028299D03*
X01053699D03*
X01079099D03*
X01104499D03*
X01129899D03*
X01155299D03*
X01180699D03*
X01206099D03*
X01231499D03*
X01256899D03*
X01282299D03*
Y01248973D03*
X01256899D03*
X01231499D03*
X01206099D03*
X01180699D03*
X01155299D03*
X01129899D03*
X01104499D03*
X01079099D03*
X01053699D03*
X01028299D03*
X01002899D03*
X00977499D03*
X00952099D03*
X00926699D03*
X00901299D03*
X00875899D03*
X00850499D03*
X00825099D03*
X00799699D03*
X00774299D03*
X00748899D03*
X00723499D03*
X00698099D03*
X00672699D03*
X00647299D03*
X00621899D03*
X00596499D03*
X00571099D03*
X00545699D03*
X00520299D03*
X00494899D03*
X0144272Y0096774D03*
X0146812Y0099314D03*
X0144272D03*
X0146812Y0101854D03*
X0144272D03*
G54D63*
X00939169Y01855169D03*
X0097917D03*
X00966169Y01880169D03*
X00986169D03*
X01019169D03*
X00939169D03*
X00999169Y01855169D03*
X00959169D03*
X01019169D03*
X00453373Y0028956D03*
X00533559D03*
X00493384D03*
X00452811Y0026392D03*
X00532997D03*
X00492822D03*
G54D64*
X0097917Y01918169D03*
G54D65*
X00574199Y0027686D03*
X00412909D03*
G54D66*
X0153924Y01009659D03*
G54D67*
X0153924Y00970659D03*
Y01130659D03*
G54D68*
X0109982Y00373919D03*
Y0032512D03*
X0088646Y00373919D03*
Y0032512D03*
G54D69*
X00248899Y01885659D03*
X00335299D03*
G54D70*
X0146812Y0096774D03*
G54D71*
X00417999Y00244999D03*
Y00309999D03*
X00566999D03*
Y00244999D03*
M02*