%FSTAX44Y44*%
%MOMM*%
%SFA1B1*%

%IPPOS*%
%ADD173C,0.127000*%
%ADD174C,0.169300*%
%ADD175C,0.101600*%
%LNsega_801_remake_drawing_1-1*%
%LPD*%
G54D173*
X00920259Y0004826D02*
Y0005842D01*
X00930419*
Y0004826*
X00920259*
X01175239D02*
X01170159Y0005842D01*
X01180319*
X01175239Y0004826*
X00479859Y0176022D02*
X00482399Y0176276D01*
X00484939*
X00482399Y017653*
X00484939Y0176784*
X00482399*
X00479859Y0177038*
X00477319Y0176784*
X00474779*
X00477319Y017653*
X00474779Y0176276*
X00477319*
X00479859Y0176022*
X00454859D02*
X00457399Y0176276D01*
X00459939*
X00457399Y017653*
X00459939Y0176784*
X00457399*
X00454859Y0177038*
X00452319Y0176784*
X00449779*
X00452319Y017653*
X00449779Y0176276*
X00452319*
X00454859Y0176022*
X0139446Y016891D02*
X01397Y0169164D01*
X0139954*
X01397Y0169418*
X0139954Y0169672*
X01397*
X0139446Y0169926*
X0139192Y0169672*
X0138938*
X0139192Y0169418*
X0138938Y0169164*
X0139192*
X0139446Y016891*
Y01714099D02*
X01397Y01716639D01*
X0139954*
X01397Y01719179*
X0139954Y01721719*
X01397*
X0139446Y01724259*
X0139192Y01721719*
X0138938*
X0139192Y01719179*
X0138938Y01716639*
X0139192*
X0139446Y01714099*
X00799919Y01844919D02*
X00802459Y01849999D01*
X00799919Y01855079*
X00804999Y01852539*
X00810079Y01855079*
X00807539Y01849999*
X00810079Y01844919*
X00804999Y01847459*
X00799919Y01844919*
X00852459Y01849459D02*
Y01846919D01*
X00857539*
Y01849459*
X00860079*
Y01854539*
X00857539*
Y01857079*
X00852459*
Y01854539*
X00849919*
Y01849459*
X00852459*
X00802459Y01900459D02*
Y01897919D01*
X00807539*
Y01900459*
X00810079*
Y01905539*
X00807539*
Y01908079*
X00802459*
Y01905539*
X00799919*
Y01900459*
X00802459*
X00752459Y01849459D02*
Y01846919D01*
X00757539*
Y01849459*
X00760079*
Y01854539*
X00757539*
Y01857079*
X00752459*
Y01854539*
X00749919*
Y01849459*
X00752459*
X00422459D02*
Y01846919D01*
X00427539*
Y01849459*
X00430079*
Y01854539*
X00427539*
Y01857079*
X00422459*
Y01854539*
X00419919*
Y01849459*
X00422459*
X00472459Y01900459D02*
Y01897919D01*
X00477539*
Y01900459*
X00480079*
Y01905539*
X00477539*
Y01908079*
X00472459*
Y01905539*
X00469919*
Y01900459*
X00472459*
X00522459Y01849459D02*
Y01846919D01*
X00527539*
Y01849459*
X00530079*
Y01854539*
X00527539*
Y01857079*
X00522459*
Y01854539*
X00519919*
Y01849459*
X00522459*
X00469919Y01844919D02*
X00472459Y01849999D01*
X00469919Y01855079*
X00474999Y01852539*
X00480079Y01855079*
X00477539Y01849999*
X00480079Y01844919*
X00474999Y01847459*
X00469919Y01844919*
X00634919D02*
X00637459Y01849999D01*
X00634919Y01855079*
X00639999Y01852539*
X00645079Y01855079*
X00642539Y01849999*
X00645079Y01844919*
X00639999Y01847459*
X00634919Y01844919*
X00687459Y01849459D02*
Y01846919D01*
X00692539*
Y01849459*
X00695079*
Y01854539*
X00692539*
Y01857079*
X00687459*
Y01854539*
X00684919*
Y01849459*
X00687459*
X00637459Y01900459D02*
Y01897919D01*
X00642539*
Y01900459*
X00645079*
Y01905539*
X00642539*
Y01908079*
X00637459*
Y01905539*
X00634919*
Y01900459*
X00637459*
X00587459Y01849459D02*
Y01846919D01*
X00592539*
Y01849459*
X00595079*
Y01854539*
X00592539*
Y01857079*
X00587459*
Y01854539*
X00584919*
Y01849459*
X00587459*
X00605779Y0004826D02*
X00600699Y0005842D01*
X00610859*
X00605779Y0004826*
X0145034Y0076454D02*
X0145288D01*
X0145542Y0076708*
X0145796Y0076454*
X014605*
Y0076708*
X0145796Y0076962*
X014605Y0077216*
Y007747*
X0145796*
X0145542Y0077216*
X0145288Y007747*
X0145034*
Y0077216*
X0145288Y0076962*
X0145034Y0076708*
Y0076454*
Y0078994D02*
X0145288D01*
X0145542Y0079248*
X0145796Y0078994*
X014605*
Y0079248*
X0145796Y0079502*
X014605Y0079756*
Y008001*
X0145796*
X0145542Y0079756*
X0145288Y008001*
X0145034*
Y0079756*
X0145288Y0079502*
X0145034Y0079248*
Y0078994*
Y0081534D02*
X0145288D01*
X0145542Y0081788*
X0145796Y0081534*
X014605*
Y0081788*
X0145796Y0082042*
X014605Y0082296*
Y008255*
X0145796*
X0145542Y0082296*
X0145288Y008255*
X0145034*
Y0082296*
X0145288Y0082042*
X0145034Y0081788*
Y0081534*
X015367Y00778519D02*
X0154178Y00783599D01*
X0154686Y00778519*
X0154178Y00773439*
X015367Y00778519*
Y00798519D02*
X0154178Y00803599D01*
X0154686Y00798519*
X0154178Y00793439*
X015367Y00798519*
Y00818519D02*
X0154178Y00823599D01*
X0154686Y00818519*
X0154178Y00813439*
X015367Y00818519*
Y00752439D02*
Y00762599D01*
X0154686*
Y00752439*
X015367*
X01538732Y00754471D02*
Y00760567D01*
X01544828*
Y00754471*
X01538732*
X015367Y00834439D02*
Y00844599D01*
X0154686*
Y00834439*
X015367*
X01538732Y00836471D02*
Y00842567D01*
X01544828*
Y00836471*
X01538732*
X0108712Y01686959D02*
X0108966Y01689499D01*
X010922*
X0108966Y01692039*
X010922Y01694579*
X0108966*
X0108712Y01697119*
X0108458Y01694579*
X0108204*
X0108458Y01692039*
X0108204Y01689499*
X0108458*
X0108712Y01686959*
Y0171196D02*
X0108966Y017145D01*
X010922*
X0108966Y0171704*
X010922Y0171958*
X0108966*
X0108712Y0172212*
X0108458Y0171958*
X0108204*
X0108458Y0171704*
X0108204Y017145*
X0108458*
X0108712Y0171196*
X01214279Y0145542D02*
X01216819Y0145796D01*
X01219359*
X01216819Y014605*
X01219359Y0146304*
X01216819*
X01214279Y0146558*
X01211739Y0146304*
X01209199*
X01211739Y014605*
X01209199Y0145796*
X01211739*
X01214279Y0145542*
X01234279D02*
X01236819Y0145796D01*
X01239359*
X01236819Y014605*
X01239359Y0146304*
X01236819*
X01234279Y0146558*
X01231739Y0146304*
X01229199*
X01231739Y014605*
X01229199Y0145796*
X01231739*
X01234279Y0145542*
X008382Y0149352D02*
Y0150368D01*
X0084836*
Y0149352*
X008382*
X00840232Y01495552D02*
Y01501648D01*
X00846328*
Y01495552*
X00840232*
X008382Y01411519D02*
Y01421679D01*
X0084836*
Y01411519*
X008382*
X00840232Y01413551D02*
Y01419647D01*
X00846328*
Y01413551*
X00840232*
X008382Y01477599D02*
X0084328Y01482679D01*
X0084836Y01477599*
X0084328Y01472519*
X008382Y01477599*
Y01457599D02*
X0084328Y01462679D01*
X0084836Y01457599*
X0084328Y01452519*
X008382Y01457599*
Y01437599D02*
X0084328Y01442679D01*
X0084836Y01437599*
X0084328Y01432519*
X008382Y01437599*
X00830179Y0173228D02*
X00832719Y0173482D01*
X00835259*
X00832719Y0173736*
X00835259Y017399*
X00832719*
X00830179Y0174244*
X00827639Y017399*
X00825099*
X00827639Y0173736*
X00825099Y0173482*
X00827639*
X00830179Y0173228*
X0080518D02*
X0080772Y0173482D01*
X0081026*
X0080772Y0173736*
X0081026Y017399*
X0080772*
X0080518Y0174244*
X0080264Y017399*
X008001*
X0080264Y0173736*
X008001Y0173482*
X0080264*
X0080518Y0173228*
X0083058Y015748D02*
X0083312Y0157734D01*
X0083566*
X0083312Y0157988*
X0083566Y0158242*
X0083312*
X0083058Y0158496*
X0082804Y0158242*
X008255*
X0082804Y0157988*
X008255Y0157734*
X0082804*
X0083058Y015748*
X00805579D02*
X00808119Y0157734D01*
X00810659*
X00808119Y0157988*
X00810659Y0158242*
X00808119*
X00805579Y0158496*
X00803039Y0158242*
X00800499*
X00803039Y0157988*
X00800499Y0157734*
X00803039*
X00805579Y015748*
X0124206Y01714099D02*
X012446Y01716639D01*
X0124714*
X012446Y01719179*
X0124714Y01721719*
X012446*
X0124206Y01724259*
X0123952Y01721719*
X0123698*
X0123952Y01719179*
X0123698Y01716639*
X0123952*
X0124206Y01714099*
Y016891D02*
X012446Y0169164D01*
X0124714*
X012446Y0169418*
X0124714Y0169672*
X012446*
X0124206Y0169926*
X0123952Y0169672*
X0123698*
X0123952Y0169418*
X0123698Y0169164*
X0123952*
X0124206Y016891*
X011684Y01791919D02*
X0116332Y01802079D01*
X0117348*
X011684Y01791919*
Y01793951D02*
X01165352Y01800047D01*
X01171448*
X011684Y01793951*
X0118745Y01842719D02*
X0118237Y01852879D01*
X0119253*
X0118745Y01842719*
Y01844751D02*
X01184402Y01850847D01*
X01190498*
X0118745Y01844751*
X012065Y01791919D02*
X0120142Y01802079D01*
X0121158*
X012065Y01791919*
Y01793951D02*
X01203452Y01800047D01*
X01209548*
X012065Y01793951*
X0122555Y01842719D02*
X0122047Y01852879D01*
X0123063*
X0122555Y01842719*
Y01844751D02*
X01222502Y01850847D01*
X01228598*
X0122555Y01844751*
X012446Y01791919D02*
X0123952Y01802079D01*
X0124968*
X012446Y01791919*
Y01793951D02*
X01241552Y01800047D01*
X01247648*
X012446Y01793951*
X0126365Y01842719D02*
X0125857Y01852879D01*
X0126873*
X0126365Y01842719*
Y01844751D02*
X01260602Y01850847D01*
X01266698*
X0126365Y01844751*
X012827Y01791919D02*
X0127762Y01802079D01*
X0128778*
X012827Y01791919*
Y01793951D02*
X01279652Y01800047D01*
X01285748*
X012827Y01793951*
X0130175Y01842719D02*
X0129667Y01852879D01*
X0130683*
X0130175Y01842719*
Y01844751D02*
X01298702Y01850847D01*
X01304798*
X0130175Y01844751*
X013208Y01791919D02*
X0131572Y01802079D01*
X0132588*
X013208Y01791919*
Y01793951D02*
X01317752Y01800047D01*
X01323848*
X013208Y01793951*
X0133985Y01842719D02*
X0133477Y01852879D01*
X0134493*
X0133985Y01842719*
Y01844751D02*
X01336802Y01850847D01*
X01342898*
X0133985Y01844751*
X013589Y01791919D02*
X0135382Y01802079D01*
X0136398*
X013589Y01791919*
Y01793951D02*
X01355852Y01800047D01*
X01361948*
X013589Y01793951*
X0137795Y01842719D02*
X0137287Y01852879D01*
X0138303*
X0137795Y01842719*
Y01844751D02*
X01374902Y01850847D01*
X01380998*
X0137795Y01844751*
X01397Y01791919D02*
X0139192Y01802079D01*
X0140208*
X01397Y01791919*
Y01793951D02*
X01393952Y01800047D01*
X01400048*
X01397Y01793951*
X0141605Y01842719D02*
X0141097Y01852879D01*
X0142113*
X0141605Y01842719*
Y01844751D02*
X01413002Y01850847D01*
X01419098*
X0141605Y01844751*
X014351Y01791919D02*
X0143002Y01802079D01*
X0144018*
X014351Y01791919*
Y01793951D02*
X01432052Y01800047D01*
X01438148*
X014351Y01793951*
X0145415Y01842719D02*
X0144907Y01852879D01*
X0145923*
X0145415Y01842719*
Y01844751D02*
X01451102Y01850847D01*
X01457198*
X0145415Y01844751*
X014732Y01791919D02*
X0146812Y01802079D01*
X0147828*
X014732Y01791919*
Y01793951D02*
X01470152Y01800047D01*
X01476248*
X014732Y01793951*
X0149225Y01842719D02*
X0148717Y01852879D01*
X0149733*
X0149225Y01842719*
Y01844751D02*
X01489202Y01850847D01*
X01495298*
X0149225Y01844751*
X015113Y01791919D02*
X0150622Y01802079D01*
X0151638*
X015113Y01791919*
Y01793951D02*
X01508252Y01800047D01*
X01514348*
X015113Y01793951*
X0153035Y01842719D02*
X0152527Y01852879D01*
X0153543*
X0153035Y01842719*
Y01844751D02*
X01527302Y01850847D01*
X01533398*
X0153035Y01844751*
X015494Y01791919D02*
X0154432Y01802079D01*
X0155448*
X015494Y01791919*
Y01793951D02*
X01546352Y01800047D01*
X01552448*
X015494Y01793951*
X01623899Y01864719D02*
X01626439Y01867259D01*
X01628979*
X01626439Y01869799*
X01628979Y01872339*
X01626439*
X01623899Y01874879*
X01621359Y01872339*
X01618819*
X01621359Y01869799*
X01618819Y01867259*
X01621359*
X01623899Y01864719*
Y01866751D02*
X01625423Y01868275D01*
X01626947*
X01625423Y01869799*
X01626947Y01871323*
X01625423*
X01623899Y01872847*
X01622375Y01871323*
X01620851*
X01622375Y01869799*
X01620851Y01868275*
X01622375*
X01623899Y01866751*
X01093899Y01864719D02*
X01096439Y01867259D01*
X01098979*
X01096439Y01869799*
X01098979Y01872339*
X01096439*
X01093899Y01874879*
X01091359Y01872339*
X01088819*
X01091359Y01869799*
X01088819Y01867259*
X01091359*
X01093899Y01864719*
Y01866751D02*
X01095423Y01868275D01*
X01096947*
X01095423Y01869799*
X01096947Y01871323*
X01095423*
X01093899Y01872847*
X01092375Y01871323*
X01090851*
X01092375Y01869799*
X01090851Y01868275*
X01092375*
X01093899Y01866751*
X0044704Y0154432D02*
X0044958Y0154686D01*
X0045212*
X0044958Y015494*
X0045212Y0155194*
X0044958*
X0044704Y0155448*
X004445Y0155194*
X0044196*
X004445Y015494*
X0044196Y0154686*
X004445*
X0044704Y0154432*
Y01564319D02*
X0044958Y01566859D01*
X0045212*
X0044958Y01569399*
X0045212Y01571939*
X0044958*
X0044704Y01574479*
X004445Y01571939*
X0044196*
X004445Y01569399*
X0044196Y01566859*
X004445*
X0044704Y01564319*
X0043688Y0142494D02*
X0043942Y0142748D01*
X0044196*
X0043942Y0143002*
X0044196Y0143256*
X0043942*
X0043688Y014351*
X0043434Y0143256*
X004318*
X0043434Y0143002*
X004318Y0142748*
X0043434*
X0043688Y0142494*
X00456879D02*
X00459419Y0142748D01*
X00461959*
X00459419Y0143002*
X00461959Y0143256*
X00459419*
X00456879Y014351*
X00454339Y0143256*
X00451799*
X00454339Y0143002*
X00451799Y0142748*
X00454339*
X00456879Y0142494*
X0044704Y01498279D02*
X0044958Y01500819D01*
X0045212*
X0044958Y01503359*
X0045212Y01505899*
X0044958*
X0044704Y01508439*
X004445Y01505899*
X0044196*
X004445Y01503359*
X0044196Y01500819*
X004445*
X0044704Y01498279*
Y0147828D02*
X0044958Y0148082D01*
X0045212*
X0044958Y0148336*
X0045212Y014859*
X0044958*
X0044704Y0148844*
X004445Y014859*
X0044196*
X004445Y0148336*
X0044196Y0148082*
X004445*
X0044704Y0147828*
X00381Y0141478D02*
X0038354Y0141732D01*
X0038608*
X0038354Y0141986*
X0038608Y014224*
X0038354*
X00381Y0142494*
X0037846Y014224*
X0037592*
X0037846Y0141986*
X0037592Y0141732*
X0037846*
X00381Y0141478*
Y01434779D02*
X0038354Y01437319D01*
X0038608*
X0038354Y01439859*
X0038608Y01442399*
X0038354*
X00381Y01444939*
X0037846Y01442399*
X0037592*
X0037846Y01439859*
X0037592Y01437319*
X0037846*
X00381Y01434779*
X0064516Y01757479D02*
X006477Y01760019D01*
X0065024*
X006477Y01762559*
X0065024Y01765099*
X006477*
X0064516Y01767639*
X0064262Y01765099*
X0064008*
X0064262Y01762559*
X0064008Y01760019*
X0064262*
X0064516Y01757479*
Y01732479D02*
X006477Y01735019D01*
X0065024*
X006477Y01737559*
X0065024Y01740099*
X006477*
X0064516Y01742639*
X0064262Y01740099*
X0064008*
X0064262Y01737559*
X0064008Y01735019*
X0064262*
X0064516Y01732479*
X00558999Y0174498D02*
X00561539Y0174752D01*
X00564079*
X00561539Y0175006*
X00564079Y017526*
X00561539*
X00558999Y0175514*
X00556459Y017526*
X00553919*
X00556459Y0175006*
X00553919Y0174752*
X00556459*
X00558999Y0174498*
X00583999D02*
X00586539Y0174752D01*
X00589079*
X00586539Y0175006*
X00589079Y017526*
X00586539*
X00583999Y0175514*
X00581459Y017526*
X00578919*
X00581459Y0175006*
X00578919Y0174752*
X00581459*
X00583999Y0174498*
X00437199Y0161798D02*
X00439739Y0162052D01*
X00442279*
X00439739Y0162306*
X00442279Y016256*
X00439739*
X00437199Y0162814*
X00434659Y016256*
X00432119*
X00434659Y0162306*
X00432119Y0162052*
X00434659*
X00437199Y0161798*
X004572D02*
X0045974Y0162052D01*
X0046228*
X0045974Y0162306*
X0046228Y016256*
X0045974*
X004572Y0162814*
X0045466Y016256*
X0045212*
X0045466Y0162306*
X0045212Y0162052*
X0045466*
X004572Y0161798*
X00381Y0154432D02*
X0038354Y0154686D01*
X0038608*
X0038354Y015494*
X0038608Y0155194*
X0038354*
X00381Y0155448*
X0037846Y0155194*
X0037592*
X0037846Y015494*
X0037592Y0154686*
X0037846*
X00381Y0154432*
Y01564319D02*
X0038354Y01566859D01*
X0038608*
X0038354Y01569399*
X0038608Y01571939*
X0038354*
X00381Y01574479*
X0037846Y01571939*
X0037592*
X0037846Y01569399*
X0037592Y01566859*
X0037846*
X00381Y01564319*
X00855679Y0004826D02*
X00850599Y0005842D01*
X00860759*
X00855679Y0004826*
X01364659Y01269293D02*
X01367199Y01274373D01*
X01364659Y01279453*
X01369739Y01276913*
X01374819Y01279453*
X01372279Y01274373*
X01374819Y01269293*
X01369739Y01271833*
X01364659Y01269293*
X01366691Y01271325D02*
X01368215Y01274373D01*
X01366691Y01277421*
X01369739Y01275897*
X01372787Y01277421*
X01371263Y01274373*
X01372787Y01271325*
X01369739Y01272849*
X01366691Y01271325*
X00404359Y01269293D02*
X00406899Y01274373D01*
X00404359Y01279453*
X00409439Y01276913*
X00414519Y01279453*
X00411979Y01274373*
X00414519Y01269293*
X00409439Y01271833*
X00404359Y01269293*
X00406391Y01271325D02*
X00407915Y01274373D01*
X00406391Y01277421*
X00409439Y01275897*
X00412487Y01277421*
X00410963Y01274373*
X00412487Y01271325*
X00409439Y01272849*
X00406391Y01271325*
X00492359Y01297233D02*
Y01294693D01*
X00497439*
Y01297233*
X00499979*
Y01302313*
X00497439*
Y01304853*
X00492359*
Y01302313*
X00489819*
Y01297233*
X00492359*
X00493375Y01298249D02*
Y01296725D01*
X00496423*
Y01298249*
X00497947*
Y01301297*
X00496423*
Y01302821*
X00493375*
Y01301297*
X00491851*
Y01298249*
X00493375*
X00517759Y01297233D02*
Y01294693D01*
X00522839*
Y01297233*
X00525379*
Y01302313*
X00522839*
Y01304853*
X00517759*
Y01302313*
X00515219*
Y01297233*
X00517759*
X00518775Y01298249D02*
Y01296725D01*
X00521823*
Y01298249*
X00523347*
Y01301297*
X00521823*
Y01302821*
X00518775*
Y01301297*
X00517251*
Y01298249*
X00518775*
X00543159Y01297233D02*
Y01294693D01*
X00548239*
Y01297233*
X00550779*
Y01302313*
X00548239*
Y01304853*
X00543159*
Y01302313*
X00540619*
Y01297233*
X00543159*
X00544175Y01298249D02*
Y01296725D01*
X00547223*
Y01298249*
X00548747*
Y01301297*
X00547223*
Y01302821*
X00544175*
Y01301297*
X00542651*
Y01298249*
X00544175*
X00568559Y01297233D02*
Y01294693D01*
X00573639*
Y01297233*
X00576179*
Y01302313*
X00573639*
Y01304853*
X00568559*
Y01302313*
X00566019*
Y01297233*
X00568559*
X00569575Y01298249D02*
Y01296725D01*
X00572623*
Y01298249*
X00574147*
Y01301297*
X00572623*
Y01302821*
X00569575*
Y01301297*
X00568051*
Y01298249*
X00569575*
X00593959Y01297233D02*
Y01294693D01*
X00599039*
Y01297233*
X00601579*
Y01302313*
X00599039*
Y01304853*
X00593959*
Y01302313*
X00591419*
Y01297233*
X00593959*
X00594975Y01298249D02*
Y01296725D01*
X00598023*
Y01298249*
X00599547*
Y01301297*
X00598023*
Y01302821*
X00594975*
Y01301297*
X00593451*
Y01298249*
X00594975*
X00619359Y01297233D02*
Y01294693D01*
X00624439*
Y01297233*
X00626979*
Y01302313*
X00624439*
Y01304853*
X00619359*
Y01302313*
X00616819*
Y01297233*
X00619359*
X00620375Y01298249D02*
Y01296725D01*
X00623423*
Y01298249*
X00624947*
Y01301297*
X00623423*
Y01302821*
X00620375*
Y01301297*
X00618851*
Y01298249*
X00620375*
X00644759Y01297233D02*
Y01294693D01*
X00649839*
Y01297233*
X00652379*
Y01302313*
X00649839*
Y01304853*
X00644759*
Y01302313*
X00642219*
Y01297233*
X00644759*
X00645775Y01298249D02*
Y01296725D01*
X00648823*
Y01298249*
X00650347*
Y01301297*
X00648823*
Y01302821*
X00645775*
Y01301297*
X00644251*
Y01298249*
X00645775*
X00670159Y01297233D02*
Y01294693D01*
X00675239*
Y01297233*
X00677779*
Y01302313*
X00675239*
Y01304853*
X00670159*
Y01302313*
X00667619*
Y01297233*
X00670159*
X00671175Y01298249D02*
Y01296725D01*
X00674223*
Y01298249*
X00675747*
Y01301297*
X00674223*
Y01302821*
X00671175*
Y01301297*
X00669651*
Y01298249*
X00671175*
X00695559Y01297233D02*
Y01294693D01*
X00700639*
Y01297233*
X00703179*
Y01302313*
X00700639*
Y01304853*
X00695559*
Y01302313*
X00693019*
Y01297233*
X00695559*
X00696575Y01298249D02*
Y01296725D01*
X00699623*
Y01298249*
X00701147*
Y01301297*
X00699623*
Y01302821*
X00696575*
Y01301297*
X00695051*
Y01298249*
X00696575*
X00720959Y01297233D02*
Y01294693D01*
X00726039*
Y01297233*
X00728579*
Y01302313*
X00726039*
Y01304853*
X00720959*
Y01302313*
X00718419*
Y01297233*
X00720959*
X00721975Y01298249D02*
Y01296725D01*
X00725023*
Y01298249*
X00726547*
Y01301297*
X00725023*
Y01302821*
X00721975*
Y01301297*
X00720451*
Y01298249*
X00721975*
X00746359Y01297233D02*
Y01294693D01*
X00751439*
Y01297233*
X00753979*
Y01302313*
X00751439*
Y01304853*
X00746359*
Y01302313*
X00743819*
Y01297233*
X00746359*
X00747375Y01298249D02*
Y01296725D01*
X00750423*
Y01298249*
X00751947*
Y01301297*
X00750423*
Y01302821*
X00747375*
Y01301297*
X00745851*
Y01298249*
X00747375*
X00771759Y01297233D02*
Y01294693D01*
X00776839*
Y01297233*
X00779379*
Y01302313*
X00776839*
Y01304853*
X00771759*
Y01302313*
X00769219*
Y01297233*
X00771759*
X00772775Y01298249D02*
Y01296725D01*
X00775823*
Y01298249*
X00777347*
Y01301297*
X00775823*
Y01302821*
X00772775*
Y01301297*
X00771251*
Y01298249*
X00772775*
X00797159Y01297233D02*
Y01294693D01*
X00802239*
Y01297233*
X00804779*
Y01302313*
X00802239*
Y01304853*
X00797159*
Y01302313*
X00794619*
Y01297233*
X00797159*
X00798175Y01298249D02*
Y01296725D01*
X00801223*
Y01298249*
X00802747*
Y01301297*
X00801223*
Y01302821*
X00798175*
Y01301297*
X00796651*
Y01298249*
X00798175*
X00822559Y01297233D02*
Y01294693D01*
X00827639*
Y01297233*
X00830179*
Y01302313*
X00827639*
Y01304853*
X00822559*
Y01302313*
X00820019*
Y01297233*
X00822559*
X00823575Y01298249D02*
Y01296725D01*
X00826623*
Y01298249*
X00828147*
Y01301297*
X00826623*
Y01302821*
X00823575*
Y01301297*
X00822051*
Y01298249*
X00823575*
X00847959Y01297233D02*
Y01294693D01*
X00853039*
Y01297233*
X00855579*
Y01302313*
X00853039*
Y01304853*
X00847959*
Y01302313*
X00845419*
Y01297233*
X00847959*
X00848975Y01298249D02*
Y01296725D01*
X00852023*
Y01298249*
X00853547*
Y01301297*
X00852023*
Y01302821*
X00848975*
Y01301297*
X00847451*
Y01298249*
X00848975*
X00873359Y01297233D02*
Y01294693D01*
X00878439*
Y01297233*
X00880979*
Y01302313*
X00878439*
Y01304853*
X00873359*
Y01302313*
X00870819*
Y01297233*
X00873359*
X00874375Y01298249D02*
Y01296725D01*
X00877423*
Y01298249*
X00878947*
Y01301297*
X00877423*
Y01302821*
X00874375*
Y01301297*
X00872851*
Y01298249*
X00874375*
X00898759Y01297233D02*
Y01294693D01*
X00903839*
Y01297233*
X00906379*
Y01302313*
X00903839*
Y01304853*
X00898759*
Y01302313*
X00896219*
Y01297233*
X00898759*
X00899775Y01298249D02*
Y01296725D01*
X00902823*
Y01298249*
X00904347*
Y01301297*
X00902823*
Y01302821*
X00899775*
Y01301297*
X00898251*
Y01298249*
X00899775*
X00924159Y01297233D02*
Y01294693D01*
X00929239*
Y01297233*
X00931779*
Y01302313*
X00929239*
Y01304853*
X00924159*
Y01302313*
X00921619*
Y01297233*
X00924159*
X00925175Y01298249D02*
Y01296725D01*
X00928223*
Y01298249*
X00929747*
Y01301297*
X00928223*
Y01302821*
X00925175*
Y01301297*
X00923651*
Y01298249*
X00925175*
X00949559Y01297233D02*
Y01294693D01*
X00954639*
Y01297233*
X00957179*
Y01302313*
X00954639*
Y01304853*
X00949559*
Y01302313*
X00947019*
Y01297233*
X00949559*
X00950575Y01298249D02*
Y01296725D01*
X00953623*
Y01298249*
X00955147*
Y01301297*
X00953623*
Y01302821*
X00950575*
Y01301297*
X00949051*
Y01298249*
X00950575*
X00974959Y01297233D02*
Y01294693D01*
X00980039*
Y01297233*
X00982579*
Y01302313*
X00980039*
Y01304853*
X00974959*
Y01302313*
X00972419*
Y01297233*
X00974959*
X00975975Y01298249D02*
Y01296725D01*
X00979023*
Y01298249*
X00980547*
Y01301297*
X00979023*
Y01302821*
X00975975*
Y01301297*
X00974451*
Y01298249*
X00975975*
X01000359Y01297233D02*
Y01294693D01*
X01005439*
Y01297233*
X01007979*
Y01302313*
X01005439*
Y01304853*
X01000359*
Y01302313*
X00997819*
Y01297233*
X01000359*
X01001375Y01298249D02*
Y01296725D01*
X01004423*
Y01298249*
X01005947*
Y01301297*
X01004423*
Y01302821*
X01001375*
Y01301297*
X00999851*
Y01298249*
X01001375*
X01025759Y01297233D02*
Y01294693D01*
X01030839*
Y01297233*
X01033379*
Y01302313*
X01030839*
Y01304853*
X01025759*
Y01302313*
X01023219*
Y01297233*
X01025759*
X01026775Y01298249D02*
Y01296725D01*
X01029823*
Y01298249*
X01031347*
Y01301297*
X01029823*
Y01302821*
X01026775*
Y01301297*
X01025251*
Y01298249*
X01026775*
X01051159Y01297233D02*
Y01294693D01*
X01056239*
Y01297233*
X01058779*
Y01302313*
X01056239*
Y01304853*
X01051159*
Y01302313*
X01048619*
Y01297233*
X01051159*
X01052175Y01298249D02*
Y01296725D01*
X01055223*
Y01298249*
X01056747*
Y01301297*
X01055223*
Y01302821*
X01052175*
Y01301297*
X01050651*
Y01298249*
X01052175*
X01076559Y01297233D02*
Y01294693D01*
X01081639*
Y01297233*
X01084179*
Y01302313*
X01081639*
Y01304853*
X01076559*
Y01302313*
X01074019*
Y01297233*
X01076559*
X01077575Y01298249D02*
Y01296725D01*
X01080623*
Y01298249*
X01082147*
Y01301297*
X01080623*
Y01302821*
X01077575*
Y01301297*
X01076051*
Y01298249*
X01077575*
X01101959Y01297233D02*
Y01294693D01*
X01107039*
Y01297233*
X01109579*
Y01302313*
X01107039*
Y01304853*
X01101959*
Y01302313*
X01099419*
Y01297233*
X01101959*
X01102975Y01298249D02*
Y01296725D01*
X01106023*
Y01298249*
X01107547*
Y01301297*
X01106023*
Y01302821*
X01102975*
Y01301297*
X01101451*
Y01298249*
X01102975*
X01127359Y01297233D02*
Y01294693D01*
X01132439*
Y01297233*
X01134979*
Y01302313*
X01132439*
Y01304853*
X01127359*
Y01302313*
X01124819*
Y01297233*
X01127359*
X01128375Y01298249D02*
Y01296725D01*
X01131423*
Y01298249*
X01132947*
Y01301297*
X01131423*
Y01302821*
X01128375*
Y01301297*
X01126851*
Y01298249*
X01128375*
X01152759Y01297233D02*
Y01294693D01*
X01157839*
Y01297233*
X01160379*
Y01302313*
X01157839*
Y01304853*
X01152759*
Y01302313*
X01150219*
Y01297233*
X01152759*
X01153775Y01298249D02*
Y01296725D01*
X01156823*
Y01298249*
X01158347*
Y01301297*
X01156823*
Y01302821*
X01153775*
Y01301297*
X01152251*
Y01298249*
X01153775*
X01178159Y01297233D02*
Y01294693D01*
X01183239*
Y01297233*
X01185779*
Y01302313*
X01183239*
Y01304853*
X01178159*
Y01302313*
X01175619*
Y01297233*
X01178159*
X01179175Y01298249D02*
Y01296725D01*
X01182223*
Y01298249*
X01183747*
Y01301297*
X01182223*
Y01302821*
X01179175*
Y01301297*
X01177651*
Y01298249*
X01179175*
X01203559Y01297233D02*
Y01294693D01*
X01208639*
Y01297233*
X01211179*
Y01302313*
X01208639*
Y01304853*
X01203559*
Y01302313*
X01201019*
Y01297233*
X01203559*
X01204575Y01298249D02*
Y01296725D01*
X01207623*
Y01298249*
X01209147*
Y01301297*
X01207623*
Y01302821*
X01204575*
Y01301297*
X01203051*
Y01298249*
X01204575*
X01228959Y01297233D02*
Y01294693D01*
X01234039*
Y01297233*
X01236579*
Y01302313*
X01234039*
Y01304853*
X01228959*
Y01302313*
X01226419*
Y01297233*
X01228959*
X01229975Y01298249D02*
Y01296725D01*
X01233023*
Y01298249*
X01234547*
Y01301297*
X01233023*
Y01302821*
X01229975*
Y01301297*
X01228451*
Y01298249*
X01229975*
X01254359Y01297233D02*
Y01294693D01*
X01259439*
Y01297233*
X01261979*
Y01302313*
X01259439*
Y01304853*
X01254359*
Y01302313*
X01251819*
Y01297233*
X01254359*
X01255375Y01298249D02*
Y01296725D01*
X01258423*
Y01298249*
X01259947*
Y01301297*
X01258423*
Y01302821*
X01255375*
Y01301297*
X01253851*
Y01298249*
X01255375*
X01279759Y01297233D02*
Y01294693D01*
X01284839*
Y01297233*
X01287379*
Y01302313*
X01284839*
Y01304853*
X01279759*
Y01302313*
X01277219*
Y01297233*
X01279759*
X01280775Y01298249D02*
Y01296725D01*
X01283823*
Y01298249*
X01285347*
Y01301297*
X01283823*
Y01302821*
X01280775*
Y01301297*
X01279251*
Y01298249*
X01280775*
X01279759Y01246433D02*
Y01243893D01*
X01284839*
Y01246433*
X01287379*
Y01251513*
X01284839*
Y01254053*
X01279759*
Y01251513*
X01277219*
Y01246433*
X01279759*
X01280775Y01247449D02*
Y01245925D01*
X01283823*
Y01247449*
X01285347*
Y01250497*
X01283823*
Y01252021*
X01280775*
Y01250497*
X01279251*
Y01247449*
X01280775*
X01254359Y01246433D02*
Y01243893D01*
X01259439*
Y01246433*
X01261979*
Y01251513*
X01259439*
Y01254053*
X01254359*
Y01251513*
X01251819*
Y01246433*
X01254359*
X01255375Y01247449D02*
Y01245925D01*
X01258423*
Y01247449*
X01259947*
Y01250497*
X01258423*
Y01252021*
X01255375*
Y01250497*
X01253851*
Y01247449*
X01255375*
X01228959Y01246433D02*
Y01243893D01*
X01234039*
Y01246433*
X01236579*
Y01251513*
X01234039*
Y01254053*
X01228959*
Y01251513*
X01226419*
Y01246433*
X01228959*
X01229975Y01247449D02*
Y01245925D01*
X01233023*
Y01247449*
X01234547*
Y01250497*
X01233023*
Y01252021*
X01229975*
Y01250497*
X01228451*
Y01247449*
X01229975*
X01203559Y01246433D02*
Y01243893D01*
X01208639*
Y01246433*
X01211179*
Y01251513*
X01208639*
Y01254053*
X01203559*
Y01251513*
X01201019*
Y01246433*
X01203559*
X01204575Y01247449D02*
Y01245925D01*
X01207623*
Y01247449*
X01209147*
Y01250497*
X01207623*
Y01252021*
X01204575*
Y01250497*
X01203051*
Y01247449*
X01204575*
X01178159Y01246433D02*
Y01243893D01*
X01183239*
Y01246433*
X01185779*
Y01251513*
X01183239*
Y01254053*
X01178159*
Y01251513*
X01175619*
Y01246433*
X01178159*
X01179175Y01247449D02*
Y01245925D01*
X01182223*
Y01247449*
X01183747*
Y01250497*
X01182223*
Y01252021*
X01179175*
Y01250497*
X01177651*
Y01247449*
X01179175*
X01152759Y01246433D02*
Y01243893D01*
X01157839*
Y01246433*
X01160379*
Y01251513*
X01157839*
Y01254053*
X01152759*
Y01251513*
X01150219*
Y01246433*
X01152759*
X01153775Y01247449D02*
Y01245925D01*
X01156823*
Y01247449*
X01158347*
Y01250497*
X01156823*
Y01252021*
X01153775*
Y01250497*
X01152251*
Y01247449*
X01153775*
X01127359Y01246433D02*
Y01243893D01*
X01132439*
Y01246433*
X01134979*
Y01251513*
X01132439*
Y01254053*
X01127359*
Y01251513*
X01124819*
Y01246433*
X01127359*
X01128375Y01247449D02*
Y01245925D01*
X01131423*
Y01247449*
X01132947*
Y01250497*
X01131423*
Y01252021*
X01128375*
Y01250497*
X01126851*
Y01247449*
X01128375*
X01101959Y01246433D02*
Y01243893D01*
X01107039*
Y01246433*
X01109579*
Y01251513*
X01107039*
Y01254053*
X01101959*
Y01251513*
X01099419*
Y01246433*
X01101959*
X01102975Y01247449D02*
Y01245925D01*
X01106023*
Y01247449*
X01107547*
Y01250497*
X01106023*
Y01252021*
X01102975*
Y01250497*
X01101451*
Y01247449*
X01102975*
X01076559Y01246433D02*
Y01243893D01*
X01081639*
Y01246433*
X01084179*
Y01251513*
X01081639*
Y01254053*
X01076559*
Y01251513*
X01074019*
Y01246433*
X01076559*
X01077575Y01247449D02*
Y01245925D01*
X01080623*
Y01247449*
X01082147*
Y01250497*
X01080623*
Y01252021*
X01077575*
Y01250497*
X01076051*
Y01247449*
X01077575*
X01051159Y01246433D02*
Y01243893D01*
X01056239*
Y01246433*
X01058779*
Y01251513*
X01056239*
Y01254053*
X01051159*
Y01251513*
X01048619*
Y01246433*
X01051159*
X01052175Y01247449D02*
Y01245925D01*
X01055223*
Y01247449*
X01056747*
Y01250497*
X01055223*
Y01252021*
X01052175*
Y01250497*
X01050651*
Y01247449*
X01052175*
X01025759Y01246433D02*
Y01243893D01*
X01030839*
Y01246433*
X01033379*
Y01251513*
X01030839*
Y01254053*
X01025759*
Y01251513*
X01023219*
Y01246433*
X01025759*
X01026775Y01247449D02*
Y01245925D01*
X01029823*
Y01247449*
X01031347*
Y01250497*
X01029823*
Y01252021*
X01026775*
Y01250497*
X01025251*
Y01247449*
X01026775*
X01000359Y01246433D02*
Y01243893D01*
X01005439*
Y01246433*
X01007979*
Y01251513*
X01005439*
Y01254053*
X01000359*
Y01251513*
X00997819*
Y01246433*
X01000359*
X01001375Y01247449D02*
Y01245925D01*
X01004423*
Y01247449*
X01005947*
Y01250497*
X01004423*
Y01252021*
X01001375*
Y01250497*
X00999851*
Y01247449*
X01001375*
X00974959Y01246433D02*
Y01243893D01*
X00980039*
Y01246433*
X00982579*
Y01251513*
X00980039*
Y01254053*
X00974959*
Y01251513*
X00972419*
Y01246433*
X00974959*
X00975975Y01247449D02*
Y01245925D01*
X00979023*
Y01247449*
X00980547*
Y01250497*
X00979023*
Y01252021*
X00975975*
Y01250497*
X00974451*
Y01247449*
X00975975*
X00949559Y01246433D02*
Y01243893D01*
X00954639*
Y01246433*
X00957179*
Y01251513*
X00954639*
Y01254053*
X00949559*
Y01251513*
X00947019*
Y01246433*
X00949559*
X00950575Y01247449D02*
Y01245925D01*
X00953623*
Y01247449*
X00955147*
Y01250497*
X00953623*
Y01252021*
X00950575*
Y01250497*
X00949051*
Y01247449*
X00950575*
X00924159Y01246433D02*
Y01243893D01*
X00929239*
Y01246433*
X00931779*
Y01251513*
X00929239*
Y01254053*
X00924159*
Y01251513*
X00921619*
Y01246433*
X00924159*
X00925175Y01247449D02*
Y01245925D01*
X00928223*
Y01247449*
X00929747*
Y01250497*
X00928223*
Y01252021*
X00925175*
Y01250497*
X00923651*
Y01247449*
X00925175*
X00898759Y01246433D02*
Y01243893D01*
X00903839*
Y01246433*
X00906379*
Y01251513*
X00903839*
Y01254053*
X00898759*
Y01251513*
X00896219*
Y01246433*
X00898759*
X00899775Y01247449D02*
Y01245925D01*
X00902823*
Y01247449*
X00904347*
Y01250497*
X00902823*
Y01252021*
X00899775*
Y01250497*
X00898251*
Y01247449*
X00899775*
X00873359Y01246433D02*
Y01243893D01*
X00878439*
Y01246433*
X00880979*
Y01251513*
X00878439*
Y01254053*
X00873359*
Y01251513*
X00870819*
Y01246433*
X00873359*
X00874375Y01247449D02*
Y01245925D01*
X00877423*
Y01247449*
X00878947*
Y01250497*
X00877423*
Y01252021*
X00874375*
Y01250497*
X00872851*
Y01247449*
X00874375*
X00847959Y01246433D02*
Y01243893D01*
X00853039*
Y01246433*
X00855579*
Y01251513*
X00853039*
Y01254053*
X00847959*
Y01251513*
X00845419*
Y01246433*
X00847959*
X00848975Y01247449D02*
Y01245925D01*
X00852023*
Y01247449*
X00853547*
Y01250497*
X00852023*
Y01252021*
X00848975*
Y01250497*
X00847451*
Y01247449*
X00848975*
X00822559Y01246433D02*
Y01243893D01*
X00827639*
Y01246433*
X00830179*
Y01251513*
X00827639*
Y01254053*
X00822559*
Y01251513*
X00820019*
Y01246433*
X00822559*
X00823575Y01247449D02*
Y01245925D01*
X00826623*
Y01247449*
X00828147*
Y01250497*
X00826623*
Y01252021*
X00823575*
Y01250497*
X00822051*
Y01247449*
X00823575*
X00797159Y01246433D02*
Y01243893D01*
X00802239*
Y01246433*
X00804779*
Y01251513*
X00802239*
Y01254053*
X00797159*
Y01251513*
X00794619*
Y01246433*
X00797159*
X00798175Y01247449D02*
Y01245925D01*
X00801223*
Y01247449*
X00802747*
Y01250497*
X00801223*
Y01252021*
X00798175*
Y01250497*
X00796651*
Y01247449*
X00798175*
X00771759Y01246433D02*
Y01243893D01*
X00776839*
Y01246433*
X00779379*
Y01251513*
X00776839*
Y01254053*
X00771759*
Y01251513*
X00769219*
Y01246433*
X00771759*
X00772775Y01247449D02*
Y01245925D01*
X00775823*
Y01247449*
X00777347*
Y01250497*
X00775823*
Y01252021*
X00772775*
Y01250497*
X00771251*
Y01247449*
X00772775*
X00746359Y01246433D02*
Y01243893D01*
X00751439*
Y01246433*
X00753979*
Y01251513*
X00751439*
Y01254053*
X00746359*
Y01251513*
X00743819*
Y01246433*
X00746359*
X00747375Y01247449D02*
Y01245925D01*
X00750423*
Y01247449*
X00751947*
Y01250497*
X00750423*
Y01252021*
X00747375*
Y01250497*
X00745851*
Y01247449*
X00747375*
X00720959Y01246433D02*
Y01243893D01*
X00726039*
Y01246433*
X00728579*
Y01251513*
X00726039*
Y01254053*
X00720959*
Y01251513*
X00718419*
Y01246433*
X00720959*
X00721975Y01247449D02*
Y01245925D01*
X00725023*
Y01247449*
X00726547*
Y01250497*
X00725023*
Y01252021*
X00721975*
Y01250497*
X00720451*
Y01247449*
X00721975*
X00695559Y01246433D02*
Y01243893D01*
X00700639*
Y01246433*
X00703179*
Y01251513*
X00700639*
Y01254053*
X00695559*
Y01251513*
X00693019*
Y01246433*
X00695559*
X00696575Y01247449D02*
Y01245925D01*
X00699623*
Y01247449*
X00701147*
Y01250497*
X00699623*
Y01252021*
X00696575*
Y01250497*
X00695051*
Y01247449*
X00696575*
X00670159Y01246433D02*
Y01243893D01*
X00675239*
Y01246433*
X00677779*
Y01251513*
X00675239*
Y01254053*
X00670159*
Y01251513*
X00667619*
Y01246433*
X00670159*
X00671175Y01247449D02*
Y01245925D01*
X00674223*
Y01247449*
X00675747*
Y01250497*
X00674223*
Y01252021*
X00671175*
Y01250497*
X00669651*
Y01247449*
X00671175*
X00644759Y01246433D02*
Y01243893D01*
X00649839*
Y01246433*
X00652379*
Y01251513*
X00649839*
Y01254053*
X00644759*
Y01251513*
X00642219*
Y01246433*
X00644759*
X00645775Y01247449D02*
Y01245925D01*
X00648823*
Y01247449*
X00650347*
Y01250497*
X00648823*
Y01252021*
X00645775*
Y01250497*
X00644251*
Y01247449*
X00645775*
X00619359Y01246433D02*
Y01243893D01*
X00624439*
Y01246433*
X00626979*
Y01251513*
X00624439*
Y01254053*
X00619359*
Y01251513*
X00616819*
Y01246433*
X00619359*
X00620375Y01247449D02*
Y01245925D01*
X00623423*
Y01247449*
X00624947*
Y01250497*
X00623423*
Y01252021*
X00620375*
Y01250497*
X00618851*
Y01247449*
X00620375*
X00593959Y01246433D02*
Y01243893D01*
X00599039*
Y01246433*
X00601579*
Y01251513*
X00599039*
Y01254053*
X00593959*
Y01251513*
X00591419*
Y01246433*
X00593959*
X00594975Y01247449D02*
Y01245925D01*
X00598023*
Y01247449*
X00599547*
Y01250497*
X00598023*
Y01252021*
X00594975*
Y01250497*
X00593451*
Y01247449*
X00594975*
X00568559Y01246433D02*
Y01243893D01*
X00573639*
Y01246433*
X00576179*
Y01251513*
X00573639*
Y01254053*
X00568559*
Y01251513*
X00566019*
Y01246433*
X00568559*
X00569575Y01247449D02*
Y01245925D01*
X00572623*
Y01247449*
X00574147*
Y01250497*
X00572623*
Y01252021*
X00569575*
Y01250497*
X00568051*
Y01247449*
X00569575*
X00543159Y01246433D02*
Y01243893D01*
X00548239*
Y01246433*
X00550779*
Y01251513*
X00548239*
Y01254053*
X00543159*
Y01251513*
X00540619*
Y01246433*
X00543159*
X00544175Y01247449D02*
Y01245925D01*
X00547223*
Y01247449*
X00548747*
Y01250497*
X00547223*
Y01252021*
X00544175*
Y01250497*
X00542651*
Y01247449*
X00544175*
X00517759Y01246433D02*
Y01243893D01*
X00522839*
Y01246433*
X00525379*
Y01251513*
X00522839*
Y01254053*
X00517759*
Y01251513*
X00515219*
Y01246433*
X00517759*
X00518775Y01247449D02*
Y01245925D01*
X00521823*
Y01247449*
X00523347*
Y01250497*
X00521823*
Y01252021*
X00518775*
Y01250497*
X00517251*
Y01247449*
X00518775*
X00492359Y01246433D02*
Y01243893D01*
X00497439*
Y01246433*
X00499979*
Y01251513*
X00497439*
Y01254053*
X00492359*
Y01251513*
X00489819*
Y01246433*
X00492359*
X00493375Y01247449D02*
Y01245925D01*
X00496423*
Y01247449*
X00497947*
Y01250497*
X00496423*
Y01252021*
X00493375*
Y01250497*
X00491851*
Y01247449*
X00493375*
X00934089Y01850089D02*
X00936629D01*
X00939169Y01852629*
X00941709Y01850089*
X00944249*
Y01852629*
X00941709Y01855169*
X00944249Y01857709*
Y01860249*
X00941709*
X00939169Y01857709*
X00936629Y01860249*
X00934089*
Y01857709*
X00936629Y01855169*
X00934089Y01852629*
Y01850089*
X00936121Y01852121D02*
X00937645D01*
X00939169Y01853645*
X00940693Y01852121*
X00942217*
Y01853645*
X00940693Y01855169*
X00942217Y01856693*
Y01858217*
X00940693*
X00939169Y01856693*
X00937645Y01858217*
X00936121*
Y01856693*
X00937645Y01855169*
X00936121Y01853645*
Y01852121*
X0097409Y01850089D02*
X0097663D01*
X0097917Y01852629*
X0098171Y01850089*
X0098425*
Y01852629*
X0098171Y01855169*
X0098425Y01857709*
Y01860249*
X0098171*
X0097917Y01857709*
X0097663Y01860249*
X0097409*
Y01857709*
X0097663Y01855169*
X0097409Y01852629*
Y01850089*
X00976122Y01852121D02*
X00977646D01*
X0097917Y01853645*
X00980694Y01852121*
X00982218*
Y01853645*
X00980694Y01855169*
X00982218Y01856693*
Y01858217*
X00980694*
X0097917Y01856693*
X00977646Y01858217*
X00976122*
Y01856693*
X00977646Y01855169*
X00976122Y01853645*
Y01852121*
X0097917Y01918169D02*
Y01926633D01*
X00983401Y01930865*
X00987633Y01926633*
Y01918169*
Y01924517*
X0097917*
X00961089Y01875089D02*
X00963629D01*
X00966169Y01877629*
X00968709Y01875089*
X00971249*
Y01877629*
X00968709Y01880169*
X00971249Y01882709*
Y01885249*
X00968709*
X00966169Y01882709*
X00963629Y01885249*
X00961089*
Y01882709*
X00963629Y01880169*
X00961089Y01877629*
Y01875089*
X00963121Y01877121D02*
X00964645D01*
X00966169Y01878645*
X00967693Y01877121*
X00969217*
Y01878645*
X00967693Y01880169*
X00969217Y01881693*
Y01883217*
X00967693*
X00966169Y01881693*
X00964645Y01883217*
X00963121*
Y01881693*
X00964645Y01880169*
X00963121Y01878645*
Y01877121*
X00981089Y01875089D02*
X00983629D01*
X00986169Y01877629*
X00988709Y01875089*
X00991249*
Y01877629*
X00988709Y01880169*
X00991249Y01882709*
Y01885249*
X00988709*
X00986169Y01882709*
X00983629Y01885249*
X00981089*
Y01882709*
X00983629Y01880169*
X00981089Y01877629*
Y01875089*
X00983121Y01877121D02*
X00984645D01*
X00986169Y01878645*
X00987693Y01877121*
X00989217*
Y01878645*
X00987693Y01880169*
X00989217Y01881693*
Y01883217*
X00987693*
X00986169Y01881693*
X00984645Y01883217*
X00983121*
Y01881693*
X00984645Y01880169*
X00983121Y01878645*
Y01877121*
X01014089Y01875089D02*
X01016629D01*
X01019169Y01877629*
X01021709Y01875089*
X01024249*
Y01877629*
X01021709Y01880169*
X01024249Y01882709*
Y01885249*
X01021709*
X01019169Y01882709*
X01016629Y01885249*
X01014089*
Y01882709*
X01016629Y01880169*
X01014089Y01877629*
Y01875089*
X01016121Y01877121D02*
X01017645D01*
X01019169Y01878645*
X01020693Y01877121*
X01022217*
Y01878645*
X01020693Y01880169*
X01022217Y01881693*
Y01883217*
X01020693*
X01019169Y01881693*
X01017645Y01883217*
X01016121*
Y01881693*
X01017645Y01880169*
X01016121Y01878645*
Y01877121*
X00934089Y01875089D02*
X00936629D01*
X00939169Y01877629*
X00941709Y01875089*
X00944249*
Y01877629*
X00941709Y01880169*
X00944249Y01882709*
Y01885249*
X00941709*
X00939169Y01882709*
X00936629Y01885249*
X00934089*
Y01882709*
X00936629Y01880169*
X00934089Y01877629*
Y01875089*
X00936121Y01877121D02*
X00937645D01*
X00939169Y01878645*
X00940693Y01877121*
X00942217*
Y01878645*
X00940693Y01880169*
X00942217Y01881693*
Y01883217*
X00940693*
X00939169Y01881693*
X00937645Y01883217*
X00936121*
Y01881693*
X00937645Y01880169*
X00936121Y01878645*
Y01877121*
X00994089Y01850089D02*
X00996629D01*
X00999169Y01852629*
X01001709Y01850089*
X01004249*
Y01852629*
X01001709Y01855169*
X01004249Y01857709*
Y01860249*
X01001709*
X00999169Y01857709*
X00996629Y01860249*
X00994089*
Y01857709*
X00996629Y01855169*
X00994089Y01852629*
Y01850089*
X00996121Y01852121D02*
X00997645D01*
X00999169Y01853645*
X01000693Y01852121*
X01002217*
Y01853645*
X01000693Y01855169*
X01002217Y01856693*
Y01858217*
X01000693*
X00999169Y01856693*
X00997645Y01858217*
X00996121*
Y01856693*
X00997645Y01855169*
X00996121Y01853645*
Y01852121*
X00954089Y01850089D02*
X00956629D01*
X00959169Y01852629*
X00961709Y01850089*
X00964249*
Y01852629*
X00961709Y01855169*
X00964249Y01857709*
Y01860249*
X00961709*
X00959169Y01857709*
X00956629Y01860249*
X00954089*
Y01857709*
X00956629Y01855169*
X00954089Y01852629*
Y01850089*
X00956121Y01852121D02*
X00957645D01*
X00959169Y01853645*
X00960693Y01852121*
X00962217*
Y01853645*
X00960693Y01855169*
X00962217Y01856693*
Y01858217*
X00960693*
X00959169Y01856693*
X00957645Y01858217*
X00956121*
Y01856693*
X00957645Y01855169*
X00956121Y01853645*
Y01852121*
X01014089Y01850089D02*
X01016629D01*
X01019169Y01852629*
X01021709Y01850089*
X01024249*
Y01852629*
X01021709Y01855169*
X01024249Y01857709*
Y01860249*
X01021709*
X01019169Y01857709*
X01016629Y01860249*
X01014089*
Y01857709*
X01016629Y01855169*
X01014089Y01852629*
Y01850089*
X01016121Y01852121D02*
X01017645D01*
X01019169Y01853645*
X01020693Y01852121*
X01022217*
Y01853645*
X01020693Y01855169*
X01022217Y01856693*
Y01858217*
X01020693*
X01019169Y01856693*
X01017645Y01858217*
X01016121*
Y01856693*
X01017645Y01855169*
X01016121Y01853645*
Y01852121*
X01256759Y00321305D02*
Y0030861D01*
X01263107*
X01265223Y00310725*
Y00312841*
X01263107Y00314957*
X01256759*
X01263107*
X01265223Y00317073*
Y00319189*
X01263107Y00321305*
X01256759*
X0138176D02*
Y0030861D01*
X01388107*
X01390223Y00310725*
Y00312841*
X01388107Y00314957*
X0138176*
X01388107*
X01390223Y00317073*
Y00319189*
X01388107Y00321305*
X0138176*
X01256759Y00271305D02*
Y00258609D01*
X01263107*
X01265223Y00260725*
Y00262841*
X01263107Y00264957*
X01256759*
X01263107*
X01265223Y00267073*
Y00269189*
X01263107Y00271305*
X01256759*
X0138176D02*
Y00258609D01*
X01388107*
X01390223Y00260725*
Y00262841*
X01388107Y00264957*
X0138176*
X01388107*
X01390223Y00267073*
Y00269189*
X01388107Y00271305*
X0138176*
X00582663Y00287439D02*
X00580547Y00289555D01*
X00576315*
X00574199Y00287439*
Y00278975*
X00576315Y0027686*
X00580547*
X00582663Y00278975*
X00421373Y00287439D02*
X00419257Y00289555D01*
X00415025*
X00412909Y00287439*
Y00278975*
X00415025Y0027686*
X00419257*
X00421373Y00278975*
X00453373Y00302255D02*
Y0028956D01*
X00459721*
X00461837Y00291675*
Y00300139*
X00459721Y00302255*
X00453373*
X00533559D02*
Y0028956D01*
X00539907*
X00542023Y00291675*
Y00300139*
X00539907Y00302255*
X00533559*
X00493384D02*
Y0028956D01*
X00499732*
X00501848Y00291675*
Y00300139*
X00499732Y00302255*
X00493384*
X00452811Y00276616D02*
Y0026392D01*
X00459159*
X00461275Y00266036*
Y002745*
X00459159Y00276616*
X00452811*
X00532997D02*
Y0026392D01*
X00539345*
X00541461Y00266036*
Y002745*
X00539345Y00276616*
X00532997*
X00492822D02*
Y0026392D01*
X0049917*
X00501286Y00266036*
Y002745*
X0049917Y00276616*
X00492822*
X0116586Y01714099D02*
X011684Y01716639D01*
X0117094*
X011684Y01719179*
X0117094Y01721719*
X011684*
X0116586Y01724259*
X0116332Y01721719*
X0116078*
X0116332Y01719179*
X0116078Y01716639*
X0116332*
X0116586Y01714099*
Y016891D02*
X011684Y0169164D01*
X0117094*
X011684Y0169418*
X0117094Y0169672*
X011684*
X0116586Y0169926*
X0116332Y0169672*
X0116078*
X0116332Y0169418*
X0116078Y0169164*
X0116332*
X0116586Y016891*
X0046736Y0169926D02*
X004699Y017018D01*
X0047244*
X004699Y0170434*
X0047244Y0170688*
X004699*
X0046736Y0170942*
X0046482Y0170688*
X0046228*
X0046482Y0170434*
X0046228Y017018*
X0046482*
X0046736Y0169926*
Y01674259D02*
X004699Y01676799D01*
X0047244*
X004699Y01679339*
X0047244Y01681879*
X004699*
X0046736Y01684419*
X0046482Y01681879*
X0046228*
X0046482Y01679339*
X0046228Y01676799*
X0046482*
X0046736Y01674259*
X0131826Y01714099D02*
X013208Y01716639D01*
X0132334*
X013208Y01719179*
X0132334Y01721719*
X013208*
X0131826Y01724259*
X0131572Y01721719*
X0131318*
X0131572Y01719179*
X0131318Y01716639*
X0131572*
X0131826Y01714099*
Y016891D02*
X013208Y0169164D01*
X0132334*
X013208Y0169418*
X0132334Y0169672*
X013208*
X0131826Y0169926*
X0131572Y0169672*
X0131318*
X0131572Y0169418*
X0131318Y0169164*
X0131572*
X0131826Y016891*
X0083058Y0165354D02*
X0083312Y0165608D01*
X0083566*
X0083312Y0165862*
X0083566Y0166116*
X0083312*
X0083058Y016637*
X0082804Y0166116*
X008255*
X0082804Y0165862*
X008255Y0165608*
X0082804*
X0083058Y0165354*
X00805579D02*
X00808119Y0165608D01*
X00810659*
X00808119Y0165862*
X00810659Y0166116*
X00808119*
X00805579Y016637*
X00803039Y0166116*
X00800499*
X00803039Y0165862*
X00800499Y0165608*
X00803039*
X00805579Y0165354*
X00388419Y0041402D02*
X00390959Y0041656D01*
X00393499*
X00390959Y004191*
X00393499Y0042164*
X00390959*
X00388419Y0042418*
X00385879Y0042164*
X00383339*
X00385879Y004191*
X00383339Y0041656*
X00385879*
X00388419Y0041402*
X00363419D02*
X00365959Y0041656D01*
X00368499*
X00365959Y004191*
X00368499Y0042164*
X00365959*
X00363419Y0042418*
X00360879Y0042164*
X00358339*
X00360879Y004191*
X00358339Y0041656*
X00360879*
X00363419Y0041402*
X0146812Y01714099D02*
X0147066Y01716639D01*
X014732*
X0147066Y01719179*
X014732Y01721719*
X0147066*
X0146812Y01724259*
X0146558Y01721719*
X0146304*
X0146558Y01719179*
X0146304Y01716639*
X0146558*
X0146812Y01714099*
Y016891D02*
X0147066Y0169164D01*
X014732*
X0147066Y0169418*
X014732Y0169672*
X0147066*
X0146812Y0169926*
X0146558Y0169672*
X0146304*
X0146558Y0169418*
X0146304Y0169164*
X0146558*
X0146812Y016891*
X0091948Y0145542D02*
X0092202Y0145796D01*
X0092456*
X0092202Y014605*
X0092456Y0146304*
X0092202*
X0091948Y0146558*
X0091694Y0146304*
X009144*
X0091694Y014605*
X009144Y0145796*
X0091694*
X0091948Y0145542*
Y01480419D02*
X0092202Y01482959D01*
X0092456*
X0092202Y01485499*
X0092456Y01488039*
X0092202*
X0091948Y01490579*
X0091694Y01488039*
X009144*
X0091694Y01485499*
X009144Y01482959*
X0091694*
X0091948Y01480419*
X0154432Y01714299D02*
X0154686Y01716839D01*
X015494*
X0154686Y01719379*
X015494Y01721919*
X0154686*
X0154432Y01724459*
X0154178Y01721919*
X0153924*
X0154178Y01719379*
X0153924Y01716839*
X0154178*
X0154432Y01714299*
Y01689299D02*
X0154686Y01691839D01*
X015494*
X0154686Y01694379*
X015494Y01696919*
X0154686*
X0154432Y01699459*
X0154178Y01696919*
X0153924*
X0154178Y01694379*
X0153924Y01691839*
X0154178*
X0154432Y01689299*
X0153416Y01009659D02*
X0153924Y01014739D01*
X0154432Y01009659*
X0153924Y01004579*
X0153416Y01009659*
Y01029659D02*
X0153924Y01034739D01*
X0154432Y01029659*
X0153924Y01024579*
X0153416Y01029659*
Y01049659D02*
X0153924Y01054739D01*
X0154432Y01049659*
X0153924Y01044579*
X0153416Y01049659*
Y0108966D02*
X0153924Y0109474D01*
X0154432Y0108966*
X0153924Y0108458*
X0153416Y0108966*
X01547703Y00983355D02*
X0153924D01*
Y00970659*
X01547703*
X0153924Y00977007D02*
X01543471D01*
X01547703Y01143355D02*
X0153924D01*
Y01130659*
X01547703*
X0153924Y01137007D02*
X01543471D01*
X0045212Y0112776D02*
X0045466Y011303D01*
X004572*
X0045466Y0113284*
X004572Y0113538*
X0045466*
X0045212Y0113792*
X0044958Y0113538*
X0044704*
X0044958Y0113284*
X0044704Y011303*
X0044958*
X0045212Y0112776*
X00472119D02*
X00474659Y011303D01*
X00477199*
X00474659Y0113284*
X00477199Y0113538*
X00474659*
X00472119Y0113792*
X00469579Y0113538*
X00467039*
X00469579Y0113284*
X00467039Y011303*
X00469579*
X00472119Y0112776*
X0059436Y0104394D02*
X005969Y0104648D01*
X0059944*
X005969Y0104902*
X0059944Y0105156*
X005969*
X0059436Y010541*
X0059182Y0105156*
X0058928*
X0059182Y0104902*
X0058928Y0104648*
X0059182*
X0059436Y0104394*
Y01063939D02*
X005969Y01066479D01*
X0059944*
X005969Y01069019*
X0059944Y01071559*
X005969*
X0059436Y01074099*
X0059182Y01071559*
X0058928*
X0059182Y01069019*
X0058928Y01066479*
X0059182*
X0059436Y01063939*
X01108283Y00386615D02*
X0109982D01*
Y00380267*
X01104051*
X0109982*
Y00373919*
X01108283Y00337815D02*
X0109982D01*
Y00331467*
X01104051*
X0109982*
Y0032512*
X00248899Y01918579D02*
X00243819Y01928739D01*
X00253979*
X00248899Y01918579*
Y01920611D02*
X00245851Y01926707D01*
X00251947*
X00248899Y01920611*
X00335299Y01918579D02*
X00330219Y01928739D01*
X00340379*
X00335299Y01918579*
Y01920611D02*
X00332251Y01926707D01*
X00338347*
X00335299Y01920611*
X00248899Y01880579D02*
X00243819Y01890739D01*
X00253979*
X00248899Y01880579*
Y01882611D02*
X00245851Y01888707D01*
X00251947*
X00248899Y01882611*
X00335299Y01880579D02*
X00330219Y01890739D01*
X00340379*
X00335299Y01880579*
Y01882611D02*
X00332251Y01888707D01*
X00338347*
X00335299Y01882611*
X0084582Y00553879D02*
X0084836Y00556419D01*
X008509*
X0084836Y00558959*
X008509Y00561499*
X0084836*
X0084582Y00564039*
X0084328Y00561499*
X0084074*
X0084328Y00558959*
X0084074Y00556419*
X0084328*
X0084582Y00553879*
Y00573879D02*
X0084836Y00576419D01*
X008509*
X0084836Y00578959*
X008509Y00581499*
X0084836*
X0084582Y00584039*
X0084328Y00581499*
X0084074*
X0084328Y00578959*
X0084074Y00576419*
X0084328*
X0084582Y00573879*
X01235809Y00800259D02*
X01238349Y00802799D01*
X01240889*
X01238349Y00805339*
X01240889Y00807879*
X01238349*
X01235809Y00810419*
X01233269Y00807879*
X01230729*
X01233269Y00805339*
X01230729Y00802799*
X01233269*
X01235809Y00800259*
Y00820259D02*
X01238349Y00822799D01*
X01240889*
X01238349Y00825339*
X01240889Y00827879*
X01238349*
X01235809Y00830419*
X01233269Y00827879*
X01230729*
X01233269Y00825339*
X01230729Y00822799*
X01233269*
X01235809Y00820259*
X0146558Y009652D02*
Y0096266D01*
X0147066*
Y009652*
X014732*
Y0097028*
X0147066*
Y0097282*
X0146558*
Y0097028*
X0146304*
Y009652*
X0146558*
X01466596Y00966216D02*
Y00964692D01*
X01469644*
Y00966216*
X01471168*
Y00969264*
X01469644*
Y00970788*
X01466596*
Y00969264*
X01465072*
Y00966216*
X01466596*
X0144018Y009652D02*
Y0096266D01*
X0144526*
Y009652*
X014478*
Y0097028*
X0144526*
Y0097282*
X0144018*
Y0097028*
X0143764*
Y009652*
X0144018*
X01441196Y00966216D02*
Y00964692D01*
X01444244*
Y00966216*
X01445768*
Y00969264*
X01444244*
Y00970788*
X01441196*
Y00969264*
X01439672*
Y00966216*
X01441196*
X0146558Y009906D02*
Y0098806D01*
X0147066*
Y009906*
X014732*
Y0099568*
X0147066*
Y0099822*
X0146558*
Y0099568*
X0146304*
Y009906*
X0146558*
X01466596Y00991616D02*
Y00990092D01*
X01469644*
Y00991616*
X01471168*
Y00994664*
X01469644*
Y00996188*
X01466596*
Y00994664*
X01465072*
Y00991616*
X01466596*
X0144018Y009906D02*
Y0098806D01*
X0144526*
Y009906*
X014478*
Y0099568*
X0144526*
Y0099822*
X0144018*
Y0099568*
X0143764*
Y009906*
X0144018*
X01441196Y00991616D02*
Y00990092D01*
X01444244*
Y00991616*
X01445768*
Y00994664*
X01444244*
Y00996188*
X01441196*
Y00994664*
X01439672*
Y00991616*
X01441196*
X0146558Y01016D02*
Y0101346D01*
X0147066*
Y01016*
X014732*
Y0102108*
X0147066*
Y0102362*
X0146558*
Y0102108*
X0146304*
Y01016*
X0146558*
X01466596Y01017016D02*
Y01015492D01*
X01469644*
Y01017016*
X01471168*
Y01020064*
X01469644*
Y01021588*
X01466596*
Y01020064*
X01465072*
Y01017016*
X01466596*
X0144018Y01016D02*
Y0101346D01*
X0144526*
Y01016*
X014478*
Y0102108*
X0144526*
Y0102362*
X0144018*
Y0102108*
X0143764*
Y01016*
X0144018*
X01441196Y01017016D02*
Y01015492D01*
X01444244*
Y01017016*
X01445768*
Y01020064*
X01444244*
Y01021588*
X01441196*
Y01020064*
X01439672*
Y01017016*
X01441196*
X00894923Y00386615D02*
X0088646D01*
Y00380267*
X00890691*
X0088646*
Y00373919*
X00894923Y00337815D02*
X0088646D01*
Y00331467*
X00890691*
X0088646*
Y0032512*
X00372849Y00631266D02*
X00375389Y00633806D01*
X00377929*
X00375389Y00636346*
X00377929Y00638886*
X00375389*
X00372849Y00641426*
X00370309Y00638886*
X00367769*
X00370309Y00636346*
X00367769Y00633806*
X00370309*
X00372849Y00631266*
Y00611266D02*
X00375389Y00613806D01*
X00377929*
X00375389Y00616346*
X00377929Y00618886*
X00375389*
X00372849Y00621426*
X00370309Y00618886*
X00367769*
X00370309Y00616346*
X00367769Y00613806*
X00370309*
X00372849Y00611266*
X0055626Y01663379D02*
X005588Y01665919D01*
X0056134*
X005588Y01668459*
X0056134Y01670999*
X005588*
X0055626Y01673539*
X0055372Y01670999*
X0055118*
X0055372Y01668459*
X0055118Y01665919*
X0055372*
X0055626Y01663379*
Y0164338D02*
X005588Y0164592D01*
X0056134*
X005588Y0164846*
X0056134Y01651*
X005588*
X0055626Y0165354*
X0055372Y01651*
X0055118*
X0055372Y0164846*
X0055118Y0164592*
X0055372*
X0055626Y0164338*
X0146812Y0163322D02*
X0147066Y0163576D01*
X014732*
X0147066Y016383*
X014732Y0164084*
X0147066*
X0146812Y0164338*
X0146558Y0164084*
X0146304*
X0146558Y016383*
X0146304Y0163576*
X0146558*
X0146812Y0163322*
Y01613219D02*
X0147066Y01615759D01*
X014732*
X0147066Y01618299*
X014732Y01620839*
X0147066*
X0146812Y01623379*
X0146558Y01620839*
X0146304*
X0146558Y01618299*
X0146304Y01615759*
X0146558*
X0146812Y01613219*
X012446Y0161798D02*
X0124714Y0162052D01*
X0124968*
X0124714Y0162306*
X0124968Y016256*
X0124714*
X012446Y0162814*
X0124206Y016256*
X0123952*
X0124206Y0162306*
X0123952Y0162052*
X0124206*
X012446Y0161798*
Y01637979D02*
X0124714Y01640519D01*
X0124968*
X0124714Y01643059*
X0124968Y01645599*
X0124714*
X012446Y01648139*
X0124206Y01645599*
X0123952*
X0124206Y01643059*
X0123952Y01640519*
X0124206*
X012446Y01637979*
X00426463Y00255579D02*
X00424347Y00257695D01*
X00420116*
X00417999Y00255579*
Y00247115*
X00420116Y00244999*
X00424347*
X00426463Y00247115*
Y00251347*
X00422231*
X00426463Y00320579D02*
X00424347Y00322695D01*
X00420116*
X00417999Y00320579*
Y00312115*
X00420116Y00309999*
X00424347*
X00426463Y00312115*
Y00316347*
X00422231*
X00575463Y00320579D02*
X00573347Y00322695D01*
X00569115*
X00566999Y00320579*
Y00312115*
X00569115Y00309999*
X00573347*
X00575463Y00312115*
Y00316347*
X00571231*
X00575463Y00255579D02*
X00573347Y00257695D01*
X00569115*
X00566999Y00255579*
Y00247115*
X00569115Y00244999*
X00573347*
X00575463Y00247115*
Y00251347*
X00571231*
X0088646Y00464815D02*
Y0045212D01*
Y00458467*
X00894923*
Y00464815*
Y0045212*
X00349062Y01748241D02*
Y01735545D01*
Y01741893*
X00357526*
Y01748241*
Y01735545*
X0029464Y01693795D02*
Y01681099D01*
Y01687447*
X00303103*
Y01693795*
Y01681099*
X0029464Y00615744D02*
Y00603048D01*
Y00609396*
X00303103*
Y00615744*
Y00603048*
X0029464Y00708053D02*
Y00695357D01*
Y00701705*
X00303103*
Y00708053*
Y00695357*
X0029464Y00800362D02*
Y00787666D01*
Y00794014*
X00303103*
Y00800362*
Y00787666*
X0029464Y0089267D02*
Y00879974D01*
Y00886322*
X00303103*
Y0089267*
Y00879974*
X0029464Y00984979D02*
Y00972283D01*
Y00978631*
X00303103*
Y00984979*
Y00972283*
X0029464Y01077288D02*
Y01064592D01*
Y0107094*
X00303103*
Y01077288*
Y01064592*
X0029464Y01169596D02*
Y011569D01*
Y01163248*
X00303103*
Y01169596*
Y011569*
X0029464Y01261905D02*
Y01249209D01*
Y01255557*
X00303103*
Y01261905*
Y01249209*
X0029464Y01354214D02*
Y01341518D01*
Y01347866*
X00303103*
Y01354214*
Y01341518*
X0029464Y01400368D02*
Y01387672D01*
Y0139402*
X00303103*
Y01400368*
Y01387672*
X0029464Y01446522D02*
Y01433827D01*
Y01440174*
X00303103*
Y01446522*
Y01433827*
X0029464Y01492677D02*
Y01479981D01*
Y01486329*
X00303103*
Y01492677*
Y01479981*
X0029464Y01538831D02*
Y01526135D01*
Y01532483*
X00303103*
Y01538831*
Y01526135*
X0029464Y01584985D02*
Y01572289D01*
Y01578637*
X00303103*
Y01584985*
Y01572289*
X0029464Y0163114D02*
Y01618444D01*
Y01624792*
X00303103*
Y0163114*
Y01618444*
X0027178Y00740888D02*
Y00728193D01*
Y0073454*
X00280243*
Y00740888*
Y00728193*
X0027178Y00576254D02*
Y00563558D01*
Y00569906*
X00280243*
Y00576254*
Y00563558*
X00314659Y00505755D02*
X00318891D01*
X00316775*
Y00493059*
X00314659*
X00318891*
X00492689Y00251385D02*
Y00238689D01*
Y00245037*
X00501153*
Y00251385*
Y00238689*
X0042037Y00218435D02*
Y0020574D01*
Y00212087*
X00428833*
Y00218435*
Y0020574*
X0032258Y00276855D02*
Y0026416D01*
Y00270507*
X00331043*
Y00276855*
Y0026416*
X0027178Y00329301D02*
Y00316605D01*
Y00322953*
X00280243*
Y00329301*
Y00316605*
X0027178Y00411619D02*
Y00398923D01*
Y00405271*
X00280243*
Y00411619*
Y00398923*
X0027178Y00493936D02*
Y0048124D01*
Y00487588*
X00280243*
Y00493936*
Y0048124*
X0027178Y00658571D02*
Y00645875D01*
Y00652223*
X00280243*
Y00658571*
Y00645875*
X0027178Y00823206D02*
Y0081051D01*
Y00816858*
X00280243*
Y00823206*
Y0081051*
X0027178Y00905523D02*
Y00892827D01*
Y00899175*
X00280243*
Y00905523*
Y00892827*
X0027178Y00987841D02*
Y00975145D01*
Y00981493*
X00280243*
Y00987841*
Y00975145*
X0027178Y01070158D02*
Y01057462D01*
Y0106381*
X00280243*
Y01070158*
Y01057462*
X0027178Y01152475D02*
Y0113978D01*
Y01146127*
X00280243*
Y01152475*
Y0113978*
X0027178Y01234793D02*
Y01222097D01*
Y01228445*
X00280243*
Y01234793*
Y01222097*
X0027178Y0131711D02*
Y01304414D01*
Y01310762*
X00280243*
Y0131711*
Y01304414*
X0027178Y01399428D02*
Y01386732D01*
Y0139308*
X00280243*
Y01399428*
Y01386732*
X0027178Y01481745D02*
Y01469049D01*
Y01475397*
X00280243*
Y01481745*
Y01469049*
X0027178Y01564063D02*
Y01551367D01*
Y01557715*
X00280243*
Y01564063*
Y01551367*
X0027178Y0164638D02*
Y01633684D01*
Y01640032*
X00280243*
Y0164638*
Y01633684*
X0027178Y01728697D02*
Y01716001D01*
Y01722349*
X00280243*
Y01728697*
Y01716001*
X0027178Y01811015D02*
Y0179832D01*
Y01804667*
X00280243*
Y01811015*
Y0179832*
X00282718Y01839734D02*
Y01827038D01*
Y01833386*
X00291182*
Y01839734*
Y01827038*
X00293657Y01871975D02*
Y0185928D01*
Y01865627*
X00302121*
Y01871975*
Y0185928*
X00293657Y01871975D02*
X00297889D01*
X00295773*
Y0185928*
X00293657*
X00297889*
X0098552Y00596895D02*
X00989751D01*
X00987635*
Y005842*
X0098552*
X00989751*
X0096774Y00596895D02*
X00971971D01*
X00969855*
Y005842*
X0096774*
X00971971*
X0096266Y00627375D02*
X00966891D01*
X00964775*
Y0061468*
X0096266*
X00966891*
X01020635Y01616473D02*
Y01603777D01*
Y01610125*
X01029099*
Y01616473*
Y01603777*
X01450807Y0134266D02*
Y01329964D01*
Y01336312*
X01459271*
Y0134266*
Y01329964*
X01412707Y012055D02*
Y01192804D01*
Y01199152*
X01421171*
Y012055*
Y01192804*
X01280627Y0119788D02*
Y01185184D01*
Y01191532*
X01289091*
Y0119788*
Y01185184*
X00589747Y0054002D02*
Y00527324D01*
Y00533672*
X00598211*
Y0054002*
Y00527324*
X00693887Y0054764D02*
Y00534944D01*
Y00541292*
X00702351*
Y0054764*
Y00534944*
X00716747Y0053494D02*
Y00522244D01*
Y00528592*
X00725211*
Y0053494*
Y00522244*
X00866607Y006721D02*
Y00659404D01*
Y00665752*
X00875071*
Y006721*
Y00659404*
X01006307Y0080926D02*
Y00796564D01*
Y00802912*
X01014771*
Y0080926*
Y00796564*
X00678647Y0090578D02*
Y00893084D01*
Y00899432*
X00687111*
Y0090578*
Y00893084*
X00457667Y0066194D02*
Y00649244D01*
Y00655592*
X00466131*
Y0066194*
Y00649244*
X00417027Y0058574D02*
Y00573044D01*
Y00579392*
X00425491*
Y0058574*
Y00573044*
X00409407Y008753D02*
Y00862604D01*
Y00868952*
X00417871*
Y008753*
Y00862604*
X00406867Y0090832D02*
Y00895624D01*
Y00901972*
X00415331*
Y0090832*
Y00895624*
X00409407Y0075846D02*
Y00745764D01*
Y00752112*
X00417871*
Y0075846*
Y00745764*
X00475447Y0083974D02*
Y00827044D01*
Y00833392*
X00483911*
Y0083974*
Y00827044*
X00597367Y0083212D02*
Y00819424D01*
Y00825772*
X00605831*
Y0083212*
Y00819424*
X00693887Y008372D02*
Y00824504D01*
Y00830852*
X00702351*
Y008372*
Y00824504*
X01257767Y0096166D02*
Y00948964D01*
Y00955312*
X01266231*
Y0096166*
Y00948964*
X00500847Y0141886D02*
Y01406164D01*
Y01412512*
X00509311*
Y0141886*
Y01406164*
X00493227Y015738D02*
Y01561104D01*
Y01567452*
X00501691*
Y015738*
Y01561104*
X00493227Y0161698D02*
Y01604284D01*
Y01610632*
X00501691*
Y0161698*
Y01604284*
X00485607Y0146712D02*
Y01454424D01*
Y01460772*
X00494071*
Y0146712*
Y01454424*
X00409407Y0150522D02*
Y01492524D01*
Y01498872*
X00417871*
Y0150522*
Y01492524*
X003556Y01437635D02*
Y0142494D01*
Y01431287*
X00364063*
Y01437635*
Y0142494*
X00348447Y0152554D02*
Y01512844D01*
Y01519192*
X00356911*
Y0152554*
Y01512844*
X00350987Y0155856D02*
Y01545864D01*
Y01552212*
X00359451*
Y0155856*
Y01545864*
X00350987Y016373D02*
Y01624604D01*
Y01630952*
X00359451*
Y016373*
Y01624604*
X00353527Y0168048D02*
Y01667784D01*
Y01674132*
X00361991*
Y0168048*
Y01667784*
X00353527Y0171096D02*
Y01698264D01*
Y01704612*
X00361991*
Y0171096*
Y01698264*
X0070104Y00957575D02*
X00705271D01*
X00703155*
Y0094488*
X0070104*
X00705271*
X0055118Y01445617D02*
X00555411D01*
X00553295*
Y01432921*
X0055118*
X00555411*
X0123966Y01389516D02*
Y0137682D01*
Y01383168*
X01248124*
Y01389516*
Y0137682*
X01211441Y00906042D02*
X01215673D01*
X01213557*
Y00893346*
X01211441*
X01215673*
X01333361Y00789202D02*
X01337593D01*
X01335477*
Y00776506*
X01333361*
X01337593*
X01244461Y00766342D02*
X01248693D01*
X01246577*
Y00753646*
X01244461*
X01248693*
X01198741Y00720622D02*
X01202973D01*
X01200857*
Y00707926*
X01198741*
X01202973*
X01196201Y00768882D02*
X01200433D01*
X01198317*
Y00756186*
X01196201*
X01200433*
X00976072Y00694915D02*
X00980304D01*
X00978188*
Y0068222*
X00976072*
X00980304*
X01024463Y00703575D02*
X01020231D01*
X01022347*
Y00692995*
X01020231Y0069088*
X01018115*
X01016Y00692995*
X0097028Y00652775D02*
X00974511D01*
X00972395*
Y0064008*
X0097028*
X00974511*
X0058674Y01018535D02*
X00590971D01*
X00588855*
Y0100584*
X0058674*
X00590971*
X005334Y01018535D02*
X00537631D01*
X00535515*
Y0100584*
X005334*
X00537631*
X0048006Y01018535D02*
X00484291D01*
X00482175*
Y0100584*
X0048006*
X00484291*
X0042672Y01018535D02*
X00430951D01*
X00428835*
Y0100584*
X0042672*
X00430951*
X00398493Y0098064D02*
X00402725D01*
X00400609*
Y00967944*
X00398493*
X00402725*
X00451833Y0098064D02*
X00456065D01*
X00453949*
Y00967944*
X00451833*
X00456065*
X00505173Y0098064D02*
X00509405D01*
X00507289*
Y00967944*
X00505173*
X00509405*
X00558513Y0098064D02*
X00562745D01*
X00560629*
Y00967944*
X00558513*
X00562745*
X00611853Y0098064D02*
X00616085D01*
X00613969*
Y00967944*
X00611853*
X00616085*
X00665193Y0098064D02*
X00669425D01*
X00667309*
Y00967944*
X00665193*
X00669425*
X009017Y00668015D02*
X00905931D01*
X00903815*
Y0065532*
X009017*
X00905931*
X0088646Y00655315D02*
X00890691D01*
X00888575*
Y0064262*
X0088646*
X00890691*
X00380624Y00828149D02*
Y00815453D01*
Y00819685*
X00389088Y00828149*
X0038274Y00821801*
X00389088Y00815453*
X00380624Y00896729D02*
Y00884033D01*
Y00888265*
X00389088Y00896729*
X0038274Y00890381*
X00389088Y00884033*
X00380624Y00805289D02*
Y00792593D01*
Y00796825*
X00389088Y00805289*
X0038274Y00798941*
X00389088Y00792593*
X00626949Y0017697D02*
Y00164274D01*
Y00170622*
X00635413*
Y0017697*
Y00164274*
X00626949Y0027504D02*
Y00262344D01*
Y00268692*
X00635413*
Y0027504*
Y00262344*
X0102604Y00536174D02*
Y00523478D01*
Y00529826*
X01034504*
Y00536174*
Y00523478*
X00627592Y00326692D02*
Y00313996D01*
Y00320344*
X00636056*
Y00326692*
Y00313996*
X01125432Y00255572D02*
Y00242876D01*
Y00249224*
X01133896*
Y00255572*
Y00242876*
X01041612Y00230172D02*
Y00217476D01*
Y00223824*
X01050076*
Y00230172*
Y00217476*
X00970492Y00273352D02*
Y00260656D01*
Y00267004*
X00978956*
Y00273352*
Y00260656*
X01049232Y00268272D02*
Y00255576D01*
Y00261924*
X01057696*
Y00268272*
Y00255576*
X00668528Y014497D02*
Y01437005D01*
Y01443352*
X00676991*
Y014497*
Y01437005*
X0063246Y014497D02*
Y01437005D01*
Y01443352*
X00640923*
Y014497*
Y01437005*
X00998419Y00373375D02*
X01002651D01*
X01000535*
Y0036068*
X00998419*
X01002651*
X0138176Y01579875D02*
Y0156718D01*
Y01573527*
X01390223*
Y01579875*
Y0156718*
X0155194Y01432555D02*
Y0141986D01*
Y01426207*
X01560403*
Y01432555*
Y0141986*
X01668272Y01465972D02*
Y01453276D01*
Y01459624*
X01676736*
Y01465972*
Y01453276*
X01668272Y01497722D02*
Y01485026D01*
Y01491374*
X01676736*
Y01497722*
Y01485026*
X01668272Y01529472D02*
Y01516776D01*
Y01523124*
X01676736*
Y01529472*
Y01516776*
X01660652Y01443112D02*
Y01430416D01*
Y01436764*
X01669116*
Y01443112*
Y01430416*
X01630172Y01432952D02*
Y01420256D01*
Y01426604*
X01638636*
Y01432952*
Y01420256*
X01515872Y01453272D02*
Y01440576D01*
Y01446924*
X01524336*
Y01453272*
Y01440576*
X01566672Y01455812D02*
Y01443116D01*
Y01449464*
X01575136*
Y01455812*
Y01443116*
X01637792Y01460892D02*
Y01448196D01*
Y01454544*
X01646256*
Y01460892*
Y01448196*
X01622552Y01458352D02*
Y01445656D01*
Y01452004*
X01631016*
Y01458352*
Y01445656*
X01641112Y01480382D02*
Y01467686D01*
Y01474034*
X01649576*
Y01480382*
Y01467686*
X01622552Y01478672D02*
Y01465976D01*
Y01472324*
X01631016*
Y01478672*
Y01465976*
X01622552Y01504072D02*
Y01491376D01*
Y01497724*
X01631016*
Y01504072*
Y01491376*
X01640332Y01504072D02*
Y01491376D01*
Y01497724*
X01648796*
Y01504072*
Y01491376*
X01640332Y01524392D02*
Y01511696D01*
Y01518044*
X01648796*
Y01524392*
Y01511696*
X01622552Y01524392D02*
Y01511696D01*
Y01518044*
X01631016*
Y01524392*
Y01511696*
X01553972Y01524392D02*
Y01511696D01*
Y01518044*
X01562436*
Y01524392*
Y01511696*
X01569212Y01524392D02*
Y01511696D01*
Y01518044*
X01577676*
Y01524392*
Y01511696*
X01574292Y01501532D02*
Y01488836D01*
Y01495184*
X01582756*
Y01501532*
Y01488836*
X01569212Y01478672D02*
Y01465976D01*
Y01472324*
X01577676*
Y01478672*
Y01465976*
X00433737Y01731634D02*
Y01718938D01*
Y01725286*
X00442201*
Y01731634*
Y01718938*
X0149352Y00815335D02*
Y0080264D01*
Y00808987*
X01501983*
Y00815335*
Y0080264*
X014097Y00883915D02*
Y0087122D01*
Y00877567*
X01418163*
Y00883915*
Y0087122*
X0149098Y00881375D02*
Y0086868D01*
Y00875027*
X01499443*
Y00881375*
Y0086868*
X014478Y00927095D02*
Y009144D01*
Y00920747*
X01456263*
Y00927095*
Y009144*
X0155448Y00927095D02*
Y009144D01*
Y00920747*
X01562943*
Y00927095*
Y009144*
X01473643Y01089339D02*
Y01076644D01*
Y01082991*
X01482107*
Y01089339*
Y01076644*
X014732Y01137915D02*
Y0112522D01*
Y01131567*
X01481663*
Y01137915*
Y0112522*
X008128Y00490215D02*
Y0047752D01*
Y00483867*
X00821263*
Y00490215*
Y0047752*
X0092456Y00462275D02*
Y0044958D01*
Y00455927*
X00933023*
Y00462275*
Y0044958*
X00764919Y00452559D02*
Y00439863D01*
Y00446211*
X00773383*
Y00452559*
Y00439863*
X0087376Y00360675D02*
Y0034798D01*
Y00354327*
X00882223*
Y00360675*
Y0034798*
X0082042Y00363215D02*
Y0035052D01*
Y00356867*
X00828883*
Y00363215*
Y0035052*
X008636Y00302255D02*
Y0028956D01*
Y00295907*
X00872063*
Y00302255*
Y0028956*
X0082804Y00253995D02*
Y002413D01*
Y00247647*
X00836503*
Y00253995*
Y002413*
X0076962Y00253995D02*
Y002413D01*
Y00247647*
X00778083*
Y00253995*
Y002413*
X0062738Y00386075D02*
Y0037338D01*
Y00379727*
X00635843*
Y00386075*
Y0037338*
X0062992Y00449575D02*
Y0043688D01*
Y00443227*
X00638383*
Y00449575*
Y0043688*
X0054864Y00386075D02*
Y0037338D01*
Y00379727*
X00557103*
Y00386075*
Y0037338*
X00550519Y00449575D02*
Y0043688D01*
Y00443227*
X00558983*
Y00449575*
Y0043688*
X0055118Y00513075D02*
Y0050038D01*
Y00506727*
X00559643*
Y00513075*
Y0050038*
X004699Y00386075D02*
Y0037338D01*
Y00379727*
X00478363*
Y00386075*
Y0037338*
X00471119Y00449575D02*
Y0043688D01*
Y00443227*
X00479583*
Y00449575*
Y0043688*
X004699Y00513075D02*
Y0050038D01*
Y00506727*
X00478363*
Y00513075*
Y0050038*
X010922Y00523235D02*
Y0051054D01*
Y00516887*
X01100663*
Y00523235*
Y0051054*
X010922Y00500375D02*
Y0048768D01*
Y00494027*
X01100663*
Y00500375*
Y0048768*
X010922Y00477515D02*
Y0046482D01*
Y00471167*
X01100663*
Y00477515*
Y0046482*
X0102616Y00523235D02*
Y0051054D01*
Y00516887*
X01034623*
Y00523235*
Y0051054*
X0105664Y00505455D02*
Y0049276D01*
Y00499107*
X01065103*
Y00505455*
Y0049276*
X0102616Y00500375D02*
Y0048768D01*
Y00494027*
X01034623*
Y00500375*
Y0048768*
X0112014Y00584195D02*
Y005715D01*
Y00577847*
X01128603*
Y00584195*
Y005715*
X0108458Y00642615D02*
Y0062992D01*
Y00636267*
X01093043*
Y00642615*
Y0062992*
X0099314Y00619755D02*
Y0060706D01*
Y00613407*
X01001603*
Y00619755*
Y0060706*
X0107696Y00713735D02*
Y0070104D01*
Y00707387*
X01085423*
Y00713735*
Y0070104*
X008255Y00873755D02*
Y0086106D01*
Y00867407*
X00833963*
Y00873755*
Y0086106*
X0096012Y00795015D02*
Y0078232D01*
Y00788667*
X00968583*
Y00795015*
Y0078232*
X0090678Y00756915D02*
Y0074422D01*
Y00750567*
X00915243*
Y00756915*
Y0074422*
X009652Y01628135D02*
Y0161544D01*
Y01621787*
X00973663*
Y01628135*
Y0161544*
X009652Y01579875D02*
Y0156718D01*
Y01573527*
X00973663*
Y01579875*
Y0156718*
X009652Y01531615D02*
Y0151892D01*
Y01525267*
X00973663*
Y01531615*
Y0151892*
X009652Y01483355D02*
Y0147066D01*
Y01477007*
X00973663*
Y01483355*
Y0147066*
X009652Y01435095D02*
Y014224D01*
Y01428747*
X00973663*
Y01435095*
Y014224*
X009652Y01386835D02*
Y0137414D01*
Y01380487*
X00973663*
Y01386835*
Y0137414*
X016002Y01371595D02*
Y013589D01*
Y01365247*
X01608663*
Y01371595*
Y013589*
X0164084Y01371595D02*
Y013589D01*
Y01365247*
X01649303*
Y01371595*
Y013589*
X0168148Y01371595D02*
Y013589D01*
Y01365247*
X01689943*
Y01371595*
Y013589*
X0166116Y01396995D02*
Y013843D01*
Y01390647*
X01669623*
Y01396995*
Y013843*
X0161925Y01396995D02*
Y013843D01*
Y01390647*
X01627713*
Y01396995*
Y013843*
X0157734Y01396995D02*
Y013843D01*
Y01390647*
X01585803*
Y01396995*
Y013843*
X0147066Y01369055D02*
Y0135636D01*
Y01362707*
X01479123*
Y01369055*
Y0135636*
X0144018Y01379215D02*
Y0136652D01*
Y01372867*
X01448643*
Y01379215*
Y0136652*
X01541483Y01579875D02*
Y0156718D01*
Y01573527*
X01549947*
Y01579875*
Y0156718*
X016637Y01579875D02*
Y0156718D01*
Y01573527*
X01672163*
Y01579875*
Y0156718*
X016637Y01623055D02*
Y0161036D01*
Y01616707*
X01672163*
Y01623055*
Y0161036*
X016637Y01663695D02*
Y01651D01*
Y01657347*
X01672163*
Y01663695*
Y01651*
X01602591Y01579875D02*
Y0156718D01*
Y01573527*
X01611055*
Y01579875*
Y0156718*
X01602591Y01621785D02*
Y0160909D01*
Y01615437*
X01611055*
Y01621785*
Y0160909*
X01602591Y01663695D02*
Y01651D01*
Y01657347*
X01611055*
Y01663695*
Y01651*
X0155194Y01767835D02*
Y0175514D01*
Y01761487*
X01560403*
Y01767835*
Y0175514*
X0159766Y01767835D02*
Y0175514D01*
Y01761487*
X01606123*
Y01767835*
Y0175514*
X0120396Y01531615D02*
Y0151892D01*
Y01525267*
X01212423*
Y01531615*
Y0151892*
X0125476Y01529075D02*
Y0151638D01*
Y01522727*
X01263223*
Y01529075*
Y0151638*
X0150622Y01719575D02*
Y0170688D01*
Y01713227*
X01514683*
Y01719575*
Y0170688*
X0143002Y01719575D02*
Y0170688D01*
Y01713227*
X01438483*
Y01719575*
Y0170688*
X0134366Y01640835D02*
Y0162814D01*
Y01634487*
X01352123*
Y01640835*
Y0162814*
X0135382Y01610355D02*
Y0159766D01*
Y01604007*
X01362283*
Y01610355*
Y0159766*
X0136144Y01579875D02*
Y0156718D01*
Y01573527*
X01369903*
Y01579875*
Y0156718*
X0135382Y01437635D02*
Y0142494D01*
Y01431287*
X01362283*
Y01437635*
Y0142494*
X01325643Y01422347D02*
Y01409651D01*
Y01415999*
X01334107*
Y01422347*
Y01409651*
X0130556Y01374135D02*
Y0136144D01*
Y01367787*
X01314023*
Y01374135*
Y0136144*
X0127508Y01396995D02*
Y013843D01*
Y01390647*
X01283543*
Y01396995*
Y013843*
X012573Y01437635D02*
Y0142494D01*
Y01431287*
X01265763*
Y01437635*
Y0142494*
X012573Y01470655D02*
Y0145796D01*
Y01464307*
X01265763*
Y01470655*
Y0145796*
X011938Y01483355D02*
Y0147066D01*
Y01477007*
X01202263*
Y01483355*
Y0147066*
X0124206Y01369055D02*
Y0135636D01*
Y01362707*
X01250523*
Y01369055*
Y0135636*
X0118872Y01369055D02*
Y0135636D01*
Y01362707*
X01197183*
Y01369055*
Y0135636*
X0112268Y01369055D02*
Y0135636D01*
Y01362707*
X01131143*
Y01369055*
Y0135636*
X0112268Y01399535D02*
Y0138684D01*
Y01393187*
X01131143*
Y01399535*
Y0138684*
X0118872Y01457955D02*
Y0144526D01*
Y01451607*
X01197183*
Y01457955*
Y0144526*
X0115316Y01457955D02*
Y0144526D01*
Y01451607*
X01161623*
Y01457955*
Y0144526*
X0112268Y01457955D02*
Y0144526D01*
Y01451607*
X01131143*
Y01457955*
Y0144526*
X011176Y01503675D02*
Y0149098D01*
Y01497327*
X01126063*
Y01503675*
Y0149098*
X010795Y01457955D02*
Y0144526D01*
Y01451607*
X01087963*
Y01457955*
Y0144526*
X01032366Y01384295D02*
Y013716D01*
Y01377947*
X0104083*
Y01384295*
Y013716*
X01032366Y01412013D02*
Y01399318D01*
Y01405665*
X0104083*
Y01412013*
Y01399318*
X01032366Y01439732D02*
Y01427036D01*
Y01433384*
X0104083*
Y01439732*
Y01427036*
X01032366Y0146745D02*
Y01454754D01*
Y01461102*
X0104083*
Y0146745*
Y01454754*
X01032366Y01495169D02*
Y01482473D01*
Y01488821*
X0104083*
Y01495169*
Y01482473*
X01032366Y01522887D02*
Y01510191D01*
Y01516539*
X0104083*
Y01522887*
Y01510191*
X01032366Y01550606D02*
Y0153791D01*
Y01544258*
X0104083*
Y01550606*
Y0153791*
X0101346Y01384295D02*
Y013716D01*
Y01377947*
X01021923*
Y01384295*
Y013716*
X0101346Y01412235D02*
Y0139954D01*
Y01405887*
X01021923*
Y01412235*
Y0139954*
X0101346Y01440175D02*
Y0142748D01*
Y01433827*
X01021923*
Y01440175*
Y0142748*
X0101346Y01468115D02*
Y0145542D01*
Y01461767*
X01021923*
Y01468115*
Y0145542*
X0101346Y01496055D02*
Y0148336D01*
Y01489707*
X01021923*
Y01496055*
Y0148336*
X0101346Y01523995D02*
Y015113D01*
Y01517647*
X01021923*
Y01523995*
Y015113*
X0101346Y01551935D02*
Y0153924D01*
Y01545587*
X01021923*
Y01551935*
Y0153924*
X0101346Y01579875D02*
Y0156718D01*
Y01573527*
X01021923*
Y01579875*
Y0156718*
X01031551Y01660387D02*
Y01647691D01*
Y01654039*
X01040015*
Y01660387*
Y01647691*
X010541Y01686555D02*
Y0167386D01*
Y01680207*
X01062563*
Y01686555*
Y0167386*
X010287Y01694175D02*
Y0168148D01*
Y01687827*
X01037163*
Y01694175*
Y0168148*
X0105918Y01819687D02*
Y01806991D01*
Y01813339*
X01067643*
Y01819687*
Y01806991*
X0102616Y01818635D02*
Y0180594D01*
Y01812287*
X01034623*
Y01818635*
Y0180594*
X0109728Y01819905D02*
Y0180721D01*
Y01813557*
X01105743*
Y01819905*
Y0180721*
X0109728Y01793235D02*
Y0178054D01*
Y01786887*
X01105743*
Y01793235*
Y0178054*
X0109728Y01846575D02*
Y0183388D01*
Y01840227*
X01105743*
Y01846575*
Y0183388*
X0105918Y01846139D02*
Y01833443D01*
Y01839791*
X01067643*
Y01846139*
Y01833443*
X0105156Y01894835D02*
Y0188214D01*
Y01888487*
X01060023*
Y01894835*
Y0188214*
X0092456Y01841495D02*
Y018288D01*
Y01835147*
X00933023*
Y01841495*
Y018288*
X0088646Y01785615D02*
Y0177292D01*
Y01779267*
X00894923*
Y01785615*
Y0177292*
X0098552Y01785615D02*
Y0177292D01*
Y01779267*
X00993983*
Y01785615*
Y0177292*
X0105918Y01793235D02*
Y0178054D01*
Y01786887*
X01067643*
Y01793235*
Y0178054*
X0098044Y01770375D02*
Y0175768D01*
Y01764027*
X00988903*
Y01770375*
Y0175768*
X0090424Y01663695D02*
Y01651D01*
Y01657347*
X00912703*
Y01663695*
Y01651*
X0086614Y01628135D02*
Y0161544D01*
Y01621787*
X00874603*
Y01628135*
Y0161544*
X0078486Y01541775D02*
Y0152908D01*
Y01535427*
X00793323*
Y01541775*
Y0152908*
X0047244Y01376675D02*
Y0136398D01*
Y01370327*
X00480903*
Y01376675*
Y0136398*
X00516782Y01376229D02*
Y01363533D01*
Y01369881*
X00525246*
Y01376229*
Y01363533*
X0043688Y01376675D02*
Y0136398D01*
Y01370327*
X00445343*
Y01376675*
Y0136398*
X0041402Y01427475D02*
Y0141478D01*
Y01421127*
X00422483*
Y01427475*
Y0141478*
X008128Y01404615D02*
Y0139192D01*
Y01398267*
X00821263*
Y01404615*
Y0139192*
X00776732Y01404615D02*
Y0139192D01*
Y01398267*
X00785195*
Y01404615*
Y0139192*
X00740664Y01404615D02*
Y0139192D01*
Y01398267*
X00749127*
Y01404615*
Y0139192*
X00704596Y01404615D02*
Y0139192D01*
Y01398267*
X00713059*
Y01404615*
Y0139192*
X00668528Y01404615D02*
Y0139192D01*
Y01398267*
X00676991*
Y01404615*
Y0139192*
X0063246Y01404615D02*
Y0139192D01*
Y01398267*
X00640923*
Y01404615*
Y0139192*
X008128Y01442715D02*
Y0143002D01*
Y01436367*
X00821263*
Y01442715*
Y0143002*
X00704596Y01442715D02*
Y0143002D01*
Y01436367*
X00713059*
Y01442715*
Y0143002*
X00776732Y01442715D02*
Y0143002D01*
Y01436367*
X00785195*
Y01442715*
Y0143002*
X00740664Y01442715D02*
Y0143002D01*
Y01436367*
X00749127*
Y01442715*
Y0143002*
X0088646Y01932935D02*
Y0192024D01*
Y01926587*
X00894923*
Y01932935*
Y0192024*
X0072136Y01932935D02*
Y0192024D01*
Y01926587*
X00729823*
Y01932935*
Y0192024*
X0056134Y01932935D02*
Y0192024D01*
Y01926587*
X00569803*
Y01932935*
Y0192024*
X0069088Y01785615D02*
Y0177292D01*
Y01779267*
X00699343*
Y01785615*
Y0177292*
X0071882Y01785615D02*
Y0177292D01*
Y01779267*
X00727283*
Y01785615*
Y0177292*
X0074676Y01785615D02*
Y0177292D01*
Y01779267*
X00755223*
Y01785615*
Y0177292*
X00746216Y0175924D02*
Y01746544D01*
Y01752892*
X0075468*
Y0175924*
Y01746544*
X00719035Y0175924D02*
Y01746544D01*
Y01752892*
X00727499*
Y0175924*
Y01746544*
X00691854Y0175924D02*
Y01746544D01*
Y01752892*
X00700318*
Y0175924*
Y01746544*
X0066294Y01706875D02*
Y0169418D01*
Y01700527*
X00671403*
Y01706875*
Y0169418*
X00746979Y01708502D02*
Y01695806D01*
Y01702154*
X00755443*
Y01708502*
Y01695806*
X0071628Y01709415D02*
Y0169672D01*
Y01703067*
X00724743*
Y01709415*
Y0169672*
X0063246Y01706875D02*
Y0169418D01*
Y01700527*
X00640923*
Y01706875*
Y0169418*
X0059944Y01706875D02*
Y0169418D01*
Y01700527*
X00607903*
Y01706875*
Y0169418*
X0059182Y01559555D02*
Y0154686D01*
Y01553207*
X00600283*
Y01559555*
Y0154686*
X0062484Y01584955D02*
Y0157226D01*
Y01578607*
X00633303*
Y01584955*
Y0157226*
X005334Y01579875D02*
Y0156718D01*
Y01573527*
X00541863*
Y01579875*
Y0156718*
X0050546Y01529075D02*
Y0151638D01*
Y01522727*
X00513923*
Y01529075*
Y0151638*
X0046482Y01506215D02*
Y0149352D01*
Y01499867*
X00473283*
Y01506215*
Y0149352*
X0047244Y01549395D02*
Y015367D01*
Y01543047*
X00480903*
Y01549395*
Y015367*
X0048006Y01661155D02*
Y0164846D01*
Y01654807*
X00488523*
Y01661155*
Y0164846*
X0051054Y01752595D02*
Y017399D01*
Y01746247*
X00519003*
Y01752595*
Y017399*
X005207Y01696715D02*
Y0168402D01*
Y01690367*
X00529163*
Y01696715*
Y0168402*
X0124714Y01496055D02*
X01251371D01*
X01249255*
Y0148336*
X0124714*
X01251371*
X0135636Y01765295D02*
Y017526D01*
Y01758947*
X01364823*
Y01765295*
Y017526*
X0087884Y01760215D02*
X00883071D01*
X00880955*
Y0174752*
X0087884*
X00883071*
X0105156Y00431795D02*
Y004191D01*
Y00423331*
X01060023Y00431795*
X01053675Y00425447*
X01060023Y004191*
X0096774Y00246375D02*
Y0023368D01*
Y00237911*
X00976203Y00246375*
X00969855Y00240027*
X00976203Y0023368*
X0034245Y01406706D02*
X00346682D01*
X00344566*
Y0139401*
X0034245*
X00346682*
X00455503Y00563875D02*
X00451271D01*
X00453387*
Y00553295*
X00451271Y0055118*
X00449155*
X0044704Y00553295*
X00381Y00871215D02*
Y0085852D01*
Y00862751*
X00389463Y00871215*
X00383115Y00864867*
X00389463Y0085852*
X0087122Y00655315D02*
Y0064262D01*
Y00646851*
X00879683Y00655315*
X00873335Y00648967*
X00879683Y0064262*
X0097536Y00386075D02*
X00979591D01*
X00977475*
Y0037338*
X0097536*
X00979591*
X0082804Y00647695D02*
X00832271D01*
X00830155*
Y00635*
X0082804*
X00832271*
X013716Y00934715D02*
X01375831D01*
X01373715*
Y0092202*
X013716*
X01375831*
X013716Y00886455D02*
X01375831D01*
X01373715*
Y0087376*
X013716*
X01375831*
X0146304Y01521455D02*
X01467271D01*
X01465155*
Y0150876*
X0146304*
X01467271*
X0150876Y01437635D02*
X01512991D01*
X01510875*
Y0142494*
X0150876*
X01512991*
X0150622Y01478275D02*
X01510451D01*
X01508335*
Y0146558*
X0150622*
X01510451*
X0150876Y01518915D02*
X01512991D01*
X01510875*
Y0150622*
X0150876*
X01512991*
X0147066Y01546855D02*
X01474891D01*
X01472775*
Y0153416*
X0147066*
X01474891*
X0149606Y0157543D02*
X01500291D01*
X01498175*
Y01562735*
X0149606*
X01500291*
X0104648Y00726435D02*
X01050711D01*
X01048595*
Y0071374*
X0104648*
X01050711*
X0106426Y00728975D02*
X01068491D01*
X01066375*
Y0071628*
X0106426*
X01068491*
X0140462Y01508755D02*
X01408851D01*
X01406735*
Y0149606*
X0140462*
X01408851*
X0104902Y01602735D02*
X01053251D01*
X01051135*
Y0159004*
X0104902*
X01053251*
X0115316Y01605275D02*
X01157391D01*
X01155275*
Y0159258*
X0115316*
X01157391*
X0108458Y01605275D02*
X01088811D01*
X01086695*
Y0159258*
X0108458*
X01088811*
X0130302Y01582415D02*
X01307251D01*
X01305135*
Y0156972*
X0130302*
X01307251*
X0066294Y01610355D02*
X00667171D01*
X00665055*
Y0159766*
X0066294*
X00667171*
X0055372Y01625595D02*
X00557951D01*
X00555835*
Y016129*
X0055372*
X00557951*
X0073406Y01549395D02*
X00738291D01*
X00736175*
Y015367*
X0073406*
X00738291*
X0053594Y01539235D02*
X00540171D01*
X00538055*
Y0152654*
X0053594*
X00540171*
X006096Y01506215D02*
X00613831D01*
X00611715*
Y0149352*
X006096*
X00613831*
X0055372Y01602735D02*
X00557951D01*
X00555835*
Y0159004*
X0055372*
X00557951*
X003429Y01386835D02*
X00347131D01*
X00345015*
Y0137414*
X003429*
X00347131*
X01257259Y01062022D02*
X01261491D01*
X01259375*
Y01049326*
X01257259*
X01261491*
X01197689Y01169362D02*
X01201921D01*
X01199805*
Y01156666*
X01197689*
X01201921*
X01248815Y01154019D02*
X01253047D01*
X01250931*
Y01141323*
X01248815*
X01253047*
X0127Y00980435D02*
X01274231D01*
X01272115*
Y0096774*
X0127*
X01274231*
X0160528Y00817875D02*
X01609511D01*
X01607395*
Y0080518*
X0160528*
X01609511*
X010414Y00848355D02*
X01045631D01*
X01043515*
Y0083566*
X010414*
X01045631*
X0085299Y00875426D02*
X00857222D01*
X00855106*
Y0086273*
X0085299*
X00857222*
X0090932Y00789935D02*
X00913551D01*
X00911435*
Y0077724*
X0090932*
X00913551*
X0077978Y00723895D02*
X00784011D01*
X00781895*
Y007112*
X0077978*
X00784011*
X0023622Y00347975D02*
X00240451D01*
X00238335*
Y0033528*
X0023622*
X00240451*
X0023622Y00414691D02*
X00240451D01*
X00238335*
Y00401995*
X0023622*
X00240451*
X0023622Y00481407D02*
X00240451D01*
X00238335*
Y00468712*
X0023622*
X00240451*
X0023622Y00548124D02*
X00240451D01*
X00238335*
Y00535428*
X0023622*
X00240451*
X0023622Y0061484D02*
X00240451D01*
X00238335*
Y00602144*
X0023622*
X00240451*
X0023622Y00681556D02*
X00240451D01*
X00238335*
Y0066886*
X0023622*
X00240451*
X0023622Y00748272D02*
X00240451D01*
X00238335*
Y00735576*
X0023622*
X00240451*
X0023622Y00814989D02*
X00240451D01*
X00238335*
Y00802293*
X0023622*
X00240451*
X0023622Y00881705D02*
X00240451D01*
X00238335*
Y00869009*
X0023622*
X00240451*
X0023622Y00948421D02*
X00240451D01*
X00238335*
Y00935725*
X0023622*
X00240451*
X0023622Y01015137D02*
X00240451D01*
X00238335*
Y01002441*
X0023622*
X00240451*
X0023622Y01081854D02*
X00240451D01*
X00238335*
Y01069158*
X0023622*
X00240451*
X0023622Y0114857D02*
X00240451D01*
X00238335*
Y01135874*
X0023622*
X00240451*
X0023622Y01215286D02*
X00240451D01*
X00238335*
Y0120259*
X0023622*
X00240451*
X0023622Y01282002D02*
X00240451D01*
X00238335*
Y01269306*
X0023622*
X00240451*
X0023622Y01348719D02*
X00240451D01*
X00238335*
Y01336023*
X0023622*
X00240451*
X0023622Y01415435D02*
X00240451D01*
X00238335*
Y01402739*
X0023622*
X00240451*
X0023622Y01482151D02*
X00240451D01*
X00238335*
Y01469455*
X0023622*
X00240451*
X0023622Y01548867D02*
X00240451D01*
X00238335*
Y01536171*
X0023622*
X00240451*
X0023622Y01615584D02*
X00240451D01*
X00238335*
Y01602888*
X0023622*
X00240451*
X0055626Y01176015D02*
X00560491D01*
X00558375*
Y0116332*
X0055626*
X00560491*
X0047752Y01082035D02*
X00481751D01*
X00479635*
Y0106934*
X0047752*
X00481751*
X0041656Y01082035D02*
X00420791D01*
X00418675*
Y0106934*
X0041656*
X00420791*
X0057912Y00881375D02*
X00583351D01*
X00581235*
Y0086868*
X0057912*
X00583351*
X003429Y00759455D02*
X00347131D01*
X00345015*
Y0074676*
X003429*
X00347131*
X003429Y00815335D02*
X00347131D01*
X00345015*
Y0080264*
X003429*
X00347131*
X003429Y00868675D02*
X00347131D01*
X00345015*
Y0085598*
X003429*
X00347131*
X005715Y00177795D02*
X00575731D01*
X00573615*
Y001651*
X005715*
X00575731*
X0049784Y00177795D02*
X00502071D01*
X00499955*
Y001651*
X0049784*
X00502071*
X0042418Y00177795D02*
X00428411D01*
X00426295*
Y001651*
X0042418*
X00428411*
X0035052Y00177795D02*
X00354751D01*
X00352635*
Y001651*
X0035052*
X00354751*
X0032258Y00304795D02*
X00326811D01*
X00324695*
Y002921*
X0032258*
X00326811*
X0032258Y00363215D02*
X00326811D01*
X00324695*
Y0035052*
X0032258*
X00326811*
X0032258Y00421635D02*
X00326811D01*
X00324695*
Y0040894*
X0032258*
X00326811*
X0032258Y00480055D02*
X00326811D01*
X00324695*
Y0046736*
X0032258*
X00326811*
X0130048Y00731515D02*
X01304711D01*
X01302595*
Y0071882*
X0130048*
X01304711*
X0095504Y00162555D02*
X00959271D01*
X00957155*
Y0014986*
X0095504*
X00959271*
X0089662Y00162555D02*
X00900851D01*
X00898735*
Y0014986*
X0089662*
X00900851*
X008382Y00162555D02*
X00842431D01*
X00840315*
Y0014986*
X008382*
X00842431*
X01235459Y00200655D02*
X01239691D01*
X01237575*
Y0018796*
X01235459*
X01239691*
X0115062Y00200655D02*
X01154851D01*
X01152735*
Y0018796*
X0115062*
X01154851*
X0159766Y00549135D02*
X01601891D01*
X01599775*
Y00536439*
X0159766*
X01601891*
X0137668Y00535935D02*
X01380911D01*
X01378795*
Y0052324*
X0137668*
X01380911*
X0167894Y00398775D02*
X01683171D01*
X01681055*
Y0038608*
X0167894*
X01683171*
X0148844Y00380995D02*
X01492671D01*
X01490555*
Y003683*
X0148844*
X01492671*
X0132588Y00380995D02*
X01330111D01*
X01327995*
Y003683*
X0132588*
X01330111*
X0164592Y00467355D02*
X01650151D01*
X01648035*
Y0045466*
X0164592*
X01650151*
X0155702Y00477515D02*
X01561251D01*
X01559135*
Y0046482*
X0155702*
X01561251*
X0145034Y00474975D02*
X01454571D01*
X01452455*
Y0046228*
X0145034*
X01454571*
X0132334Y00596895D02*
X01327571D01*
X01325455*
Y005842*
X0132334*
X01327571*
X0167894Y00704422D02*
X01683171D01*
X01681055*
Y00691726*
X0167894*
X01683171*
X0168148Y00802635D02*
X01685711D01*
X01683595*
Y0078994*
X0168148*
X01685711*
X0167894Y00909315D02*
X01683171D01*
X01681055*
Y0089662*
X0167894*
X01683171*
X0167894Y01011761D02*
X01683171D01*
X01681055*
Y00999066*
X0167894*
X01683171*
X0167894Y01114208D02*
X01683171D01*
X01681055*
Y01101512*
X0167894*
X01683171*
X0167894Y01216655D02*
X01683171D01*
X01681055*
Y0120396*
X0167894*
X01683171*
X0167894Y01319101D02*
X01683171D01*
X01681055*
Y01306406*
X0167894*
X01683171*
X0160528Y00857668D02*
X01609511D01*
X01607395*
Y00844972*
X0160528*
X01609511*
X0160528Y00904235D02*
X01609511D01*
X01607395*
Y0089154*
X0160528*
X01609511*
X0160528Y00937255D02*
X01609511D01*
X01607395*
Y0092456*
X0160528*
X01609511*
X0160528Y00977048D02*
X01609511D01*
X01607395*
Y00964352*
X0160528*
X01609511*
X0160274Y01193795D02*
X01606971D01*
X01604855*
Y011811*
X0160274*
X01606971*
X0160528Y01120135D02*
X01609511D01*
X01607395*
Y0110744*
X0160528*
X01609511*
X0160528Y01056635D02*
X01609511D01*
X01607395*
Y0104394*
X0160528*
X01609511*
X0160528Y01008375D02*
X01609511D01*
X01607395*
Y0099568*
X0160528*
X01609511*
X01098608Y01090925D02*
X0110284D01*
X01100724*
Y0107823*
X01098608*
X0110284*
X011049Y01033775D02*
X01109131D01*
X01107015*
Y0102108*
X011049*
X01109131*
X0115031Y01048294D02*
X01154542D01*
X01152426*
Y01035598*
X0115031*
X01154542*
X00694263Y00665269D02*
X00690031D01*
X00692147*
Y00654689*
X00690031Y00652573*
X00687915*
X006858Y00654689*
X00643868Y00666285D02*
X00639636D01*
X00641752*
Y00655705*
X00639636Y00653589*
X0063752*
X00635404Y00655705*
X01188074Y01059175D02*
X01192306D01*
X0119019*
Y0104648*
X01188074*
X01192306*
X0119634Y01085885D02*
X01200571D01*
X01198455*
Y01073189*
X0119634*
X01200571*
X01202729Y01177905D02*
X01206961D01*
X01204845*
Y01165209*
X01202729*
X01206961*
X0046736Y00718815D02*
Y0070612D01*
Y00712467*
X00475823*
Y00718815*
Y0070612*
X0048006Y00708655D02*
Y0069596D01*
Y00702307*
X00488523*
Y00708655*
Y0069596*
X006604Y00596895D02*
Y005842D01*
Y00590547*
X00668863*
Y00596895*
Y005842*
X0071374Y00662935D02*
Y0065024D01*
Y00656587*
X00722203*
Y00662935*
Y0065024*
X0025146Y01844035D02*
Y0183134D01*
Y01837687*
X00259923*
Y01844035*
Y0183134*
X0031496Y01821175D02*
Y0180848D01*
Y01814827*
X00323423*
Y01821175*
Y0180848*
X0036322Y01897375D02*
Y0188468D01*
Y01891027*
X00371683*
Y01897375*
Y0188468*
X0036322Y01912615D02*
Y0189992D01*
Y01906267*
X00371683*
Y01912615*
Y0189992*
X0036322Y01927855D02*
Y0191516D01*
Y01921507*
X00371683*
Y01927855*
Y0191516*
X0036322Y01882135D02*
Y0186944D01*
Y01875787*
X00371683*
Y01882135*
Y0186944*
X0039116Y01798315D02*
Y0178562D01*
Y01791967*
X00399623*
Y01798315*
Y0178562*
X0090424Y01102355D02*
X00908471D01*
X00906355*
Y0108966*
X0090424*
X00908471*
X0102616Y01010915D02*
X01030391D01*
X01028275*
Y0099822*
X0102616*
X01030391*
X0105664Y01041395D02*
X01060871D01*
X01058755*
Y010287*
X0105664*
X01060871*
X0118618Y00998215D02*
X01190411D01*
X01188295*
Y0098552*
X0118618*
X01190411*
X0115316Y01290315D02*
X01157391D01*
X01155275*
Y0127762*
X0115316*
X01157391*
X010541Y01290315D02*
X01058331D01*
X01056215*
Y0127762*
X010541*
X01058331*
X0103124Y01287775D02*
X01035471D01*
X01033355*
Y0127508*
X0103124*
X01035471*
X0143764Y01282695D02*
X01441871D01*
X01439755*
Y0127*
X0143764*
X01441871*
X0152654Y01285235D02*
X01530771D01*
X01528655*
Y0127254*
X0152654*
X01530771*
X0110744Y00886455D02*
X01111671D01*
X01109555*
Y0087376*
X0110744*
X01111671*
X0134366Y00855975D02*
X01347891D01*
X01345775*
Y0084328*
X0134366*
X01347891*
X0117602Y00927095D02*
X01180251D01*
X01178135*
Y009144*
X0117602*
X01180251*
X013208Y00965195D02*
X01325031D01*
X01322915*
Y009525*
X013208*
X01325031*
X0138684Y01173475D02*
X01391071D01*
X01388955*
Y0116078*
X0138684*
X01391071*
X0161544Y00645155D02*
X01619671D01*
X01617555*
Y0063246*
X0161544*
X01619671*
X0130048Y00533395D02*
X01304711D01*
X01302595*
Y005207*
X0130048*
X01304711*
X0151892Y00175255D02*
X01523151D01*
X01521035*
Y0016256*
X0151892*
X01523151*
X0146304Y00269235D02*
X01467271D01*
X01465155*
Y0025654*
X0146304*
X01467271*
X013208Y00200155D02*
X01325031D01*
X01322915*
Y00187459*
X013208*
X01325031*
X0124206Y00634995D02*
X01246291D01*
X01244175*
Y006223*
X0124206*
X01246291*
X0078486Y00533395D02*
X00789091D01*
X00786975*
Y005207*
X0078486*
X00789091*
X0080264Y00561335D02*
X00806871D01*
X00804755*
Y0054864*
X0080264*
X00806871*
X008763Y00604515D02*
X00880531D01*
X00878415*
Y0059182*
X008763*
X00880531*
X0087376Y00761995D02*
X00877991D01*
X00875875*
Y007493*
X0087376*
X00877991*
X0077978Y00657855D02*
X00784011D01*
X00781895*
Y0064516*
X0077978*
X00784011*
X0074676Y00703575D02*
X00750991D01*
X00748875*
Y0069088*
X0074676*
X00750991*
X0054102Y00680715D02*
X00545251D01*
X00543135*
Y0066802*
X0054102*
X00545251*
X0049276Y00767075D02*
X00496991D01*
X00494875*
Y0075438*
X0049276*
X00496991*
X0064262Y00769615D02*
X00646851D01*
X00644735*
Y0075692*
X0064262*
X00646851*
X0075184Y00792475D02*
X00756071D01*
X00753955*
Y0077978*
X0075184*
X00756071*
X0114808Y00995675D02*
X01152311D01*
X01150195*
Y0098298*
X0114808*
X01152311*
X0109728Y00982975D02*
X01101511D01*
X01099395*
Y0097028*
X0109728*
X01101511*
X01096583Y00973355D02*
X01100815D01*
X01098698*
Y00960659*
X01096583*
X01100815*
X0114808Y00965848D02*
X01152311D01*
X01150195*
Y00953153*
X0114808*
X01152311*
X00664525Y01171018D02*
X00668756D01*
X0066664*
Y01158322*
X00664525*
X00668756*
X006477Y01173475D02*
X00651931D01*
X00649815*
Y0116078*
X006477*
X00651931*
X00723013Y00243835D02*
X00718781D01*
X00720897*
Y00233255*
X00718781Y0023114*
X00716665*
X00714549Y00233255*
X00750143Y00228595D02*
X00745911D01*
X00748027*
Y00218015*
X00745911Y002159*
X00743795*
X0074168Y00218015*
X0098552Y00226055D02*
X00989751D01*
X00987635*
Y0021336*
X0098552*
X00989751*
X0116586Y00614675D02*
X01170091D01*
X01167975*
Y0060198*
X0116586*
X01170091*
X01224839Y01185415D02*
X01229071D01*
X01226955*
Y01172719*
X01224839*
X01229071*
X0122682Y01198875D02*
X01231051D01*
X01228935*
Y0118618*
X0122682*
X01231051*
X01200583Y01225357D02*
X01204815D01*
X01202699*
Y01212662*
X01200583*
X01204815*
X01166749Y01180205D02*
X01170981D01*
X01168865*
Y01167509*
X01166749*
X01170981*
X0106426Y01125215D02*
X01068491D01*
X01066375*
Y0111252*
X0106426*
X01068491*
X010795Y01142995D02*
X01083731D01*
X01081615*
Y011303*
X010795*
X01083731*
X0108204Y01135375D02*
X01086271D01*
X01084155*
Y0112268*
X0108204*
X01086271*
X0095504Y00637535D02*
X00959271D01*
X00957155*
Y0062484*
X0095504*
X00959271*
X00831423Y00807295D02*
X00827191D01*
X00829307*
Y00796715*
X00827191Y00794599*
X00825075*
X0082296Y00796715*
X0076708Y00852205D02*
X00771311D01*
X00769195*
Y00839509*
X0076708*
X00771311*
X00826806Y00839502D02*
X00831038D01*
X00828922*
Y00826806*
X00826806*
X00831038*
X00811267Y00807473D02*
X00807035D01*
X00809151*
Y00796893*
X00807035Y00794777*
X00804919*
X00802803Y00796893*
X0082042Y00975355D02*
X00824651D01*
X00822535*
Y0096266*
X0082042*
X00824651*
X00846001Y00948469D02*
X00850233D01*
X00848117*
Y00935773*
X00846001*
X00850233*
X0085344Y00949955D02*
X00857671D01*
X00855555*
Y0093726*
X0085344*
X00857671*
X00932561Y00928364D02*
X00936794D01*
X00934677*
Y00915668*
X00932561*
X00936794*
X00910995Y00917822D02*
X00915227D01*
X00913111*
Y00905126*
X00910995*
X00915227*
X00902935Y00916946D02*
X00907167D01*
X00905051*
Y0090425*
X00902935*
X00907167*
X00884547Y00912926D02*
X00888778D01*
X00886662*
Y0090023*
X00884547*
X00888778*
X00894258Y00915453D02*
X0089849D01*
X00896374*
Y00902757*
X00894258*
X0089849*
X00875517Y00911081D02*
X00879749D01*
X00877633*
Y00898385*
X00875517*
X00879749*
X00868897Y00981521D02*
X00873129D01*
X00871013*
Y00968825*
X00868897*
X00873129*
X00892158Y01014628D02*
X0089639D01*
X00894274*
Y01001932*
X00892158*
X0089639*
X00890453Y01007283D02*
X00894685D01*
X00892569*
Y00994587*
X00890453*
X00894685*
X00822341Y00955653D02*
X00826573D01*
X00824457*
Y00942957*
X00822341*
X00826573*
X00894341Y01023874D02*
X00898573D01*
X00896457*
Y01011178*
X00894341*
X00898573*
X00945236Y00931103D02*
X00949468D01*
X00947352*
Y00918407*
X00945236*
X00949468*
X009525Y00891535D02*
X00956731D01*
X00954615*
Y0087884*
X009525*
X00956731*
X009652Y00876295D02*
X00969431D01*
X00967315*
Y008636*
X009652*
X00969431*
X0102362Y00894075D02*
X01027851D01*
X01025735*
Y0088138*
X0102362*
X01027851*
X00981169Y00902925D02*
X00985401D01*
X00983285*
Y00890229*
X00981169*
X00985401*
X00731279Y01168395D02*
X00735511D01*
X00733395*
Y011557*
X00731279*
X00735511*
X00719663Y006115D02*
X00715431D01*
X00717547*
Y0060092*
X00715431Y00598805*
X00713315*
X007112Y0060092*
X0094234Y00756915D02*
X00946571D01*
X00944455*
Y0074422*
X0094234*
X00946571*
X007239Y00561335D02*
X00728131D01*
X00726015*
Y0054864*
X007239*
X00728131*
X0080518Y00718815D02*
X00809411D01*
X00807295*
Y0070612*
X0080518*
X00809411*
X0121666Y00431795D02*
X01220891D01*
X01218775*
Y004191*
X0121666*
X01220891*
X012573Y00386075D02*
X01261531D01*
X01259415*
Y0037338*
X012573*
X01261531*
X0117348Y00785725D02*
X01177711D01*
X01175595*
Y00773029*
X0117348*
X01177711*
X00539323Y00596895D02*
X00535091D01*
X00537207*
Y00586315*
X00535091Y005842*
X00532975*
X0053086Y00586315*
X00553657Y00607769D02*
X00549425D01*
X00551541*
Y00597189*
X00549425Y00595073*
X00547309*
X00545193Y00597189*
X0048006Y00607055D02*
X00484291D01*
X00482175*
Y0059436*
X0048006*
X00484291*
X004953Y00688335D02*
X00499531D01*
X00497415*
Y0067564*
X004953*
X00499531*
X00579963Y00772457D02*
X00575731D01*
X00577847*
Y00761877*
X00575731Y00759761*
X00573615*
X005715Y00761877*
X00666805Y00772637D02*
X00662573D01*
X00664689*
Y00762057*
X00662573Y00759941*
X00660458*
X00658342Y00762057*
X00556403Y00772457D02*
X00552171D01*
X00554286*
Y00761877*
X00552171Y00759761*
X00550055*
X00547939Y00761877*
X00592663Y00772457D02*
X00588431D01*
X00590547*
Y00761877*
X00588431Y00759761*
X00586315*
X005842Y00761877*
X00567263Y00772457D02*
X00563031D01*
X00565147*
Y00761877*
X00563031Y00759761*
X00560915*
X005588Y00761877*
X00623143Y00655315D02*
X00618911D01*
X00621027*
Y00644735*
X00618911Y0064262*
X00616795*
X0061468Y00644735*
X00638383Y00767075D02*
X00634151D01*
X00636267*
Y00756495*
X00634151Y0075438*
X00632035*
X0062992Y00756495*
X00791643Y00850059D02*
X00795875D01*
X00793759*
Y00837363*
X00791643*
X00795875*
X00777521Y00869239D02*
X00781753D01*
X00779637*
Y00856543*
X00777521*
X00781753*
X0084328Y00835655D02*
X00847511D01*
X00845395*
Y0082296*
X0084328*
X00847511*
X01371165Y00975789D02*
X01375397D01*
X01373281*
Y00963093*
X01371165*
X01375397*
X012954Y01343655D02*
X01299631D01*
X01297515*
Y0133096*
X012954*
X01299631*
X0131826Y01130295D02*
X01322491D01*
X01320375*
Y011176*
X0131826*
X01322491*
X0132334Y01137915D02*
X01327571D01*
X01325455*
Y0112522*
X0132334*
X01327571*
X00762Y01162085D02*
X00766231D01*
X00764115*
Y01149389*
X00762*
X00766231*
X008128Y01170935D02*
X00817031D01*
X00814915*
Y0115824*
X008128*
X00817031*
X00824109Y0114812D02*
X00828341D01*
X00826225*
Y01135424*
X00824109*
X00828341*
X0082042Y01160708D02*
X00824651D01*
X00822535*
Y01148012*
X0082042*
X00824651*
X008636Y01160775D02*
X00867831D01*
X00865715*
Y0114808*
X008636*
X00867831*
X0096774Y01130295D02*
X00971971D01*
X00969855*
Y011176*
X0096774*
X00971971*
X0111252Y01203955D02*
X01116751D01*
X01114635*
Y0119126*
X0111252*
X01116751*
X01098431Y01211055D02*
X01102663D01*
X01100547*
Y01198359*
X01098431*
X01102663*
X0072898Y01076955D02*
X00733211D01*
X00731095*
Y0106426*
X0072898*
X00733211*
X00796249Y01135174D02*
X00800481D01*
X00798365*
Y01122478*
X00796249*
X00800481*
X00791169Y01092195D02*
X00795401D01*
X00793285*
Y010795*
X00791169*
X00795401*
X00825339Y01107435D02*
X00829571D01*
X00827455*
Y0109474*
X00825339*
X00829571*
X00855522Y01153612D02*
X00859754D01*
X00857638*
Y01140916*
X00855522*
X00859754*
X00871871Y01134723D02*
X00876103D01*
X00873987*
Y01122027*
X00871871*
X00876103*
X0086614Y01092195D02*
X00870371D01*
X00868255*
Y010795*
X0086614*
X00870371*
X0088646Y01102355D02*
X00890691D01*
X00888575*
Y0108966*
X0088646*
X00890691*
X00843199Y0116632D02*
X00847431D01*
X00845315*
Y01153624*
X00843199*
X00847431*
X00830139Y01128551D02*
X00834371D01*
X00832255*
Y01115855*
X00830139*
X00834371*
X0078328Y01026155D02*
X00787512D01*
X00785396*
Y0101346*
X0078328*
X00787512*
X0074422Y01056635D02*
X00748451D01*
X00746335*
Y0104394*
X0074422*
X00748451*
X0071628Y01046475D02*
X00720511D01*
X00718395*
Y0103378*
X0071628*
X00720511*
X0078836Y01066795D02*
X00792592D01*
X00790476*
Y010541*
X0078836*
X00792592*
X00819029Y01092295D02*
X00823261D01*
X00821145*
Y01079599*
X00819029*
X00823261*
X00986749Y01236895D02*
X00990981D01*
X00988865*
Y01224199*
X00986749*
X00990981*
X0097028Y01229355D02*
X00974511D01*
X00972395*
Y0121666*
X0097028*
X00974511*
X009525Y01214115D02*
X00956731D01*
X00954615*
Y0120142*
X009525*
X00956731*
X0094996Y01226815D02*
X00954191D01*
X00952075*
Y0121412*
X0094996*
X00954191*
X00939147Y01228703D02*
X00943379D01*
X00941263*
Y01216007*
X00939147*
X00943379*
X0089662Y00886455D02*
X00900851D01*
X00898735*
Y0087376*
X0089662*
X00900851*
X01191836Y01221076D02*
X01196068D01*
X01193952*
Y0120838*
X01191836*
X01196068*
X01184257Y01212837D02*
X01188489D01*
X01186373*
Y01200141*
X01184257*
X01188489*
X01194051Y01053843D02*
X01198282D01*
X01196167*
Y01041147*
X01194051*
X01198282*
X0110236Y01129065D02*
X01106591D01*
X01104475*
Y01116369*
X0110236*
X01106591*
X0119126Y01163315D02*
X01195491D01*
X01193375*
Y0115062*
X0119126*
X01195491*
X0112522Y00942662D02*
X01129451D01*
X01127335*
Y00929966*
X0112522*
X01129451*
X0116332Y00965848D02*
X01167551D01*
X01165435*
Y00953153*
X0116332*
X01167551*
X01143Y00943068D02*
X01147231D01*
X01145115*
Y00930373*
X01143*
X01147231*
X01143Y00934715D02*
X01147231D01*
X01145115*
Y0092202*
X01143*
X01147231*
X01221213Y00978468D02*
X01225445D01*
X01223329*
Y00965772*
X01221213*
X01225445*
X0124968Y01046475D02*
X01253911D01*
X01251795*
Y0103378*
X0124968*
X01253911*
X010795Y00955035D02*
X01083731D01*
X01081615*
Y0094234*
X010795*
X01083731*
X0110744Y01008375D02*
X01111671D01*
X01109555*
Y0099568*
X0110744*
X01111671*
X011049Y01021075D02*
X01109131D01*
X01107015*
Y0100838*
X011049*
X01109131*
X0103124Y01092195D02*
X01035471D01*
X01033355*
Y010795*
X0103124*
X01035471*
X011049Y01115055D02*
X01109131D01*
X01107015*
Y0110236*
X011049*
X01109131*
X01103047Y00605635D02*
X01107279D01*
X01105163*
Y0059294*
X01103047*
X01107279*
X01104996Y00612919D02*
X01109228D01*
X01107112*
Y00600223*
X01104996*
X01109228*
X01101049Y00634995D02*
X01105281D01*
X01103165*
Y006223*
X01101049*
X01105281*
X0109474Y00619755D02*
X01098971D01*
X01096855*
Y0060706*
X0109474*
X01098971*
X01137045Y00612497D02*
X01141277D01*
X01139161*
Y00599801*
X01137045*
X01141277*
X01149985Y00607684D02*
X01154218D01*
X01152102*
Y00594988*
X01149985*
X01154218*
X01122245Y00622729D02*
X01126477D01*
X01124361*
Y00610033*
X01122245*
X01126477*
X01113749Y00622362D02*
X01117981D01*
X01115865*
Y00609666*
X01113749*
X01117981*
X0104394Y00210815D02*
X01048171D01*
X01046055*
Y0019812*
X0104394*
X01048171*
X01161397Y00601357D02*
X01165629D01*
X01163513*
Y00588661*
X01161397*
X01165629*
X01163353Y00589241D02*
X01167585D01*
X01165469*
Y00576546*
X01163353*
X01167585*
X01142288Y00627654D02*
X0114652D01*
X01144404*
Y00614958*
X01142288*
X0114652*
X01154469Y00622729D02*
X01158701D01*
X01156585*
Y00610033*
X01154469*
X01158701*
X01133457Y00626757D02*
X01137689D01*
X01135573*
Y00614061*
X01133457*
X01137689*
X01075029Y00756915D02*
X01070797D01*
X01072913*
Y00746335*
X01070797Y0074422*
X01068681*
X01066565Y00746335*
X00682179Y00657855D02*
X00677947D01*
X00680063*
Y00647275*
X00677947Y0064516*
X00675831*
X00673715Y00647275*
X01044783Y00718815D02*
X01040551D01*
X01042667*
Y00708235*
X01040551Y0070612*
X01038435*
X0103632Y00708235*
X00805344Y00939117D02*
X00809576D01*
X0080746*
Y00926421*
X00805344*
X00809576*
X00841542Y00894878D02*
X00845774D01*
X00843658*
Y00882182*
X00841542*
X00845774*
X00829927Y00906123D02*
X00834159D01*
X00832043*
Y00893427*
X00829927*
X00834159*
X00817227Y00918823D02*
X00821459D01*
X00819343*
Y00906127*
X00817227*
X00821459*
X00807054Y00926497D02*
X00811285D01*
X0080917*
Y00913801*
X00807054*
X00811285*
X008382Y00881375D02*
X00842431D01*
X00840315*
Y0086868*
X008382*
X00842431*
X0080772Y00910545D02*
X00811951D01*
X00809835*
Y00897849*
X0080772*
X00811951*
X0083312Y00896615D02*
X00837351D01*
X00835235*
Y0088392*
X0083312*
X00837351*
X0082296Y00899155D02*
X00827191D01*
X00825075*
Y0088646*
X0082296*
X00827191*
X00862327Y00900427D02*
X00866559D01*
X00864443*
Y00887731*
X00862327*
X00866559*
X00820243Y00848179D02*
X00824475D01*
X00822359*
Y00835483*
X00820243*
X00824475*
X00685638Y0087275D02*
X00681406D01*
X00683522*
Y0086217*
X00681406Y00860054*
X0067929*
X00677174Y0086217*
X0082376Y00987183D02*
X00827992D01*
X00825876*
Y00974487*
X0082376*
X00827992*
X0103378Y00888995D02*
X01038011D01*
X01035895*
Y008763*
X0103378*
X01038011*
X01015314Y0088069D02*
X01019546D01*
X0101743*
Y00867994*
X01015314*
X01019546*
X01050249Y00919475D02*
X01054481D01*
X01052365*
Y0090678*
X01050249*
X01054481*
X01039079Y00870995D02*
X01043311D01*
X01041195*
Y00858299*
X01039079*
X01043311*
X01006277Y01132397D02*
X01010509D01*
X01008393*
Y01119701*
X01006277*
X01010509*
X0109474Y01193354D02*
X01098971D01*
X01096855*
Y01180659*
X0109474*
X01098971*
X0089154Y00869905D02*
X00895771D01*
X00893655*
Y00857209*
X0089154*
X00895771*
X00989947Y00879487D02*
X00994179D01*
X00992063*
Y00866791*
X00989947*
X00994179*
X00997567Y00887107D02*
X01001799D01*
X00999683*
Y00874411*
X00997567*
X01001799*
X01016312Y00935535D02*
X01020544D01*
X01018428*
Y00922839*
X01016312*
X01020544*
X0116586Y01200185D02*
X01170091D01*
X01167975*
Y01187489*
X0116586*
X01170091*
X00976669Y00924555D02*
X00980901D01*
X00978785*
Y0091186*
X00976669*
X00980901*
X00958889Y00922015D02*
X00963121D01*
X00961005*
Y0090932*
X00958889*
X00963121*
X00974049Y00916935D02*
X00978281D01*
X00976165*
Y0090424*
X00974049*
X00978281*
X00640923Y00591815D02*
X00636691D01*
X00638807*
Y00581235*
X00636691Y0057912*
X00634575*
X0063246Y00581235*
X00592663Y00604515D02*
X00588431D01*
X00590547*
Y00593935*
X00588431Y0059182*
X00586315*
X005842Y00593935*
X00579963Y00604515D02*
X00575731D01*
X00577847*
Y00593935*
X00575731Y0059182*
X00573615*
X005715Y00593935*
X00605363Y00574035D02*
X00601131D01*
X00603247*
Y00563455*
X00601131Y0056134*
X00599015*
X005969Y00563455*
X00389463Y01066795D02*
X00385231D01*
X00387347*
Y01056215*
X00385231Y010541*
X00383115*
X00381Y01056215*
X00552023Y00901695D02*
X00547791D01*
X00549907*
Y00891115*
X00547791Y00889*
X00545675*
X0054356Y00891115*
X00706963Y00660395D02*
X00702731D01*
X00704847*
Y00649815*
X00702731Y006477*
X00700615*
X006985Y00649815*
X00681563Y00774695D02*
X00677331D01*
X00679447*
Y00764115*
X00677331Y00762*
X00675215*
X006731Y00764115*
X00694263Y00774695D02*
X00690031D01*
X00692147*
Y00764115*
X00690031Y00762*
X00687915*
X006858Y00764115*
X00757763Y00782315D02*
X00753531D01*
X00755647*
Y00771735*
X00753531Y0076962*
X00751415*
X007493Y00771735*
X00831423Y00797555D02*
X00827191D01*
X00829307*
Y00786975*
X00827191Y0078486*
X00825075*
X0082296Y00786975*
X00706963Y00774695D02*
X00702731D01*
X00704847*
Y00764115*
X00702731Y00762*
X00700615*
X006985Y00764115*
X00706963Y00787395D02*
X00702731D01*
X00704847*
Y00776815*
X00702731Y007747*
X00700615*
X006985Y00776815*
X0103941Y00703038D02*
X01035178D01*
X01037294*
Y00692458*
X01035178Y00690342*
X01033062*
X01030946Y00692458*
G54D174*
X01110769Y00078719D02*
D01*
X01110757Y00079074*
X0111072Y00079426*
X01110658Y00079776*
X01110573Y0008012*
X01110463Y00080457*
X0111033Y00080785*
X01110175Y00081104*
X01109998Y00081411*
X01109799Y00081705*
X01109581Y00081985*
X01109344Y00082248*
X01109088Y00082495*
X01108817Y00082722*
X0110853Y00082931*
X01108229Y00083119*
X01107916Y00083285*
X01107592Y00083429*
X01107259Y00083551*
X01106918Y00083649*
X01106572Y00083722*
X0110622Y00083771*
X01105867Y00083796*
X01105512*
X01105158Y00083771*
X01104807Y00083722*
X0110446Y00083649*
X01104119Y00083551*
X01103786Y00083429*
X01103462Y00083285*
X01103149Y00083119*
X01102849Y00082931*
X01102562Y00082722*
X0110229Y00082495*
X01102035Y00082248*
X01101798Y00081985*
X01101579Y00081705*
X01101381Y00081411*
X01101204Y00081104*
X01101049Y00080785*
X01100916Y00080457*
X01100806Y0008012*
X0110072Y00079776*
X01100659Y00079426*
X01100622Y00079074*
X01100609Y00078719*
X01100622Y00078365*
X01100659Y00078012*
X0110072Y00077663*
X01100806Y00077319*
X01100916Y00076982*
X01101049Y00076653*
X01101204Y00076334*
X01101381Y00076027*
X01101579Y00075733*
X01101798Y00075454*
X01102035Y00075191*
X0110229Y00074944*
X01102562Y00074716*
X01102849Y00074508*
X01103149Y0007432*
X01103462Y00074154*
X01103786Y00074009*
X01104119Y00073888*
X0110446Y0007379*
X01104807Y00073717*
X01105158Y00073667*
X01105512Y00073642*
X01105867*
X0110622Y00073667*
X01106572Y00073717*
X01106918Y0007379*
X01107259Y00073888*
X01107592Y00074009*
X01107916Y00074154*
X01108229Y0007432*
X0110853Y00074508*
X01108817Y00074716*
X01109088Y00074944*
X01109344Y00075191*
X01109581Y00075454*
X01109799Y00075733*
X01109998Y00076027*
X01110175Y00076334*
X0111033Y00076653*
X01110463Y00076982*
X01110573Y00077319*
X01110658Y00077663*
X0111072Y00078012*
X01110757Y00078365*
X01110769Y00078719*
X01096919Y00050319D02*
D01*
X01096907Y00050674*
X0109687Y00051026*
X01096808Y00051376*
X01096722Y00051719*
X01096613Y00052057*
X0109648Y00052385*
X01096325Y00052704*
X01096147Y00053011*
X01095949Y00053305*
X01095731Y00053585*
X01095494Y00053848*
X01095239Y00054095*
X01094967Y00054322*
X0109468Y00054531*
X01094379Y00054719*
X01094066Y00054885*
X01093742Y00055029*
X01093409Y00055151*
X01093068Y00055249*
X01092721Y00055322*
X0109237Y00055372*
X01092017Y00055396*
X01091662*
X01091308Y00055372*
X01090957Y00055322*
X0109061Y00055249*
X0109027Y00055151*
X01089936Y00055029*
X01089613Y00054885*
X01089299Y00054719*
X01088999Y00054531*
X01088712Y00054322*
X0108844Y00054095*
X01088185Y00053848*
X01087948Y00053585*
X0108773Y00053305*
X01087531Y00053011*
X01087354Y00052704*
X01087198Y00052385*
X01087066Y00052057*
X01086956Y00051719*
X0108687Y00051376*
X01086809Y00051026*
X01086772Y00050674*
X01086759Y00050319*
X01086772Y00049965*
X01086809Y00049612*
X0108687Y00049263*
X01086956Y00048919*
X01087066Y00048582*
X01087198Y00048253*
X01087354Y00047934*
X01087531Y00047627*
X0108773Y00047333*
X01087948Y00047054*
X01088185Y00046791*
X0108844Y00046544*
X01088712Y00046316*
X01088999Y00046108*
X01089299Y0004592*
X01089613Y00045754*
X01089936Y00045609*
X0109027Y00045488*
X0109061Y0004539*
X01090957Y00045317*
X01091308Y00045267*
X01091662Y00045242*
X01092017*
X0109237Y00045267*
X01092721Y00045317*
X01093068Y0004539*
X01093409Y00045488*
X01093742Y00045609*
X01094066Y00045754*
X01094379Y0004592*
X0109468Y00046108*
X01094967Y00046316*
X01095239Y00046544*
X01095494Y00046791*
X01095731Y00047054*
X01095949Y00047333*
X01096147Y00047627*
X01096325Y00047934*
X0109648Y00048253*
X01096613Y00048582*
X01096722Y00048919*
X01096808Y00049263*
X0109687Y00049612*
X01096907Y00049965*
X01096919Y00050319*
X01083069Y00078719D02*
D01*
X01083057Y00079074*
X0108302Y00079426*
X01082958Y00079776*
X01082873Y0008012*
X01082763Y00080457*
X0108263Y00080785*
X01082475Y00081104*
X01082298Y00081411*
X01082099Y00081705*
X01081881Y00081985*
X01081644Y00082248*
X01081388Y00082495*
X01081117Y00082722*
X0108083Y00082931*
X01080529Y00083119*
X01080216Y00083285*
X01079892Y00083429*
X01079559Y00083551*
X01079218Y00083649*
X01078872Y00083722*
X0107852Y00083771*
X01078167Y00083796*
X01077812*
X01077458Y00083771*
X01077107Y00083722*
X0107676Y00083649*
X01076419Y00083551*
X01076086Y00083429*
X01075762Y00083285*
X01075449Y00083119*
X01075149Y00082931*
X01074862Y00082722*
X0107459Y00082495*
X01074335Y00082248*
X01074098Y00081985*
X01073879Y00081705*
X01073681Y00081411*
X01073504Y00081104*
X01073349Y00080785*
X01073216Y00080457*
X01073106Y0008012*
X0107302Y00079776*
X01072959Y00079426*
X01072922Y00079074*
X01072909Y00078719*
X01072922Y00078365*
X01072959Y00078012*
X0107302Y00077663*
X01073106Y00077319*
X01073216Y00076982*
X01073349Y00076653*
X01073504Y00076334*
X01073681Y00076027*
X01073879Y00075733*
X01074098Y00075454*
X01074335Y00075191*
X0107459Y00074944*
X01074862Y00074716*
X01075149Y00074508*
X01075449Y0007432*
X01075762Y00074154*
X01076086Y00074009*
X01076419Y00073888*
X0107676Y0007379*
X01077107Y00073717*
X01077458Y00073667*
X01077812Y00073642*
X01078167*
X0107852Y00073667*
X01078872Y00073717*
X01079218Y0007379*
X01079559Y00073888*
X01079892Y00074009*
X01080216Y00074154*
X01080529Y0007432*
X0108083Y00074508*
X01081117Y00074716*
X01081388Y00074944*
X01081644Y00075191*
X01081881Y00075454*
X01082099Y00075733*
X01082298Y00076027*
X01082475Y00076334*
X0108263Y00076653*
X01082763Y00076982*
X01082873Y00077319*
X01082958Y00077663*
X0108302Y00078012*
X01083057Y00078365*
X01083069Y00078719*
X01069219Y00050319D02*
D01*
X01069207Y00050674*
X0106917Y00051026*
X01069108Y00051376*
X01069023Y00051719*
X01068913Y00052057*
X0106878Y00052385*
X01068625Y00052704*
X01068447Y00053011*
X01068249Y00053305*
X01068031Y00053585*
X01067794Y00053848*
X01067539Y00054095*
X01067267Y00054322*
X0106698Y00054531*
X01066679Y00054719*
X01066366Y00054885*
X01066042Y00055029*
X01065709Y00055151*
X01065368Y00055249*
X01065022Y00055322*
X0106467Y00055372*
X01064317Y00055396*
X01063962*
X01063608Y00055372*
X01063257Y00055322*
X01062911Y00055249*
X0106257Y00055151*
X01062236Y00055029*
X01061913Y00054885*
X01061599Y00054719*
X01061299Y00054531*
X01061012Y00054322*
X0106074Y00054095*
X01060485Y00053848*
X01060248Y00053585*
X0106003Y00053305*
X01059831Y00053011*
X01059654Y00052704*
X01059499Y00052385*
X01059366Y00052057*
X01059256Y00051719*
X0105917Y00051376*
X01059109Y00051026*
X01059072Y00050674*
X01059059Y00050319*
X01059072Y00049965*
X01059109Y00049612*
X0105917Y00049263*
X01059256Y00048919*
X01059366Y00048582*
X01059499Y00048253*
X01059654Y00047934*
X01059831Y00047627*
X0106003Y00047333*
X01060248Y00047054*
X01060485Y00046791*
X0106074Y00046544*
X01061012Y00046316*
X01061299Y00046108*
X01061599Y0004592*
X01061913Y00045754*
X01062236Y00045609*
X0106257Y00045488*
X01062911Y0004539*
X01063257Y00045317*
X01063608Y00045267*
X01063962Y00045242*
X01064317*
X0106467Y00045267*
X01065022Y00045317*
X01065368Y0004539*
X01065709Y00045488*
X01066042Y00045609*
X01066366Y00045754*
X01066679Y0004592*
X0106698Y00046108*
X01067267Y00046316*
X01067539Y00046544*
X01067794Y00046791*
X01068031Y00047054*
X01068249Y00047333*
X01068447Y00047627*
X01068625Y00047934*
X0106878Y00048253*
X01068913Y00048582*
X01069023Y00048919*
X01069108Y00049263*
X0106917Y00049612*
X01069207Y00049965*
X01069219Y00050319*
X0105537Y00078719D02*
D01*
X01055357Y00079074*
X0105532Y00079426*
X01055258Y00079776*
X01055173Y0008012*
X01055063Y00080457*
X0105493Y00080785*
X01054775Y00081104*
X01054597Y00081411*
X01054399Y00081705*
X01054181Y00081985*
X01053944Y00082248*
X01053689Y00082495*
X01053417Y00082722*
X0105313Y00082931*
X0105283Y00083119*
X01052516Y00083285*
X01052192Y00083429*
X01051859Y00083551*
X01051518Y00083649*
X01051171Y00083722*
X0105082Y00083771*
X01050467Y00083796*
X01050112*
X01049758Y00083771*
X01049407Y00083722*
X0104906Y00083649*
X0104872Y00083551*
X01048386Y00083429*
X01048062Y00083285*
X0104775Y00083119*
X01047449Y00082931*
X01047162Y00082722*
X0104689Y00082495*
X01046635Y00082248*
X01046398Y00081985*
X0104618Y00081705*
X01045981Y00081411*
X01045804Y00081104*
X01045649Y00080785*
X01045516Y00080457*
X01045406Y0008012*
X0104532Y00079776*
X01045259Y00079426*
X01045222Y00079074*
X0104521Y00078719*
X01045222Y00078365*
X01045259Y00078012*
X0104532Y00077663*
X01045406Y00077319*
X01045516Y00076982*
X01045649Y00076653*
X01045804Y00076334*
X01045981Y00076027*
X0104618Y00075733*
X01046398Y00075454*
X01046635Y00075191*
X0104689Y00074944*
X01047162Y00074716*
X01047449Y00074508*
X0104775Y0007432*
X01048062Y00074154*
X01048386Y00074009*
X0104872Y00073888*
X0104906Y0007379*
X01049407Y00073717*
X01049758Y00073667*
X01050112Y00073642*
X01050467*
X0105082Y00073667*
X01051171Y00073717*
X01051518Y0007379*
X01051859Y00073888*
X01052192Y00074009*
X01052516Y00074154*
X0105283Y0007432*
X0105313Y00074508*
X01053417Y00074716*
X01053689Y00074944*
X01053944Y00075191*
X01054181Y00075454*
X01054399Y00075733*
X01054597Y00076027*
X01054775Y00076334*
X0105493Y00076653*
X01055063Y00076982*
X01055173Y00077319*
X01055258Y00077663*
X0105532Y00078012*
X01055357Y00078365*
X0105537Y00078719*
X01041519Y00050319D02*
D01*
X01041507Y00050674*
X0104147Y00051026*
X01041408Y00051376*
X01041323Y00051719*
X01041213Y00052057*
X0104108Y00052385*
X01040925Y00052704*
X01040747Y00053011*
X01040549Y00053305*
X01040331Y00053585*
X01040094Y00053848*
X01039839Y00054095*
X01039567Y00054322*
X0103928Y00054531*
X01038979Y00054719*
X01038666Y00054885*
X01038342Y00055029*
X01038009Y00055151*
X01037668Y00055249*
X01037322Y00055322*
X01036971Y00055372*
X01036617Y00055396*
X01036262*
X01035908Y00055372*
X01035557Y00055322*
X01035211Y00055249*
X0103487Y00055151*
X01034536Y00055029*
X01034213Y00054885*
X01033899Y00054719*
X01033599Y00054531*
X01033312Y00054322*
X0103304Y00054095*
X01032785Y00053848*
X01032548Y00053585*
X0103233Y00053305*
X01032131Y00053011*
X01031954Y00052704*
X01031799Y00052385*
X01031666Y00052057*
X01031556Y00051719*
X0103147Y00051376*
X01031409Y00051026*
X01031372Y00050674*
X01031359Y00050319*
X01031372Y00049965*
X01031409Y00049612*
X0103147Y00049263*
X01031556Y00048919*
X01031666Y00048582*
X01031799Y00048253*
X01031954Y00047934*
X01032131Y00047627*
X0103233Y00047333*
X01032548Y00047054*
X01032785Y00046791*
X0103304Y00046544*
X01033312Y00046316*
X01033599Y00046108*
X01033899Y0004592*
X01034213Y00045754*
X01034536Y00045609*
X0103487Y00045488*
X01035211Y0004539*
X01035557Y00045317*
X01035908Y00045267*
X01036262Y00045242*
X01036617*
X01036971Y00045267*
X01037322Y00045317*
X01037668Y0004539*
X01038009Y00045488*
X01038342Y00045609*
X01038666Y00045754*
X01038979Y0004592*
X0103928Y00046108*
X01039567Y00046316*
X01039839Y00046544*
X01040094Y00046791*
X01040331Y00047054*
X01040549Y00047333*
X01040747Y00047627*
X01040925Y00047934*
X0104108Y00048253*
X01041213Y00048582*
X01041323Y00048919*
X01041408Y00049263*
X0104147Y00049612*
X01041507Y00049965*
X01041519Y00050319*
X01027669Y00078719D02*
D01*
X01027657Y00079074*
X0102762Y00079426*
X01027558Y00079776*
X01027473Y0008012*
X01027363Y00080457*
X0102723Y00080785*
X01027075Y00081104*
X01026897Y00081411*
X01026699Y00081705*
X01026481Y00081985*
X01026244Y00082248*
X01025989Y00082495*
X01025717Y00082722*
X0102543Y00082931*
X01025129Y00083119*
X01024816Y00083285*
X01024492Y00083429*
X01024159Y00083551*
X01023818Y00083649*
X01023471Y00083722*
X0102312Y00083771*
X01022767Y00083796*
X01022412*
X01022058Y00083771*
X01021707Y00083722*
X0102136Y00083649*
X0102102Y00083551*
X01020686Y00083429*
X01020362Y00083285*
X01020049Y00083119*
X01019749Y00082931*
X01019462Y00082722*
X0101919Y00082495*
X01018935Y00082248*
X01018698Y00081985*
X0101848Y00081705*
X01018281Y00081411*
X01018104Y00081104*
X01017948Y00080785*
X01017816Y00080457*
X01017706Y0008012*
X0101762Y00079776*
X01017559Y00079426*
X01017522Y00079074*
X01017509Y00078719*
X01017522Y00078365*
X01017559Y00078012*
X0101762Y00077663*
X01017706Y00077319*
X01017816Y00076982*
X01017948Y00076653*
X01018104Y00076334*
X01018281Y00076027*
X0101848Y00075733*
X01018698Y00075454*
X01018935Y00075191*
X0101919Y00074944*
X01019462Y00074716*
X01019749Y00074508*
X01020049Y0007432*
X01020362Y00074154*
X01020686Y00074009*
X0102102Y00073888*
X0102136Y0007379*
X01021707Y00073717*
X01022058Y00073667*
X01022412Y00073642*
X01022767*
X0102312Y00073667*
X01023471Y00073717*
X01023818Y0007379*
X01024159Y00073888*
X01024492Y00074009*
X01024816Y00074154*
X01025129Y0007432*
X0102543Y00074508*
X01025717Y00074716*
X01025989Y00074944*
X01026244Y00075191*
X01026481Y00075454*
X01026699Y00075733*
X01026897Y00076027*
X01027075Y00076334*
X0102723Y00076653*
X01027363Y00076982*
X01027473Y00077319*
X01027558Y00077663*
X0102762Y00078012*
X01027657Y00078365*
X01027669Y00078719*
X01013819Y00050319D02*
D01*
X01013807Y00050674*
X0101377Y00051026*
X01013708Y00051376*
X01013623Y00051719*
X01013513Y00052057*
X0101338Y00052385*
X01013225Y00052704*
X01013048Y00053011*
X01012849Y00053305*
X01012631Y00053585*
X01012394Y00053848*
X01012138Y00054095*
X01011867Y00054322*
X0101158Y00054531*
X01011279Y00054719*
X01010966Y00054885*
X01010642Y00055029*
X01010309Y00055151*
X01009968Y00055249*
X01009622Y00055322*
X0100927Y00055372*
X01008917Y00055396*
X01008562*
X01008208Y00055372*
X01007857Y00055322*
X0100751Y00055249*
X01007169Y00055151*
X01006836Y00055029*
X01006512Y00054885*
X01006199Y00054719*
X01005899Y00054531*
X01005612Y00054322*
X0100534Y00054095*
X01005085Y00053848*
X01004848Y00053585*
X01004629Y00053305*
X01004431Y00053011*
X01004254Y00052704*
X01004099Y00052385*
X01003966Y00052057*
X01003856Y00051719*
X0100377Y00051376*
X01003709Y00051026*
X01003672Y00050674*
X01003659Y00050319*
X01003672Y00049965*
X01003709Y00049612*
X0100377Y00049263*
X01003856Y00048919*
X01003966Y00048582*
X01004099Y00048253*
X01004254Y00047934*
X01004431Y00047627*
X01004629Y00047333*
X01004848Y00047054*
X01005085Y00046791*
X0100534Y00046544*
X01005612Y00046316*
X01005899Y00046108*
X01006199Y0004592*
X01006512Y00045754*
X01006836Y00045609*
X01007169Y00045488*
X0100751Y0004539*
X01007857Y00045317*
X01008208Y00045267*
X01008562Y00045242*
X01008917*
X0100927Y00045267*
X01009622Y00045317*
X01009968Y0004539*
X01010309Y00045488*
X01010642Y00045609*
X01010966Y00045754*
X01011279Y0004592*
X0101158Y00046108*
X01011867Y00046316*
X01012138Y00046544*
X01012394Y00046791*
X01012631Y00047054*
X01012849Y00047333*
X01013048Y00047627*
X01013225Y00047934*
X0101338Y00048253*
X01013513Y00048582*
X01013623Y00048919*
X01013708Y00049263*
X0101377Y00049612*
X01013807Y00049965*
X01013819Y00050319*
X00999969Y00078719D02*
D01*
X00999957Y00079074*
X0099992Y00079426*
X00999858Y00079776*
X00999772Y0008012*
X00999663Y00080457*
X0099953Y00080785*
X00999375Y00081104*
X00999197Y00081411*
X00998999Y00081705*
X00998781Y00081985*
X00998544Y00082248*
X00998289Y00082495*
X00998017Y00082722*
X0099773Y00082931*
X00997429Y00083119*
X00997116Y00083285*
X00996792Y00083429*
X00996459Y00083551*
X00996118Y00083649*
X00995771Y00083722*
X0099542Y00083771*
X00995067Y00083796*
X00994712*
X00994358Y00083771*
X00994007Y00083722*
X0099366Y00083649*
X0099332Y00083551*
X00992986Y00083429*
X00992662Y00083285*
X00992349Y00083119*
X00992049Y00082931*
X00991762Y00082722*
X0099149Y00082495*
X00991235Y00082248*
X00990998Y00081985*
X0099078Y00081705*
X00990581Y00081411*
X00990404Y00081104*
X00990248Y00080785*
X00990116Y00080457*
X00990006Y0008012*
X0098992Y00079776*
X00989859Y00079426*
X00989822Y00079074*
X00989809Y00078719*
X00989822Y00078365*
X00989859Y00078012*
X0098992Y00077663*
X00990006Y00077319*
X00990116Y00076982*
X00990248Y00076653*
X00990404Y00076334*
X00990581Y00076027*
X0099078Y00075733*
X00990998Y00075454*
X00991235Y00075191*
X0099149Y00074944*
X00991762Y00074716*
X00992049Y00074508*
X00992349Y0007432*
X00992662Y00074154*
X00992986Y00074009*
X0099332Y00073888*
X0099366Y0007379*
X00994007Y00073717*
X00994358Y00073667*
X00994712Y00073642*
X00995067*
X0099542Y00073667*
X00995771Y00073717*
X00996118Y0007379*
X00996459Y00073888*
X00996792Y00074009*
X00997116Y00074154*
X00997429Y0007432*
X0099773Y00074508*
X00998017Y00074716*
X00998289Y00074944*
X00998544Y00075191*
X00998781Y00075454*
X00998999Y00075733*
X00999197Y00076027*
X00999375Y00076334*
X0099953Y00076653*
X00999663Y00076982*
X00999772Y00077319*
X00999858Y00077663*
X0099992Y00078012*
X00999957Y00078365*
X00999969Y00078719*
X00680409Y00128249D02*
D01*
X00680397Y00128604*
X0068036Y00128956*
X00680298Y00129306*
X00680213Y0012965*
X00680103Y00129987*
X0067997Y00130315*
X00679815Y00130634*
X00679637Y00130941*
X00679439Y00131235*
X00679221Y00131515*
X00678984Y00131778*
X00678729Y00132025*
X00678457Y00132252*
X0067817Y00132461*
X00677869Y00132649*
X00677556Y00132815*
X00677232Y00132959*
X00676899Y00133081*
X00676558Y00133179*
X00676212Y00133252*
X0067586Y00133301*
X00675507Y00133326*
X00675152*
X00674798Y00133301*
X00674447Y00133252*
X00674101Y00133179*
X0067376Y00133081*
X00673426Y00132959*
X00673103Y00132815*
X00672789Y00132649*
X00672489Y00132461*
X00672202Y00132252*
X0067193Y00132025*
X00671675Y00131778*
X00671438Y00131515*
X0067122Y00131235*
X00671021Y00130941*
X00670844Y00130634*
X00670689Y00130315*
X00670556Y00129987*
X00670446Y0012965*
X0067036Y00129306*
X00670299Y00128956*
X00670262Y00128604*
X00670249Y00128249*
X00670262Y00127895*
X00670299Y00127542*
X0067036Y00127193*
X00670446Y00126849*
X00670556Y00126512*
X00670689Y00126183*
X00670844Y00125864*
X00671021Y00125557*
X0067122Y00125263*
X00671438Y00124984*
X00671675Y00124721*
X0067193Y00124474*
X00672202Y00124246*
X00672489Y00124038*
X00672789Y0012385*
X00673103Y00123684*
X00673426Y00123539*
X0067376Y00123418*
X00674101Y0012332*
X00674447Y00123247*
X00674798Y00123197*
X00675152Y00123172*
X00675507*
X0067586Y00123197*
X00676212Y00123247*
X00676558Y0012332*
X00676899Y00123418*
X00677232Y00123539*
X00677556Y00123684*
X00677869Y0012385*
X0067817Y00124038*
X00678457Y00124246*
X00678729Y00124474*
X00678984Y00124721*
X00679221Y00124984*
X00679439Y00125263*
X00679637Y00125557*
X00679815Y00125864*
X0067997Y00126183*
X00680103Y00126512*
X00680213Y00126849*
X00680298Y00127193*
X0068036Y00127542*
X00680397Y00127895*
X00680409Y00128249*
X00694259Y00099849D02*
D01*
X00694247Y00100204*
X0069421Y00100556*
X00694148Y00100906*
X00694063Y00101249*
X00693953Y00101587*
X0069382Y00101915*
X00693665Y00102234*
X00693488Y00102541*
X00693289Y00102835*
X00693071Y00103115*
X00692834Y00103378*
X00692579Y00103625*
X00692307Y00103852*
X0069202Y00104061*
X00691719Y00104249*
X00691406Y00104415*
X00691082Y00104559*
X00690749Y00104681*
X00690408Y00104779*
X00690062Y00104852*
X0068971Y00104902*
X00689357Y00104926*
X00689002*
X00688648Y00104902*
X00688297Y00104852*
X0068795Y00104779*
X0068761Y00104681*
X00687276Y00104559*
X00686952Y00104415*
X00686639Y00104249*
X00686339Y00104061*
X00686052Y00103852*
X0068578Y00103625*
X00685525Y00103378*
X00685288Y00103115*
X0068507Y00102835*
X00684871Y00102541*
X00684694Y00102234*
X00684539Y00101915*
X00684406Y00101587*
X00684296Y00101249*
X0068421Y00100906*
X00684149Y00100556*
X00684112Y00100204*
X00684099Y00099849*
X00684112Y00099495*
X00684149Y00099142*
X0068421Y00098793*
X00684296Y00098449*
X00684406Y00098112*
X00684539Y00097783*
X00684694Y00097464*
X00684871Y00097157*
X0068507Y00096863*
X00685288Y00096584*
X00685525Y00096321*
X0068578Y00096074*
X00686052Y00095846*
X00686339Y00095638*
X00686639Y0009545*
X00686952Y00095284*
X00687276Y00095139*
X0068761Y00095018*
X0068795Y0009492*
X00688297Y00094847*
X00688648Y00094797*
X00689002Y00094772*
X00689357*
X0068971Y00094797*
X00690062Y00094847*
X00690408Y0009492*
X00690749Y00095018*
X00691082Y00095139*
X00691406Y00095284*
X00691719Y0009545*
X0069202Y00095638*
X00692307Y00095846*
X00692579Y00096074*
X00692834Y00096321*
X00693071Y00096584*
X00693289Y00096863*
X00693488Y00097157*
X00693665Y00097464*
X0069382Y00097783*
X00693953Y00098112*
X00694063Y00098449*
X00694148Y00098793*
X0069421Y00099142*
X00694247Y00099495*
X00694259Y00099849*
X00708109Y00128249D02*
D01*
X00708097Y00128604*
X0070806Y00128956*
X00707998Y00129306*
X00707912Y0012965*
X00707803Y00129987*
X0070767Y00130315*
X00707515Y00130634*
X00707337Y00130941*
X00707139Y00131235*
X00706921Y00131515*
X00706684Y00131778*
X00706429Y00132025*
X00706157Y00132252*
X0070587Y00132461*
X00705569Y00132649*
X00705256Y00132815*
X00704932Y00132959*
X00704599Y00133081*
X00704258Y00133179*
X00703911Y00133252*
X0070356Y00133301*
X00703207Y00133326*
X00702852*
X00702498Y00133301*
X00702147Y00133252*
X007018Y00133179*
X0070146Y00133081*
X00701126Y00132959*
X00700803Y00132815*
X00700489Y00132649*
X00700189Y00132461*
X00699902Y00132252*
X0069963Y00132025*
X00699375Y00131778*
X00699138Y00131515*
X0069892Y00131235*
X00698721Y00130941*
X00698544Y00130634*
X00698389Y00130315*
X00698256Y00129987*
X00698146Y0012965*
X0069806Y00129306*
X00697999Y00128956*
X00697962Y00128604*
X00697949Y00128249*
X00697962Y00127895*
X00697999Y00127542*
X0069806Y00127193*
X00698146Y00126849*
X00698256Y00126512*
X00698389Y00126183*
X00698544Y00125864*
X00698721Y00125557*
X0069892Y00125263*
X00699138Y00124984*
X00699375Y00124721*
X0069963Y00124474*
X00699902Y00124246*
X00700189Y00124038*
X00700489Y0012385*
X00700803Y00123684*
X00701126Y00123539*
X0070146Y00123418*
X007018Y0012332*
X00702147Y00123247*
X00702498Y00123197*
X00702852Y00123172*
X00703207*
X0070356Y00123197*
X00703911Y00123247*
X00704258Y0012332*
X00704599Y00123418*
X00704932Y00123539*
X00705256Y00123684*
X00705569Y0012385*
X0070587Y00124038*
X00706157Y00124246*
X00706429Y00124474*
X00706684Y00124721*
X00706921Y00124984*
X00707139Y00125263*
X00707337Y00125557*
X00707515Y00125864*
X0070767Y00126183*
X00707803Y00126512*
X00707912Y00126849*
X00707998Y00127193*
X0070806Y00127542*
X00708097Y00127895*
X00708109Y00128249*
X00721959Y00099849D02*
D01*
X00721947Y00100204*
X0072191Y00100556*
X00721848Y00100906*
X00721763Y00101249*
X00721653Y00101587*
X0072152Y00101915*
X00721365Y00102234*
X00721188Y00102541*
X00720989Y00102835*
X00720771Y00103115*
X00720534Y00103378*
X00720278Y00103625*
X00720007Y00103852*
X0071972Y00104061*
X00719419Y00104249*
X00719106Y00104415*
X00718782Y00104559*
X00718449Y00104681*
X00718108Y00104779*
X00717762Y00104852*
X0071741Y00104902*
X00717057Y00104926*
X00716702*
X00716348Y00104902*
X00715997Y00104852*
X0071565Y00104779*
X00715309Y00104681*
X00714976Y00104559*
X00714652Y00104415*
X00714339Y00104249*
X00714039Y00104061*
X00713752Y00103852*
X0071348Y00103625*
X00713225Y00103378*
X00712988Y00103115*
X00712769Y00102835*
X00712571Y00102541*
X00712394Y00102234*
X00712239Y00101915*
X00712106Y00101587*
X00711996Y00101249*
X0071191Y00100906*
X00711849Y00100556*
X00711812Y00100204*
X00711799Y00099849*
X00711812Y00099495*
X00711849Y00099142*
X0071191Y00098793*
X00711996Y00098449*
X00712106Y00098112*
X00712239Y00097783*
X00712394Y00097464*
X00712571Y00097157*
X00712769Y00096863*
X00712988Y00096584*
X00713225Y00096321*
X0071348Y00096074*
X00713752Y00095846*
X00714039Y00095638*
X00714339Y0009545*
X00714652Y00095284*
X00714976Y00095139*
X00715309Y00095018*
X0071565Y0009492*
X00715997Y00094847*
X00716348Y00094797*
X00716702Y00094772*
X00717057*
X0071741Y00094797*
X00717762Y00094847*
X00718108Y0009492*
X00718449Y00095018*
X00718782Y00095139*
X00719106Y00095284*
X00719419Y0009545*
X0071972Y00095638*
X00720007Y00095846*
X00720278Y00096074*
X00720534Y00096321*
X00720771Y00096584*
X00720989Y00096863*
X00721188Y00097157*
X00721365Y00097464*
X0072152Y00097783*
X00721653Y00098112*
X00721763Y00098449*
X00721848Y00098793*
X0072191Y00099142*
X00721947Y00099495*
X00721959Y00099849*
X00735809Y00128249D02*
D01*
X00735797Y00128604*
X0073576Y00128956*
X00735698Y00129306*
X00735612Y0012965*
X00735503Y00129987*
X0073537Y00130315*
X00735215Y00130634*
X00735037Y00130941*
X00734839Y00131235*
X00734621Y00131515*
X00734384Y00131778*
X00734129Y00132025*
X00733857Y00132252*
X0073357Y00132461*
X00733269Y00132649*
X00732956Y00132815*
X00732632Y00132959*
X00732299Y00133081*
X00731958Y00133179*
X00731611Y00133252*
X0073126Y00133301*
X00730907Y00133326*
X00730552*
X00730198Y00133301*
X00729847Y00133252*
X007295Y00133179*
X0072916Y00133081*
X00728826Y00132959*
X00728502Y00132815*
X00728189Y00132649*
X00727889Y00132461*
X00727602Y00132252*
X0072733Y00132025*
X00727075Y00131778*
X00726838Y00131515*
X0072662Y00131235*
X00726421Y00130941*
X00726244Y00130634*
X00726088Y00130315*
X00725956Y00129987*
X00725846Y0012965*
X0072576Y00129306*
X00725699Y00128956*
X00725662Y00128604*
X00725649Y00128249*
X00725662Y00127895*
X00725699Y00127542*
X0072576Y00127193*
X00725846Y00126849*
X00725956Y00126512*
X00726088Y00126183*
X00726244Y00125864*
X00726421Y00125557*
X0072662Y00125263*
X00726838Y00124984*
X00727075Y00124721*
X0072733Y00124474*
X00727602Y00124246*
X00727889Y00124038*
X00728189Y0012385*
X00728502Y00123684*
X00728826Y00123539*
X0072916Y00123418*
X007295Y0012332*
X00729847Y00123247*
X00730198Y00123197*
X00730552Y00123172*
X00730907*
X0073126Y00123197*
X00731611Y00123247*
X00731958Y0012332*
X00732299Y00123418*
X00732632Y00123539*
X00732956Y00123684*
X00733269Y0012385*
X0073357Y00124038*
X00733857Y00124246*
X00734129Y00124474*
X00734384Y00124721*
X00734621Y00124984*
X00734839Y00125263*
X00735037Y00125557*
X00735215Y00125864*
X0073537Y00126183*
X00735503Y00126512*
X00735612Y00126849*
X00735698Y00127193*
X0073576Y00127542*
X00735797Y00127895*
X00735809Y00128249*
X00749659Y00099849D02*
D01*
X00749647Y00100204*
X0074961Y00100556*
X00749548Y00100906*
X00749463Y00101249*
X00749353Y00101587*
X0074922Y00101915*
X00749065Y00102234*
X00748888Y00102541*
X00748689Y00102835*
X00748471Y00103115*
X00748234Y00103378*
X00747978Y00103625*
X00747707Y00103852*
X0074742Y00104061*
X00747119Y00104249*
X00746806Y00104415*
X00746482Y00104559*
X00746149Y00104681*
X00745808Y00104779*
X00745462Y00104852*
X0074511Y00104902*
X00744757Y00104926*
X00744402*
X00744048Y00104902*
X00743697Y00104852*
X0074335Y00104779*
X00743009Y00104681*
X00742676Y00104559*
X00742352Y00104415*
X00742039Y00104249*
X00741739Y00104061*
X00741452Y00103852*
X0074118Y00103625*
X00740925Y00103378*
X00740688Y00103115*
X00740469Y00102835*
X00740271Y00102541*
X00740094Y00102234*
X00739939Y00101915*
X00739806Y00101587*
X00739696Y00101249*
X0073961Y00100906*
X00739549Y00100556*
X00739512Y00100204*
X00739499Y00099849*
X00739512Y00099495*
X00739549Y00099142*
X0073961Y00098793*
X00739696Y00098449*
X00739806Y00098112*
X00739939Y00097783*
X00740094Y00097464*
X00740271Y00097157*
X00740469Y00096863*
X00740688Y00096584*
X00740925Y00096321*
X0074118Y00096074*
X00741452Y00095846*
X00741739Y00095638*
X00742039Y0009545*
X00742352Y00095284*
X00742676Y00095139*
X00743009Y00095018*
X0074335Y0009492*
X00743697Y00094847*
X00744048Y00094797*
X00744402Y00094772*
X00744757*
X0074511Y00094797*
X00745462Y00094847*
X00745808Y0009492*
X00746149Y00095018*
X00746482Y00095139*
X00746806Y00095284*
X00747119Y0009545*
X0074742Y00095638*
X00747707Y00095846*
X00747978Y00096074*
X00748234Y00096321*
X00748471Y00096584*
X00748689Y00096863*
X00748888Y00097157*
X00749065Y00097464*
X0074922Y00097783*
X00749353Y00098112*
X00749463Y00098449*
X00749548Y00098793*
X0074961Y00099142*
X00749647Y00099495*
X00749659Y00099849*
X00763509Y00128249D02*
D01*
X00763497Y00128604*
X0076346Y00128956*
X00763398Y00129306*
X00763313Y0012965*
X00763203Y00129987*
X0076307Y00130315*
X00762915Y00130634*
X00762737Y00130941*
X00762539Y00131235*
X00762321Y00131515*
X00762084Y00131778*
X00761829Y00132025*
X00761557Y00132252*
X0076127Y00132461*
X00760969Y00132649*
X00760656Y00132815*
X00760332Y00132959*
X00759999Y00133081*
X00759658Y00133179*
X00759311Y00133252*
X0075896Y00133301*
X00758607Y00133326*
X00758252*
X00757898Y00133301*
X00757547Y00133252*
X007572Y00133179*
X0075686Y00133081*
X00756526Y00132959*
X00756202Y00132815*
X00755889Y00132649*
X00755589Y00132461*
X00755302Y00132252*
X0075503Y00132025*
X00754775Y00131778*
X00754538Y00131515*
X0075432Y00131235*
X00754121Y00130941*
X00753944Y00130634*
X00753788Y00130315*
X00753656Y00129987*
X00753546Y0012965*
X0075346Y00129306*
X00753399Y00128956*
X00753362Y00128604*
X00753349Y00128249*
X00753362Y00127895*
X00753399Y00127542*
X0075346Y00127193*
X00753546Y00126849*
X00753656Y00126512*
X00753788Y00126183*
X00753944Y00125864*
X00754121Y00125557*
X0075432Y00125263*
X00754538Y00124984*
X00754775Y00124721*
X0075503Y00124474*
X00755302Y00124246*
X00755589Y00124038*
X00755889Y0012385*
X00756202Y00123684*
X00756526Y00123539*
X0075686Y00123418*
X007572Y0012332*
X00757547Y00123247*
X00757898Y00123197*
X00758252Y00123172*
X00758607*
X0075896Y00123197*
X00759311Y00123247*
X00759658Y0012332*
X00759999Y00123418*
X00760332Y00123539*
X00760656Y00123684*
X00760969Y0012385*
X0076127Y00124038*
X00761557Y00124246*
X00761829Y00124474*
X00762084Y00124721*
X00762321Y00124984*
X00762539Y00125263*
X00762737Y00125557*
X00762915Y00125864*
X0076307Y00126183*
X00763203Y00126512*
X00763313Y00126849*
X00763398Y00127193*
X0076346Y00127542*
X00763497Y00127895*
X00763509Y00128249*
X00777359Y00099849D02*
D01*
X00777347Y00100204*
X0077731Y00100556*
X00777248Y00100906*
X00777163Y00101249*
X00777053Y00101587*
X0077692Y00101915*
X00776765Y00102234*
X00776587Y00102541*
X00776389Y00102835*
X00776171Y00103115*
X00775934Y00103378*
X00775679Y00103625*
X00775407Y00103852*
X0077512Y00104061*
X00774819Y00104249*
X00774506Y00104415*
X00774182Y00104559*
X00773849Y00104681*
X00773508Y00104779*
X00773162Y00104852*
X00772811Y00104902*
X00772457Y00104926*
X00772102*
X00771748Y00104902*
X00771397Y00104852*
X00771051Y00104779*
X0077071Y00104681*
X00770376Y00104559*
X00770053Y00104415*
X00769739Y00104249*
X00769439Y00104061*
X00769152Y00103852*
X0076888Y00103625*
X00768625Y00103378*
X00768388Y00103115*
X0076817Y00102835*
X00767971Y00102541*
X00767794Y00102234*
X00767639Y00101915*
X00767506Y00101587*
X00767396Y00101249*
X0076731Y00100906*
X00767249Y00100556*
X00767212Y00100204*
X00767199Y00099849*
X00767212Y00099495*
X00767249Y00099142*
X0076731Y00098793*
X00767396Y00098449*
X00767506Y00098112*
X00767639Y00097783*
X00767794Y00097464*
X00767971Y00097157*
X0076817Y00096863*
X00768388Y00096584*
X00768625Y00096321*
X0076888Y00096074*
X00769152Y00095846*
X00769439Y00095638*
X00769739Y0009545*
X00770053Y00095284*
X00770376Y00095139*
X0077071Y00095018*
X00771051Y0009492*
X00771397Y00094847*
X00771748Y00094797*
X00772102Y00094772*
X00772457*
X00772811Y00094797*
X00773162Y00094847*
X00773508Y0009492*
X00773849Y00095018*
X00774182Y00095139*
X00774506Y00095284*
X00774819Y0009545*
X0077512Y00095638*
X00775407Y00095846*
X00775679Y00096074*
X00775934Y00096321*
X00776171Y00096584*
X00776389Y00096863*
X00776587Y00097157*
X00776765Y00097464*
X0077692Y00097783*
X00777053Y00098112*
X00777163Y00098449*
X00777248Y00098793*
X0077731Y00099142*
X00777347Y00099495*
X00777359Y00099849*
X0079121Y00128249D02*
D01*
X00791197Y00128604*
X0079116Y00128956*
X00791098Y00129306*
X00791013Y0012965*
X00790903Y00129987*
X0079077Y00130315*
X00790615Y00130634*
X00790437Y00130941*
X00790239Y00131235*
X00790021Y00131515*
X00789784Y00131778*
X00789529Y00132025*
X00789257Y00132252*
X0078897Y00132461*
X0078867Y00132649*
X00788356Y00132815*
X00788032Y00132959*
X00787699Y00133081*
X00787358Y00133179*
X00787011Y00133252*
X0078666Y00133301*
X00786307Y00133326*
X00785952*
X00785598Y00133301*
X00785247Y00133252*
X007849Y00133179*
X0078456Y00133081*
X00784226Y00132959*
X00783902Y00132815*
X0078359Y00132649*
X00783289Y00132461*
X00783002Y00132252*
X0078273Y00132025*
X00782475Y00131778*
X00782238Y00131515*
X0078202Y00131235*
X00781821Y00130941*
X00781644Y00130634*
X00781489Y00130315*
X00781356Y00129987*
X00781246Y0012965*
X0078116Y00129306*
X00781099Y00128956*
X00781062Y00128604*
X0078105Y00128249*
X00781062Y00127895*
X00781099Y00127542*
X0078116Y00127193*
X00781246Y00126849*
X00781356Y00126512*
X00781489Y00126183*
X00781644Y00125864*
X00781821Y00125557*
X0078202Y00125263*
X00782238Y00124984*
X00782475Y00124721*
X0078273Y00124474*
X00783002Y00124246*
X00783289Y00124038*
X0078359Y0012385*
X00783902Y00123684*
X00784226Y00123539*
X0078456Y00123418*
X007849Y0012332*
X00785247Y00123247*
X00785598Y00123197*
X00785952Y00123172*
X00786307*
X0078666Y00123197*
X00787011Y00123247*
X00787358Y0012332*
X00787699Y00123418*
X00788032Y00123539*
X00788356Y00123684*
X0078867Y0012385*
X0078897Y00124038*
X00789257Y00124246*
X00789529Y00124474*
X00789784Y00124721*
X00790021Y00124984*
X00790239Y00125263*
X00790437Y00125557*
X00790615Y00125864*
X0079077Y00126183*
X00790903Y00126512*
X00791013Y00126849*
X00791098Y00127193*
X0079116Y00127542*
X00791197Y00127895*
X0079121Y00128249*
X00999969D02*
D01*
X00999957Y00128604*
X0099992Y00128956*
X00999858Y00129306*
X00999772Y0012965*
X00999663Y00129987*
X0099953Y00130315*
X00999375Y00130634*
X00999197Y00130941*
X00998999Y00131235*
X00998781Y00131515*
X00998544Y00131778*
X00998289Y00132025*
X00998017Y00132252*
X0099773Y00132461*
X00997429Y00132649*
X00997116Y00132815*
X00996792Y00132959*
X00996459Y00133081*
X00996118Y00133179*
X00995771Y00133252*
X0099542Y00133301*
X00995067Y00133326*
X00994712*
X00994358Y00133301*
X00994007Y00133252*
X0099366Y00133179*
X0099332Y00133081*
X00992986Y00132959*
X00992662Y00132815*
X00992349Y00132649*
X00992049Y00132461*
X00991762Y00132252*
X0099149Y00132025*
X00991235Y00131778*
X00990998Y00131515*
X0099078Y00131235*
X00990581Y00130941*
X00990404Y00130634*
X00990248Y00130315*
X00990116Y00129987*
X00990006Y0012965*
X0098992Y00129306*
X00989859Y00128956*
X00989822Y00128604*
X00989809Y00128249*
X00989822Y00127895*
X00989859Y00127542*
X0098992Y00127193*
X00990006Y00126849*
X00990116Y00126512*
X00990248Y00126183*
X00990404Y00125864*
X00990581Y00125557*
X0099078Y00125263*
X00990998Y00124984*
X00991235Y00124721*
X0099149Y00124474*
X00991762Y00124246*
X00992049Y00124038*
X00992349Y0012385*
X00992662Y00123684*
X00992986Y00123539*
X0099332Y00123418*
X0099366Y0012332*
X00994007Y00123247*
X00994358Y00123197*
X00994712Y00123172*
X00995067*
X0099542Y00123197*
X00995771Y00123247*
X00996118Y0012332*
X00996459Y00123418*
X00996792Y00123539*
X00997116Y00123684*
X00997429Y0012385*
X0099773Y00124038*
X00998017Y00124246*
X00998289Y00124474*
X00998544Y00124721*
X00998781Y00124984*
X00998999Y00125263*
X00999197Y00125557*
X00999375Y00125864*
X0099953Y00126183*
X00999663Y00126512*
X00999772Y00126849*
X00999858Y00127193*
X0099992Y00127542*
X00999957Y00127895*
X00999969Y00128249*
X01013819Y00099849D02*
D01*
X01013807Y00100204*
X0101377Y00100556*
X01013708Y00100906*
X01013623Y00101249*
X01013513Y00101587*
X0101338Y00101915*
X01013225Y00102234*
X01013048Y00102541*
X01012849Y00102835*
X01012631Y00103115*
X01012394Y00103378*
X01012138Y00103625*
X01011867Y00103852*
X0101158Y00104061*
X01011279Y00104249*
X01010966Y00104415*
X01010642Y00104559*
X01010309Y00104681*
X01009968Y00104779*
X01009622Y00104852*
X0100927Y00104902*
X01008917Y00104926*
X01008562*
X01008208Y00104902*
X01007857Y00104852*
X0100751Y00104779*
X01007169Y00104681*
X01006836Y00104559*
X01006512Y00104415*
X01006199Y00104249*
X01005899Y00104061*
X01005612Y00103852*
X0100534Y00103625*
X01005085Y00103378*
X01004848Y00103115*
X01004629Y00102835*
X01004431Y00102541*
X01004254Y00102234*
X01004099Y00101915*
X01003966Y00101587*
X01003856Y00101249*
X0100377Y00100906*
X01003709Y00100556*
X01003672Y00100204*
X01003659Y00099849*
X01003672Y00099495*
X01003709Y00099142*
X0100377Y00098793*
X01003856Y00098449*
X01003966Y00098112*
X01004099Y00097783*
X01004254Y00097464*
X01004431Y00097157*
X01004629Y00096863*
X01004848Y00096584*
X01005085Y00096321*
X0100534Y00096074*
X01005612Y00095846*
X01005899Y00095638*
X01006199Y0009545*
X01006512Y00095284*
X01006836Y00095139*
X01007169Y00095018*
X0100751Y0009492*
X01007857Y00094847*
X01008208Y00094797*
X01008562Y00094772*
X01008917*
X0100927Y00094797*
X01009622Y00094847*
X01009968Y0009492*
X01010309Y00095018*
X01010642Y00095139*
X01010966Y00095284*
X01011279Y0009545*
X0101158Y00095638*
X01011867Y00095846*
X01012138Y00096074*
X01012394Y00096321*
X01012631Y00096584*
X01012849Y00096863*
X01013048Y00097157*
X01013225Y00097464*
X0101338Y00097783*
X01013513Y00098112*
X01013623Y00098449*
X01013708Y00098793*
X0101377Y00099142*
X01013807Y00099495*
X01013819Y00099849*
X01027669Y00128249D02*
D01*
X01027657Y00128604*
X0102762Y00128956*
X01027558Y00129306*
X01027473Y0012965*
X01027363Y00129987*
X0102723Y00130315*
X01027075Y00130634*
X01026897Y00130941*
X01026699Y00131235*
X01026481Y00131515*
X01026244Y00131778*
X01025989Y00132025*
X01025717Y00132252*
X0102543Y00132461*
X01025129Y00132649*
X01024816Y00132815*
X01024492Y00132959*
X01024159Y00133081*
X01023818Y00133179*
X01023471Y00133252*
X0102312Y00133301*
X01022767Y00133326*
X01022412*
X01022058Y00133301*
X01021707Y00133252*
X0102136Y00133179*
X0102102Y00133081*
X01020686Y00132959*
X01020362Y00132815*
X01020049Y00132649*
X01019749Y00132461*
X01019462Y00132252*
X0101919Y00132025*
X01018935Y00131778*
X01018698Y00131515*
X0101848Y00131235*
X01018281Y00130941*
X01018104Y00130634*
X01017948Y00130315*
X01017816Y00129987*
X01017706Y0012965*
X0101762Y00129306*
X01017559Y00128956*
X01017522Y00128604*
X01017509Y00128249*
X01017522Y00127895*
X01017559Y00127542*
X0101762Y00127193*
X01017706Y00126849*
X01017816Y00126512*
X01017948Y00126183*
X01018104Y00125864*
X01018281Y00125557*
X0101848Y00125263*
X01018698Y00124984*
X01018935Y00124721*
X0101919Y00124474*
X01019462Y00124246*
X01019749Y00124038*
X01020049Y0012385*
X01020362Y00123684*
X01020686Y00123539*
X0102102Y00123418*
X0102136Y0012332*
X01021707Y00123247*
X01022058Y00123197*
X01022412Y00123172*
X01022767*
X0102312Y00123197*
X01023471Y00123247*
X01023818Y0012332*
X01024159Y00123418*
X01024492Y00123539*
X01024816Y00123684*
X01025129Y0012385*
X0102543Y00124038*
X01025717Y00124246*
X01025989Y00124474*
X01026244Y00124721*
X01026481Y00124984*
X01026699Y00125263*
X01026897Y00125557*
X01027075Y00125864*
X0102723Y00126183*
X01027363Y00126512*
X01027473Y00126849*
X01027558Y00127193*
X0102762Y00127542*
X01027657Y00127895*
X01027669Y00128249*
X01041519Y00099849D02*
D01*
X01041507Y00100204*
X0104147Y00100556*
X01041408Y00100906*
X01041323Y00101249*
X01041213Y00101587*
X0104108Y00101915*
X01040925Y00102234*
X01040747Y00102541*
X01040549Y00102835*
X01040331Y00103115*
X01040094Y00103378*
X01039839Y00103625*
X01039567Y00103852*
X0103928Y00104061*
X01038979Y00104249*
X01038666Y00104415*
X01038342Y00104559*
X01038009Y00104681*
X01037668Y00104779*
X01037322Y00104852*
X01036971Y00104902*
X01036617Y00104926*
X01036262*
X01035908Y00104902*
X01035557Y00104852*
X01035211Y00104779*
X0103487Y00104681*
X01034536Y00104559*
X01034213Y00104415*
X01033899Y00104249*
X01033599Y00104061*
X01033312Y00103852*
X0103304Y00103625*
X01032785Y00103378*
X01032548Y00103115*
X0103233Y00102835*
X01032131Y00102541*
X01031954Y00102234*
X01031799Y00101915*
X01031666Y00101587*
X01031556Y00101249*
X0103147Y00100906*
X01031409Y00100556*
X01031372Y00100204*
X01031359Y00099849*
X01031372Y00099495*
X01031409Y00099142*
X0103147Y00098793*
X01031556Y00098449*
X01031666Y00098112*
X01031799Y00097783*
X01031954Y00097464*
X01032131Y00097157*
X0103233Y00096863*
X01032548Y00096584*
X01032785Y00096321*
X0103304Y00096074*
X01033312Y00095846*
X01033599Y00095638*
X01033899Y0009545*
X01034213Y00095284*
X01034536Y00095139*
X0103487Y00095018*
X01035211Y0009492*
X01035557Y00094847*
X01035908Y00094797*
X01036262Y00094772*
X01036617*
X01036971Y00094797*
X01037322Y00094847*
X01037668Y0009492*
X01038009Y00095018*
X01038342Y00095139*
X01038666Y00095284*
X01038979Y0009545*
X0103928Y00095638*
X01039567Y00095846*
X01039839Y00096074*
X01040094Y00096321*
X01040331Y00096584*
X01040549Y00096863*
X01040747Y00097157*
X01040925Y00097464*
X0104108Y00097783*
X01041213Y00098112*
X01041323Y00098449*
X01041408Y00098793*
X0104147Y00099142*
X01041507Y00099495*
X01041519Y00099849*
X0105537Y00128249D02*
D01*
X01055357Y00128604*
X0105532Y00128956*
X01055258Y00129306*
X01055173Y0012965*
X01055063Y00129987*
X0105493Y00130315*
X01054775Y00130634*
X01054597Y00130941*
X01054399Y00131235*
X01054181Y00131515*
X01053944Y00131778*
X01053689Y00132025*
X01053417Y00132252*
X0105313Y00132461*
X0105283Y00132649*
X01052516Y00132815*
X01052192Y00132959*
X01051859Y00133081*
X01051518Y00133179*
X01051171Y00133252*
X0105082Y00133301*
X01050467Y00133326*
X01050112*
X01049758Y00133301*
X01049407Y00133252*
X0104906Y00133179*
X0104872Y00133081*
X01048386Y00132959*
X01048062Y00132815*
X0104775Y00132649*
X01047449Y00132461*
X01047162Y00132252*
X0104689Y00132025*
X01046635Y00131778*
X01046398Y00131515*
X0104618Y00131235*
X01045981Y00130941*
X01045804Y00130634*
X01045649Y00130315*
X01045516Y00129987*
X01045406Y0012965*
X0104532Y00129306*
X01045259Y00128956*
X01045222Y00128604*
X0104521Y00128249*
X01045222Y00127895*
X01045259Y00127542*
X0104532Y00127193*
X01045406Y00126849*
X01045516Y00126512*
X01045649Y00126183*
X01045804Y00125864*
X01045981Y00125557*
X0104618Y00125263*
X01046398Y00124984*
X01046635Y00124721*
X0104689Y00124474*
X01047162Y00124246*
X01047449Y00124038*
X0104775Y0012385*
X01048062Y00123684*
X01048386Y00123539*
X0104872Y00123418*
X0104906Y0012332*
X01049407Y00123247*
X01049758Y00123197*
X01050112Y00123172*
X01050467*
X0105082Y00123197*
X01051171Y00123247*
X01051518Y0012332*
X01051859Y00123418*
X01052192Y00123539*
X01052516Y00123684*
X0105283Y0012385*
X0105313Y00124038*
X01053417Y00124246*
X01053689Y00124474*
X01053944Y00124721*
X01054181Y00124984*
X01054399Y00125263*
X01054597Y00125557*
X01054775Y00125864*
X0105493Y00126183*
X01055063Y00126512*
X01055173Y00126849*
X01055258Y00127193*
X0105532Y00127542*
X01055357Y00127895*
X0105537Y00128249*
X01069219Y00099849D02*
D01*
X01069207Y00100204*
X0106917Y00100556*
X01069108Y00100906*
X01069023Y00101249*
X01068913Y00101587*
X0106878Y00101915*
X01068625Y00102234*
X01068447Y00102541*
X01068249Y00102835*
X01068031Y00103115*
X01067794Y00103378*
X01067539Y00103625*
X01067267Y00103852*
X0106698Y00104061*
X01066679Y00104249*
X01066366Y00104415*
X01066042Y00104559*
X01065709Y00104681*
X01065368Y00104779*
X01065022Y00104852*
X0106467Y00104902*
X01064317Y00104926*
X01063962*
X01063608Y00104902*
X01063257Y00104852*
X01062911Y00104779*
X0106257Y00104681*
X01062236Y00104559*
X01061913Y00104415*
X01061599Y00104249*
X01061299Y00104061*
X01061012Y00103852*
X0106074Y00103625*
X01060485Y00103378*
X01060248Y00103115*
X0106003Y00102835*
X01059831Y00102541*
X01059654Y00102234*
X01059499Y00101915*
X01059366Y00101587*
X01059256Y00101249*
X0105917Y00100906*
X01059109Y00100556*
X01059072Y00100204*
X01059059Y00099849*
X01059072Y00099495*
X01059109Y00099142*
X0105917Y00098793*
X01059256Y00098449*
X01059366Y00098112*
X01059499Y00097783*
X01059654Y00097464*
X01059831Y00097157*
X0106003Y00096863*
X01060248Y00096584*
X01060485Y00096321*
X0106074Y00096074*
X01061012Y00095846*
X01061299Y00095638*
X01061599Y0009545*
X01061913Y00095284*
X01062236Y00095139*
X0106257Y00095018*
X01062911Y0009492*
X01063257Y00094847*
X01063608Y00094797*
X01063962Y00094772*
X01064317*
X0106467Y00094797*
X01065022Y00094847*
X01065368Y0009492*
X01065709Y00095018*
X01066042Y00095139*
X01066366Y00095284*
X01066679Y0009545*
X0106698Y00095638*
X01067267Y00095846*
X01067539Y00096074*
X01067794Y00096321*
X01068031Y00096584*
X01068249Y00096863*
X01068447Y00097157*
X01068625Y00097464*
X0106878Y00097783*
X01068913Y00098112*
X01069023Y00098449*
X01069108Y00098793*
X0106917Y00099142*
X01069207Y00099495*
X01069219Y00099849*
X01083069Y00128249D02*
D01*
X01083057Y00128604*
X0108302Y00128956*
X01082958Y00129306*
X01082873Y0012965*
X01082763Y00129987*
X0108263Y00130315*
X01082475Y00130634*
X01082298Y00130941*
X01082099Y00131235*
X01081881Y00131515*
X01081644Y00131778*
X01081388Y00132025*
X01081117Y00132252*
X0108083Y00132461*
X01080529Y00132649*
X01080216Y00132815*
X01079892Y00132959*
X01079559Y00133081*
X01079218Y00133179*
X01078872Y00133252*
X0107852Y00133301*
X01078167Y00133326*
X01077812*
X01077458Y00133301*
X01077107Y00133252*
X0107676Y00133179*
X01076419Y00133081*
X01076086Y00132959*
X01075762Y00132815*
X01075449Y00132649*
X01075149Y00132461*
X01074862Y00132252*
X0107459Y00132025*
X01074335Y00131778*
X01074098Y00131515*
X01073879Y00131235*
X01073681Y00130941*
X01073504Y00130634*
X01073349Y00130315*
X01073216Y00129987*
X01073106Y0012965*
X0107302Y00129306*
X01072959Y00128956*
X01072922Y00128604*
X01072909Y00128249*
X01072922Y00127895*
X01072959Y00127542*
X0107302Y00127193*
X01073106Y00126849*
X01073216Y00126512*
X01073349Y00126183*
X01073504Y00125864*
X01073681Y00125557*
X01073879Y00125263*
X01074098Y00124984*
X01074335Y00124721*
X0107459Y00124474*
X01074862Y00124246*
X01075149Y00124038*
X01075449Y0012385*
X01075762Y00123684*
X01076086Y00123539*
X01076419Y00123418*
X0107676Y0012332*
X01077107Y00123247*
X01077458Y00123197*
X01077812Y00123172*
X01078167*
X0107852Y00123197*
X01078872Y00123247*
X01079218Y0012332*
X01079559Y00123418*
X01079892Y00123539*
X01080216Y00123684*
X01080529Y0012385*
X0108083Y00124038*
X01081117Y00124246*
X01081388Y00124474*
X01081644Y00124721*
X01081881Y00124984*
X01082099Y00125263*
X01082298Y00125557*
X01082475Y00125864*
X0108263Y00126183*
X01082763Y00126512*
X01082873Y00126849*
X01082958Y00127193*
X0108302Y00127542*
X01083057Y00127895*
X01083069Y00128249*
X01096919Y00099849D02*
D01*
X01096907Y00100204*
X0109687Y00100556*
X01096808Y00100906*
X01096722Y00101249*
X01096613Y00101587*
X0109648Y00101915*
X01096325Y00102234*
X01096147Y00102541*
X01095949Y00102835*
X01095731Y00103115*
X01095494Y00103378*
X01095239Y00103625*
X01094967Y00103852*
X0109468Y00104061*
X01094379Y00104249*
X01094066Y00104415*
X01093742Y00104559*
X01093409Y00104681*
X01093068Y00104779*
X01092721Y00104852*
X0109237Y00104902*
X01092017Y00104926*
X01091662*
X01091308Y00104902*
X01090957Y00104852*
X0109061Y00104779*
X0109027Y00104681*
X01089936Y00104559*
X01089613Y00104415*
X01089299Y00104249*
X01088999Y00104061*
X01088712Y00103852*
X0108844Y00103625*
X01088185Y00103378*
X01087948Y00103115*
X0108773Y00102835*
X01087531Y00102541*
X01087354Y00102234*
X01087198Y00101915*
X01087066Y00101587*
X01086956Y00101249*
X0108687Y00100906*
X01086809Y00100556*
X01086772Y00100204*
X01086759Y00099849*
X01086772Y00099495*
X01086809Y00099142*
X0108687Y00098793*
X01086956Y00098449*
X01087066Y00098112*
X01087198Y00097783*
X01087354Y00097464*
X01087531Y00097157*
X0108773Y00096863*
X01087948Y00096584*
X01088185Y00096321*
X0108844Y00096074*
X01088712Y00095846*
X01088999Y00095638*
X01089299Y0009545*
X01089613Y00095284*
X01089936Y00095139*
X0109027Y00095018*
X0109061Y0009492*
X01090957Y00094847*
X01091308Y00094797*
X01091662Y00094772*
X01092017*
X0109237Y00094797*
X01092721Y00094847*
X01093068Y0009492*
X01093409Y00095018*
X01093742Y00095139*
X01094066Y00095284*
X01094379Y0009545*
X0109468Y00095638*
X01094967Y00095846*
X01095239Y00096074*
X01095494Y00096321*
X01095731Y00096584*
X01095949Y00096863*
X01096147Y00097157*
X01096325Y00097464*
X0109648Y00097783*
X01096613Y00098112*
X01096722Y00098449*
X01096808Y00098793*
X0109687Y00099142*
X01096907Y00099495*
X01096919Y00099849*
X01110769Y00128249D02*
D01*
X01110757Y00128604*
X0111072Y00128956*
X01110658Y00129306*
X01110573Y0012965*
X01110463Y00129987*
X0111033Y00130315*
X01110175Y00130634*
X01109998Y00130941*
X01109799Y00131235*
X01109581Y00131515*
X01109344Y00131778*
X01109088Y00132025*
X01108817Y00132252*
X0110853Y00132461*
X01108229Y00132649*
X01107916Y00132815*
X01107592Y00132959*
X01107259Y00133081*
X01106918Y00133179*
X01106572Y00133252*
X0110622Y00133301*
X01105867Y00133326*
X01105512*
X01105158Y00133301*
X01104807Y00133252*
X0110446Y00133179*
X01104119Y00133081*
X01103786Y00132959*
X01103462Y00132815*
X01103149Y00132649*
X01102849Y00132461*
X01102562Y00132252*
X0110229Y00132025*
X01102035Y00131778*
X01101798Y00131515*
X01101579Y00131235*
X01101381Y00130941*
X01101204Y00130634*
X01101049Y00130315*
X01100916Y00129987*
X01100806Y0012965*
X0110072Y00129306*
X01100659Y00128956*
X01100622Y00128604*
X01100609Y00128249*
X01100622Y00127895*
X01100659Y00127542*
X0110072Y00127193*
X01100806Y00126849*
X01100916Y00126512*
X01101049Y00126183*
X01101204Y00125864*
X01101381Y00125557*
X01101579Y00125263*
X01101798Y00124984*
X01102035Y00124721*
X0110229Y00124474*
X01102562Y00124246*
X01102849Y00124038*
X01103149Y0012385*
X01103462Y00123684*
X01103786Y00123539*
X01104119Y00123418*
X0110446Y0012332*
X01104807Y00123247*
X01105158Y00123197*
X01105512Y00123172*
X01105867*
X0110622Y00123197*
X01106572Y00123247*
X01106918Y0012332*
X01107259Y00123418*
X01107592Y00123539*
X01107916Y00123684*
X01108229Y0012385*
X0110853Y00124038*
X01108817Y00124246*
X01109088Y00124474*
X01109344Y00124721*
X01109581Y00124984*
X01109799Y00125263*
X01109998Y00125557*
X01110175Y00125864*
X0111033Y00126183*
X01110463Y00126512*
X01110573Y00126849*
X01110658Y00127193*
X0111072Y00127542*
X01110757Y00127895*
X01110769Y00128249*
X01153799Y0162814D02*
D01*
X01153787Y01628494*
X0115375Y01628846*
X01153688Y01629196*
X01153602Y0162954*
X01153493Y01629877*
X0115336Y01630206*
X01153205Y01630524*
X01153027Y01630831*
X01152829Y01631125*
X01152611Y01631405*
X01152374Y01631668*
X01152119Y01631914*
X01151847Y01632143*
X0115156Y01632351*
X01151259Y01632539*
X01150946Y01632705*
X01150622Y01632849*
X01150289Y01632971*
X01149948Y01633068*
X01149601Y01633142*
X0114925Y01633192*
X01148897Y01633216*
X01148542*
X01148188Y01633192*
X01147837Y01633142*
X0114749Y01633068*
X0114715Y01632971*
X01146816Y01632849*
X01146493Y01632705*
X01146179Y01632539*
X01145879Y01632351*
X01145592Y01632143*
X0114532Y01631914*
X01145065Y01631668*
X01144828Y01631405*
X0114461Y01631125*
X01144411Y01630831*
X01144234Y01630524*
X01144078Y01630206*
X01143946Y01629877*
X01143836Y0162954*
X0114375Y01629196*
X01143689Y01628846*
X01143652Y01628494*
X01143639Y0162814*
X01143652Y01627785*
X01143689Y01627432*
X0114375Y01627083*
X01143836Y01626739*
X01143946Y01626402*
X01144078Y01626073*
X01144234Y01625754*
X01144411Y01625447*
X0114461Y01625153*
X01144828Y01624874*
X01145065Y0162461*
X0114532Y01624364*
X01145592Y01624136*
X01145879Y01623928*
X01146179Y0162374*
X01146493Y01623574*
X01146816Y01623429*
X0114715Y01623308*
X0114749Y0162321*
X01147837Y01623136*
X01148188Y01623087*
X01148542Y01623063*
X01148897*
X0114925Y01623087*
X01149601Y01623136*
X01149948Y0162321*
X01150289Y01623308*
X01150622Y01623429*
X01150946Y01623574*
X01151259Y0162374*
X0115156Y01623928*
X01151847Y01624136*
X01152119Y01624364*
X01152374Y0162461*
X01152611Y01624874*
X01152829Y01625153*
X01153027Y01625447*
X01153205Y01625754*
X0115336Y01626073*
X01153493Y01626402*
X01153602Y01626739*
X01153688Y01627083*
X0115375Y01627432*
X01153787Y01627785*
X01153799Y0162814*
X011938D02*
D01*
X01193787Y01628494*
X0119375Y01628846*
X01193688Y01629196*
X01193603Y0162954*
X01193493Y01629877*
X0119336Y01630206*
X01193205Y01630524*
X01193027Y01630831*
X01192829Y01631125*
X01192611Y01631405*
X01192374Y01631668*
X01192119Y01631914*
X01191847Y01632143*
X0119156Y01632351*
X0119126Y01632539*
X01190946Y01632705*
X01190622Y01632849*
X01190289Y01632971*
X01189948Y01633068*
X01189601Y01633142*
X0118925Y01633192*
X01188897Y01633216*
X01188542*
X01188188Y01633192*
X01187837Y01633142*
X0118749Y01633068*
X0118715Y01632971*
X01186816Y01632849*
X01186492Y01632705*
X0118618Y01632539*
X01185879Y01632351*
X01185592Y01632143*
X0118532Y01631914*
X01185065Y01631668*
X01184828Y01631405*
X0118461Y01631125*
X01184411Y01630831*
X01184234Y01630524*
X01184079Y01630206*
X01183946Y01629877*
X01183836Y0162954*
X0118375Y01629196*
X01183689Y01628846*
X01183652Y01628494*
X0118364Y0162814*
X01183652Y01627785*
X01183689Y01627432*
X0118375Y01627083*
X01183836Y01626739*
X01183946Y01626402*
X01184079Y01626073*
X01184234Y01625754*
X01184411Y01625447*
X0118461Y01625153*
X01184828Y01624874*
X01185065Y0162461*
X0118532Y01624364*
X01185592Y01624136*
X01185879Y01623928*
X0118618Y0162374*
X01186492Y01623574*
X01186816Y01623429*
X0118715Y01623308*
X0118749Y0162321*
X01187837Y01623136*
X01188188Y01623087*
X01188542Y01623063*
X01188897*
X0118925Y01623087*
X01189601Y01623136*
X01189948Y0162321*
X01190289Y01623308*
X01190622Y01623429*
X01190946Y01623574*
X0119126Y0162374*
X0119156Y01623928*
X01191847Y01624136*
X01192119Y01624364*
X01192374Y0162461*
X01192611Y01624874*
X01192829Y01625153*
X01193027Y01625447*
X01193205Y01625754*
X0119336Y01626073*
X01193493Y01626402*
X01193603Y01626739*
X01193688Y01627083*
X0119375Y01627432*
X01193787Y01627785*
X011938Y0162814*
X01067439D02*
D01*
X01067427Y01628494*
X0106739Y01628846*
X01067328Y01629196*
X01067242Y0162954*
X01067133Y01629877*
X01067Y01630206*
X01066845Y01630524*
X01066667Y01630831*
X01066469Y01631125*
X01066251Y01631405*
X01066014Y01631668*
X01065759Y01631914*
X01065487Y01632143*
X010652Y01632351*
X01064899Y01632539*
X01064586Y01632705*
X01064262Y01632849*
X01063929Y01632971*
X01063588Y01633068*
X01063241Y01633142*
X0106289Y01633192*
X01062537Y01633216*
X01062182*
X01061828Y01633192*
X01061477Y01633142*
X0106113Y01633068*
X0106079Y01632971*
X01060456Y01632849*
X01060133Y01632705*
X01059819Y01632539*
X01059519Y01632351*
X01059232Y01632143*
X0105896Y01631914*
X01058705Y01631668*
X01058468Y01631405*
X0105825Y01631125*
X01058051Y01630831*
X01057874Y01630524*
X01057718Y01630206*
X01057586Y01629877*
X01057476Y0162954*
X0105739Y01629196*
X01057329Y01628846*
X01057292Y01628494*
X01057279Y0162814*
X01057292Y01627785*
X01057329Y01627432*
X0105739Y01627083*
X01057476Y01626739*
X01057586Y01626402*
X01057718Y01626073*
X01057874Y01625754*
X01058051Y01625447*
X0105825Y01625153*
X01058468Y01624874*
X01058705Y0162461*
X0105896Y01624364*
X01059232Y01624136*
X01059519Y01623928*
X01059819Y0162374*
X01060133Y01623574*
X01060456Y01623429*
X0106079Y01623308*
X0106113Y0162321*
X01061477Y01623136*
X01061828Y01623087*
X01062182Y01623063*
X01062537*
X0106289Y01623087*
X01063241Y01623136*
X01063588Y0162321*
X01063929Y01623308*
X01064262Y01623429*
X01064586Y01623574*
X01064899Y0162374*
X010652Y01623928*
X01065487Y01624136*
X01065759Y01624364*
X01066014Y0162461*
X01066251Y01624874*
X01066469Y01625153*
X01066667Y01625447*
X01066845Y01625754*
X01067Y01626073*
X01067133Y01626402*
X01067242Y01626739*
X01067328Y01627083*
X0106739Y01627432*
X01067427Y01627785*
X01067439Y0162814*
X0110744D02*
D01*
X01107427Y01628494*
X0110739Y01628846*
X01107328Y01629196*
X01107243Y0162954*
X01107133Y01629877*
X01107Y01630206*
X01106845Y01630524*
X01106667Y01630831*
X01106469Y01631125*
X01106251Y01631405*
X01106014Y01631668*
X01105759Y01631914*
X01105487Y01632143*
X011052Y01632351*
X011049Y01632539*
X01104586Y01632705*
X01104262Y01632849*
X01103929Y01632971*
X01103588Y01633068*
X01103241Y01633142*
X0110289Y01633192*
X01102537Y01633216*
X01102182*
X01101828Y01633192*
X01101477Y01633142*
X0110113Y01633068*
X0110079Y01632971*
X01100456Y01632849*
X01100132Y01632705*
X0109982Y01632539*
X01099519Y01632351*
X01099232Y01632143*
X0109896Y01631914*
X01098705Y01631668*
X01098468Y01631405*
X0109825Y01631125*
X01098051Y01630831*
X01097874Y01630524*
X01097719Y01630206*
X01097586Y01629877*
X01097476Y0162954*
X0109739Y01629196*
X01097329Y01628846*
X01097292Y01628494*
X0109728Y0162814*
X01097292Y01627785*
X01097329Y01627432*
X0109739Y01627083*
X01097476Y01626739*
X01097586Y01626402*
X01097719Y01626073*
X01097874Y01625754*
X01098051Y01625447*
X0109825Y01625153*
X01098468Y01624874*
X01098705Y0162461*
X0109896Y01624364*
X01099232Y01624136*
X01099519Y01623928*
X0109982Y0162374*
X01100132Y01623574*
X01100456Y01623429*
X0110079Y01623308*
X0110113Y0162321*
X01101477Y01623136*
X01101828Y01623087*
X01102182Y01623063*
X01102537*
X0110289Y01623087*
X01103241Y01623136*
X01103588Y0162321*
X01103929Y01623308*
X01104262Y01623429*
X01104586Y01623574*
X011049Y0162374*
X011052Y01623928*
X01105487Y01624136*
X01105759Y01624364*
X01106014Y0162461*
X01106251Y01624874*
X01106469Y01625153*
X01106667Y01625447*
X01106845Y01625754*
X01107Y01626073*
X01107133Y01626402*
X01107243Y01626739*
X01107328Y01627083*
X0110739Y01627432*
X01107427Y01627785*
X0110744Y0162814*
X00680409Y00078719D02*
D01*
X00680397Y00079074*
X0068036Y00079426*
X00680298Y00079776*
X00680213Y0008012*
X00680103Y00080457*
X0067997Y00080785*
X00679815Y00081104*
X00679637Y00081411*
X00679439Y00081705*
X00679221Y00081985*
X00678984Y00082248*
X00678729Y00082495*
X00678457Y00082722*
X0067817Y00082931*
X00677869Y00083119*
X00677556Y00083285*
X00677232Y00083429*
X00676899Y00083551*
X00676558Y00083649*
X00676212Y00083722*
X0067586Y00083771*
X00675507Y00083796*
X00675152*
X00674798Y00083771*
X00674447Y00083722*
X00674101Y00083649*
X0067376Y00083551*
X00673426Y00083429*
X00673103Y00083285*
X00672789Y00083119*
X00672489Y00082931*
X00672202Y00082722*
X0067193Y00082495*
X00671675Y00082248*
X00671438Y00081985*
X0067122Y00081705*
X00671021Y00081411*
X00670844Y00081104*
X00670689Y00080785*
X00670556Y00080457*
X00670446Y0008012*
X0067036Y00079776*
X00670299Y00079426*
X00670262Y00079074*
X00670249Y00078719*
X00670262Y00078365*
X00670299Y00078012*
X0067036Y00077663*
X00670446Y00077319*
X00670556Y00076982*
X00670689Y00076653*
X00670844Y00076334*
X00671021Y00076027*
X0067122Y00075733*
X00671438Y00075454*
X00671675Y00075191*
X0067193Y00074944*
X00672202Y00074716*
X00672489Y00074508*
X00672789Y0007432*
X00673103Y00074154*
X00673426Y00074009*
X0067376Y00073888*
X00674101Y0007379*
X00674447Y00073717*
X00674798Y00073667*
X00675152Y00073642*
X00675507*
X0067586Y00073667*
X00676212Y00073717*
X00676558Y0007379*
X00676899Y00073888*
X00677232Y00074009*
X00677556Y00074154*
X00677869Y0007432*
X0067817Y00074508*
X00678457Y00074716*
X00678729Y00074944*
X00678984Y00075191*
X00679221Y00075454*
X00679439Y00075733*
X00679637Y00076027*
X00679815Y00076334*
X0067997Y00076653*
X00680103Y00076982*
X00680213Y00077319*
X00680298Y00077663*
X0068036Y00078012*
X00680397Y00078365*
X00680409Y00078719*
X00694259Y00050319D02*
D01*
X00694247Y00050674*
X0069421Y00051026*
X00694148Y00051376*
X00694063Y00051719*
X00693953Y00052057*
X0069382Y00052385*
X00693665Y00052704*
X00693488Y00053011*
X00693289Y00053305*
X00693071Y00053585*
X00692834Y00053848*
X00692579Y00054095*
X00692307Y00054322*
X0069202Y00054531*
X00691719Y00054719*
X00691406Y00054885*
X00691082Y00055029*
X00690749Y00055151*
X00690408Y00055249*
X00690062Y00055322*
X0068971Y00055372*
X00689357Y00055396*
X00689002*
X00688648Y00055372*
X00688297Y00055322*
X0068795Y00055249*
X0068761Y00055151*
X00687276Y00055029*
X00686952Y00054885*
X00686639Y00054719*
X00686339Y00054531*
X00686052Y00054322*
X0068578Y00054095*
X00685525Y00053848*
X00685288Y00053585*
X0068507Y00053305*
X00684871Y00053011*
X00684694Y00052704*
X00684539Y00052385*
X00684406Y00052057*
X00684296Y00051719*
X0068421Y00051376*
X00684149Y00051026*
X00684112Y00050674*
X00684099Y00050319*
X00684112Y00049965*
X00684149Y00049612*
X0068421Y00049263*
X00684296Y00048919*
X00684406Y00048582*
X00684539Y00048253*
X00684694Y00047934*
X00684871Y00047627*
X0068507Y00047333*
X00685288Y00047054*
X00685525Y00046791*
X0068578Y00046544*
X00686052Y00046316*
X00686339Y00046108*
X00686639Y0004592*
X00686952Y00045754*
X00687276Y00045609*
X0068761Y00045488*
X0068795Y0004539*
X00688297Y00045317*
X00688648Y00045267*
X00689002Y00045242*
X00689357*
X0068971Y00045267*
X00690062Y00045317*
X00690408Y0004539*
X00690749Y00045488*
X00691082Y00045609*
X00691406Y00045754*
X00691719Y0004592*
X0069202Y00046108*
X00692307Y00046316*
X00692579Y00046544*
X00692834Y00046791*
X00693071Y00047054*
X00693289Y00047333*
X00693488Y00047627*
X00693665Y00047934*
X0069382Y00048253*
X00693953Y00048582*
X00694063Y00048919*
X00694148Y00049263*
X0069421Y00049612*
X00694247Y00049965*
X00694259Y00050319*
X00708109Y00078719D02*
D01*
X00708097Y00079074*
X0070806Y00079426*
X00707998Y00079776*
X00707912Y0008012*
X00707803Y00080457*
X0070767Y00080785*
X00707515Y00081104*
X00707337Y00081411*
X00707139Y00081705*
X00706921Y00081985*
X00706684Y00082248*
X00706429Y00082495*
X00706157Y00082722*
X0070587Y00082931*
X00705569Y00083119*
X00705256Y00083285*
X00704932Y00083429*
X00704599Y00083551*
X00704258Y00083649*
X00703911Y00083722*
X0070356Y00083771*
X00703207Y00083796*
X00702852*
X00702498Y00083771*
X00702147Y00083722*
X007018Y00083649*
X0070146Y00083551*
X00701126Y00083429*
X00700803Y00083285*
X00700489Y00083119*
X00700189Y00082931*
X00699902Y00082722*
X0069963Y00082495*
X00699375Y00082248*
X00699138Y00081985*
X0069892Y00081705*
X00698721Y00081411*
X00698544Y00081104*
X00698389Y00080785*
X00698256Y00080457*
X00698146Y0008012*
X0069806Y00079776*
X00697999Y00079426*
X00697962Y00079074*
X00697949Y00078719*
X00697962Y00078365*
X00697999Y00078012*
X0069806Y00077663*
X00698146Y00077319*
X00698256Y00076982*
X00698389Y00076653*
X00698544Y00076334*
X00698721Y00076027*
X0069892Y00075733*
X00699138Y00075454*
X00699375Y00075191*
X0069963Y00074944*
X00699902Y00074716*
X00700189Y00074508*
X00700489Y0007432*
X00700803Y00074154*
X00701126Y00074009*
X0070146Y00073888*
X007018Y0007379*
X00702147Y00073717*
X00702498Y00073667*
X00702852Y00073642*
X00703207*
X0070356Y00073667*
X00703911Y00073717*
X00704258Y0007379*
X00704599Y00073888*
X00704932Y00074009*
X00705256Y00074154*
X00705569Y0007432*
X0070587Y00074508*
X00706157Y00074716*
X00706429Y00074944*
X00706684Y00075191*
X00706921Y00075454*
X00707139Y00075733*
X00707337Y00076027*
X00707515Y00076334*
X0070767Y00076653*
X00707803Y00076982*
X00707912Y00077319*
X00707998Y00077663*
X0070806Y00078012*
X00708097Y00078365*
X00708109Y00078719*
X00721959Y00050319D02*
D01*
X00721947Y00050674*
X0072191Y00051026*
X00721848Y00051376*
X00721763Y00051719*
X00721653Y00052057*
X0072152Y00052385*
X00721365Y00052704*
X00721188Y00053011*
X00720989Y00053305*
X00720771Y00053585*
X00720534Y00053848*
X00720278Y00054095*
X00720007Y00054322*
X0071972Y00054531*
X00719419Y00054719*
X00719106Y00054885*
X00718782Y00055029*
X00718449Y00055151*
X00718108Y00055249*
X00717762Y00055322*
X0071741Y00055372*
X00717057Y00055396*
X00716702*
X00716348Y00055372*
X00715997Y00055322*
X0071565Y00055249*
X00715309Y00055151*
X00714976Y00055029*
X00714652Y00054885*
X00714339Y00054719*
X00714039Y00054531*
X00713752Y00054322*
X0071348Y00054095*
X00713225Y00053848*
X00712988Y00053585*
X00712769Y00053305*
X00712571Y00053011*
X00712394Y00052704*
X00712239Y00052385*
X00712106Y00052057*
X00711996Y00051719*
X0071191Y00051376*
X00711849Y00051026*
X00711812Y00050674*
X00711799Y00050319*
X00711812Y00049965*
X00711849Y00049612*
X0071191Y00049263*
X00711996Y00048919*
X00712106Y00048582*
X00712239Y00048253*
X00712394Y00047934*
X00712571Y00047627*
X00712769Y00047333*
X00712988Y00047054*
X00713225Y00046791*
X0071348Y00046544*
X00713752Y00046316*
X00714039Y00046108*
X00714339Y0004592*
X00714652Y00045754*
X00714976Y00045609*
X00715309Y00045488*
X0071565Y0004539*
X00715997Y00045317*
X00716348Y00045267*
X00716702Y00045242*
X00717057*
X0071741Y00045267*
X00717762Y00045317*
X00718108Y0004539*
X00718449Y00045488*
X00718782Y00045609*
X00719106Y00045754*
X00719419Y0004592*
X0071972Y00046108*
X00720007Y00046316*
X00720278Y00046544*
X00720534Y00046791*
X00720771Y00047054*
X00720989Y00047333*
X00721188Y00047627*
X00721365Y00047934*
X0072152Y00048253*
X00721653Y00048582*
X00721763Y00048919*
X00721848Y00049263*
X0072191Y00049612*
X00721947Y00049965*
X00721959Y00050319*
X00735809Y00078719D02*
D01*
X00735797Y00079074*
X0073576Y00079426*
X00735698Y00079776*
X00735612Y0008012*
X00735503Y00080457*
X0073537Y00080785*
X00735215Y00081104*
X00735037Y00081411*
X00734839Y00081705*
X00734621Y00081985*
X00734384Y00082248*
X00734129Y00082495*
X00733857Y00082722*
X0073357Y00082931*
X00733269Y00083119*
X00732956Y00083285*
X00732632Y00083429*
X00732299Y00083551*
X00731958Y00083649*
X00731611Y00083722*
X0073126Y00083771*
X00730907Y00083796*
X00730552*
X00730198Y00083771*
X00729847Y00083722*
X007295Y00083649*
X0072916Y00083551*
X00728826Y00083429*
X00728502Y00083285*
X00728189Y00083119*
X00727889Y00082931*
X00727602Y00082722*
X0072733Y00082495*
X00727075Y00082248*
X00726838Y00081985*
X0072662Y00081705*
X00726421Y00081411*
X00726244Y00081104*
X00726088Y00080785*
X00725956Y00080457*
X00725846Y0008012*
X0072576Y00079776*
X00725699Y00079426*
X00725662Y00079074*
X00725649Y00078719*
X00725662Y00078365*
X00725699Y00078012*
X0072576Y00077663*
X00725846Y00077319*
X00725956Y00076982*
X00726088Y00076653*
X00726244Y00076334*
X00726421Y00076027*
X0072662Y00075733*
X00726838Y00075454*
X00727075Y00075191*
X0072733Y00074944*
X00727602Y00074716*
X00727889Y00074508*
X00728189Y0007432*
X00728502Y00074154*
X00728826Y00074009*
X0072916Y00073888*
X007295Y0007379*
X00729847Y00073717*
X00730198Y00073667*
X00730552Y00073642*
X00730907*
X0073126Y00073667*
X00731611Y00073717*
X00731958Y0007379*
X00732299Y00073888*
X00732632Y00074009*
X00732956Y00074154*
X00733269Y0007432*
X0073357Y00074508*
X00733857Y00074716*
X00734129Y00074944*
X00734384Y00075191*
X00734621Y00075454*
X00734839Y00075733*
X00735037Y00076027*
X00735215Y00076334*
X0073537Y00076653*
X00735503Y00076982*
X00735612Y00077319*
X00735698Y00077663*
X0073576Y00078012*
X00735797Y00078365*
X00735809Y00078719*
X00749659Y00050319D02*
D01*
X00749647Y00050674*
X0074961Y00051026*
X00749548Y00051376*
X00749463Y00051719*
X00749353Y00052057*
X0074922Y00052385*
X00749065Y00052704*
X00748888Y00053011*
X00748689Y00053305*
X00748471Y00053585*
X00748234Y00053848*
X00747978Y00054095*
X00747707Y00054322*
X0074742Y00054531*
X00747119Y00054719*
X00746806Y00054885*
X00746482Y00055029*
X00746149Y00055151*
X00745808Y00055249*
X00745462Y00055322*
X0074511Y00055372*
X00744757Y00055396*
X00744402*
X00744048Y00055372*
X00743697Y00055322*
X0074335Y00055249*
X00743009Y00055151*
X00742676Y00055029*
X00742352Y00054885*
X00742039Y00054719*
X00741739Y00054531*
X00741452Y00054322*
X0074118Y00054095*
X00740925Y00053848*
X00740688Y00053585*
X00740469Y00053305*
X00740271Y00053011*
X00740094Y00052704*
X00739939Y00052385*
X00739806Y00052057*
X00739696Y00051719*
X0073961Y00051376*
X00739549Y00051026*
X00739512Y00050674*
X00739499Y00050319*
X00739512Y00049965*
X00739549Y00049612*
X0073961Y00049263*
X00739696Y00048919*
X00739806Y00048582*
X00739939Y00048253*
X00740094Y00047934*
X00740271Y00047627*
X00740469Y00047333*
X00740688Y00047054*
X00740925Y00046791*
X0074118Y00046544*
X00741452Y00046316*
X00741739Y00046108*
X00742039Y0004592*
X00742352Y00045754*
X00742676Y00045609*
X00743009Y00045488*
X0074335Y0004539*
X00743697Y00045317*
X00744048Y00045267*
X00744402Y00045242*
X00744757*
X0074511Y00045267*
X00745462Y00045317*
X00745808Y0004539*
X00746149Y00045488*
X00746482Y00045609*
X00746806Y00045754*
X00747119Y0004592*
X0074742Y00046108*
X00747707Y00046316*
X00747978Y00046544*
X00748234Y00046791*
X00748471Y00047054*
X00748689Y00047333*
X00748888Y00047627*
X00749065Y00047934*
X0074922Y00048253*
X00749353Y00048582*
X00749463Y00048919*
X00749548Y00049263*
X0074961Y00049612*
X00749647Y00049965*
X00749659Y00050319*
X00763509Y00078719D02*
D01*
X00763497Y00079074*
X0076346Y00079426*
X00763398Y00079776*
X00763313Y0008012*
X00763203Y00080457*
X0076307Y00080785*
X00762915Y00081104*
X00762737Y00081411*
X00762539Y00081705*
X00762321Y00081985*
X00762084Y00082248*
X00761829Y00082495*
X00761557Y00082722*
X0076127Y00082931*
X00760969Y00083119*
X00760656Y00083285*
X00760332Y00083429*
X00759999Y00083551*
X00759658Y00083649*
X00759311Y00083722*
X0075896Y00083771*
X00758607Y00083796*
X00758252*
X00757898Y00083771*
X00757547Y00083722*
X007572Y00083649*
X0075686Y00083551*
X00756526Y00083429*
X00756202Y00083285*
X00755889Y00083119*
X00755589Y00082931*
X00755302Y00082722*
X0075503Y00082495*
X00754775Y00082248*
X00754538Y00081985*
X0075432Y00081705*
X00754121Y00081411*
X00753944Y00081104*
X00753788Y00080785*
X00753656Y00080457*
X00753546Y0008012*
X0075346Y00079776*
X00753399Y00079426*
X00753362Y00079074*
X00753349Y00078719*
X00753362Y00078365*
X00753399Y00078012*
X0075346Y00077663*
X00753546Y00077319*
X00753656Y00076982*
X00753788Y00076653*
X00753944Y00076334*
X00754121Y00076027*
X0075432Y00075733*
X00754538Y00075454*
X00754775Y00075191*
X0075503Y00074944*
X00755302Y00074716*
X00755589Y00074508*
X00755889Y0007432*
X00756202Y00074154*
X00756526Y00074009*
X0075686Y00073888*
X007572Y0007379*
X00757547Y00073717*
X00757898Y00073667*
X00758252Y00073642*
X00758607*
X0075896Y00073667*
X00759311Y00073717*
X00759658Y0007379*
X00759999Y00073888*
X00760332Y00074009*
X00760656Y00074154*
X00760969Y0007432*
X0076127Y00074508*
X00761557Y00074716*
X00761829Y00074944*
X00762084Y00075191*
X00762321Y00075454*
X00762539Y00075733*
X00762737Y00076027*
X00762915Y00076334*
X0076307Y00076653*
X00763203Y00076982*
X00763313Y00077319*
X00763398Y00077663*
X0076346Y00078012*
X00763497Y00078365*
X00763509Y00078719*
X00777359Y00050319D02*
D01*
X00777347Y00050674*
X0077731Y00051026*
X00777248Y00051376*
X00777163Y00051719*
X00777053Y00052057*
X0077692Y00052385*
X00776765Y00052704*
X00776587Y00053011*
X00776389Y00053305*
X00776171Y00053585*
X00775934Y00053848*
X00775679Y00054095*
X00775407Y00054322*
X0077512Y00054531*
X00774819Y00054719*
X00774506Y00054885*
X00774182Y00055029*
X00773849Y00055151*
X00773508Y00055249*
X00773162Y00055322*
X00772811Y00055372*
X00772457Y00055396*
X00772102*
X00771748Y00055372*
X00771397Y00055322*
X00771051Y00055249*
X0077071Y00055151*
X00770376Y00055029*
X00770053Y00054885*
X00769739Y00054719*
X00769439Y00054531*
X00769152Y00054322*
X0076888Y00054095*
X00768625Y00053848*
X00768388Y00053585*
X0076817Y00053305*
X00767971Y00053011*
X00767794Y00052704*
X00767639Y00052385*
X00767506Y00052057*
X00767396Y00051719*
X0076731Y00051376*
X00767249Y00051026*
X00767212Y00050674*
X00767199Y00050319*
X00767212Y00049965*
X00767249Y00049612*
X0076731Y00049263*
X00767396Y00048919*
X00767506Y00048582*
X00767639Y00048253*
X00767794Y00047934*
X00767971Y00047627*
X0076817Y00047333*
X00768388Y00047054*
X00768625Y00046791*
X0076888Y00046544*
X00769152Y00046316*
X00769439Y00046108*
X00769739Y0004592*
X00770053Y00045754*
X00770376Y00045609*
X0077071Y00045488*
X00771051Y0004539*
X00771397Y00045317*
X00771748Y00045267*
X00772102Y00045242*
X00772457*
X00772811Y00045267*
X00773162Y00045317*
X00773508Y0004539*
X00773849Y00045488*
X00774182Y00045609*
X00774506Y00045754*
X00774819Y0004592*
X0077512Y00046108*
X00775407Y00046316*
X00775679Y00046544*
X00775934Y00046791*
X00776171Y00047054*
X00776389Y00047333*
X00776587Y00047627*
X00776765Y00047934*
X0077692Y00048253*
X00777053Y00048582*
X00777163Y00048919*
X00777248Y00049263*
X0077731Y00049612*
X00777347Y00049965*
X00777359Y00050319*
X0079121Y00078719D02*
D01*
X00791197Y00079074*
X0079116Y00079426*
X00791098Y00079776*
X00791013Y0008012*
X00790903Y00080457*
X0079077Y00080785*
X00790615Y00081104*
X00790437Y00081411*
X00790239Y00081705*
X00790021Y00081985*
X00789784Y00082248*
X00789529Y00082495*
X00789257Y00082722*
X0078897Y00082931*
X0078867Y00083119*
X00788356Y00083285*
X00788032Y00083429*
X00787699Y00083551*
X00787358Y00083649*
X00787011Y00083722*
X0078666Y00083771*
X00786307Y00083796*
X00785952*
X00785598Y00083771*
X00785247Y00083722*
X007849Y00083649*
X0078456Y00083551*
X00784226Y00083429*
X00783902Y00083285*
X0078359Y00083119*
X00783289Y00082931*
X00783002Y00082722*
X0078273Y00082495*
X00782475Y00082248*
X00782238Y00081985*
X0078202Y00081705*
X00781821Y00081411*
X00781644Y00081104*
X00781489Y00080785*
X00781356Y00080457*
X00781246Y0008012*
X0078116Y00079776*
X00781099Y00079426*
X00781062Y00079074*
X0078105Y00078719*
X00781062Y00078365*
X00781099Y00078012*
X0078116Y00077663*
X00781246Y00077319*
X00781356Y00076982*
X00781489Y00076653*
X00781644Y00076334*
X00781821Y00076027*
X0078202Y00075733*
X00782238Y00075454*
X00782475Y00075191*
X0078273Y00074944*
X00783002Y00074716*
X00783289Y00074508*
X0078359Y0007432*
X00783902Y00074154*
X00784226Y00074009*
X0078456Y00073888*
X007849Y0007379*
X00785247Y00073717*
X00785598Y00073667*
X00785952Y00073642*
X00786307*
X0078666Y00073667*
X00787011Y00073717*
X00787358Y0007379*
X00787699Y00073888*
X00788032Y00074009*
X00788356Y00074154*
X0078867Y0007432*
X0078897Y00074508*
X00789257Y00074716*
X00789529Y00074944*
X00789784Y00075191*
X00790021Y00075454*
X00790239Y00075733*
X00790437Y00076027*
X00790615Y00076334*
X0079077Y00076653*
X00790903Y00076982*
X00791013Y00077319*
X00791098Y00077663*
X0079116Y00078012*
X00791197Y00078365*
X0079121Y00078719*
G54D175*
X01151767Y0162814D02*
D01*
X0115176Y01628352*
X01151738Y01628564*
X01151701Y01628773*
X01151649Y01628979*
X01151583Y01629182*
X01151504Y01629379*
X01151411Y0162957*
X01151304Y01629755*
X01151185Y01629931*
X01151054Y01630099*
X01150912Y01630257*
X01150759Y01630404*
X01150596Y01630541*
X01150424Y01630666*
X01150243Y01630779*
X01150056Y01630879*
X01149861Y01630966*
X01149661Y01631038*
X01149457Y01631097*
X01149249Y01631141*
X01149038Y01631171*
X01148826Y01631185*
X01148613*
X01148401Y01631171*
X0114819Y01631141*
X01147982Y01631097*
X01147777Y01631038*
X01147578Y01630966*
X01147383Y01630879*
X01147195Y01630779*
X01147015Y01630666*
X01146843Y01630541*
X0114668Y01630404*
X01146527Y01630257*
X01146385Y01630099*
X01146253Y01629931*
X01146135Y01629755*
X01146028Y0162957*
X01145935Y01629379*
X01145855Y01629182*
X01145789Y01628979*
X01145738Y01628773*
X01145701Y01628564*
X01145679Y01628352*
X01145671Y0162814*
X01145679Y01627927*
X01145701Y01627715*
X01145738Y01627506*
X01145789Y01627299*
X01145855Y01627097*
X01145935Y016269*
X01146028Y01626708*
X01146135Y01626524*
X01146253Y01626348*
X01146385Y0162618*
X01146527Y01626022*
X0114668Y01625874*
X01146843Y01625737*
X01147015Y01625612*
X01147195Y016255*
X01147383Y016254*
X01147578Y01625313*
X01147777Y01625241*
X01147982Y01625182*
X0114819Y01625138*
X01148401Y01625108*
X01148613Y01625093*
X01148826*
X01149038Y01625108*
X01149249Y01625138*
X01149457Y01625182*
X01149661Y01625241*
X01149861Y01625313*
X01150056Y016254*
X01150243Y016255*
X01150424Y01625612*
X01150596Y01625737*
X01150759Y01625874*
X01150912Y01626022*
X01151054Y0162618*
X01151185Y01626348*
X01151304Y01626524*
X01151411Y01626708*
X01151504Y016269*
X01151583Y01627097*
X01151649Y01627299*
X01151701Y01627506*
X01151738Y01627715*
X0115176Y01627927*
X01151767Y0162814*
X01191768D02*
D01*
X0119176Y01628352*
X01191738Y01628564*
X01191701Y01628773*
X01191649Y01628979*
X01191584Y01629182*
X01191504Y01629379*
X01191411Y0162957*
X01191304Y01629755*
X01191185Y01629931*
X01191054Y01630099*
X01190912Y01630257*
X01190759Y01630404*
X01190596Y01630541*
X01190424Y01630666*
X01190244Y01630779*
X01190056Y01630879*
X01189861Y01630966*
X01189661Y01631038*
X01189457Y01631097*
X01189249Y01631141*
X01189038Y01631171*
X01188826Y01631185*
X01188613*
X01188401Y01631171*
X0118819Y01631141*
X01187982Y01631097*
X01187777Y01631038*
X01187578Y01630966*
X01187383Y01630879*
X01187196Y01630779*
X01187015Y01630666*
X01186843Y01630541*
X0118668Y01630404*
X01186527Y01630257*
X01186384Y01630099*
X01186253Y01629931*
X01186135Y01629755*
X01186028Y0162957*
X01185935Y01629379*
X01185855Y01629182*
X01185789Y01628979*
X01185738Y01628773*
X01185701Y01628564*
X01185679Y01628352*
X01185672Y0162814*
X01185679Y01627927*
X01185701Y01627715*
X01185738Y01627506*
X01185789Y01627299*
X01185855Y01627097*
X01185935Y016269*
X01186028Y01626708*
X01186135Y01626524*
X01186253Y01626348*
X01186384Y0162618*
X01186527Y01626022*
X0118668Y01625874*
X01186843Y01625737*
X01187015Y01625612*
X01187196Y016255*
X01187383Y016254*
X01187578Y01625313*
X01187777Y01625241*
X01187982Y01625182*
X0118819Y01625138*
X01188401Y01625108*
X01188613Y01625093*
X01188826*
X01189038Y01625108*
X01189249Y01625138*
X01189457Y01625182*
X01189661Y01625241*
X01189861Y01625313*
X01190056Y016254*
X01190244Y016255*
X01190424Y01625612*
X01190596Y01625737*
X01190759Y01625874*
X01190912Y01626022*
X01191054Y0162618*
X01191185Y01626348*
X01191304Y01626524*
X01191411Y01626708*
X01191504Y016269*
X01191584Y01627097*
X01191649Y01627299*
X01191701Y01627506*
X01191738Y01627715*
X0119176Y01627927*
X01191768Y0162814*
X01065407D02*
D01*
X010654Y01628352*
X01065378Y01628564*
X01065341Y01628773*
X01065289Y01628979*
X01065223Y01629182*
X01065144Y01629379*
X01065051Y0162957*
X01064944Y01629755*
X01064825Y01629931*
X01064694Y01630099*
X01064552Y01630257*
X01064399Y01630404*
X01064236Y01630541*
X01064064Y01630666*
X01063883Y01630779*
X01063696Y01630879*
X01063501Y01630966*
X01063301Y01631038*
X01063097Y01631097*
X01062889Y01631141*
X01062678Y01631171*
X01062466Y01631185*
X01062253*
X01062041Y01631171*
X0106183Y01631141*
X01061622Y01631097*
X01061417Y01631038*
X01061218Y01630966*
X01061023Y01630879*
X01060835Y01630779*
X01060655Y01630666*
X01060483Y01630541*
X0106032Y01630404*
X01060167Y01630257*
X01060025Y01630099*
X01059893Y01629931*
X01059775Y01629755*
X01059668Y0162957*
X01059575Y01629379*
X01059495Y01629182*
X01059429Y01628979*
X01059378Y01628773*
X01059341Y01628564*
X01059319Y01628352*
X01059311Y0162814*
X01059319Y01627927*
X01059341Y01627715*
X01059378Y01627506*
X01059429Y01627299*
X01059495Y01627097*
X01059575Y016269*
X01059668Y01626708*
X01059775Y01626524*
X01059893Y01626348*
X01060025Y0162618*
X01060167Y01626022*
X0106032Y01625874*
X01060483Y01625737*
X01060655Y01625612*
X01060835Y016255*
X01061023Y016254*
X01061218Y01625313*
X01061417Y01625241*
X01061622Y01625182*
X0106183Y01625138*
X01062041Y01625108*
X01062253Y01625093*
X01062466*
X01062678Y01625108*
X01062889Y01625138*
X01063097Y01625182*
X01063301Y01625241*
X01063501Y01625313*
X01063696Y016254*
X01063883Y016255*
X01064064Y01625612*
X01064236Y01625737*
X01064399Y01625874*
X01064552Y01626022*
X01064694Y0162618*
X01064825Y01626348*
X01064944Y01626524*
X01065051Y01626708*
X01065144Y016269*
X01065223Y01627097*
X01065289Y01627299*
X01065341Y01627506*
X01065378Y01627715*
X010654Y01627927*
X01065407Y0162814*
X01105408D02*
D01*
X011054Y01628352*
X01105378Y01628564*
X01105341Y01628773*
X01105289Y01628979*
X01105224Y01629182*
X01105144Y01629379*
X01105051Y0162957*
X01104944Y01629755*
X01104825Y01629931*
X01104694Y01630099*
X01104552Y01630257*
X01104399Y01630404*
X01104236Y01630541*
X01104064Y01630666*
X01103884Y01630779*
X01103696Y01630879*
X01103501Y01630966*
X01103301Y01631038*
X01103097Y01631097*
X01102889Y01631141*
X01102678Y01631171*
X01102466Y01631185*
X01102253*
X01102041Y01631171*
X0110183Y01631141*
X01101622Y01631097*
X01101417Y01631038*
X01101218Y01630966*
X01101023Y01630879*
X01100836Y01630779*
X01100655Y01630666*
X01100483Y01630541*
X0110032Y01630404*
X01100167Y01630257*
X01100024Y01630099*
X01099893Y01629931*
X01099775Y01629755*
X01099668Y0162957*
X01099575Y01629379*
X01099495Y01629182*
X01099429Y01628979*
X01099378Y01628773*
X01099341Y01628564*
X01099319Y01628352*
X01099312Y0162814*
X01099319Y01627927*
X01099341Y01627715*
X01099378Y01627506*
X01099429Y01627299*
X01099495Y01627097*
X01099575Y016269*
X01099668Y01626708*
X01099775Y01626524*
X01099893Y01626348*
X01100024Y0162618*
X01100167Y01626022*
X0110032Y01625874*
X01100483Y01625737*
X01100655Y01625612*
X01100836Y016255*
X01101023Y016254*
X01101218Y01625313*
X01101417Y01625241*
X01101622Y01625182*
X0110183Y01625138*
X01102041Y01625108*
X01102253Y01625093*
X01102466*
X01102678Y01625108*
X01102889Y01625138*
X01103097Y01625182*
X01103301Y01625241*
X01103501Y01625313*
X01103696Y016254*
X01103884Y016255*
X01104064Y01625612*
X01104236Y01625737*
X01104399Y01625874*
X01104552Y01626022*
X01104694Y0162618*
X01104825Y01626348*
X01104944Y01626524*
X01105051Y01626708*
X01105144Y016269*
X01105224Y01627097*
X01105289Y01627299*
X01105341Y01627506*
X01105378Y01627715*
X011054Y01627927*
X01105408Y0162814*
M02*