%FSTAX44Y44*%
%MOMM*%
%SFA1B1*%

%IPPOS*%
%ADD108C,0.100000*%
%LNsega_801_remake_keep-out-1*%
%LPD*%
G54D108*
X01695332Y01837772D02*
D01*
X01690948Y0183897*
X01686492Y01839859*
X01681984Y01840435*
X01677446Y01840695*
X01672902Y01840638*
X01668373Y01840265*
X01663881Y01839576*
X01659448Y01838575*
X01655095Y01837268*
X01650845Y0183566*
X01646716Y0183376*
X01642731Y01831576*
X01638907Y01829119*
X01635264Y01826402*
X0163182Y01823438*
X0162859Y0182024*
X01625592Y01816825*
X01622839Y01813209*
X01620345Y01809409*
X01618123Y01805445*
X01616182Y01801336*
X01614532Y01797101*
X01613182Y01792762*
X01612138Y01788339*
X01611405Y01783854*
X01610987Y01779328*
X01610879Y01775601*
Y01735623D02*
D01*
X01611038Y01731081*
X01611513Y01726562*
X01612302Y01722086*
X01613402Y01717676*
X01614806Y01713354*
X01616509Y0170914*
X01618501Y01705056*
X01620773Y0170112*
X01623315Y01697352*
X01626113Y01693771*
X01629153Y01690393*
X01632423Y01687236*
X01635904Y01684315*
X01639581Y01681644*
X01643435Y01679236*
X01647448Y01677102*
X01651599Y01675253*
X0165587Y01673699*
X01660238Y01672446*
X01664684Y01671502*
X01669184Y01670869*
X01673718Y01670552*
X01678263*
X01682796Y01670869*
X01687297Y01671502*
X01691742Y01672446*
X01694331Y0167315*
X01567667Y01632506D02*
D01*
X0156763Y01633588*
X01567517Y01634663*
X01567329Y01635729*
X01567067Y01636779*
X01566733Y01637808*
X01566327Y01638811*
X01565853Y01639783*
X01565312Y0164072*
X01564707Y01641617*
X01564041Y0164247*
X01563317Y01643274*
X01562539Y01644025*
X0156171Y01644721*
X01560835Y01645356*
X01559917Y0164593*
X01558962Y01646438*
X01557974Y01646878*
X01556957Y01647248*
X01555917Y01647546*
X01554859Y01647771*
X01553788Y01647922*
X01552708Y01647997*
X01552167Y01648006*
X01566667Y01632506D02*
D01*
X01566632Y01633518*
X01566526Y01634524*
X0156635Y01635521*
X01566106Y01636503*
X01565793Y01637466*
X01565414Y01638404*
X0156497Y01639314*
X01564464Y0164019*
X01563898Y01641029*
X01563275Y01641827*
X01562598Y01642579*
X0156187Y01643282*
X01561094Y01643932*
X01560276Y01644527*
X01559417Y01645064*
X01558524Y01645539*
X01557599Y0164595*
X01556648Y01646297*
X01555675Y01646576*
X01554685Y01646786*
X01553683Y01646927*
X01552673Y01646997*
X01552167Y01647005*
Y01617005D02*
D01*
X01553249Y01617043*
X01554325Y01617156*
X0155539Y01617344*
X0155644Y01617606*
X01557469Y0161794*
X01558472Y01618346*
X01559444Y0161882*
X01560381Y01619361*
X01561278Y01619966*
X0156213Y01620632*
X01562935Y01621356*
X01563686Y01622134*
X01564381Y01622963*
X01565017Y01623838*
X01565591Y01624755*
X01566099Y0162571*
X01566539Y01626699*
X01566909Y01627716*
X01567207Y01628756*
X01567432Y01629814*
X01567582Y01630885*
X01567658Y01631964*
X01567667Y01632506*
X01552167Y01618006D02*
D01*
X01553179Y01618042*
X01554185Y01618147*
X01555182Y01618323*
X01556164Y01618568*
X01557127Y01618881*
X01558065Y0161926*
X01558975Y01619704*
X01559851Y0162021*
X0156069Y01620776*
X01561488Y01621399*
X0156224Y01622076*
X01562943Y01622804*
X01563594Y01623579*
X01564188Y01624398*
X01564725Y01625256*
X015652Y0162615*
X01565612Y01627074*
X01565958Y01628026*
X01566237Y01628999*
X01566447Y01629988*
X01566588Y01630991*
X01566659Y01632*
X01566667Y01632506*
X00978541Y01713839D02*
D01*
X00978506Y01714851*
X009784Y01715857*
X00978225Y01716854*
X0097798Y01717836*
X00977667Y01718799*
X00977288Y01719737*
X00976844Y01720647*
X00976338Y01721523*
X00975772Y01722362*
X00975149Y0172316*
X00974472Y01723912*
X00973744Y01724615*
X00972968Y01725266*
X0097215Y0172586*
X00971291Y01726397*
X00970398Y01726872*
X00969473Y01727284*
X00968522Y0172763*
X00967549Y01727909*
X00966559Y01728119*
X00965557Y0172826*
X00964547Y01728331*
X00964041Y01728339*
X00979541Y01713839D02*
D01*
X00979504Y01714921*
X0097939Y01715997*
X00979203Y01717062*
X00978941Y01718112*
X00978607Y01719141*
X00978201Y01720144*
X00977727Y01721116*
X00977186Y01722053*
X00976581Y0172295*
X00975915Y01723803*
X00975191Y01724607*
X00974413Y01725358*
X00973584Y01726053*
X00972709Y01726689*
X00971791Y01727263*
X00970836Y01727771*
X00969848Y01728211*
X00968831Y01728581*
X00967791Y01728879*
X00966733Y01729104*
X00965662Y01729254*
X00964582Y0172933*
X00964041Y01729339*
D01*
X0096296Y01729302*
X00961884Y01729189*
X00960819Y01729001*
X00959769Y01728739*
X0095874Y01728405*
X00957737Y01727999*
X00956765Y01727525*
X00955828Y01726984*
X00954931Y01726379*
X00954078Y01725713*
X00953274Y01724989*
X00952523Y01724211*
X00951827Y01723382*
X00951191Y01722507*
X00950618Y01721589*
X0095011Y01720634*
X0094967Y01719646*
X009493Y01718629*
X00949002Y01717589*
X00948777Y01716531*
X00948626Y0171546*
X00948551Y0171438*
X00948541Y01713839*
X00964041Y01728339D02*
D01*
X0096303Y01728304*
X00962023Y01728198*
X00961027Y01728022*
X00960045Y01727778*
X00959082Y01727465*
X00958144Y01727086*
X00957234Y01726642*
X00956358Y01726136*
X00955519Y0172557*
X00954721Y01724947*
X00953969Y0172427*
X00953266Y01723542*
X00952615Y01722766*
X0095202Y01721948*
X00951484Y01721089*
X00951009Y01720196*
X00950597Y01719271*
X00950251Y0171832*
X00949972Y01717347*
X00949762Y01716357*
X00949621Y01715355*
X0094955Y01714345*
X00949541Y01713839*
X00906326Y01824761D02*
D01*
X00906289Y01825843*
X00906175Y01826919*
X00905988Y01827984*
X00905726Y01829034*
X00905392Y01830063*
X00904986Y01831066*
X00904512Y01832038*
X00903971Y01832975*
X00903366Y01833872*
X009027Y01834725*
X00901976Y01835528*
X00901198Y0183628*
X00900369Y01836976*
X00899494Y01837612*
X00898576Y01838185*
X00897621Y01838693*
X00896633Y01839133*
X00895616Y01839503*
X00894576Y01839801*
X00893518Y01840026*
X00892447Y01840176*
X00891367Y01840252*
X00890825Y01840261*
X00905325Y01824761D02*
D01*
X0090529Y01825773*
X00905184Y01826779*
X00905009Y01827776*
X00904764Y01828758*
X00904451Y01829721*
X00904072Y01830659*
X00903628Y01831569*
X00903122Y01832445*
X00902556Y01833284*
X00901933Y01834082*
X00901256Y01834834*
X00900528Y01835537*
X00899753Y01836188*
X00898934Y01836782*
X00898075Y01837319*
X00897182Y01837794*
X00896257Y01838206*
X00895306Y01838552*
X00894333Y01838831*
X00893343Y01839041*
X00892341Y01839182*
X00891331Y01839253*
X00890825Y01839261*
Y01810261D02*
D01*
X00891837Y01810297*
X00892843Y01810403*
X0089384Y01810578*
X00894822Y01810823*
X00895785Y01811136*
X00896723Y01811515*
X00897633Y01811959*
X00898509Y01812465*
X00899348Y01813031*
X00900146Y01813654*
X00900898Y01814331*
X00901601Y01815059*
X00902251Y01815834*
X00902846Y01816653*
X00903383Y01817511*
X00903858Y01818405*
X00904269Y0181933*
X00904616Y01820281*
X00904895Y01821253*
X00905105Y01822244*
X00905246Y01823246*
X00905316Y01824255*
X00905325Y01824761*
X00890825Y01809261D02*
D01*
X00891907Y01809299*
X00892982Y01809412*
X00894048Y018096*
X00895098Y01809862*
X00896127Y01810196*
X0089713Y01810601*
X00898102Y01811076*
X00899039Y01811617*
X00899936Y01812222*
X00900789Y01812888*
X00901593Y01813612*
X00902344Y0181439*
X0090304Y01815219*
X00903675Y01816094*
X00904249Y01817011*
X00904757Y01817967*
X00905197Y01818955*
X00905567Y01819972*
X00905865Y01821012*
X0090609Y0182207*
X00906241Y01823141*
X00906316Y0182422*
X00906326Y01824761*
X01552167Y01647005D02*
D01*
X01551156Y0164697*
X01550149Y01646864*
X01549153Y01646689*
X01548171Y01646444*
X01547208Y01646131*
X0154627Y01645752*
X0154536Y01645308*
X01544484Y01644802*
X01543644Y01644236*
X01542847Y01643613*
X01542095Y01642936*
X01541392Y01642208*
X01540741Y01641433*
X01540146Y01640614*
X0153961Y01639755*
X01539135Y01638862*
X01538723Y01637937*
X01538377Y01636986*
X01538098Y01636013*
X01537888Y01635023*
X01537747Y01634021*
X01537676Y01633011*
X01537667Y01632506*
D01*
X01537703Y01631495*
X01537808Y01630488*
X01537984Y01629492*
X01538229Y0162851*
X01538542Y01627547*
X01538921Y01626609*
X01539365Y01625699*
X01539871Y01624823*
X01540437Y01623984*
X0154106Y01623186*
X01541737Y01622434*
X01542465Y01621731*
X0154324Y0162108*
X01544059Y01620485*
X01544917Y01619949*
X01545811Y01619474*
X01546736Y01619062*
X01547687Y01618716*
X0154866Y01618437*
X01549649Y01618227*
X01550652Y01618086*
X01551661Y01618015*
X01552167Y01618006*
Y01648006D02*
D01*
X01551086Y01647969*
X0155001Y01647855*
X01548945Y01647668*
X01547895Y01647406*
X01546866Y01647072*
X01545863Y01646666*
X0154489Y01646192*
X01543954Y01645651*
X01543057Y01645046*
X01542204Y0164438*
X015414Y01643656*
X01540649Y01642878*
X01539953Y01642049*
X01539317Y01641174*
X01538744Y01640256*
X01538236Y01639301*
X01537796Y01638313*
X01537426Y01637296*
X01537128Y01636256*
X01536903Y01635198*
X01536752Y01634127*
X01536677Y01633047*
X01536667Y01632506*
D01*
X01536705Y01631425*
X01536818Y01630349*
X01537006Y01629284*
X01537268Y01628234*
X01537602Y01627205*
X01538007Y01626202*
X01538482Y0162523*
X01539023Y01624293*
X01539628Y01623396*
X01540294Y01622543*
X01541018Y01621739*
X01541796Y01620988*
X01542625Y01620292*
X015435Y01619656*
X01544417Y01619083*
X01545373Y01618575*
X01546361Y01618135*
X01547378Y01617765*
X01548418Y01617467*
X01549476Y01617242*
X01550547Y01617091*
X01551626Y01617016*
X01552167Y01617005*
X00964041Y01699339D02*
D01*
X00965053Y01699375*
X00966059Y0169948*
X00967056Y01699656*
X00968038Y01699901*
X00969001Y01700214*
X00969939Y01700593*
X00970849Y01701037*
X00971725Y01701543*
X00972564Y01702109*
X00973362Y01702732*
X00974114Y01703409*
X00974817Y01704137*
X00975467Y01704912*
X00976062Y01705731*
X00976599Y01706589*
X00977074Y01707483*
X00977485Y01708408*
X00977832Y01709359*
X00978111Y01710332*
X00978321Y01711321*
X00978462Y01712324*
X00978532Y01713333*
X00978541Y01713839*
X00949541D02*
D01*
X00949577Y01712828*
X00949682Y01711821*
X00949858Y01710825*
X00950103Y01709843*
X00950416Y0170888*
X00950795Y01707942*
X00951239Y01707032*
X00951745Y01706156*
X00952311Y01705316*
X00952934Y01704519*
X00953611Y01703767*
X00954339Y01703064*
X00955114Y01702413*
X00955933Y01701818*
X00956791Y01701282*
X00957685Y01700807*
X00958609Y01700395*
X00959561Y01700049*
X00960534Y0169977*
X00961523Y0169956*
X00962526Y01699419*
X00963535Y01699348*
X00964041Y01699339*
Y01698339D02*
D01*
X00965123Y01698377*
X00966198Y0169849*
X00967264Y01698678*
X00968314Y0169894*
X00969343Y01699274*
X00970346Y01699679*
X00971318Y01700154*
X00972255Y01700695*
X00973152Y017013*
X00974005Y01701966*
X00974809Y0170269*
X0097556Y01703468*
X00976256Y01704297*
X00976891Y01705172*
X00977465Y01706089*
X00977973Y01707045*
X00978413Y01708033*
X00978783Y0170905*
X00979081Y0171009*
X00979306Y01711148*
X00979457Y01712219*
X00979532Y01713298*
X00979541Y01713839*
X00948541D02*
D01*
X00948579Y01712758*
X00948692Y01711682*
X0094888Y01710617*
X00949142Y01709567*
X00949476Y01708538*
X00949882Y01707535*
X00950356Y01706563*
X00950897Y01705626*
X00951502Y01704729*
X00952168Y01703876*
X00952892Y01703072*
X0095367Y01702321*
X00954499Y01701625*
X00955374Y01700989*
X00956291Y01700416*
X00957247Y01699908*
X00958235Y01699468*
X00959252Y01699098*
X00960291Y016988*
X0096135Y01698575*
X00962421Y01698424*
X009635Y01698349*
X00964041Y01698339*
X01325377Y00073813D02*
D01*
X01325329Y00075192*
X01325185Y00076564*
X01324946Y00077923*
X01324612Y00079262*
X01324185Y00080574*
X01323668Y00081853*
X01323064Y00083093*
X01322374Y00084288*
X01321602Y00085432*
X01320753Y00086519*
X01319829Y00087545*
X01318837Y00088503*
X0131778Y0008939*
X01316664Y00090201*
X01315494Y00090932*
X01314276Y0009158*
X01313015Y00092141*
X01311719Y00092613*
X01310392Y00092993*
X01309043Y0009328*
X01307677Y00093472*
X013063Y00093568*
X0130561Y0009358*
Y00055047D02*
D01*
X01306919Y00055093*
X01308222Y0005523*
X01309512Y00055457*
X01310783Y00055774*
X01312029Y00056179*
X01313243Y0005667*
X01314421Y00057244*
X01315555Y00057899*
X01316641Y00058631*
X01317673Y00059438*
X01318646Y00060314*
X01319556Y00061256*
X01320398Y0006226*
X01321168Y0006332*
X01321862Y0006443*
X01322477Y00065587*
X0132301Y00066783*
X01323458Y00068014*
X01323819Y00069273*
X01324091Y00070555*
X01324273Y00071852*
X01324365Y00073158*
X01324376Y00073813*
D01*
X01324331Y00075123*
X01324194Y00076425*
X01323966Y00077715*
X01323649Y00078986*
X01323245Y00080232*
X01322754Y00081446*
X0132218Y00082623*
X01321525Y00083758*
X01320792Y00084844*
X01319986Y00085876*
X01319109Y00086849*
X01318167Y00087759*
X01317164Y00088601*
X01316104Y00089371*
X01314993Y00090065*
X01313837Y0009068*
X0131264Y00091213*
X01311409Y00091661*
X0131015Y00092022*
X01308869Y00092294*
X01307572Y00092477*
X01306265Y00092568*
X0130561Y00092579*
X01286844Y00073813D02*
D01*
X0128689Y00072504*
X01287027Y00071202*
X01287254Y00069912*
X01287571Y00068641*
X01287976Y00067395*
X01288467Y0006618*
X01289041Y00065003*
X01289696Y00063869*
X01290428Y00062783*
X01291235Y00061751*
X01292111Y00060777*
X01293054Y00059868*
X01294057Y00059026*
X01295117Y00058256*
X01296227Y00057561*
X01297384Y00056947*
X01298581Y00056414*
X01299811Y00055966*
X01301071Y00055605*
X01302352Y00055332*
X01303649Y0005515*
X01304955Y00055059*
X0130561Y00055047*
X01285176Y00125185D02*
D01*
X01285128Y00126564*
X01284984Y00127937*
X01284744Y00129295*
X01284411Y00130634*
X01283984Y00131946*
X01283467Y00133225*
X01282863Y00134465*
X01282173Y0013566*
X01281401Y00136804*
X01280552Y00137891*
X01279629Y00138917*
X01278636Y00139875*
X01277579Y00140762*
X01276463Y00141573*
X01275293Y00142304*
X01274075Y00142952*
X01272814Y00143513*
X01271518Y00143985*
X01270192Y00144365*
X01268842Y00144652*
X01267476Y00144844*
X01266099Y0014494*
X0126541Y00144952*
X01284176Y00125185D02*
D01*
X01284131Y00126495*
X01283994Y00127797*
X01283766Y00129087*
X01283449Y00130358*
X01283045Y00131604*
X01282554Y00132818*
X0128198Y00133995*
X01281325Y0013513*
X01280592Y00136216*
X01279786Y00137248*
X0127891Y00138221*
X01277967Y00139131*
X01276964Y00139973*
X01275904Y00140743*
X01274793Y00141437*
X01273637Y00142052*
X0127244Y00142585*
X01271209Y00143033*
X0126995Y00143394*
X01268669Y00143666*
X01267372Y00143849*
X01266065Y0014394*
X0126541Y00143951*
Y00106419D02*
D01*
X01266719Y00106465*
X01268022Y00106602*
X01269312Y00106829*
X01270583Y00107146*
X01271829Y00107551*
X01273043Y00108042*
X0127422Y00108616*
X01275355Y00109271*
X01276441Y00110003*
X01277473Y0011081*
X01278446Y00111686*
X01279356Y00112628*
X01280198Y00113632*
X01280968Y00114692*
X01281662Y00115802*
X01282277Y00116959*
X0128281Y00118155*
X01283258Y00119386*
X01283619Y00120645*
X01283891Y00121927*
X01284074Y00123224*
X01284165Y0012453*
X01284176Y00125185*
X0130561Y00092579D02*
D01*
X01304301Y00092534*
X01302999Y00092397*
X01301709Y00092169*
X01300438Y00091853*
X01299192Y00091448*
X01297978Y00090957*
X012968Y00090383*
X01295666Y00089728*
X0129458Y00088996*
X01293548Y00088189*
X01292575Y00087313*
X01291664Y0008637*
X01290823Y00085367*
X01290053Y00084307*
X01289359Y00083196*
X01288744Y0008204*
X01288211Y00080843*
X01287763Y00079612*
X01287402Y00078353*
X0128713Y00077072*
X01286947Y00075775*
X01286856Y00074468*
X01286844Y00073813*
X0130561Y0009358D02*
D01*
X01304232Y00093532*
X01302859Y00093388*
X01301501Y00093148*
X01300162Y00092815*
X0129885Y00092388*
X0129757Y00091871*
X0129633Y00091267*
X01295135Y00090577*
X01293992Y00089805*
X01292904Y00088956*
X01291879Y00088033*
X01290921Y0008704*
X01290034Y00085983*
X01289223Y00084867*
X01288492Y00083697*
X01287844Y00082479*
X01287283Y00081218*
X01286811Y00079922*
X01286431Y00078595*
X01286144Y00077246*
X01285952Y0007588*
X01285855Y00074503*
X01285844Y00073813*
D01*
X01285893Y00072434*
X01286037Y00071062*
X01286276Y00069704*
X0128661Y00068365*
X01287037Y00067053*
X01287553Y00065773*
X01288158Y00064533*
X01288848Y00063338*
X01289619Y00062195*
X01290469Y00061107*
X01291392Y00060082*
X01292385Y00059124*
X01293442Y00058237*
X01294558Y00057426*
X01295728Y00056695*
X01296946Y00056047*
X01298206Y00055486*
X01299503Y00055014*
X01300829Y00054634*
X01302179Y00054347*
X01303545Y00054155*
X01304921Y00054058*
X0130561Y00054046*
X0126541Y00105419D02*
D01*
X01266789Y00105467*
X01268161Y00105612*
X0126952Y00105851*
X01270859Y00106185*
X01272171Y00106611*
X0127345Y00107128*
X0127469Y00107733*
X01275885Y00108423*
X01277029Y00109195*
X01278116Y00110044*
X01279142Y00110967*
X012801Y0011196*
X01280987Y00113017*
X01281798Y00114133*
X01282529Y00115303*
X01283177Y00116521*
X01283738Y00117782*
X0128421Y00119078*
X0128459Y00120404*
X01284877Y00121754*
X01285069Y0012312*
X01285165Y00124497*
X01285176Y00125185*
X0130561Y00054046D02*
D01*
X01306989Y00054095*
X01308361Y00054239*
X0130972Y00054478*
X01311059Y00054812*
X01312371Y00055238*
X0131365Y00055755*
X0131489Y0005636*
X01316085Y0005705*
X01317229Y00057822*
X01318316Y00058671*
X01319342Y00059594*
X013203Y00060587*
X01321187Y00061644*
X01321998Y0006276*
X01322729Y0006393*
X01323377Y00065148*
X01323938Y00066409*
X0132441Y00067705*
X0132479Y00069031*
X01325077Y00070381*
X01325269Y00071747*
X01325365Y00073124*
X01325377Y00073813*
X01284955Y00051853D02*
D01*
X0128491Y00053162*
X01284773Y00054465*
X01284545Y00055755*
X01284228Y00057026*
X01283824Y00058272*
X01283333Y00059486*
X01282759Y00060664*
X01282104Y00061798*
X01281371Y00062884*
X01280565Y00063916*
X01279689Y00064889*
X01278746Y00065799*
X01277743Y00066641*
X01276683Y00067411*
X01275572Y00068105*
X01274416Y0006872*
X01273219Y00069253*
X01271988Y00069701*
X01270729Y00070062*
X01269448Y00070334*
X01268151Y00070517*
X01266844Y00070608*
X0126619Y00070619*
X01285956Y00051853D02*
D01*
X01285908Y00053232*
X01285764Y00054604*
X01285524Y00055963*
X01285191Y00057302*
X01284764Y00058614*
X01284247Y00059893*
X01283643Y00061133*
X01282953Y00062328*
X01282181Y00063472*
X01281332Y00064559*
X01280409Y00065585*
X01279416Y00066543*
X01278359Y0006743*
X01277243Y00068241*
X01276073Y00068972*
X01274855Y0006962*
X01273594Y00070181*
X01272298Y00070653*
X01270972Y00071033*
X01269622Y0007132*
X01268256Y00071512*
X01266879Y00071608*
X0126619Y00071619*
Y00033086D02*
D01*
X01267498Y00033132*
X01268801Y00033269*
X01270091Y00033497*
X01271362Y00033813*
X01272608Y00034218*
X01273822Y00034709*
X01274999Y00035283*
X01276134Y00035938*
X0127722Y0003667*
X01278252Y00037477*
X01279225Y00038353*
X01280135Y00039296*
X01280977Y00040299*
X01281747Y00041359*
X01282441Y00042469*
X01283056Y00043626*
X01283589Y00044823*
X01284037Y00046053*
X01284398Y00047313*
X0128467Y00048594*
X01284853Y00049891*
X01284944Y00051198*
X01284955Y00051853*
X0126619Y00032086D02*
D01*
X01267568Y00032135*
X0126894Y00032279*
X01270299Y00032518*
X01271638Y00032852*
X0127295Y00033279*
X01274229Y00033795*
X01275469Y000344*
X01276664Y0003509*
X01277808Y00035862*
X01278895Y00036711*
X01279921Y00037634*
X01280879Y00038627*
X01281766Y00039684*
X01282577Y000408*
X01283308Y0004197*
X01283956Y00043188*
X01284517Y00044448*
X01284989Y00045745*
X01285369Y00047071*
X01285656Y00048421*
X01285848Y00049787*
X01285944Y00051163*
X01285956Y00051853*
X01247423D02*
D01*
X01247469Y00050544*
X01247606Y00049242*
X01247833Y00047952*
X0124815Y00046681*
X01248555Y00045435*
X01249046Y00044221*
X0124962Y00043043*
X01250275Y00041909*
X01251007Y00040823*
X01251814Y00039791*
X0125269Y00038817*
X01253633Y00037907*
X01254636Y00037065*
X01255695Y00036296*
X01256806Y00035602*
X01257963Y00034987*
X0125916Y00034454*
X0126039Y00034006*
X0126165Y00033645*
X01262931Y00033373*
X01264228Y0003319*
X01265534Y00033099*
X0126619Y00033086*
X008908Y00219689D02*
D01*
X00891882Y00219727*
X00892958Y0021984*
X00894023Y00220028*
X00895073Y0022029*
X00896102Y00220624*
X00897105Y0022103*
X00898077Y00221504*
X00899014Y00222045*
X00899911Y0022265*
X00900764Y00223316*
X00901568Y0022404*
X00902319Y00224818*
X00903014Y00225646*
X0090365Y00226522*
X00904224Y00227439*
X00904732Y00228395*
X00905172Y00229383*
X00905542Y002304*
X0090584Y00231439*
X00906065Y00232498*
X00906215Y00233569*
X00906291Y00234649*
X00906301Y00235189*
X009053D02*
D01*
X00905265Y00236201*
X00905159Y00237207*
X00904983Y00238204*
X00904739Y00239186*
X00904426Y00240149*
X00904047Y00241087*
X00903603Y00241997*
X00903097Y00242873*
X00902531Y00243712*
X00901908Y0024451*
X00901231Y00245262*
X00900503Y00245965*
X00899727Y00246615*
X00898909Y0024721*
X0089805Y00247747*
X00897157Y00248222*
X00896232Y00248633*
X00895281Y0024898*
X00894308Y00249259*
X00893318Y00249469*
X00892316Y0024961*
X00891306Y0024968*
X008908Y00249689*
Y00220689D02*
D01*
X00891812Y00220725*
X00892818Y0022083*
X00893815Y00221006*
X00894797Y00221251*
X0089576Y00221564*
X00896698Y00221943*
X00897608Y00222387*
X00898484Y00222893*
X00899323Y00223459*
X00900121Y00224082*
X00900873Y00224759*
X00901576Y00225487*
X00902227Y00226262*
X00902821Y00227081*
X00903358Y00227939*
X00903833Y00228833*
X00904245Y00229757*
X00904591Y00230709*
X0090487Y00231682*
X0090508Y00232671*
X00905221Y00233674*
X00905292Y00234683*
X009053Y00235189*
X0126541Y00143951D02*
D01*
X01264101Y00143906*
X01262799Y00143769*
X01261509Y00143541*
X01260238Y00143225*
X01258992Y0014282*
X01257778Y00142329*
X012566Y00141755*
X01255466Y001411*
X0125438Y00140367*
X01253348Y00139561*
X01252374Y00138685*
X01251465Y00137742*
X01250623Y00136739*
X01249853Y00135679*
X01249159Y00134568*
X01248544Y00133412*
X01248011Y00132215*
X01247563Y00130985*
X01247202Y00129725*
X01246929Y00128444*
X01246747Y00127147*
X01246656Y0012584*
X01246644Y00125185*
X0126541Y00144952D02*
D01*
X01264032Y00144904*
X01262659Y0014476*
X01261301Y0014452*
X01259962Y00144187*
X0125865Y0014376*
X0125737Y00143243*
X0125613Y00142639*
X01254936Y00141949*
X01253792Y00141177*
X01252704Y00140328*
X01251679Y00139405*
X01250721Y00138412*
X01249834Y00137355*
X01249023Y00136239*
X01248292Y00135069*
X01247644Y00133851*
X01247083Y0013259*
X01246611Y00131294*
X0124623Y00129967*
X01245944Y00128618*
X01245752Y00127251*
X01245655Y00125875*
X01245643Y00125185*
X00906301Y00235189D02*
D01*
X00906264Y00236271*
X00906151Y00237346*
X00905963Y00238412*
X00905701Y00239462*
X00905366Y00240491*
X00904961Y00241494*
X00904487Y00242466*
X00903946Y00243403*
X00903341Y002443*
X00902675Y00245153*
X00901951Y00245957*
X00901173Y00246708*
X00900344Y00247404*
X00899469Y00248039*
X00898551Y00248613*
X00897596Y00249121*
X00896608Y00249561*
X00895591Y00249931*
X00894551Y00250229*
X00893493Y00250454*
X00892422Y00250605*
X00891342Y0025068*
X008908Y00250689*
X00906079Y00111744D02*
D01*
X00906042Y00112826*
X00905929Y00113901*
X00905741Y00114967*
X00905479Y00116017*
X00905145Y00117046*
X00904739Y00118049*
X00904265Y00119021*
X00903724Y00119958*
X00903119Y00120855*
X00902453Y00121708*
X00901729Y00122512*
X00900951Y00123263*
X00900122Y00123959*
X00899247Y00124594*
X00898329Y00125168*
X00897374Y00125676*
X00896386Y00126116*
X00895369Y00126486*
X00894329Y00126784*
X00893271Y00127009*
X008922Y0012716*
X0089112Y00127235*
X00890579Y00127244*
X00905078Y00111744D02*
D01*
X00905043Y00112756*
X00904937Y00113762*
X00904761Y00114759*
X00904517Y00115741*
X00904204Y00116704*
X00903825Y00117642*
X00903381Y00118552*
X00902875Y00119428*
X00902309Y00120267*
X00901686Y00121065*
X00901009Y00121817*
X00900281Y0012252*
X00899505Y0012317*
X00898687Y00123765*
X00897828Y00124302*
X00896935Y00124777*
X0089601Y00125188*
X00895059Y00125535*
X00894086Y00125814*
X00893096Y00126024*
X00892094Y00126165*
X00891084Y00126235*
X00890579Y00126243*
X01246644Y00125185D02*
D01*
X0124669Y00123876*
X01246827Y00122574*
X01247054Y00121284*
X01247371Y00120013*
X01247776Y00118767*
X01248267Y00117552*
X01248841Y00116375*
X01249496Y00115241*
X01250228Y00114155*
X01251035Y00113123*
X01251911Y00112149*
X01252853Y0011124*
X01253857Y00110398*
X01254916Y00109628*
X01256027Y00108933*
X01257184Y00108319*
X01258381Y00107786*
X01259611Y00107338*
X0126087Y00106977*
X01262152Y00106704*
X01263449Y00106522*
X01264755Y00106431*
X0126541Y00106419*
X0126619Y00070619D02*
D01*
X0126488Y00070574*
X01263578Y00070437*
X01262288Y00070209*
X01261017Y00069892*
X01259771Y00069488*
X01258557Y00068997*
X01257379Y00068423*
X01256245Y00067768*
X01255159Y00067035*
X01254127Y00066229*
X01253153Y00065352*
X01252244Y0006441*
X01251402Y00063407*
X01250632Y00062347*
X01249938Y00061236*
X01249323Y0006008*
X0124879Y00058883*
X01248342Y00057652*
X01247981Y00056393*
X01247708Y00055112*
X01247526Y00053815*
X01247435Y00052508*
X01247423Y00051853*
X01246422D02*
D01*
X0124647Y00050474*
X01246615Y00049102*
X01246854Y00047744*
X01247188Y00046405*
X01247614Y00045093*
X01248131Y00043813*
X01248736Y00042573*
X01249426Y00041378*
X01250198Y00040235*
X01251047Y00039148*
X0125197Y00038122*
X01252963Y00037164*
X0125402Y00036277*
X01255136Y00035466*
X01256306Y00034735*
X01257524Y00034087*
X01258785Y00033526*
X01260081Y00033054*
X01261407Y00032674*
X01262757Y00032387*
X01264123Y00032195*
X012655Y00032098*
X0126619Y00032086*
X01245643Y00125185D02*
D01*
X01245691Y00123806*
X01245836Y00122434*
X01246075Y00121075*
X01246409Y00119737*
X01246835Y00118425*
X01247352Y00117145*
X01247957Y00115905*
X01248647Y0011471*
X01249419Y00113567*
X01250268Y00112479*
X01251191Y00111454*
X01252184Y00110496*
X01253241Y00109609*
X01254357Y00108798*
X01255527Y00108067*
X01256745Y00107419*
X01258006Y00106858*
X01259302Y00106386*
X01260628Y00106006*
X01261978Y00105719*
X01263344Y00105527*
X01264721Y0010543*
X0126541Y00105419*
X00890579Y00096243D02*
D01*
X00891661Y00096281*
X00892737Y00096394*
X00893802Y00096582*
X00894852Y00096844*
X00895881Y00097178*
X00896884Y00097584*
X00897856Y00098058*
X00898793Y00098599*
X0089969Y00099204*
X00900543Y0009987*
X00901347Y00100594*
X00902098Y00101372*
X00902793Y00102201*
X00903429Y00103076*
X00904003Y00103993*
X00904511Y00104949*
X00904951Y00105937*
X00905321Y00106954*
X00905619Y00107994*
X00905844Y00109052*
X00905994Y00110123*
X0090607Y00111202*
X00906079Y00111744*
X00890579Y00097244D02*
D01*
X00891591Y0009728*
X00892597Y00097385*
X00893594Y00097561*
X00894576Y00097806*
X00895539Y00098119*
X00896477Y00098498*
X00897387Y00098942*
X00898263Y00099448*
X00899102Y00100014*
X008999Y00100637*
X00900652Y00101314*
X00901355Y00102042*
X00902006Y00102817*
X009026Y00103636*
X00903137Y00104494*
X00903612Y00105388*
X00904024Y00106312*
X0090437Y00107264*
X00904649Y00108237*
X00904859Y00109226*
X00905Y00110229*
X00905071Y00111238*
X00905078Y00111744*
X0126619Y00071619D02*
D01*
X01264811Y00071571*
X01263438Y00071427*
X0126208Y00071187*
X01260741Y00070854*
X01259429Y00070427*
X01258149Y0006991*
X01256909Y00069306*
X01255715Y00068616*
X01254571Y00067844*
X01253483Y00066995*
X01252458Y00066072*
X012515Y00065079*
X01250613Y00064022*
X01249802Y00062906*
X01249071Y00061736*
X01248423Y00060518*
X01247862Y00059257*
X0124739Y00057961*
X01247009Y00056634*
X01246723Y00055285*
X01246531Y00053919*
X01246434Y00052542*
X01246422Y00051853*
X00401135Y01826031D02*
D01*
X004011Y01827043*
X00400994Y01828049*
X00400819Y01829046*
X00400574Y01830028*
X00400261Y01830991*
X00399882Y01831929*
X00399438Y01832839*
X00398932Y01833715*
X00398366Y01834554*
X00397743Y01835352*
X00397066Y01836104*
X00396338Y01836807*
X00395563Y01837458*
X00394744Y01838052*
X00393885Y01838589*
X00392992Y01839064*
X00392067Y01839476*
X00391116Y01839822*
X00390143Y01840101*
X00389153Y01840311*
X00388151Y01840452*
X00387141Y01840523*
X00386636Y01840531*
X00402136Y01826031D02*
D01*
X00402099Y01827113*
X00401985Y01828189*
X00401798Y01829254*
X00401536Y01830304*
X00401202Y01831333*
X00400796Y01832336*
X00400322Y01833308*
X00399781Y01834245*
X00399176Y01835142*
X0039851Y01835995*
X00397786Y01836798*
X00397008Y0183755*
X00396179Y01838246*
X00395304Y01838882*
X00394386Y01839455*
X00393431Y01839963*
X00392443Y01840403*
X00391426Y01840773*
X00390386Y01841071*
X00389328Y01841296*
X00388257Y01841446*
X00387177Y01841522*
X00386636Y01841531*
X00890825Y01839261D02*
D01*
X00889814Y01839226*
X00888807Y0183912*
X00887811Y01838945*
X00886829Y018387*
X00885866Y01838387*
X00884928Y01838008*
X00884018Y01837564*
X00883141Y01837058*
X00882303Y01836492*
X00881505Y01835869*
X00880753Y01835192*
X0088005Y01834464*
X00879399Y01833688*
X00878804Y0183287*
X00878268Y01832011*
X00877793Y01831118*
X00877381Y01830193*
X00877035Y01829242*
X00876756Y01828269*
X00876546Y01827279*
X00876405Y01826277*
X00876334Y01825267*
X00876326Y01824761*
X00890825Y01840261D02*
D01*
X00889744Y01840224*
X00888668Y01840111*
X00887603Y01839923*
X00886553Y01839661*
X00885524Y01839327*
X00884521Y01838921*
X00883549Y01838447*
X00882612Y01837906*
X00881715Y01837301*
X00880862Y01836635*
X00880058Y01835911*
X00879307Y01835133*
X00878611Y01834304*
X00877975Y01833429*
X00877402Y01832511*
X00876894Y01831556*
X00876454Y01830568*
X00876084Y01829551*
X00875786Y01828511*
X00875561Y01827453*
X0087541Y01826382*
X00875335Y01825302*
X00875325Y01824761*
X00386636Y01811531D02*
D01*
X00387648Y01811567*
X00388654Y01811673*
X00389651Y01811848*
X00390633Y01812093*
X00391596Y01812406*
X00392534Y01812785*
X00393444Y01813229*
X0039432Y01813735*
X00395159Y01814301*
X00395957Y01814924*
X00396709Y01815601*
X00397412Y01816329*
X00398062Y01817104*
X00398657Y01817923*
X00399194Y01818781*
X00399669Y01819675*
X0040008Y018206*
X00400427Y01821551*
X00400706Y01822523*
X00400916Y01823514*
X00401057Y01824516*
X00401127Y01825525*
X00401135Y01826031*
X00386636Y01840531D02*
D01*
X00385625Y01840496*
X00384618Y0184039*
X00383622Y01840215*
X0038264Y0183997*
X00381677Y01839657*
X00380739Y01839278*
X00379829Y01838834*
X00378953Y01838328*
X00378114Y01837762*
X00377316Y01837139*
X00376564Y01836462*
X00375861Y01835734*
X0037521Y01834958*
X00374615Y0183414*
X00374079Y01833281*
X00373604Y01832388*
X00373192Y01831463*
X00372846Y01830512*
X00372567Y01829539*
X00372357Y01828549*
X00372216Y01827547*
X00372145Y01826537*
X00372136Y01826031*
X00386636Y01810531D02*
D01*
X00387718Y01810569*
X00388793Y01810682*
X00389859Y0181087*
X00390909Y01811132*
X00391938Y01811466*
X00392941Y01811871*
X00393913Y01812346*
X0039485Y01812887*
X00395747Y01813492*
X003966Y01814158*
X00397404Y01814882*
X00398155Y0181566*
X00398851Y01816489*
X00399486Y01817364*
X0040006Y01818281*
X00400568Y01819237*
X00401008Y01820225*
X00401378Y01821242*
X00401676Y01822282*
X00401901Y0182334*
X00402052Y01824411*
X00402127Y0182549*
X00402136Y01826031*
X00386636Y01841531D02*
D01*
X00385555Y01841494*
X00384479Y01841381*
X00383414Y01841193*
X00382364Y01840931*
X00381335Y01840597*
X00380332Y01840191*
X0037936Y01839717*
X00378423Y01839176*
X00377526Y01838571*
X00376673Y01837905*
X00375869Y01837181*
X00375118Y01836403*
X00374422Y01835574*
X00373786Y01834699*
X00373213Y01833781*
X00372705Y01832826*
X00372265Y01831838*
X00371895Y01830821*
X00371597Y01829781*
X00371372Y01828723*
X00371221Y01827652*
X00371146Y01826572*
X00371135Y01826031*
X00372136D02*
D01*
X00372172Y0182502*
X00372277Y01824013*
X00372453Y01823017*
X00372698Y01822035*
X00373011Y01821072*
X0037339Y01820134*
X00373834Y01819224*
X0037434Y01818348*
X00374906Y01817508*
X00375529Y01816711*
X00376206Y01815959*
X00376934Y01815256*
X00377709Y01814605*
X00378528Y0181401*
X00379386Y01813474*
X0038028Y01812999*
X00381204Y01812587*
X00382156Y01812241*
X00383129Y01811962*
X00384118Y01811752*
X00385121Y01811611*
X0038613Y0181154*
X00386636Y01811531*
X00371135Y01826031D02*
D01*
X00371173Y0182495*
X00371286Y01823874*
X00371474Y01822809*
X00371736Y01821759*
X0037207Y0182073*
X00372476Y01819727*
X0037295Y01818755*
X00373491Y01817818*
X00374096Y01816921*
X00374762Y01816068*
X00375486Y01815264*
X00376264Y01814513*
X00377093Y01813817*
X00377968Y01813181*
X00378885Y01812608*
X0037984Y018121*
X00380829Y0181166*
X00381846Y0181129*
X00382886Y01810992*
X00383944Y01810767*
X00385015Y01810616*
X00386094Y01810541*
X00386636Y01810531*
X00876326Y01824761D02*
D01*
X00876362Y0182375*
X00876467Y01822743*
X00876643Y01821747*
X00876888Y01820765*
X00877201Y01819802*
X0087758Y01818864*
X00878024Y01817954*
X0087853Y01817078*
X00879096Y01816238*
X00879719Y01815441*
X00880396Y01814689*
X00881124Y01813986*
X00881899Y01813335*
X00882718Y0181274*
X00883576Y01812204*
X0088447Y01811729*
X00885394Y01811317*
X00886346Y01810971*
X00887319Y01810692*
X00888308Y01810482*
X00889311Y01810341*
X0089032Y0181027*
X00890825Y01810261*
X00875325Y01824761D02*
D01*
X00875363Y0182368*
X00875476Y01822604*
X00875664Y01821539*
X00875926Y01820489*
X0087626Y0181946*
X00876666Y01818457*
X0087714Y01817485*
X00877681Y01816548*
X00878286Y01815651*
X00878952Y01814798*
X00879676Y01813994*
X00880454Y01813243*
X00881283Y01812547*
X00882158Y01811911*
X00883075Y01811338*
X0088403Y0181083*
X00885019Y0181039*
X00886036Y0181002*
X00887076Y01809722*
X00888134Y01809497*
X00889205Y01809346*
X00890284Y01809271*
X00890825Y01809261*
X008908Y00249689D02*
D01*
X00889789Y00249654*
X00888782Y00249548*
X00887786Y00249373*
X00886804Y00249128*
X00885841Y00248815*
X00884903Y00248436*
X00883993Y00247992*
X00883117Y00247486*
X00882277Y0024692*
X0088148Y00246297*
X00880728Y0024562*
X00880025Y00244892*
X00879374Y00244116*
X00878779Y00243298*
X00878243Y00242439*
X00877768Y00241546*
X00877356Y00240621*
X0087701Y0023967*
X00876731Y00238697*
X00876521Y00237707*
X0087638Y00236705*
X00876309Y00235695*
X00876301Y00235189*
D01*
X00876337Y00234178*
X00876443Y00233171*
X00876618Y00232175*
X00876863Y00231193*
X00877176Y0023023*
X00877555Y00229292*
X00877999Y00228382*
X00878505Y00227506*
X00879071Y00226667*
X00879694Y00225869*
X00880371Y00225117*
X00881099Y00224414*
X00881874Y00223763*
X00882693Y00223168*
X00883551Y00222632*
X00884445Y00222157*
X0088537Y00221745*
X00886321Y00221399*
X00887293Y0022112*
X00888283Y0022091*
X00889286Y00220769*
X00890295Y00220698*
X008908Y00220689*
Y00250689D02*
D01*
X00889719Y00250652*
X00888643Y00250538*
X00887578Y00250351*
X00886528Y00250089*
X00885499Y00249755*
X00884496Y00249349*
X00883524Y00248875*
X00882587Y00248334*
X0088169Y00247729*
X00880837Y00247063*
X00880033Y00246339*
X00879282Y00245561*
X00878586Y00244732*
X0087795Y00243857*
X00877377Y00242939*
X00876869Y00241984*
X00876429Y00240996*
X00876059Y00239979*
X00875761Y00238939*
X00875536Y00237881*
X00875385Y0023681*
X0087531Y0023573*
X008753Y00235189*
D01*
X00875338Y00234108*
X00875451Y00233032*
X00875639Y00231967*
X00875901Y00230917*
X00876235Y00229888*
X0087664Y00228885*
X00877115Y00227913*
X00877656Y00226976*
X00878261Y00226079*
X00878927Y00225226*
X00879651Y00224422*
X00880429Y00223671*
X00881258Y00222975*
X00882133Y00222339*
X0088305Y00221766*
X00884006Y00221258*
X00884994Y00220818*
X00886011Y00220448*
X00887051Y0022015*
X00888109Y00219925*
X0088918Y00219774*
X00890259Y00219699*
X008908Y00219689*
X00532826Y00124706D02*
D01*
X00532778Y00126085*
X00532634Y00127457*
X00532394Y00128816*
X00532061Y00130155*
X00531634Y00131467*
X00531117Y00132746*
X00530513Y00133987*
X00529823Y00135181*
X00529051Y00136325*
X00528202Y00137412*
X00527279Y00138438*
X00526286Y00139396*
X00525229Y00140283*
X00524113Y00141094*
X00522943Y00141825*
X00521725Y00142473*
X00520464Y00143034*
X00519168Y00143506*
X00517841Y00143886*
X00516492Y00144173*
X00515125Y00144365*
X00513749Y00144461*
X00513059Y00144473*
X00531825Y00124706D02*
D01*
X0053178Y00126016*
X00531643Y00127318*
X00531415Y00128608*
X00531099Y00129879*
X00530694Y00131125*
X00530203Y00132339*
X00529629Y00133516*
X00528974Y00134651*
X00528241Y00135737*
X00527435Y00136769*
X00526559Y00137742*
X00525616Y00138652*
X00524613Y00139494*
X00523553Y00140264*
X00522442Y00140958*
X00521286Y00141573*
X00520089Y00142106*
X00518859Y00142554*
X00517599Y00142915*
X00516318Y00143187*
X00515021Y0014337*
X00513714Y00143461*
X00513059Y00143472*
Y00144473D02*
D01*
X0051168Y00144425*
X00510308Y00144281*
X00508949Y00144041*
X00507611Y00143708*
X00506299Y00143281*
X00505019Y00142765*
X00503779Y00142159*
X00502584Y0014147*
X00501441Y00140698*
X00500353Y00139849*
X00499328Y00138926*
X0049837Y00137933*
X00497483Y00136876*
X00496672Y0013576*
X00495941Y0013459*
X00495293Y00133372*
X00494732Y00132111*
X0049426Y00130815*
X0049388Y00129488*
X00493593Y00128139*
X00493401Y00126773*
X00493304Y00125396*
X00493293Y00124706*
X00356241Y01772259D02*
D01*
X00356206Y01773271*
X003561Y01774277*
X00355925Y01775274*
X0035568Y01776256*
X00355367Y01777219*
X00354988Y01778157*
X00354544Y01779067*
X00354038Y01779943*
X00353472Y01780782*
X00352849Y0178158*
X00352172Y01782332*
X00351444Y01783035*
X00350668Y01783686*
X0034985Y0178428*
X00348991Y01784817*
X00348098Y01785292*
X00347173Y01785704*
X00346222Y0178605*
X00345249Y01786329*
X00344259Y01786539*
X00343257Y0178668*
X00342247Y01786751*
X00341741Y01786758*
X00357241Y01772259D02*
D01*
X00357204Y01773341*
X0035709Y01774417*
X00356903Y01775482*
X00356641Y01776532*
X00356307Y01777561*
X00355901Y01778564*
X00355427Y01779536*
X00354886Y01780473*
X00354281Y0178137*
X00353615Y01782223*
X00352891Y01783027*
X00352113Y01783778*
X00351284Y01784473*
X00350409Y01785109*
X00349491Y01785683*
X00348536Y01786191*
X00347548Y01786631*
X00346531Y01787001*
X00345491Y01787299*
X00344433Y01787524*
X00343362Y01787674*
X00342282Y0178775*
X00341741Y01787759*
Y01786758D02*
D01*
X0034073Y01786723*
X00339723Y01786617*
X00338727Y01786441*
X00337745Y01786197*
X00336782Y01785884*
X00335844Y01785505*
X00334934Y01785061*
X00334058Y01784555*
X00333219Y01783989*
X00332421Y01783366*
X00331669Y01782689*
X00330966Y01781961*
X00330315Y01781185*
X0032972Y01780367*
X00329184Y01779508*
X00328709Y01778615*
X00328297Y0177769*
X00327951Y01776739*
X00327672Y01775766*
X00327462Y01774776*
X00327321Y01773774*
X0032725Y01772764*
X00327241Y01772259*
X00341741Y01757759D02*
D01*
X00342753Y01757795*
X00343759Y017579*
X00344756Y01758076*
X00345738Y01758321*
X00346701Y01758634*
X00347639Y01759013*
X00348549Y01759457*
X00349425Y01759963*
X00350264Y01760529*
X00351062Y01761152*
X00351814Y01761829*
X00352517Y01762557*
X00353167Y01763332*
X00353762Y01764151*
X00354299Y01765009*
X00354774Y01765903*
X00355185Y01766828*
X00355532Y01767779*
X00355811Y01768752*
X00356021Y01769741*
X00356162Y01770744*
X00356232Y01771753*
X00356241Y01772259*
X00327241D02*
D01*
X00327277Y01771248*
X00327382Y01770241*
X00327558Y01769245*
X00327803Y01768263*
X00328116Y017673*
X00328495Y01766362*
X00328939Y01765452*
X00329445Y01764576*
X00330011Y01763736*
X00330634Y01762939*
X00331311Y01762187*
X00332039Y01761484*
X00332814Y01760833*
X00333633Y01760238*
X00334491Y01759702*
X00335385Y01759227*
X00336309Y01758815*
X00337261Y01758469*
X00338234Y0175819*
X00339223Y0175798*
X00340226Y01757839*
X00341235Y01757768*
X00341741Y01757759*
Y01787759D02*
D01*
X0034066Y01787722*
X00339584Y01787609*
X00338519Y01787421*
X00337469Y01787159*
X0033644Y01786825*
X00335437Y01786419*
X00334465Y01785945*
X00333528Y01785404*
X00332631Y01784799*
X00331778Y01784133*
X00330974Y01783409*
X00330223Y01782631*
X00329527Y01781802*
X00328891Y01780927*
X00328318Y01780009*
X0032781Y01779054*
X0032737Y01778066*
X00327Y01777049*
X00326702Y01776009*
X00326477Y01774951*
X00326326Y0177388*
X00326251Y017728*
X00326241Y01772259*
X00249769Y01769708D02*
D01*
X00249597Y0177463*
X00249083Y01779527*
X00248228Y01784376*
X00247036Y01789154*
X00245515Y01793838*
X0024367Y01798403*
X00241511Y01802829*
X00239049Y01807094*
X00236296Y01811176*
X00233264Y01815056*
X00229969Y01818716*
X00226427Y01822137*
X00222655Y01825302*
X00218671Y01828196*
X00214495Y01830806*
X00210147Y01833118*
X00205649Y0183512*
X00201021Y01836805*
X00196332Y0183815*
X00341741Y01756758D02*
D01*
X00342823Y01756796*
X00343898Y01756909*
X00344964Y01757097*
X00346014Y01757359*
X00347043Y01757693*
X00348046Y01758098*
X00349018Y01758573*
X00349955Y01759114*
X00350852Y01759719*
X00351705Y01760385*
X00352509Y01761109*
X0035326Y01761887*
X00353956Y01762716*
X00354591Y01763591*
X00355165Y01764508*
X00355673Y01765464*
X00356113Y01766452*
X00356483Y01767469*
X00356781Y01768509*
X00357006Y01769567*
X00357157Y01770638*
X00357232Y01771717*
X00357241Y01772259*
X00326241D02*
D01*
X00326279Y01771178*
X00326392Y01770102*
X0032658Y01769037*
X00326842Y01767987*
X00327176Y01766958*
X00327582Y01765955*
X00328056Y01764983*
X00328597Y01764046*
X00329202Y01763149*
X00329868Y01762296*
X00330592Y01761492*
X0033137Y01760741*
X00332199Y01760045*
X00333074Y01759409*
X00333991Y01758836*
X00334947Y01758328*
X00335935Y01757888*
X00336952Y01757518*
X00337991Y0175722*
X0033905Y01756995*
X00340121Y01756844*
X003412Y01756769*
X00341741Y01756758*
X00196332Y01660377D02*
D01*
X00201065Y01661738*
X00205691Y01663425*
X00210188Y01665431*
X00214535Y01667745*
X00218709Y01670358*
X00222691Y01673254*
X00226461Y01676422*
X00230001Y01679845*
X00233293Y01683507*
X00236323Y01687389*
X00239073Y01691473*
X00241533Y01695739*
X00243689Y01700167*
X0024553Y01704734*
X00247049Y01709418*
X00248237Y01714196*
X00249089Y01719047*
X002496Y01723944*
X00249769Y01728819*
X00890579Y00126243D02*
D01*
X00889568Y00126208*
X00888561Y00126102*
X00887565Y00125927*
X00886583Y00125682*
X0088562Y00125369*
X00884682Y0012499*
X00883772Y00124546*
X00882896Y0012404*
X00882056Y00123474*
X00881259Y00122851*
X00880507Y00122174*
X00879804Y00121446*
X00879153Y00120671*
X00878558Y00119852*
X00878022Y00118993*
X00877547Y001181*
X00877135Y00117175*
X00876789Y00116224*
X0087651Y00115251*
X008763Y00114261*
X00876159Y00113259*
X00876088Y00112249*
X00876079Y00111744*
X00890579Y00127244D02*
D01*
X00889498Y00127207*
X00888422Y00127093*
X00887357Y00126906*
X00886307Y00126644*
X00885278Y0012631*
X00884275Y00125904*
X00883303Y0012543*
X00882366Y00124889*
X00881469Y00124284*
X00880616Y00123618*
X00879812Y00122894*
X00879061Y00122116*
X00878365Y00121287*
X00877729Y00120412*
X00877156Y00119494*
X00876648Y00118539*
X00876208Y00117551*
X00875838Y00116534*
X0087554Y00115494*
X00875315Y00114436*
X00875164Y00113365*
X00875089Y00112285*
X00875078Y00111744*
X00876079D02*
D01*
X00876115Y00110733*
X00876221Y00109726*
X00876396Y0010873*
X00876641Y00107748*
X00876954Y00106785*
X00877333Y00105847*
X00877777Y00104937*
X00878283Y00104061*
X00878849Y00103222*
X00879472Y00102424*
X00880149Y00101672*
X00880877Y00100969*
X00881652Y00100318*
X00882471Y00099723*
X00883329Y00099187*
X00884223Y00098712*
X00885148Y000983*
X00886099Y00097954*
X00887071Y00097675*
X00888061Y00097465*
X00889064Y00097324*
X00890073Y00097253*
X00890579Y00097244*
X00875078Y00111744D02*
D01*
X00875116Y00110663*
X00875229Y00109587*
X00875417Y00108522*
X00875679Y00107472*
X00876013Y00106443*
X00876418Y0010544*
X00876893Y00104468*
X00877434Y00103531*
X00878039Y00102634*
X00878705Y00101781*
X00879429Y00100977*
X00880207Y00100226*
X00881036Y0009953*
X00881911Y00098894*
X00882828Y00098321*
X00883784Y00097813*
X00884772Y00097373*
X00885789Y00097003*
X00886829Y00096705*
X00887887Y0009648*
X00888958Y00096329*
X00890037Y00096254*
X00890579Y00096243*
X00513059Y0010494D02*
D01*
X00514438Y00104989*
X00515811Y00105133*
X00517169Y00105372*
X00518508Y00105706*
X0051982Y00106132*
X00521099Y00106649*
X00522339Y00107254*
X00523534Y00107944*
X00524678Y00108716*
X00525765Y00109565*
X00526791Y00110488*
X00527749Y00111481*
X00528636Y00112538*
X00529447Y00113654*
X00530178Y00114824*
X00530826Y00116042*
X00531387Y00117303*
X00531859Y00118599*
X00532239Y00119925*
X00532526Y00121275*
X00532718Y00122641*
X00532814Y00124018*
X00532826Y00124706*
X00513059Y0010594D02*
D01*
X00514368Y00105986*
X00515671Y00106123*
X00516961Y00106351*
X00518232Y00106667*
X00519478Y00107072*
X00520692Y00107563*
X00521869Y00108137*
X00523004Y00108792*
X0052409Y00109524*
X00525122Y00110331*
X00526095Y00111207*
X00527005Y00112149*
X00527847Y00113153*
X00528617Y00114213*
X00529311Y00115323*
X00529926Y0011648*
X00530459Y00117676*
X00530907Y00118907*
X00531268Y00120166*
X0053154Y00121448*
X00531723Y00122745*
X00531814Y00124052*
X00531825Y00124706*
X00513059Y00143472D02*
D01*
X0051175Y00143427*
X00510448Y0014329*
X00509158Y00143062*
X00507887Y00142745*
X00506641Y00142341*
X00505426Y0014185*
X00504249Y00141276*
X00503115Y00140621*
X00502029Y00139888*
X00500997Y00139082*
X00500023Y00138205*
X00499114Y00137263*
X00498272Y0013626*
X00497502Y001352*
X00496807Y00134089*
X00496193Y00132933*
X0049566Y00131736*
X00495212Y00130505*
X00494851Y00129246*
X00494578Y00127965*
X00494396Y00126668*
X00494305Y00125361*
X00494293Y00124706*
D01*
X00494339Y00123397*
X00494476Y00122095*
X00494703Y00120805*
X0049502Y00119534*
X00495425Y00118288*
X00495916Y00117073*
X0049649Y00115896*
X00497145Y00114762*
X00497877Y00113676*
X00498684Y00112644*
X0049956Y0011167*
X00500502Y00110761*
X00501506Y00109919*
X00502566Y00109149*
X00503676Y00108454*
X00504833Y0010784*
X00506029Y00107307*
X0050726Y00106859*
X00508519Y00106498*
X00509801Y00106225*
X00511098Y00106043*
X00512404Y00105952*
X00513059Y0010594*
X00493293Y00124706D02*
D01*
X00493341Y00123327*
X00493486Y00121955*
X00493725Y00120597*
X00494059Y00119258*
X00494485Y00117946*
X00495002Y00116667*
X00495607Y00115426*
X00496297Y00114231*
X00497069Y00113088*
X00497918Y00112*
X00498841Y00110975*
X00499834Y00110017*
X00500891Y0010913*
X00502007Y00108319*
X00503177Y00107588*
X00504395Y0010694*
X00505656Y00106379*
X00506952Y00105907*
X00508278Y00105527*
X00509628Y0010524*
X00510994Y00105048*
X00512371Y00104952*
X00513059Y0010494*
X00491662Y0007796D02*
D01*
X00491614Y00079339*
X0049147Y00080711*
X0049123Y0008207*
X00490897Y00083409*
X0049047Y00084721*
X00489953Y00086*
X00489349Y0008724*
X00488659Y00088435*
X00487887Y00089579*
X00487038Y00090666*
X00486115Y00091692*
X00485122Y0009265*
X00484065Y00093537*
X00482949Y00094348*
X00481779Y00095079*
X00480561Y00095727*
X004793Y00096288*
X00478004Y0009676*
X00476677Y0009714*
X00475328Y00097427*
X00473961Y00097619*
X00472585Y00097715*
X00471895Y00097726*
X00526221Y0005129D02*
D01*
X00526176Y00052599*
X00526039Y00053902*
X00525811Y00055192*
X00525495Y00056463*
X0052509Y00057709*
X00524599Y00058923*
X00524025Y000601*
X0052337Y00061235*
X00522637Y00062321*
X00521831Y00063353*
X00520955Y00064326*
X00520012Y00065236*
X00519009Y00066078*
X00517949Y00066848*
X00516838Y00067542*
X00515682Y00068157*
X00514485Y0006869*
X00513255Y00069138*
X00511995Y00069499*
X00510714Y00069771*
X00509417Y00069954*
X0050811Y00070045*
X00507455Y00070056*
X00527222Y0005129D02*
D01*
X00527174Y00052669*
X0052703Y00054041*
X0052679Y000554*
X00526457Y00056739*
X0052603Y00058051*
X00525513Y0005933*
X00524909Y0006057*
X00524219Y00061765*
X00523447Y00062909*
X00522598Y00063996*
X00521675Y00065022*
X00520682Y0006598*
X00519625Y00066867*
X00518509Y00067678*
X00517339Y00068409*
X00516121Y00069057*
X0051486Y00069618*
X00513564Y0007009*
X00512237Y0007047*
X00510888Y00070757*
X00509521Y00070949*
X00508145Y00071045*
X00507455Y00071056*
Y00031523D02*
D01*
X00508834Y00031571*
X00510207Y00031716*
X00511565Y00031955*
X00512904Y00032289*
X00514216Y00032715*
X00515495Y00033232*
X00516735Y00033837*
X0051793Y00034527*
X00519074Y00035299*
X00520161Y00036148*
X00521187Y00037071*
X00522145Y00038064*
X00523032Y00039121*
X00523843Y00040237*
X00524574Y00041407*
X00525222Y00042625*
X00525783Y00043886*
X00526255Y00045182*
X00526635Y00046508*
X00526922Y00047858*
X00527114Y00049224*
X0052721Y00050601*
X00527222Y0005129*
X00507455Y00032523D02*
D01*
X00508765Y00032569*
X00510067Y00032706*
X00511357Y00032933*
X00512628Y0003325*
X00513874Y00033655*
X00515088Y00034146*
X00516265Y0003472*
X005174Y00035375*
X00518486Y00036107*
X00519518Y00036914*
X00520491Y0003779*
X00521401Y00038732*
X00522243Y00039736*
X00523013Y00040795*
X00523707Y00041906*
X00524322Y00043063*
X00524855Y0004426*
X00525303Y0004549*
X00525664Y00046749*
X00525936Y00048031*
X00526119Y00049328*
X0052621Y00050634*
X00526221Y0005129*
X00507455Y00071056D02*
D01*
X00506076Y00071008*
X00504704Y00070864*
X00503345Y00070624*
X00502007Y00070291*
X00500695Y00069864*
X00499415Y00069347*
X00498175Y00068743*
X0049698Y00068053*
X00495837Y00067281*
X00494749Y00066432*
X00493724Y00065509*
X00492766Y00064516*
X00491879Y00063459*
X00491068Y00062343*
X00490337Y00061173*
X00489689Y00059955*
X00489128Y00058694*
X00488656Y00057398*
X00488276Y00056072*
X00487989Y00054722*
X00487797Y00053356*
X004877Y00051979*
X00487689Y0005129*
X00507455Y00070056D02*
D01*
X00506146Y00070011*
X00504844Y00069874*
X00503554Y00069646*
X00502283Y00069329*
X00501037Y00068925*
X00499822Y00068434*
X00498645Y0006786*
X00497511Y00067205*
X00496425Y00066472*
X00495393Y00065666*
X00494419Y0006479*
X0049351Y00063847*
X00492668Y00062844*
X00491898Y00061784*
X00491203Y00060673*
X00490589Y00059517*
X00490056Y0005832*
X00489608Y00057089*
X00489247Y0005583*
X00488974Y00054549*
X00488792Y00053252*
X00488701Y00051945*
X00488689Y0005129*
X00471895Y00058193D02*
D01*
X00473274Y00058241*
X00474647Y00058386*
X00476005Y00058625*
X00477344Y00058959*
X00478656Y00059385*
X00479935Y00059902*
X00481175Y00060507*
X0048237Y00061197*
X00483514Y00061969*
X00484601Y00062818*
X00485627Y00063741*
X00486585Y00064734*
X00487472Y00065791*
X00488283Y00066907*
X00489014Y00068077*
X00489662Y00069295*
X00490223Y00070556*
X00490695Y00071852*
X00491075Y00073178*
X00491362Y00074528*
X00491554Y00075894*
X0049165Y00077271*
X00491662Y0007796*
X00487689Y0005129D02*
D01*
X00487737Y00049912*
X00487882Y00048539*
X00488121Y00047181*
X00488455Y00045842*
X00488881Y0004453*
X00489398Y0004325*
X00490003Y0004201*
X00490693Y00040816*
X00491465Y00039672*
X00492314Y00038584*
X00493237Y00037559*
X0049423Y00036601*
X00495287Y00035714*
X00496403Y00034903*
X00497573Y00034172*
X00498791Y00033524*
X00500052Y00032963*
X00501348Y00032491*
X00502674Y0003211*
X00504024Y00031824*
X0050539Y00031632*
X00506767Y00031535*
X00507455Y00031523*
X00488689Y0005129D02*
D01*
X00488735Y00049981*
X00488872Y00048679*
X00489099Y00047389*
X00489416Y00046118*
X00489821Y00044872*
X00490312Y00043658*
X00490886Y0004248*
X00491541Y00041346*
X00492273Y0004026*
X0049308Y00039228*
X00493956Y00038254*
X00494898Y00037345*
X00495902Y00036503*
X00496962Y00035733*
X00498072Y00035039*
X00499229Y00034424*
X00500425Y00033891*
X00501656Y00033443*
X00502915Y00033082*
X00504197Y00032809*
X00505494Y00032627*
X005068Y00032536*
X00507455Y00032523*
X00490661Y0007796D02*
D01*
X00490616Y00079269*
X00490479Y00080572*
X00490251Y00081862*
X00489935Y00083133*
X0048953Y00084379*
X00489039Y00085593*
X00488465Y0008677*
X0048781Y00087905*
X00487077Y00088991*
X00486271Y00090023*
X00485395Y00090996*
X00484452Y00091906*
X00483449Y00092748*
X00482389Y00093518*
X00481278Y00094212*
X00480122Y00094827*
X00478925Y0009536*
X00477695Y00095808*
X00476435Y00096169*
X00475154Y00096441*
X00473857Y00096624*
X0047255Y00096715*
X00471895Y00096726*
D01*
X00470586Y00096681*
X00469284Y00096544*
X00467994Y00096316*
X00466723Y00095999*
X00465477Y00095595*
X00464262Y00095104*
X00463085Y0009453*
X00461951Y00093875*
X00460865Y00093142*
X00459833Y00092336*
X00458859Y0009146*
X0045795Y00090517*
X00457108Y00089514*
X00456338Y00088454*
X00455643Y00087343*
X00455029Y00086187*
X00454496Y0008499*
X00454048Y00083759*
X00453687Y000825*
X00453414Y00081219*
X00453232Y00079922*
X00453141Y00078615*
X00453129Y0007796*
X00471895Y00097726D02*
D01*
X00470516Y00097678*
X00469144Y00097534*
X00467785Y00097294*
X00466447Y00096961*
X00465135Y00096534*
X00463855Y00096017*
X00462615Y00095413*
X0046142Y00094723*
X00460277Y00093951*
X00459189Y00093102*
X00458164Y00092179*
X00457206Y00091186*
X00456319Y00090129*
X00455508Y00089013*
X00454777Y00087843*
X00454129Y00086625*
X00453568Y00085364*
X00453096Y00084068*
X00452716Y00082742*
X00452429Y00081392*
X00452237Y00080026*
X0045214Y00078649*
X00452129Y0007796*
X00471895Y00059193D02*
D01*
X00473205Y00059239*
X00474507Y00059376*
X00475797Y00059603*
X00477068Y0005992*
X00478314Y00060325*
X00479528Y00060816*
X00480705Y0006139*
X0048184Y00062045*
X00482926Y00062777*
X00483958Y00063584*
X00484931Y0006446*
X00485841Y00065402*
X00486683Y00066406*
X00487453Y00067465*
X00488147Y00068576*
X00488762Y00069733*
X00489295Y0007093*
X00489743Y0007216*
X00490104Y00073419*
X00490376Y00074701*
X00490559Y00075998*
X0049065Y00077304*
X00490661Y0007796*
X00453129D02*
D01*
X00453175Y00076651*
X00453312Y00075349*
X00453539Y00074059*
X00453856Y00072788*
X00454261Y00071542*
X00454752Y00070328*
X00455326Y0006915*
X00455981Y00068016*
X00456713Y0006693*
X0045752Y00065898*
X00458396Y00064924*
X00459338Y00064015*
X00460342Y00063173*
X00461402Y00062403*
X00462512Y00061709*
X00463669Y00061094*
X00464865Y00060561*
X00466096Y00060113*
X00467355Y00059752*
X00468637Y00059479*
X00469934Y00059297*
X0047124Y00059206*
X00471895Y00059193*
X00452129Y0007796D02*
D01*
X00452177Y00076582*
X00452322Y00075209*
X00452561Y00073851*
X00452895Y00072512*
X00453321Y000712*
X00453838Y0006992*
X00454443Y0006868*
X00455133Y00067486*
X00455905Y00066342*
X00456754Y00065254*
X00457677Y00064229*
X0045867Y00063271*
X00459727Y00062384*
X00460843Y00061573*
X00462013Y00060842*
X00463231Y00060194*
X00464492Y00059633*
X00465788Y00059161*
X00467114Y0005878*
X00468464Y00058494*
X0046983Y00058302*
X00471207Y00058205*
X00471895Y00058193*
X00454467Y0005234D02*
D01*
X00454415Y00053852*
X00454256Y00055356*
X00453994Y00056846*
X00453628Y00058313*
X00453161Y00059752*
X00452594Y00061154*
X00451931Y00062513*
X00451175Y00063823*
X00450329Y00065077*
X00449398Y00066269*
X00448386Y00067393*
X00447298Y00068444*
X00446139Y00069416*
X00444916Y00070305*
X00443633Y00071106*
X00442297Y00071816*
X00440916Y00072431*
X00439494Y00072949*
X00438041Y00073366*
X00436561Y0007368*
X00435063Y00073891*
X00433555Y00073996*
X00432798Y0007401*
Y00073009D02*
D01*
X00431357Y00072959*
X00429922Y00072808*
X00428501Y00072558*
X00427102Y00072209*
X00425729Y00071763*
X00424392Y00071223*
X00423095Y0007059*
X00421846Y00069869*
X0042065Y00069062*
X00419513Y00068174*
X00418441Y00067209*
X00417439Y00066171*
X00416512Y00065066*
X00415664Y00063899*
X00414899Y00062675*
X00414222Y00061402*
X00413635Y00060084*
X00413142Y00058728*
X00412744Y00057342*
X00412444Y0005593*
X00412244Y00054502*
X00412143Y00053063*
X00412129Y0005234*
X00432798Y0007401D02*
D01*
X00431287Y00073958*
X00429783Y00073799*
X00428293Y00073537*
X00426826Y00073171*
X00425387Y00072704*
X00423985Y00072137*
X00422625Y00071474*
X00421316Y00070718*
X00420062Y00069872*
X0041887Y00068941*
X00417746Y00067929*
X00416695Y00066841*
X00415723Y00065682*
X00414834Y00064459*
X00414032Y00063176*
X00413323Y0006184*
X00412707Y00060459*
X0041219Y00059037*
X00411773Y00057584*
X00411459Y00056104*
X00411248Y00054606*
X00411143Y00053098*
X00411129Y0005234*
X00453466D02*
D01*
X00453416Y00053782*
X00453265Y00055217*
X00453015Y00056637*
X00452666Y00058037*
X0045222Y00059409*
X0045168Y00060747*
X00451047Y00062043*
X00450326Y00063293*
X00449519Y00064489*
X00448631Y00065625*
X00447666Y00066698*
X00446628Y000677*
X00445523Y00068627*
X00444356Y00069475*
X00443132Y00070239*
X00441859Y00070917*
X00440541Y00071503*
X00439185Y00071997*
X00437798Y00072394*
X00436387Y00072694*
X00434959Y00072895*
X0043352Y00072996*
X00432798Y00073009*
Y00030671D02*
D01*
X0043431Y00030724*
X00435814Y00030882*
X00437304Y00031145*
X00438771Y00031511*
X0044021Y00031978*
X00441612Y00032545*
X00442971Y00033208*
X00444281Y00033964*
X00445535Y0003481*
X00446727Y00035741*
X00447851Y00036753*
X00448902Y00037841*
X00449874Y00039*
X00450763Y00040223*
X00451564Y00041506*
X00452274Y00042841*
X0045289Y00044223*
X00453407Y00045644*
X00453824Y00047098*
X00454138Y00048578*
X00454349Y00050075*
X00454454Y00051584*
X00454467Y0005234*
X00432798Y00031672D02*
D01*
X0043424Y00031723*
X00435675Y00031873*
X00437095Y00032124*
X00438495Y00032473*
X00439867Y00032919*
X00441205Y00033459*
X00442502Y00034092*
X00443751Y00034813*
X00444947Y0003562*
X00446083Y00036508*
X00447156Y00037473*
X00448158Y00038511*
X00449085Y00039616*
X00449933Y00040783*
X00450697Y00042006*
X00451375Y0004328*
X00451962Y00044598*
X00452455Y00045954*
X00452853Y0004734*
X00453152Y00048751*
X00453353Y0005018*
X00453454Y00051619*
X00453466Y0005234*
X00412129D02*
D01*
X0041218Y00050899*
X0041233Y00049464*
X00412581Y00048043*
X0041293Y00046644*
X00413376Y00045271*
X00413916Y00043934*
X00414549Y00042637*
X0041527Y00041388*
X00416077Y00040192*
X00416965Y00039055*
X0041793Y00037983*
X00418968Y00036981*
X00420073Y00036054*
X0042124Y00035206*
X00422463Y00034441*
X00423737Y00033764*
X00425055Y00033177*
X00426411Y00032684*
X00427797Y00032286*
X00429208Y00031986*
X00430637Y00031786*
X00432076Y00031685*
X00432798Y00031672*
X00411129Y0005234D02*
D01*
X00411182Y00050829*
X0041134Y00049325*
X00411603Y00047835*
X00411969Y00046368*
X00412436Y00044929*
X00413003Y00043527*
X00413666Y00042167*
X00414422Y00040857*
X00415268Y00039604*
X00416199Y00038412*
X00417211Y00037288*
X00418299Y00036237*
X00419458Y00035265*
X00420681Y00034376*
X00421964Y00033574*
X00423299Y00032864*
X00424681Y00032249*
X00426102Y00031732*
X00427556Y00031315*
X00429035Y00031*
X00430533Y0003079*
X00432042Y00030684*
X00432798Y00030671*
X01695332Y01837772D02*
Y0194056D01*
X01610879Y01735623D02*
Y01775601D01*
X01694331Y00350218D02*
Y0167315D01*
X01524713Y00010554D02*
X01694331Y00350218D01*
X00196332Y0194056D02*
X01695332D01*
X00196332Y0183815D02*
Y0194056D01*
X00249769Y01728819D02*
Y01769708D01*
X00196332Y00350218D02*
Y01660377D01*
X0036595Y00010554D02*
X01524713D01*
X00196332Y00350218D02*
X0036595Y00010554D01*
M02*