%FSTAX44Y44*%
%MOMM*%
%SFA1B1*%

%IPPOS*%
%AMD82*
4,1,8,1.206500,3.276600,-1.206500,3.276600,-2.514600,1.968500,-2.514600,-1.968500,-1.206500,-3.276600,1.206500,-3.276600,2.514600,-1.968500,2.514600,1.968500,1.206500,3.276600,0.0*
1,1,2.616200,1.206500,1.968500*
1,1,2.616200,-1.206500,1.968500*
1,1,2.616200,-1.206500,-1.968500*
1,1,2.616200,1.206500,-1.968500*
%
%ADD80C,1.703197*%
%ADD81R,1.703197X1.703197*%
G04~CAMADD=82~8~0.0~0.0~1980.0~2580.0~515.0~0.0~15~0.0~0.0~0.0~0.0~0~0.0~0.0~0.0~0.0~0~0.0~0.0~0.0~0.0~1980.0~2580.0*
%ADD82D82*%
%ADD83R,1.893196X1.893196*%
%ADD84C,1.893196*%
%ADD85C,2.703195*%
%ADD86C,2.453195*%
%ADD87C,5.203190*%
%ADD88C,4.203192*%
%ADD89C,5.421189*%
%ADD90C,2.303195*%
%ADD91C,1.727197*%
%ADD92O,1.609597X3.311193*%
%ADD93C,3.203194*%
%ADD94C,2.103196*%
%ADD95C,2.678195*%
%ADD96C,1.503197*%
%ADD97R,1.503197X1.503197*%
%ADD98C,2.078196*%
%ADD99O,2.153196X1.503197*%
%ADD100C,1.358197*%
%ADD101O,1.503197X2.153196*%
%ADD102C,1.473197*%
%ADD103C,1.536197*%
%ADD104O,4.203192X2.703195*%
%ADD105C,0.703199*%
%LNsega_801_remake_soldermask_bot-1*%
%LPD*%
G54D80*
X0144272Y0101854D03*
X0146812D03*
X0144272Y0099314D03*
X0146812D03*
X0144272Y0096774D03*
X00494899Y01248973D03*
X00520299D03*
X00545699D03*
X00571099D03*
X00596499D03*
X00621899D03*
X00647299D03*
X00672699D03*
X00698099D03*
X00723499D03*
X00748899D03*
X00774299D03*
X00799699D03*
X00825099D03*
X00850499D03*
X00875899D03*
X00901299D03*
X00926699D03*
X00952099D03*
X00977499D03*
X01002899D03*
X01028299D03*
X01053699D03*
X01079099D03*
X01104499D03*
X01129899D03*
X01155299D03*
X01180699D03*
X01206099D03*
X01231499D03*
X01256899D03*
X01282299D03*
Y01299773D03*
X01256899D03*
X01231499D03*
X01206099D03*
X01180699D03*
X01155299D03*
X01129899D03*
X01104499D03*
X01079099D03*
X01053699D03*
X01028299D03*
X01002899D03*
X00977499D03*
X00952099D03*
X00926699D03*
X00901299D03*
X00875899D03*
X00850499D03*
X00825099D03*
X00799699D03*
X00774299D03*
X00748899D03*
X00723499D03*
X00698099D03*
X00672699D03*
X00647299D03*
X00621899D03*
X00596499D03*
X00571099D03*
X00545699D03*
X00520299D03*
X00494899D03*
G54D81*
X0146812Y0096774D03*
G54D82*
X01175239Y0005334D03*
X00925339D03*
X00605779D03*
X00855679D03*
G54D83*
X00994889Y00078719D03*
Y00128249D03*
X00675329D03*
Y00078719D03*
G54D84*
X01008739Y00050319D03*
X01022589Y00078719D03*
X01036439Y00050319D03*
X0105029Y00078719D03*
X01064139Y00050319D03*
X01077989Y00078719D03*
X01091839Y00050319D03*
X01105689Y00078719D03*
Y00128249D03*
X01091839Y00099849D03*
X01077989Y00128249D03*
X01064139Y00099849D03*
X0105029Y00128249D03*
X01036439Y00099849D03*
X01022589Y00128249D03*
X01008739Y00099849D03*
X00689179D03*
X00703029Y00128249D03*
X00716879Y00099849D03*
X00730729Y00128249D03*
X00744579Y00099849D03*
X00758429Y00128249D03*
X00772279Y00099849D03*
X0078613Y00128249D03*
X00689179Y00050319D03*
X00703029Y00078719D03*
X00716879Y00050319D03*
X00730729Y00078719D03*
X00744579Y00050319D03*
X00758429Y00078719D03*
X00772279Y00050319D03*
X0078613Y00078719D03*
G54D85*
X01093899Y01869799D03*
X01623899D03*
X0138176Y00258609D03*
X01256759D03*
X0138176Y0030861D03*
X01256759D03*
G54D86*
X015494Y01796999D03*
X0153035Y01847799D03*
X015113Y01796999D03*
X0149225Y01847799D03*
X014732Y01796999D03*
X0145415Y01847799D03*
X014351Y01796999D03*
X0141605Y01847799D03*
X01397Y01796999D03*
X0137795Y01847799D03*
X013589Y01796999D03*
X0133985Y01847799D03*
X013208Y01796999D03*
X0130175Y01847799D03*
X012827Y01796999D03*
X0126365Y01847799D03*
X012446Y01796999D03*
X0122555Y01847799D03*
X012065Y01796999D03*
X0118745Y01847799D03*
X011684Y01796999D03*
X00335299Y01923659D03*
X00248899D03*
G54D87*
X00409439Y01274373D03*
G54D88*
X01369739Y01274373D03*
G54D89*
X00589999Y01851999D03*
X00639999Y01902999D03*
X00689999Y01851999D03*
X00854999D03*
X00804999Y01902999D03*
X00754999Y01851999D03*
X00424999D03*
X00474999Y01902999D03*
X00524999Y01851999D03*
G54D90*
X00639999Y01849999D03*
X00804999D03*
X00474999D03*
G54D91*
X00492822Y0026392D03*
X00532997D03*
X00452811D03*
X00493384Y0028956D03*
X00533559D03*
X00453373D03*
X01019169Y01855169D03*
X00959169D03*
X00999169D03*
X00939169Y01880169D03*
X01019169D03*
X00986169D03*
X00966169D03*
X0097917Y01855169D03*
X00939169D03*
G54D92*
X00412909Y0027686D03*
X00574199D03*
G54D93*
X0097917Y01918169D03*
G54D94*
X00335299Y01885659D03*
X00248899D03*
G54D95*
X0153924Y01130659D03*
Y00970659D03*
G54D96*
X0153924Y0108966D03*
Y01049659D03*
Y01029659D03*
X0084328Y01437599D03*
Y01457599D03*
Y01477599D03*
X0154178Y00778519D03*
Y00798519D03*
Y00818519D03*
G54D97*
X0153924Y01009659D03*
G54D98*
X0084328Y01416599D03*
Y014986D03*
X0154178Y00757519D03*
Y00839519D03*
G54D99*
X0139446Y01719179D03*
Y0169418D03*
X0084582Y00578959D03*
Y00558959D03*
X0108712Y01692039D03*
Y0171704D03*
X0124206Y01719179D03*
Y0169418D03*
X0044704Y015494D03*
Y01569399D03*
Y01503359D03*
Y0148336D03*
X00381Y0141986D03*
Y01439859D03*
X0064516Y01762559D03*
Y01737559D03*
X00381Y015494D03*
Y01569399D03*
X0116586Y01719179D03*
Y0169418D03*
X0046736Y0170434D03*
Y01679339D03*
X0131826Y01719179D03*
Y0169418D03*
X0146812Y01719179D03*
Y0169418D03*
X0091948Y014605D03*
Y01485499D03*
X0154432Y01719379D03*
Y01694379D03*
X0059436Y0104902D03*
Y01069019D03*
X01235809Y00805339D03*
Y00825339D03*
X00372849Y00636346D03*
Y00616346D03*
X0055626Y01668459D03*
Y0164846D03*
X0146812Y016383D03*
Y01618299D03*
X012446Y0162306D03*
Y01643059D03*
G54D100*
X0109982Y0032512D03*
Y00373919D03*
X0088646D03*
Y0032512D03*
G54D101*
X01234279Y014605D03*
X01214279D03*
X00454859Y017653D03*
X00479859D03*
X00830179Y0173736D03*
X0080518D03*
X0083058Y0157988D03*
X00805579D03*
X0043688Y0143002D03*
X00456879D03*
X00558999Y0175006D03*
X00583999D03*
X00437199Y0162306D03*
X004572D03*
X0083058Y0165862D03*
X00805579D03*
X00388419Y004191D03*
X00363419D03*
X0045212Y0113284D03*
X00472119D03*
G54D102*
X0118872Y0162814D03*
X01148719D03*
X01062359D03*
X0110236D03*
G54D103*
X0145542Y0082042D03*
Y0079502D03*
Y0076962D03*
G54D104*
X00417999Y00244999D03*
Y00309999D03*
X00566999D03*
Y00244999D03*
G54D105*
X00314659Y00493059D03*
X00293657Y0185928D03*
M02*