%FSTAX44Y44*%
%MOMM*%
%SFA1B1*%

%IPPOS*%
%ADD109C,0.100000*%
%ADD139C,0.012700*%
%ADD140C,0.050000*%
%LNsega_801_remake_mechanical_15-1*%
%LPD*%
G54D109*
X00195832Y01660768D02*
D01*
X00200539Y01662093*
X00205141Y01663743*
X00209618Y01665709*
X00213946Y01667983*
X00218105Y01670554*
X00222074Y01673408*
X00225835Y01676533*
X00229369Y01679912*
X00232659Y01683529*
X00235688Y01687367*
X00238441Y01691407*
X00240907Y01695629*
X00243072Y01700013*
X00244926Y01704537*
X0024646Y0170918*
X00247666Y01713918*
X00248538Y01718729*
X00249073Y01723589*
X00249268Y01728474*
X00249269Y01728819*
X0169574Y01837118D02*
D01*
X01691401Y01838346*
X01686987Y01839269*
X01682519Y01839881*
X01678019Y01840179*
X01673509Y01840164*
X01669012Y01839834*
X01664548Y0183919*
X0166014Y01838237*
X01655809Y01836979*
X01651577Y01835422*
X01647464Y01833573*
X01643489Y01831442*
X01639673Y01829039*
X01636034Y01826376*
X0163259Y01823465*
X01629356Y01820321*
X01626351Y01816959*
X01623587Y01813395*
X01621078Y01809648*
X01618837Y01805735*
X01616874Y01801674*
X01615199Y01797487*
X01613821Y01793194*
X01612745Y01788814*
X01611977Y0178437*
X01611522Y01779883*
X01611379Y01775601*
Y01735623D02*
D01*
X01611537Y01731116*
X01612008Y01726631*
X01612791Y0172219*
X01613882Y01717814*
X01615276Y01713525*
X01616965Y01709344*
X01618942Y01705291*
X01621197Y01701385*
X01623719Y01697647*
X01626495Y01694093*
X01629513Y01690742*
X01632757Y01687609*
X01636211Y0168471*
X0163986Y01682059*
X01643684Y01679669*
X01647666Y01677552*
X01651786Y01675718*
X01656024Y01674176*
X01660359Y01672933*
X0166477Y01671995*
X01669236Y01671367*
X01673735Y01671053*
X01678244*
X01682743Y01671367*
X01687209Y01671995*
X0169162Y01672933*
X01694831Y01673822*
X00249269Y01769708D02*
D01*
X00249099Y01774595*
X00248588Y01779457*
X00247739Y01784272*
X00246556Y01789016*
X00245045Y01793666*
X00243213Y01798199*
X0024107Y01802594*
X00238625Y01806828*
X00235891Y01810882*
X00232881Y01814734*
X0022961Y01818368*
X00226093Y01821764*
X00222347Y01824907*
X00218392Y01827781*
X00214245Y01830372*
X00209928Y01832667*
X00205462Y01834656*
X00200867Y01836328*
X00196168Y01837676*
X00195832Y01837758*
X00362169Y0149606D02*
X00372169D01*
X00367169Y01491059D02*
Y01501059D01*
X0099568Y00639029D02*
Y00649029D01*
X00990679Y00644029D02*
X01000679D01*
X0101854Y00639029D02*
Y00649029D01*
X01013539Y00644029D02*
X01023539D01*
X00413639Y01658699D02*
Y01668699D01*
X00408639Y016637D02*
X00418639D01*
X01439799Y01402159D02*
Y01412159D01*
X01434799Y0140716D02*
X01444799D01*
X0046736Y01752799D02*
Y017653D01*
X00479859*
X0046736D02*
Y01777799D01*
X00454859Y017653D02*
X0046736D01*
X0139446Y0169418D02*
Y01706679D01*
X01381959D02*
X0139446D01*
Y01719179*
Y01706679D02*
X01406959D01*
X00883739Y01822059D02*
Y01992999D01*
X00726259Y01822059D02*
X00883739D01*
X00726259D02*
Y01992999D01*
X00883739*
X00396259D02*
X00553739D01*
X00396259Y01822059D02*
Y01992999D01*
Y01822059D02*
X00553739D01*
Y01992999*
X00718739Y01822059D02*
Y01992999D01*
X00561259Y01822059D02*
X00718739D01*
X00561259D02*
Y01992999D01*
X00718739*
X009398Y00272989D02*
Y00282989D01*
X00934799Y00277989D02*
X00944799D01*
X01432719Y00746919D02*
Y00843119D01*
X01478119*
Y00746919D02*
Y00843119D01*
X01432719Y00746919D02*
X01478119D01*
X01510279Y00728519D02*
Y00858889D01*
X01573279*
Y00728519D02*
Y00858889D01*
X01510279Y00728519D02*
X01573279D01*
X01148159Y00322959D02*
X01158159D01*
X0115316Y00317959D02*
Y00327959D01*
X00833199Y00325499D02*
X00843199D01*
X008382Y00320499D02*
Y00330499D01*
X01536979Y01494729D02*
Y01504729D01*
X01531979Y01499729D02*
X01541979D01*
X0106172Y01410159D02*
Y01420159D01*
X01056719Y01415159D02*
X01066719D01*
X0108458Y01565099D02*
Y01575099D01*
X01079579Y01570099D02*
X01089579D01*
X0114046Y01411189D02*
Y01421189D01*
X01135459Y01416189D02*
X01145459D01*
X00555209Y0141732D02*
X00565209D01*
X00560209Y01412319D02*
Y01422319D01*
X00555959Y013843D02*
X00565959D01*
X00560959Y01379299D02*
Y01389299D01*
X0112014Y01565099D02*
Y01575099D01*
X01115139Y01570099D02*
X01125139D01*
X0118618Y01565099D02*
Y01575099D01*
X01181179Y01570099D02*
X01191179D01*
X0115316Y01565099D02*
Y01575099D01*
X01148159Y01570099D02*
X01158159D01*
X0108712Y01692039D02*
Y01704539D01*
X01074619D02*
X0108712D01*
Y0171704*
Y01704539D02*
X01099619D01*
X0133096Y01473279D02*
Y01483279D01*
X01325959Y0147828D02*
X01335959D01*
X0122428Y014605D02*
Y01472999D01*
X01211779Y014605D02*
X0122428D01*
Y01447999D02*
Y014605D01*
X01236779*
X01219279Y0141732D02*
X01229279D01*
X0122428Y01412319D02*
Y01422319D01*
X01434799Y0148336D02*
X01444799D01*
X01439799Y01478359D02*
Y01488359D01*
X01434799Y0150876D02*
X01444799D01*
X01439799Y01503759D02*
Y01513759D01*
X01594069Y0143256D02*
X01604069D01*
X01599069Y01427559D02*
Y01437559D01*
X01594069Y0147828D02*
X01604069D01*
X01599069Y01473279D02*
Y01483279D01*
X01594069Y01524D02*
X01604069D01*
X01599069Y01518999D02*
Y01528999D01*
X00811779Y01387599D02*
X00874779D01*
Y01517969*
X00811779D02*
X00874779D01*
X00811779Y01387599D02*
Y01517969D01*
X00817679Y01724859D02*
Y0173736D01*
X00830179*
X00817679D02*
Y01749859D01*
X0080518Y0173736D02*
X00817679D01*
X00818079Y01567379D02*
Y0157988D01*
X0083058*
X00818079D02*
Y01592379D01*
X00805579Y0157988D02*
X00818079D01*
X00599519Y01631809D02*
X00609519D01*
X0060452Y01626809D02*
Y01636809D01*
X00711279Y01624469D02*
X00721279D01*
X0071628Y01619469D02*
Y01629469D01*
X0124206Y01706679D02*
X01254559D01*
X0124206D02*
Y01719179D01*
X01229559Y01706679D02*
X0124206D01*
Y0169418D02*
Y01706679D01*
X01058899Y01724499D02*
X01658899D01*
X01058899D02*
Y01912999D01*
X01658899*
Y01724499D02*
Y01912999D01*
X0044704Y01546899D02*
Y01559399D01*
X00434539D02*
X0044704D01*
Y01571899*
Y01559399D02*
X00459539D01*
X00434379Y0143002D02*
X00446879D01*
Y01442519*
Y0143002D02*
X00459379D01*
X00446879Y01417519D02*
Y0143002D01*
X0044704Y01493359D02*
Y01505859D01*
Y01493359D02*
X00459539D01*
X0044704Y01480859D02*
Y01493359D01*
X00434539D02*
X0044704D01*
X0051054Y01422479D02*
Y01432479D01*
X00505539Y0142748D02*
X00515539D01*
X0051054Y01470739D02*
Y01480739D01*
X00505539Y0147574D02*
X00515539D01*
X0051054Y01381839D02*
Y01391839D01*
X00505539Y0138684D02*
X00515539D01*
X00381Y01417359D02*
Y01429859D01*
X00368499D02*
X00381D01*
Y01442359*
Y01429859D02*
X00393499D01*
X00402729Y01513919D02*
Y01523919D01*
X00397729Y0151892D02*
X00407729D01*
X0064516Y0175006D02*
X00657659D01*
X0064516D02*
Y01762559D01*
X00632659Y0175006D02*
X0064516D01*
Y01737559D02*
Y0175006D01*
X005715D02*
Y01762559D01*
X00558999Y0175006D02*
X005715D01*
Y01737559D02*
Y0175006D01*
X00583999*
X00434699Y0162306D02*
X00447199D01*
Y01635559*
Y0162306D02*
X00459699D01*
X00447199Y01610559D02*
Y0162306D01*
X00381Y01546899D02*
Y01559399D01*
X00368499D02*
X00381D01*
Y01571899*
Y01559399D02*
X00393499D01*
X00390699Y01716819D02*
X00396699D01*
X003937Y01713819D02*
Y01719819D01*
X0037592Y00518059D02*
Y00524059D01*
X00372919Y00521059D02*
X00378919D01*
X0116586Y01706679D02*
X01178359D01*
X0116586D02*
Y01719179D01*
X01153359Y01706679D02*
X0116586D01*
Y0169418D02*
Y01706679D01*
X00877559Y00496759D02*
X00971559D01*
Y00615759*
X00877559D02*
X00971559D01*
X00877559Y00496759D02*
Y00615759D01*
X0046736Y01691839D02*
X00479859D01*
X0046736D02*
Y0170434D01*
X00454859Y01691839D02*
X0046736D01*
Y01679339D02*
Y01691839D01*
X0131826Y01706679D02*
X01330759D01*
X0131826D02*
Y01719179D01*
X01305759Y01706679D02*
X0131826D01*
Y0169418D02*
Y01706679D01*
X00818079Y01646119D02*
Y0165862D01*
X0083058*
X00818079D02*
Y01671119D01*
X00805579Y0165862D02*
X00818079D01*
X01356439Y01629549D02*
X01366439D01*
X0136144Y01624549D02*
Y01634549D01*
X01389459Y01629549D02*
X01399459D01*
X0139446Y01624549D02*
Y01634549D01*
X01294269Y01750139D02*
Y01760139D01*
X01289269Y0175514D02*
X01299269D01*
X0037592Y00406599D02*
Y004191D01*
X00388419*
X0037592D02*
Y00431599D01*
X00363419Y004191D02*
X0037592D01*
X0146812Y01706679D02*
X01480619D01*
X0146812D02*
Y01719179D01*
X01455619Y01706679D02*
X0146812D01*
Y0169418D02*
Y01706679D01*
X00906979Y01472999D02*
X0091948D01*
Y014605D02*
Y01472999D01*
X00931979*
X0091948D02*
Y01485499D01*
X0154432Y0170688D02*
X01556819D01*
X0154432D02*
Y01719379D01*
X01531819Y0170688D02*
X0154432D01*
Y01694379D02*
Y0170688D01*
X00986929Y00188039D02*
Y00198039D01*
X00981929Y0019304D02*
X00991929D01*
X01510769Y00948428D02*
X01573789D01*
Y01101844D02*
Y01153029D01*
Y00948428D02*
Y00999474D01*
X01510239Y00948289D02*
Y01153029D01*
X0157353*
X01573789Y00999474D02*
Y01101844D01*
X00195832Y003501D02*
X00365641Y00010054D01*
X00249269Y01728818D02*
Y01769708D01*
X00195832Y01837758D02*
Y0194056D01*
X01695832*
Y01837118D02*
Y0194056D01*
X01694831Y003501D02*
Y01673821D01*
X01611379Y01735623D02*
Y01775601D01*
X00365641Y00010054D02*
X01525022D01*
X01694831Y003501*
X00195832D02*
Y01660768D01*
X0132842Y01624549D02*
Y01634549D01*
X01323419Y01629549D02*
X01333419D01*
X012954Y01624549D02*
Y01634549D01*
X01290399Y01629549D02*
X01300399D01*
X01522949Y0175514D02*
X01532949D01*
X01527949Y01750139D02*
Y01760139D01*
X01430099Y0175514D02*
X01440099D01*
X014351Y01750139D02*
Y01760139D01*
X00462119Y0113284D02*
Y01145339D01*
X00449619Y0113284D02*
X00462119D01*
Y01120339D02*
Y0113284D01*
X00474619*
X00581859Y01059019D02*
X0059436D01*
Y01046519D02*
Y01059019D01*
X00606859*
X0059436D02*
Y01071519D01*
X007366Y00624539D02*
Y00634539D01*
X00731599Y00629539D02*
X00741599D01*
X0076962Y00196789D02*
Y00206789D01*
X00764619Y00201789D02*
X00774619D01*
X0071628Y00196789D02*
Y00206789D01*
X00711279Y00201789D02*
X00721279D01*
X01068119Y00285669D02*
X01131519D01*
Y00413369*
X01068119D02*
X01131519D01*
X01068119Y00285669D02*
Y00413369D01*
X00356549Y01865159D02*
Y01959659D01*
X00227649D02*
X00356549D01*
X00227649Y01865159D02*
Y01959659D01*
Y01865159D02*
X00356549D01*
X0085344Y00512779D02*
Y00522779D01*
X00848439Y00517779D02*
X00858439D01*
X00833319Y0056896D02*
X0084582D01*
Y00556459D02*
Y0056896D01*
X00858319*
X0084582D02*
Y00581459D01*
X00919179Y0063754D02*
X00929179D01*
X00924179Y00632539D02*
Y00642539D01*
X007874Y01187389D02*
Y01197389D01*
X00782399Y01192389D02*
X00792399D01*
X0032512Y00620219D02*
Y00630219D01*
X00320119Y00625219D02*
X00330119D01*
X01289609Y0077724D02*
X01299609D01*
X01294609Y00772239D02*
Y00782239D01*
X01223309Y0081534D02*
X01235809D01*
Y00802839D02*
Y0081534D01*
X01248309*
X01235809D02*
Y00827839D01*
X01306929Y00809209D02*
Y00819209D01*
X01301929Y00814209D02*
X01311929D01*
X011811Y00793399D02*
Y00803399D01*
X01176099Y00798399D02*
X01186099D01*
X011557Y00793779D02*
Y00803779D01*
X01150699Y00798779D02*
X01160699D01*
X0086614Y01186259D02*
Y01196259D01*
X00861139Y0119126D02*
X00871139D01*
X0069088Y01013539D02*
Y01023539D01*
X00685879Y0101854D02*
X00695879D01*
X00854759Y00285669D02*
X00918159D01*
Y00413369*
X00854759D02*
X00918159D01*
X00854759Y00285669D02*
Y00413369D01*
X01050509Y0054102D02*
X01060509D01*
X01055509Y00536019D02*
Y00546019D01*
X010414Y00568659D02*
Y00578659D01*
X01036399Y00573659D02*
X01046399D01*
X01439799Y01579959D02*
Y01589959D01*
X01434799Y0158496D02*
X01444799D01*
X01259919Y01581289D02*
X01269919D01*
X0126492Y01576289D02*
Y01586289D01*
X01419939Y0162814D02*
X01429939D01*
X0142494Y01623139D02*
Y01633139D01*
X01229439Y01580259D02*
X01239439D01*
X0123444Y01575259D02*
Y01585259D01*
X01330579Y01374219D02*
Y01384219D01*
X01325579Y0137922D02*
X01335579D01*
X01411763Y00993197D02*
Y01003197D01*
X01406763Y00998197D02*
X01416763D01*
X00372849Y00626346D02*
X00385349D01*
X00372849D02*
Y00638846D01*
X00360349Y00626346D02*
X00372849D01*
Y00613847D02*
Y00626346D01*
X0071628Y01576289D02*
Y01586289D01*
X00711279Y01581289D02*
X00721279D01*
X01070829Y0019304D02*
X01080829D01*
X01075829Y00188039D02*
Y00198039D01*
X0136144Y01176479D02*
Y01186479D01*
X01356439Y01181479D02*
X01366439D01*
X010541Y00331409D02*
Y00341409D01*
X01049099Y00336409D02*
X01059099D01*
X0140208Y00780989D02*
Y00790989D01*
X01397079Y00785989D02*
X01407079D01*
X010668Y00609679D02*
Y00619679D01*
X01061799Y0061468D02*
X01071799D01*
X00499329Y0084582D02*
X00509329D01*
X00504329Y00840819D02*
Y00850819D01*
X009398Y00321249D02*
Y00331249D01*
X00934799Y00326249D02*
X00944799D01*
X0083566Y01186259D02*
Y01196259D01*
X00830659Y0119126D02*
X00840659D01*
X0089408Y01186259D02*
Y01196259D01*
X00889079Y0119126D02*
X00899079D01*
X0062484Y01187389D02*
Y01197389D01*
X00619839Y01192389D02*
X00629839D01*
X0065532Y01187389D02*
Y01197389D01*
X00650319Y01192389D02*
X00660319D01*
X00387289Y0137414D02*
X00397289D01*
X00392289Y01369139D02*
Y01379139D01*
X0072136Y01496139D02*
Y01506139D01*
X00716359Y0150114D02*
X00726359D01*
X00676918Y01549118D02*
Y01559118D01*
X00671918Y01554118D02*
X00681918D01*
X006477Y0154835D02*
Y0155835D01*
X00642699Y01553349D02*
X00652699D01*
X00505539Y0153924D02*
X00515539D01*
X0051054Y01534239D02*
Y01544239D01*
X00592194Y01513164D02*
Y01523164D01*
X00587194Y01518164D02*
X00597194D01*
X00505539Y0162052D02*
X00515539D01*
X0051054Y01615519D02*
Y01625519D01*
X00504129Y0157988D02*
X00514129D01*
X00509129Y01574879D02*
Y01584879D01*
X00646649Y0110744D02*
X00656649D01*
X00651649Y01102439D02*
Y01112439D01*
X00646649Y0113538D02*
X00656649D01*
X00651649Y01130379D02*
Y01140379D01*
X00647779Y0105156D02*
X00657779D01*
X0065278Y01046559D02*
Y01056559D01*
X00648559Y01025779D02*
X00658559D01*
X00653559Y01020778D02*
Y01030778D01*
X00647779Y0100076D02*
X00657779D01*
X0065278Y00995759D02*
Y01005759D01*
X00572028Y01583909D02*
Y0159391D01*
X00567028Y01588909D02*
X00577028D01*
X0060452Y01583909D02*
Y01593909D01*
X00599519Y01588909D02*
X00609519D01*
X01434049Y0155956D02*
X01444049D01*
X01439049Y01554559D02*
Y01564559D01*
X01434049Y0153416D02*
X01444049D01*
X01439049Y01529159D02*
Y01539159D01*
X0110236Y01410909D02*
Y01420909D01*
X01097359Y01415909D02*
X01107359D01*
X01536979Y01455499D02*
Y01465499D01*
X01531979Y014605D02*
X01541979D01*
X01536979Y01416269D02*
Y01426269D01*
X01531979Y01421269D02*
X01541979D01*
X01594069Y014097D02*
X01604069D01*
X01599069Y01404699D02*
Y01414699D01*
X01594069Y0145542D02*
X01604069D01*
X01599069Y01450419D02*
Y01460419D01*
X01594349Y0150114D02*
X0160435D01*
X0159935Y01496139D02*
Y01506139D01*
X00653779Y01079659D02*
X00663779D01*
X00658779Y01074659D02*
Y01084659D01*
X0102616Y00393399D02*
Y00403399D01*
X01021159Y00398399D02*
X01031159D01*
X0115316Y00367999D02*
Y00377999D01*
X01148159Y00372999D02*
X01158159D01*
X008382Y00370539D02*
Y00380539D01*
X00833199Y00375539D02*
X00843199D01*
X010668Y00568659D02*
Y00578659D01*
X01061799Y00573659D02*
X01071799D01*
X010414Y00609299D02*
Y00619299D01*
X01036399Y00614299D02*
X01046399D01*
X01278989Y00809959D02*
Y00819959D01*
X01273989Y00814959D02*
X01283989D01*
X0124714Y01175719D02*
Y01185719D01*
X01242139Y01180719D02*
X01252139D01*
X007239Y01187389D02*
Y01197389D01*
X00718899Y01192389D02*
X00728899D01*
X00642699Y0088138D02*
X00652699D01*
X006477Y00876379D02*
Y00886379D01*
X0075438Y01187389D02*
Y01197389D01*
X00749379Y01192389D02*
X00759379D01*
X00456899Y0119126D02*
X00466899D01*
X00461899Y01186259D02*
Y01196259D01*
X0075438Y01496139D02*
Y01506139D01*
X00749379Y0150114D02*
X00759379D01*
X00559174Y01513164D02*
Y01523164D01*
X00554174Y01518164D02*
X00564174D01*
X0055626Y01658459D02*
X00568759D01*
X0055626D02*
Y01670959D01*
X00543759Y01658459D02*
X0055626D01*
Y01645959D02*
Y01658459D01*
X0146812Y01628299D02*
X01480619D01*
X0146812D02*
Y01640799D01*
X01455619Y01628299D02*
X0146812D01*
Y01615799D02*
Y01628299D01*
X01232099Y01633059D02*
X012446D01*
Y01620559D02*
Y01633059D01*
X01257099*
X012446D02*
Y01645559D01*
X01434799Y0145796D02*
X01444799D01*
X01439799Y01452959D02*
Y01462959D01*
X01434799Y0143256D02*
X01444799D01*
X01439799Y01427559D02*
Y01437559D01*
G54D139*
X01611879Y01735623D02*
Y01775601D01*
X00248769Y01728818D02*
Y01769708D01*
G54D140*
X00350169Y01486559D02*
Y01505559D01*
X00384169Y01486559D02*
Y01505559D01*
X00350169D02*
X00384169D01*
X00350169Y01486559D02*
X00384169D01*
X00986179Y00661029D02*
X01005179D01*
X00986179Y00627029D02*
X01005179D01*
Y00661029*
X00986179Y00627029D02*
Y00661029D01*
X01009039D02*
X01028039D01*
X01009039Y00627029D02*
X01028039D01*
Y00661029*
X01009039Y00627029D02*
Y00661029D01*
X00396639Y01654199D02*
X00430639D01*
X00396639Y01673199D02*
X00430639D01*
Y01654199D02*
Y01673199D01*
X00396639Y01654199D02*
Y01673199D01*
X00813439Y00297379D02*
Y00363379D01*
X00766439Y00297379D02*
X00813439D01*
X00766439D02*
Y00363379D01*
X00813439*
X01422799Y01397659D02*
X01456799D01*
X01422799Y01416659D02*
X01456799D01*
Y01397659D02*
Y01416659D01*
X01422799Y01397659D02*
Y01416659D01*
X00500859Y01731799D02*
Y01798799D01*
X00433859Y01731799D02*
X00500859D01*
X00433859D02*
Y01798799D01*
X00500859*
X01360959Y01673179D02*
Y01740179D01*
Y01673179D02*
X01427959D01*
Y01740179*
X01360959D02*
X01427959D01*
X00930299Y00260989D02*
X00949299D01*
X00930299Y00294989D02*
X00949299D01*
X00930299Y00260989D02*
Y00294989D01*
X00949299Y00260989D02*
Y00294989D01*
X00961409Y00363749D02*
X01036409D01*
Y00271249D02*
Y00363749D01*
X00961409Y00271249D02*
X01036409D01*
X00961409D02*
Y00363749D01*
X01162659Y00305959D02*
Y00339959D01*
X01143659Y00305959D02*
Y00339959D01*
X01162659*
X01143659Y00305959D02*
X01162659D01*
X00847699Y00308499D02*
Y00342499D01*
X00828699Y00308499D02*
Y00342499D01*
X00847699*
X00828699Y00308499D02*
X00847699D01*
X01527479Y01482729D02*
X01546479D01*
X01527479Y01516729D02*
X01546479D01*
X01527479Y01482729D02*
Y01516729D01*
X01546479Y01482729D02*
Y01516729D01*
X01052219Y01398159D02*
X01071219D01*
X01052219Y01432159D02*
X01071219D01*
X01052219Y01398159D02*
Y01432159D01*
X01071219Y01398159D02*
Y01432159D01*
X01075079Y01553099D02*
X01094079D01*
X01075079Y01587099D02*
X01094079D01*
X01075079Y01553099D02*
Y01587099D01*
X01094079Y01553099D02*
Y01587099D01*
X01094209Y01456019D02*
X01186709D01*
Y01531019*
X01094209D02*
X01186709D01*
X01094209Y01456019D02*
Y01531019D01*
X01130959Y01399189D02*
X01149959D01*
X01130959Y01433189D02*
X01149959D01*
X01130959Y01399189D02*
Y01433189D01*
X01149959Y01399189D02*
Y01433189D01*
X00577209Y01407819D02*
Y01426819D01*
X00543209Y01407819D02*
Y01426819D01*
Y01407819D02*
X00577209D01*
X00543209Y01426819D02*
X00577209D01*
X00543959Y01374799D02*
Y01393799D01*
X00577959Y01374799D02*
Y01393799D01*
X00543959D02*
X00577959D01*
X00543959Y01374799D02*
X00577959D01*
X01110639Y01553099D02*
X01129639D01*
X01110639Y01587099D02*
X01129639D01*
X01110639Y01553099D02*
Y01587099D01*
X01129639Y01553099D02*
Y01587099D01*
X01176679Y01553099D02*
X01195679D01*
X01176679Y01587099D02*
X01195679D01*
X01176679Y01553099D02*
Y01587099D01*
X01195679Y01553099D02*
Y01587099D01*
X01143659Y01553099D02*
X01162659D01*
X01143659Y01587099D02*
X01162659D01*
X01143659Y01553099D02*
Y01587099D01*
X01162659Y01553099D02*
Y01587099D01*
X01053619Y01671039D02*
Y01738039D01*
Y01671039D02*
X01120619D01*
Y01738039*
X01053619D02*
X01120619D01*
X01271709Y01560779D02*
X01390209D01*
X01271709Y01395779D02*
X01390209D01*
X01271709D02*
Y01560779D01*
X01390209Y01395779D02*
Y01560779D01*
X01197279Y01433499D02*
Y01487499D01*
X01251279*
Y01433499D02*
Y01487499D01*
X01197279Y01433499D02*
X01251279D01*
X01241279Y01407819D02*
Y01426819D01*
X01207279Y01407819D02*
Y01426819D01*
Y01407819D02*
X01241279D01*
X01207279Y01426819D02*
X01241279D01*
X01456799Y01473859D02*
Y01492859D01*
X01422799Y01473859D02*
Y01492859D01*
Y01473859D02*
X01456799D01*
X01422799Y01492859D02*
X01456799D01*
Y01499259D02*
Y01518259D01*
X01422799Y01499259D02*
Y01518259D01*
Y01499259D02*
X01456799D01*
X01422799Y01518259D02*
X01456799D01*
X01616069Y01423059D02*
Y01442059D01*
X01582069Y01423059D02*
Y01442059D01*
Y01423059D02*
X01616069D01*
X01582069Y01442059D02*
X01616069D01*
Y01468779D02*
Y01487779D01*
X01582069Y01468779D02*
Y01487779D01*
Y01468779D02*
X01616069D01*
X01582069Y01487779D02*
X01616069D01*
Y01514499D02*
Y01533499D01*
X01582069Y01514499D02*
Y01533499D01*
Y01514499D02*
X01616069D01*
X01582069Y01533499D02*
X01616069D01*
X00851179Y01703859D02*
Y01770859D01*
X00784179Y01703859D02*
X00851179D01*
X00784179D02*
Y01770859D01*
X00851179*
X00851579Y01546379D02*
Y01613379D01*
X00784579Y01546379D02*
X00851579D01*
X00784579D02*
Y01613379D01*
X00851579*
X00614019Y01614809D02*
Y01648809D01*
X00595019Y01614809D02*
Y01648809D01*
X00614019*
X00595019Y01614809D02*
X00614019D01*
X00706779Y01607469D02*
Y01641469D01*
X00725779Y01607469D02*
Y01641469D01*
X00706779Y01607469D02*
X00725779D01*
X00706779Y01641469D02*
X00725779D01*
X01208559Y01740179D02*
X01275559D01*
Y01673179D02*
Y01740179D01*
X01208559Y01673179D02*
X01275559D01*
X01208559D02*
Y01740179D01*
X00420039Y01532399D02*
Y01586399D01*
Y01532399D02*
X00474039D01*
Y01586399*
X00420039D02*
X00474039D01*
X00419879Y01457019D02*
X00473879D01*
X00419879Y01403019D02*
Y01457019D01*
Y01403019D02*
X00473879D01*
Y01457019*
X00474039Y01466359D02*
Y01520359D01*
X00420039D02*
X00474039D01*
X00420039Y01466359D02*
Y01520359D01*
Y01466359D02*
X00474039D01*
X00493539Y01417979D02*
X00527539D01*
X00493539Y01436979D02*
X00527539D01*
Y01417979D02*
Y01436979D01*
X00493539Y01417979D02*
Y01436979D01*
Y01466239D02*
X00527539D01*
X00493539Y01485239D02*
X00527539D01*
Y01466239D02*
Y01485239D01*
X00493539Y01466239D02*
Y01485239D01*
Y01377339D02*
X00527539D01*
X00493539Y01396339D02*
X00527539D01*
Y01377339D02*
Y01396339D01*
X00493539Y01377339D02*
Y01396339D01*
X00353999Y01402859D02*
Y01456859D01*
Y01402859D02*
X00407999D01*
Y01456859*
X00353999D02*
X00407999D01*
X00385729Y01528419D02*
X00419729D01*
X00385729Y01509419D02*
X00419729D01*
X00385729D02*
Y01528419D01*
X00419729Y01509419D02*
Y01528419D01*
X00611659Y01783559D02*
X00678659D01*
Y01716559D02*
Y01783559D01*
X00611659Y01716559D02*
X00678659D01*
X00611659D02*
Y01783559D01*
X00537999Y01716559D02*
Y01783559D01*
X00604999*
Y01716559D02*
Y01783559D01*
X00537999Y01716559D02*
X00604999D01*
X00420199Y01650059D02*
X00474199D01*
X00420199Y01596059D02*
Y01650059D01*
Y01596059D02*
X00474199D01*
Y01650059*
X00353999Y01532399D02*
Y01586399D01*
Y01532399D02*
X00407999D01*
Y01586399*
X00353999D02*
X00407999D01*
X00420699Y01688819D02*
Y01744819D01*
X00366699Y01688819D02*
X00420699D01*
X00366699D02*
Y01744819D01*
X00420699*
X00331919Y00477059D02*
X00419919D01*
Y00565059*
X00331919D02*
X00419919D01*
X00331919Y00477059D02*
Y00565059D01*
X00621888Y01472805D02*
Y01527805D01*
Y01472805D02*
X00696388D01*
Y01527805*
X00621888D02*
X00696388D01*
X00622329Y01581589D02*
Y01636589D01*
Y01581589D02*
X00696829D01*
Y01636589*
X00622329D02*
X00696829D01*
X01132359Y01740179D02*
X01199359D01*
Y01673179D02*
Y01740179D01*
X01132359Y01673179D02*
X01199359D01*
X01132359D02*
Y01740179D01*
X00433859Y01725339D02*
X00500859D01*
Y01658339D02*
Y01725339D01*
X00433859Y01658339D02*
X00500859D01*
X00433859D02*
Y01725339D01*
X01284759Y01740179D02*
X01351759D01*
Y01673179D02*
Y01740179D01*
X01284759Y01673179D02*
X01351759D01*
X01284759D02*
Y01740179D01*
X00851579Y01625119D02*
Y01692119D01*
X00784579Y01625119D02*
X00851579D01*
X00784579D02*
Y01692119D01*
X00851579*
X01370939Y01612549D02*
Y01646549D01*
X01351939Y01612549D02*
Y01646549D01*
X01370939*
X01351939Y01612549D02*
X01370939D01*
X01403959D02*
Y01646549D01*
X01384959Y01612549D02*
Y01646549D01*
X01403959*
X01384959Y01612549D02*
X01403959D01*
X01277269Y01745639D02*
X01311269D01*
X01277269Y01764639D02*
X01311269D01*
Y01745639D02*
Y01764639D01*
X01277269Y01745639D02*
Y01764639D01*
X00409419Y00385599D02*
Y00452599D01*
X00342419Y00385599D02*
X00409419D01*
X00342419D02*
Y00452599D01*
X00409419*
X01434619Y01740179D02*
X01501619D01*
Y01673179D02*
Y01740179D01*
X01434619Y01673179D02*
X01501619D01*
X01434619D02*
Y01740179D01*
X00885979Y01439499D02*
X00952979D01*
X00885979D02*
Y01506499D01*
X00952979*
Y01439499D02*
Y01506499D01*
X01510819Y01740379D02*
X01577819D01*
Y01673379D02*
Y01740379D01*
X01510819Y01673379D02*
X01577819D01*
X01510819D02*
Y01740379D01*
X00969929Y00202539D02*
X01003929D01*
X00969929Y00183539D02*
X01003929D01*
X00969929D02*
Y00202539D01*
X01003929Y00183539D02*
Y00202539D01*
X01318919Y01612549D02*
X01337919D01*
X01318919Y01646549D02*
X01337919D01*
X01318919Y01612549D02*
Y01646549D01*
X01337919Y01612549D02*
Y01646549D01*
X01285899Y01612549D02*
X01304899D01*
X01285899Y01646549D02*
X01304899D01*
X01285899Y01612549D02*
Y01646549D01*
X01304899Y01612549D02*
Y01646549D01*
X01544949Y01745639D02*
Y01764639D01*
X01510949Y01745639D02*
Y01764639D01*
Y01745639D02*
X01544949D01*
X01510949Y01764639D02*
X01544949D01*
X01418099Y01745639D02*
Y01764639D01*
X01452099Y01745639D02*
Y01764639D01*
X01418099D02*
X01452099D01*
X01418099Y01745639D02*
X01452099D01*
X00435119Y01105839D02*
Y01159839D01*
X00489119*
Y01105839D02*
Y01159839D01*
X00435119Y01105839D02*
X00489119D01*
X00567359Y01032019D02*
X00621359D01*
X00567359D02*
Y01086019D01*
X00621359*
Y01032019D02*
Y01086019D01*
X00727099Y00612539D02*
X00746099D01*
X00727099Y00646539D02*
X00746099D01*
X00727099Y00612539D02*
Y00646539D01*
X00746099Y00612539D02*
Y00646539D01*
X00760119Y00184789D02*
X00779119D01*
X00760119Y00218789D02*
X00779119D01*
X00760119Y00184789D02*
Y00218789D01*
X00779119Y00184789D02*
Y00218789D01*
X00706779Y00184789D02*
X00725779D01*
X00706779Y00218789D02*
X00725779D01*
X00706779Y00184789D02*
Y00218789D01*
X00725779Y00184789D02*
Y00218789D01*
X00843939Y00500779D02*
X00862939D01*
X00843939Y00534779D02*
X00862939D01*
X00843939Y00500779D02*
Y00534779D01*
X00862939Y00500779D02*
Y00534779D01*
X00818819Y00541959D02*
X00872819D01*
X00818819D02*
Y00595959D01*
X00872819*
Y00541959D02*
Y00595959D01*
X00941179Y00628039D02*
Y00647039D01*
X00907179Y00628039D02*
Y00647039D01*
Y00628039D02*
X00941179D01*
X00907179Y00647039D02*
X00941179D01*
X00777899Y01209389D02*
X00796899D01*
X00777899Y01175389D02*
X00796899D01*
Y01209389*
X00777899Y01175389D02*
Y01209389D01*
X00315619Y00608219D02*
X00334619D01*
X00315619Y00642219D02*
X00334619D01*
X00315619Y00608219D02*
Y00642219D01*
X00334619Y00608219D02*
Y00642219D01*
X01277609Y00767739D02*
Y00786739D01*
X01311609Y00767739D02*
Y00786739D01*
X01277609D02*
X01311609D01*
X01277609Y00767739D02*
X01311609D01*
X01208809Y00788339D02*
X01262809D01*
X01208809D02*
Y00842339D01*
X01262809*
Y00788339D02*
Y00842339D01*
X01297429Y00831209D02*
X01316429D01*
X01297429Y00797209D02*
X01316429D01*
Y00831209*
X01297429Y00797209D02*
Y00831209D01*
X01171599Y00781399D02*
X01190599D01*
X01171599Y00815399D02*
X01190599D01*
X01171599Y00781399D02*
Y00815399D01*
X01190599Y00781399D02*
Y00815399D01*
X01146199Y00815779D02*
X01165199D01*
X01146199Y00781779D02*
X01165199D01*
Y00815779*
X01146199Y00781779D02*
Y00815779D01*
X00856639Y01174259D02*
X00875639D01*
X00856639Y01208259D02*
X00875639D01*
X00856639Y01174259D02*
Y01208259D01*
X00875639Y01174259D02*
Y01208259D01*
X00681379Y01001539D02*
X00700379D01*
X00681379Y01035539D02*
X00700379D01*
X00681379Y01001539D02*
Y01035539D01*
X00700379Y01001539D02*
Y01035539D01*
X01038509Y00531519D02*
Y00550519D01*
X01072509Y00531519D02*
Y00550519D01*
X01038509D02*
X01072509D01*
X01038509Y00531519D02*
X01072509D01*
X01031899Y00556659D02*
X01050899D01*
X01031899Y00590659D02*
X01050899D01*
X01031899Y00556659D02*
Y00590659D01*
X01050899Y00556659D02*
Y00590659D01*
X01422799Y01575459D02*
X01456799D01*
X01422799Y01594459D02*
X01456799D01*
Y01575459D02*
Y01594459D01*
X01422799Y01575459D02*
Y01594459D01*
X01274419Y01564289D02*
Y01598289D01*
X01255419Y01564289D02*
Y01598289D01*
X01274419*
X01255419Y01564289D02*
X01274419D01*
X01434439Y01611139D02*
Y01645139D01*
X01415439Y01611139D02*
Y01645139D01*
X01434439*
X01415439Y01611139D02*
X01434439D01*
X01243939Y01563259D02*
Y01597259D01*
X01224939Y01563259D02*
Y01597259D01*
X01243939*
X01224939Y01563259D02*
X01243939D01*
X01313579Y01388719D02*
X01347579D01*
X01313579Y01369719D02*
X01347579D01*
X01313579D02*
Y01388719D01*
X01347579Y01369719D02*
Y01388719D01*
X01402263Y01015197D02*
X01421263D01*
X01402263Y00981197D02*
X01421263D01*
Y01015197*
X01402263Y00981197D02*
Y01015197D01*
X00345849Y00653346D02*
X00399849D01*
Y00599347D02*
Y00653346D01*
X00345849Y00599347D02*
X00399849D01*
X00345849D02*
Y00653346D01*
X00706779Y01564289D02*
X00725779D01*
X00706779Y01598289D02*
X00725779D01*
X00706779Y01564289D02*
Y01598289D01*
X00725779Y01564289D02*
Y01598289D01*
X01092829Y00183539D02*
Y00202539D01*
X01058829Y00183539D02*
Y00202539D01*
Y00183539D02*
X01092829D01*
X01058829Y00202539D02*
X01092829D01*
X01351939Y01164479D02*
X01370939D01*
X01351939Y01198479D02*
X01370939D01*
X01351939Y01164479D02*
Y01198479D01*
X01370939Y01164479D02*
Y01198479D01*
X01172839Y00360839D02*
X01219839D01*
X01172839Y00294839D02*
Y00360839D01*
Y00294839D02*
X01219839D01*
Y00360839*
X01044599Y00319409D02*
X01063599D01*
X01044599Y00353409D02*
X01063599D01*
X01044599Y00319409D02*
Y00353409D01*
X01063599Y00319409D02*
Y00353409D01*
X01392579Y00802989D02*
X01411579D01*
X01392579Y00768989D02*
X01411579D01*
Y00802989*
X01392579Y00768989D02*
Y00802989D01*
X01057299Y00631679D02*
X01076299D01*
X01057299Y00597679D02*
X01076299D01*
Y00631679*
X01057299Y00597679D02*
Y00631679D01*
X00521329Y00836319D02*
Y00855319D01*
X00487329Y00836319D02*
Y00855319D01*
Y00836319D02*
X00521329D01*
X00487329Y00855319D02*
X00521329D01*
X00930299Y00309249D02*
X00949299D01*
X00930299Y00343249D02*
X00949299D01*
X00930299Y00309249D02*
Y00343249D01*
X00949299Y00309249D02*
Y00343249D01*
X00826159Y01174259D02*
X00845159D01*
X00826159Y01208259D02*
X00845159D01*
X00826159Y01174259D02*
Y01208259D01*
X00845159Y01174259D02*
Y01208259D01*
X00884579Y01174259D02*
X00903579D01*
X00884579Y01208259D02*
X00903579D01*
X00884579Y01174259D02*
Y01208259D01*
X00903579Y01174259D02*
Y01208259D01*
X00615339Y01175389D02*
X00634339D01*
X00615339Y01209389D02*
X00634339D01*
X00615339Y01175389D02*
Y01209389D01*
X00634339Y01175389D02*
Y01209389D01*
X00645819Y01175389D02*
X00664819D01*
X00645819Y01209389D02*
X00664819D01*
X00645819Y01175389D02*
Y01209389D01*
X00664819Y01175389D02*
Y01209389D01*
X00375289Y01364639D02*
Y01383639D01*
X00409289Y01364639D02*
Y01383639D01*
X00375289D02*
X00409289D01*
X00375289Y01364639D02*
X00409289D01*
X00711859Y01484139D02*
X00730859D01*
X00711859Y01518139D02*
X00730859D01*
X00711859Y01484139D02*
Y01518139D01*
X00730859Y01484139D02*
Y01518139D01*
X00667418Y01537118D02*
X00686418D01*
X00667418Y01571118D02*
X00686418D01*
X00667418Y01537118D02*
Y01571118D01*
X00686418Y01537118D02*
Y01571118D01*
X00638199Y01536349D02*
X00657199D01*
X00638199Y01570349D02*
X00657199D01*
X00638199Y01536349D02*
Y01570349D01*
X00657199Y01536349D02*
Y01570349D01*
X00493539Y01529739D02*
Y01548739D01*
X00527539Y01529739D02*
Y01548739D01*
X00493539D02*
X00527539D01*
X00493539Y01529739D02*
X00527539D01*
X00582694Y01501164D02*
X00601694D01*
X00582694Y01535164D02*
X00601694D01*
X00582694Y01501164D02*
Y01535164D01*
X00601694Y01501164D02*
Y01535164D01*
X00493539Y01611019D02*
Y01630019D01*
X00527539Y01611019D02*
Y01630019D01*
X00493539D02*
X00527539D01*
X00493539Y01611019D02*
X00527539D01*
X00492129Y01570379D02*
Y01589379D01*
X00526129Y01570379D02*
Y01589379D01*
X00492129D02*
X00526129D01*
X00492129Y01570379D02*
X00526129D01*
X00668649Y01097939D02*
Y01116939D01*
X00634649Y01097939D02*
Y01116939D01*
Y01097939D02*
X00668649D01*
X00634649Y01116939D02*
X00668649D01*
Y01125879D02*
Y01144879D01*
X00634649Y01125879D02*
Y01144879D01*
Y01125879D02*
X00668649D01*
X00634649Y01144879D02*
X00668649D01*
X00669779Y01042059D02*
Y01061059D01*
X00635779Y01042059D02*
Y01061059D01*
Y01042059D02*
X00669779D01*
X00635779Y01061059D02*
X00669779D01*
X0067056Y01016279D02*
Y01035279D01*
X00636559Y01016279D02*
Y01035279D01*
Y01016279D02*
X0067056D01*
X00636559Y01035279D02*
X0067056D01*
X00669779Y00991259D02*
Y01010259D01*
X00635779Y00991259D02*
Y01010259D01*
Y00991259D02*
X00669779D01*
X00635779Y01010259D02*
X00669779D01*
X00562528Y01605909D02*
X00581528D01*
X00562528Y01571909D02*
X00581528D01*
Y01605909*
X00562528Y01571909D02*
Y01605909D01*
X00595019Y01571909D02*
X00614019D01*
X00595019Y01605909D02*
X00614019D01*
X00595019Y01571909D02*
Y01605909D01*
X00614019Y01571909D02*
Y01605909D01*
X01422049Y01550059D02*
Y01569059D01*
X01456049Y01550059D02*
Y01569059D01*
X01422049D02*
X01456049D01*
X01422049Y01550059D02*
X01456049D01*
Y01524659D02*
Y01543659D01*
X01422049Y01524659D02*
Y01543659D01*
Y01524659D02*
X01456049D01*
X01422049Y01543659D02*
X01456049D01*
X01092859Y01398909D02*
X01111859D01*
X01092859Y01432909D02*
X01111859D01*
X01092859Y01398909D02*
Y01432909D01*
X01111859Y01398909D02*
Y01432909D01*
X01527479Y01443499D02*
X01546479D01*
X01527479Y01477499D02*
X01546479D01*
X01527479Y01443499D02*
Y01477499D01*
X01546479Y01443499D02*
Y01477499D01*
X01527479Y01404269D02*
X01546479D01*
X01527479Y01438269D02*
X01546479D01*
X01527479Y01404269D02*
Y01438269D01*
X01546479Y01404269D02*
Y01438269D01*
X01582069Y01400199D02*
Y01419199D01*
X01616069Y01400199D02*
Y01419199D01*
X01582069D02*
X01616069D01*
X01582069Y01400199D02*
X01616069D01*
X01582069Y01445919D02*
Y01464919D01*
X01616069Y01445919D02*
Y01464919D01*
X01582069D02*
X01616069D01*
X01582069Y01445919D02*
X01616069D01*
X01582349Y01491639D02*
Y01510639D01*
X0161635Y01491639D02*
Y01510639D01*
X01582349D02*
X0161635D01*
X01582349Y01491639D02*
X0161635D01*
X00681779Y01069659D02*
Y0108966D01*
X00635779Y01069659D02*
Y0108966D01*
Y01070659D02*
X00681779D01*
X00635779Y0108966D02*
X00681779D01*
X01016659Y00381399D02*
X01035659D01*
X01016659Y00415399D02*
X01035659D01*
X01016659Y00381399D02*
Y00415399D01*
X01035659Y00381399D02*
Y00415399D01*
X01143659Y00355999D02*
X01162659D01*
X01143659Y00389999D02*
X01162659D01*
X01143659Y00355999D02*
Y00389999D01*
X01162659Y00355999D02*
Y00389999D01*
X00828699Y00358539D02*
X00847699D01*
X00828699Y00392539D02*
X00847699D01*
X00828699Y00358539D02*
Y00392539D01*
X00847699Y00358539D02*
Y00392539D01*
X01057299Y00556659D02*
X01076299D01*
X01057299Y00590659D02*
X01076299D01*
X01057299Y00556659D02*
Y00590659D01*
X01076299Y00556659D02*
Y00590659D01*
X01031899Y00631299D02*
X01050899D01*
X01031899Y00597299D02*
X01050899D01*
Y00631299*
X01031899Y00597299D02*
Y00631299D01*
X01269489Y00831959D02*
X01288489D01*
X01269489Y00797959D02*
X01288489D01*
Y00831959*
X01269489Y00797959D02*
Y00831959D01*
X01237639Y01163719D02*
X01256639D01*
X01237639Y01197719D02*
X01256639D01*
X01237639Y01163719D02*
Y01197719D01*
X01256639Y01163719D02*
Y01197719D01*
X00714399Y01175389D02*
X00733399D01*
X00714399Y01209389D02*
X00733399D01*
X00714399Y01175389D02*
Y01209389D01*
X00733399Y01175389D02*
Y01209389D01*
X00664699Y00871879D02*
Y00890879D01*
X00630699Y00871879D02*
Y00890879D01*
Y00871879D02*
X00664699D01*
X00630699Y00890879D02*
X00664699D01*
X00744879Y01175389D02*
X00763879D01*
X00744879Y01209389D02*
X00763879D01*
X00744879Y01175389D02*
Y01209389D01*
X00763879Y01175389D02*
Y01209389D01*
X00478899Y01181759D02*
Y01200759D01*
X00444899Y01181759D02*
Y01200759D01*
Y01181759D02*
X00478899D01*
X00444899Y01200759D02*
X00478899D01*
X00744879Y01518139D02*
X00763879D01*
X00744879Y01484139D02*
X00763879D01*
Y01518139*
X00744879Y01484139D02*
Y01518139D01*
X00549674Y01535164D02*
X00568674D01*
X00549674Y01501164D02*
X00568674D01*
Y01535164*
X00549674Y01501164D02*
Y01535164D01*
X00529259Y01685459D02*
X00583259D01*
Y01631459D02*
Y01685459D01*
X00529259Y01631459D02*
X00583259D01*
X00529259D02*
Y01685459D01*
X01441119Y01655299D02*
X01495119D01*
Y01601299D02*
Y01655299D01*
X01441119Y01601299D02*
X01495119D01*
X01441119D02*
Y01655299D01*
X01217599Y01606059D02*
X01271599D01*
X01217599D02*
Y01660059D01*
X01271599*
Y01606059D02*
Y01660059D01*
X01422799Y01448459D02*
Y01467459D01*
X01456799Y01448459D02*
Y01467459D01*
X01422799D02*
X01456799D01*
X01422799Y01448459D02*
X01456799D01*
X01422799Y01423059D02*
Y01442059D01*
X01456799Y01423059D02*
Y01442059D01*
X01422799D02*
X01456799D01*
X01422799Y01423059D02*
X01456799D01*
M02*