%FSTAX44Y44*%
%MOMM*%
%SFA1B1*%

%IPPOS*%
%AMD47*
4,1,8,1.206500,3.175000,-1.206500,3.175000,-2.413000,1.968500,-2.413000,-1.968500,-1.206500,-3.175000,1.206500,-3.175000,2.413000,-1.968500,2.413000,1.968500,1.206500,3.175000,0.0*
1,1,2.413000,1.206500,1.968500*
1,1,2.413000,-1.206500,1.968500*
1,1,2.413000,-1.206500,-1.968500*
1,1,2.413000,1.206500,-1.968500*
%
G04~CAMADD=47~8~0.0~0.0~1900.0~2500.0~475.0~0.0~15~0.0~0.0~0.0~0.0~0~0.0~0.0~0.0~0.0~0~0.0~0.0~0.0~0.0~1900.0~2500.0*
%ADD47D47*%
%ADD48C,1.689997*%
%ADD49R,1.689997X1.689997*%
%ADD50O,1.299997X1.949996*%
%ADD51O,1.949996X1.299997*%
%ADD52C,2.099996*%
%ADD53C,5.217990*%
%ADD54C,1.332997*%
%ADD55C,1.299997*%
%ADD56C,1.874996*%
%ADD57C,1.269997*%
%ADD58C,2.249995*%
%ADD59C,2.499995*%
%ADD60C,3.999992*%
%ADD61C,4.999990*%
%ADD62C,1.499997*%
%ADD63C,1.523997*%
%ADD64C,2.999994*%
%ADD65O,1.406397X3.107994*%
%ADD66R,1.299997X1.299997*%
%ADD67C,2.474995*%
%ADD68C,1.154998*%
%ADD69C,1.899996*%
%ADD70R,1.499997X1.499997*%
%ADD71O,3.999992X2.499995*%
%LNsega_801_remake_pads_bot-1*%
%LPD*%
G54D47*
X00925339Y0005334D03*
X01175239D03*
X00605779D03*
X00855679D03*
G54D48*
X01105689Y00078719D03*
X01091839Y00050319D03*
X01077989Y00078719D03*
X01064139Y00050319D03*
X0105029Y00078719D03*
X01036439Y00050319D03*
X01022589Y00078719D03*
X01008739Y00050319D03*
X00689179Y00099849D03*
X00703029Y00128249D03*
X00716879Y00099849D03*
X00730729Y00128249D03*
X00744579Y00099849D03*
X00758429Y00128249D03*
X00772279Y00099849D03*
X0078613Y00128249D03*
X01008739Y00099849D03*
X01022589Y00128249D03*
X01036439Y00099849D03*
X0105029Y00128249D03*
X01064139Y00099849D03*
X01077989Y00128249D03*
X01091839Y00099849D03*
X01105689Y00128249D03*
X00689179Y00050319D03*
X00703029Y00078719D03*
X00716879Y00050319D03*
X00730729Y00078719D03*
X00744579Y00050319D03*
X00758429Y00078719D03*
X00772279Y00050319D03*
X0078613Y00078719D03*
G54D49*
X00994889Y00078719D03*
X00675329Y00128249D03*
X00994889D03*
X00675329Y00078719D03*
G54D50*
X00479859Y017653D03*
X00454859D03*
X01214279Y014605D03*
X01234279D03*
X00830179Y0173736D03*
X0080518D03*
X0083058Y0157988D03*
X00805579D03*
X0043688Y0143002D03*
X00456879D03*
X00558999Y0175006D03*
X00583999D03*
X00437199Y0162306D03*
X004572D03*
X0083058Y0165862D03*
X00805579D03*
X00388419Y004191D03*
X00363419D03*
X0045212Y0113284D03*
X00472119D03*
G54D51*
X0139446Y0169418D03*
Y01719179D03*
X0108712Y01692039D03*
Y0171704D03*
X0124206Y01719179D03*
Y0169418D03*
X0044704Y015494D03*
Y01569399D03*
Y01503359D03*
Y0148336D03*
X00381Y0141986D03*
Y01439859D03*
X0064516Y01762559D03*
Y01737559D03*
X00381Y015494D03*
Y01569399D03*
X0116586Y01719179D03*
Y0169418D03*
X0046736Y0170434D03*
Y01679339D03*
X0131826Y01719179D03*
Y0169418D03*
X0146812Y01719179D03*
Y0169418D03*
X0091948Y014605D03*
Y01485499D03*
X0154432Y01719379D03*
Y01694379D03*
X0059436Y0104902D03*
Y01069019D03*
X0084582Y00558959D03*
Y00578959D03*
X01235809Y00805339D03*
Y00825339D03*
X00372849Y00636346D03*
Y00616346D03*
X0055626Y01668459D03*
Y0164846D03*
X0146812Y016383D03*
Y01618299D03*
X012446Y0162306D03*
Y01643059D03*
G54D52*
X00804999Y01849999D03*
X00474999D03*
X00639999D03*
G54D53*
X00854999Y01851999D03*
X00804999Y01902999D03*
X00754999Y01851999D03*
X00424999D03*
X00474999Y01902999D03*
X00524999Y01851999D03*
X00689999D03*
X00639999Y01902999D03*
X00589999Y01851999D03*
G54D54*
X0145542Y0076962D03*
Y0079502D03*
Y0082042D03*
G54D55*
X0154178Y00778519D03*
Y00798519D03*
Y00818519D03*
X0084328Y01477599D03*
Y01457599D03*
Y01437599D03*
X0153924Y01029659D03*
Y01049659D03*
Y0108966D03*
G54D56*
X0154178Y00757519D03*
Y00839519D03*
X0084328Y014986D03*
Y01416599D03*
G54D57*
X01148719Y0162814D03*
X0118872D03*
X01062359D03*
X0110236D03*
G54D58*
X011684Y01796999D03*
X0118745Y01847799D03*
X012065Y01796999D03*
X0122555Y01847799D03*
X012446Y01796999D03*
X0126365Y01847799D03*
X012827Y01796999D03*
X0130175Y01847799D03*
X013208Y01796999D03*
X0133985Y01847799D03*
X013589Y01796999D03*
X0137795Y01847799D03*
X01397Y01796999D03*
X0141605Y01847799D03*
X014351Y01796999D03*
X0145415Y01847799D03*
X014732Y01796999D03*
X0149225Y01847799D03*
X015113Y01796999D03*
X0153035Y01847799D03*
X015494Y01796999D03*
X00248899Y01923659D03*
X00335299D03*
G54D59*
X01623899Y01869799D03*
X01093899D03*
X01256759Y0030861D03*
X0138176D03*
X01256759Y00258609D03*
X0138176D03*
G54D60*
X01369739Y01274373D03*
G54D61*
X00409439Y01274373D03*
G54D62*
X00494899Y01299773D03*
X00520299D03*
X00545699D03*
X00571099D03*
X00596499D03*
X00621899D03*
X00647299D03*
X00672699D03*
X00698099D03*
X00723499D03*
X00748899D03*
X00774299D03*
X00799699D03*
X00825099D03*
X00850499D03*
X00875899D03*
X00901299D03*
X00926699D03*
X00952099D03*
X00977499D03*
X01002899D03*
X01028299D03*
X01053699D03*
X01079099D03*
X01104499D03*
X01129899D03*
X01155299D03*
X01180699D03*
X01206099D03*
X01231499D03*
X01256899D03*
X01282299D03*
Y01248973D03*
X01256899D03*
X01231499D03*
X01206099D03*
X01180699D03*
X01155299D03*
X01129899D03*
X01104499D03*
X01079099D03*
X01053699D03*
X01028299D03*
X01002899D03*
X00977499D03*
X00952099D03*
X00926699D03*
X00901299D03*
X00875899D03*
X00850499D03*
X00825099D03*
X00799699D03*
X00774299D03*
X00748899D03*
X00723499D03*
X00698099D03*
X00672699D03*
X00647299D03*
X00621899D03*
X00596499D03*
X00571099D03*
X00545699D03*
X00520299D03*
X00494899D03*
X0144272Y0096774D03*
X0146812Y0099314D03*
X0144272D03*
X0146812Y0101854D03*
X0144272D03*
G54D63*
X00939169Y01855169D03*
X0097917D03*
X00966169Y01880169D03*
X00986169D03*
X01019169D03*
X00939169D03*
X00999169Y01855169D03*
X00959169D03*
X01019169D03*
X00453373Y0028956D03*
X00533559D03*
X00493384D03*
X00452811Y0026392D03*
X00532997D03*
X00492822D03*
G54D64*
X0097917Y01918169D03*
G54D65*
X00574199Y0027686D03*
X00412909D03*
G54D66*
X0153924Y01009659D03*
G54D67*
X0153924Y00970659D03*
Y01130659D03*
G54D68*
X0109982Y00373919D03*
Y0032512D03*
X0088646Y00373919D03*
Y0032512D03*
G54D69*
X00248899Y01885659D03*
X00335299D03*
G54D70*
X0146812Y0096774D03*
G54D71*
X00417999Y00244999D03*
Y00309999D03*
X00566999D03*
Y00244999D03*
M02*