%FSTAX44Y44*%
%MOMM*%
%SFA1B1*%

%IPPOS*%
%ADD173C,0.127000*%
%ADD174C,0.169300*%
%ADD175C,0.101600*%
%LNsega_801_remake_drawing_1-1*%
%LPD*%
G54D173*
X0143764Y0101346D02*
Y0102362D01*
X014478*
Y0101346*
X0143764*
X0146304D02*
Y0102362D01*
X014732*
Y0101346*
X0146304*
X0143764Y0098806D02*
Y0099822D01*
X014478*
Y0098806*
X0143764*
X0146304D02*
Y0099822D01*
X014732*
Y0098806*
X0146304*
X0143764Y0096266D02*
Y0097282D01*
X014478*
Y0096266*
X0143764*
X0146304D02*
Y0097282D01*
X014732*
Y0096266*
X0146304*
X00994889Y00073639D02*
X00989809Y00083799D01*
X00999969*
X00994889Y00073639*
X01008739Y00045239D02*
X01003659Y00055399D01*
X01013819*
X01008739Y00045239*
X01022589Y00073639D02*
X01017509Y00083799D01*
X01027669*
X01022589Y00073639*
X01036439Y00045239D02*
X01031359Y00055399D01*
X01041519*
X01036439Y00045239*
X0105029Y00073639D02*
X0104521Y00083799D01*
X0105537*
X0105029Y00073639*
X01064139Y00045239D02*
X01059059Y00055399D01*
X01069219*
X01064139Y00045239*
X01077989Y00073639D02*
X01072909Y00083799D01*
X01083069*
X01077989Y00073639*
X01091839Y00045239D02*
X01086759Y00055399D01*
X01096919*
X01091839Y00045239*
X01105689Y00073639D02*
X01100609Y00083799D01*
X01110769*
X01105689Y00073639*
X00925339Y0004826D02*
X00927879Y000508D01*
X00930419*
X00927879Y0005334*
X00930419Y0005588*
X00927879*
X00925339Y0005842*
X00922799Y0005588*
X00920259*
X00922799Y0005334*
X00920259Y000508*
X00922799*
X00925339Y0004826*
X01088819Y01864719D02*
X01091359Y01869799D01*
X01088819Y01874879*
X01093899Y01872339*
X01098979Y01874879*
X01096439Y01869799*
X01098979Y01864719*
X01093899Y01867259*
X01088819Y01864719*
X01618819D02*
X01621359Y01869799D01*
X01618819Y01874879*
X01623899Y01872339*
X01628979Y01874879*
X01626439Y01869799*
X01628979Y01864719*
X01623899Y01867259*
X01618819Y01864719*
X0154686Y01794459D02*
Y01791919D01*
X0155194*
Y01794459*
X0155448*
Y01799539*
X0155194*
Y01802079*
X0154686*
Y01799539*
X0154432*
Y01794459*
X0154686*
X0152781Y01845259D02*
Y01842719D01*
X0153289*
Y01845259*
X0153543*
Y01850339*
X0153289*
Y01852879*
X0152781*
Y01850339*
X0152527*
Y01845259*
X0152781*
X0150876Y01794459D02*
Y01791919D01*
X0151384*
Y01794459*
X0151638*
Y01799539*
X0151384*
Y01802079*
X0150876*
Y01799539*
X0150622*
Y01794459*
X0150876*
X0148971Y01845259D02*
Y01842719D01*
X0149479*
Y01845259*
X0149733*
Y01850339*
X0149479*
Y01852879*
X0148971*
Y01850339*
X0148717*
Y01845259*
X0148971*
X0147066Y01794459D02*
Y01791919D01*
X0147574*
Y01794459*
X0147828*
Y01799539*
X0147574*
Y01802079*
X0147066*
Y01799539*
X0146812*
Y01794459*
X0147066*
X0145161Y01845259D02*
Y01842719D01*
X0145669*
Y01845259*
X0145923*
Y01850339*
X0145669*
Y01852879*
X0145161*
Y01850339*
X0144907*
Y01845259*
X0145161*
X0143256Y01794459D02*
Y01791919D01*
X0143764*
Y01794459*
X0144018*
Y01799539*
X0143764*
Y01802079*
X0143256*
Y01799539*
X0143002*
Y01794459*
X0143256*
X0141351Y01845259D02*
Y01842719D01*
X0141859*
Y01845259*
X0142113*
Y01850339*
X0141859*
Y01852879*
X0141351*
Y01850339*
X0141097*
Y01845259*
X0141351*
X0139446Y01794459D02*
Y01791919D01*
X0139954*
Y01794459*
X0140208*
Y01799539*
X0139954*
Y01802079*
X0139446*
Y01799539*
X0139192*
Y01794459*
X0139446*
X0137541Y01845259D02*
Y01842719D01*
X0138049*
Y01845259*
X0138303*
Y01850339*
X0138049*
Y01852879*
X0137541*
Y01850339*
X0137287*
Y01845259*
X0137541*
X0135636Y01794459D02*
Y01791919D01*
X0136144*
Y01794459*
X0136398*
Y01799539*
X0136144*
Y01802079*
X0135636*
Y01799539*
X0135382*
Y01794459*
X0135636*
X0133731Y01845259D02*
Y01842719D01*
X0134239*
Y01845259*
X0134493*
Y01850339*
X0134239*
Y01852879*
X0133731*
Y01850339*
X0133477*
Y01845259*
X0133731*
X0131826Y01794459D02*
Y01791919D01*
X0132334*
Y01794459*
X0132588*
Y01799539*
X0132334*
Y01802079*
X0131826*
Y01799539*
X0131572*
Y01794459*
X0131826*
X0129921Y01845259D02*
Y01842719D01*
X0130429*
Y01845259*
X0130683*
Y01850339*
X0130429*
Y01852879*
X0129921*
Y01850339*
X0129667*
Y01845259*
X0129921*
X0128016Y01794459D02*
Y01791919D01*
X0128524*
Y01794459*
X0128778*
Y01799539*
X0128524*
Y01802079*
X0128016*
Y01799539*
X0127762*
Y01794459*
X0128016*
X0126111Y01845259D02*
Y01842719D01*
X0126619*
Y01845259*
X0126873*
Y01850339*
X0126619*
Y01852879*
X0126111*
Y01850339*
X0125857*
Y01845259*
X0126111*
X0124206Y01794459D02*
Y01791919D01*
X0124714*
Y01794459*
X0124968*
Y01799539*
X0124714*
Y01802079*
X0124206*
Y01799539*
X0123952*
Y01794459*
X0124206*
X0122301Y01845259D02*
Y01842719D01*
X0122809*
Y01845259*
X0123063*
Y01850339*
X0122809*
Y01852879*
X0122301*
Y01850339*
X0122047*
Y01845259*
X0122301*
X0120396Y01794459D02*
Y01791919D01*
X0120904*
Y01794459*
X0121158*
Y01799539*
X0120904*
Y01802079*
X0120396*
Y01799539*
X0120142*
Y01794459*
X0120396*
X0118491Y01845259D02*
Y01842719D01*
X0118999*
Y01845259*
X0119253*
Y01850339*
X0118999*
Y01852879*
X0118491*
Y01850339*
X0118237*
Y01845259*
X0118491*
X0116586Y01794459D02*
Y01791919D01*
X0117094*
Y01794459*
X0117348*
Y01799539*
X0117094*
Y01802079*
X0116586*
Y01799539*
X0116332*
Y01794459*
X0116586*
X00489819Y01243893D02*
Y01254053D01*
X00499979*
Y01243893*
X00489819*
X00515219D02*
Y01254053D01*
X00525379*
Y01243893*
X00515219*
X00540619D02*
Y01254053D01*
X00550779*
Y01243893*
X00540619*
X00566019D02*
Y01254053D01*
X00576179*
Y01243893*
X00566019*
X00591419D02*
Y01254053D01*
X00601579*
Y01243893*
X00591419*
X00616819D02*
Y01254053D01*
X00626979*
Y01243893*
X00616819*
X00642219D02*
Y01254053D01*
X00652379*
Y01243893*
X00642219*
X00667619D02*
Y01254053D01*
X00677779*
Y01243893*
X00667619*
X00693019D02*
Y01254053D01*
X00703179*
Y01243893*
X00693019*
X00718419D02*
Y01254053D01*
X00728579*
Y01243893*
X00718419*
X00743819D02*
Y01254053D01*
X00753979*
Y01243893*
X00743819*
X00769219D02*
Y01254053D01*
X00779379*
Y01243893*
X00769219*
X00794619D02*
Y01254053D01*
X00804779*
Y01243893*
X00794619*
X00820019D02*
Y01254053D01*
X00830179*
Y01243893*
X00820019*
X00845419D02*
Y01254053D01*
X00855579*
Y01243893*
X00845419*
X00870819D02*
Y01254053D01*
X00880979*
Y01243893*
X00870819*
X00896219D02*
Y01254053D01*
X00906379*
Y01243893*
X00896219*
X00921619D02*
Y01254053D01*
X00931779*
Y01243893*
X00921619*
X00947019D02*
Y01254053D01*
X00957179*
Y01243893*
X00947019*
X00972419D02*
Y01254053D01*
X00982579*
Y01243893*
X00972419*
X00997819D02*
Y01254053D01*
X01007979*
Y01243893*
X00997819*
X01023219D02*
Y01254053D01*
X01033379*
Y01243893*
X01023219*
X01048619D02*
Y01254053D01*
X01058779*
Y01243893*
X01048619*
X01074019D02*
Y01254053D01*
X01084179*
Y01243893*
X01074019*
X01099419D02*
Y01254053D01*
X01109579*
Y01243893*
X01099419*
X01124819D02*
Y01254053D01*
X01134979*
Y01243893*
X01124819*
X01150219D02*
Y01254053D01*
X01160379*
Y01243893*
X01150219*
X01175619D02*
Y01254053D01*
X01185779*
Y01243893*
X01175619*
X01201019D02*
Y01254053D01*
X01211179*
Y01243893*
X01201019*
X01226419D02*
Y01254053D01*
X01236579*
Y01243893*
X01226419*
X01251819D02*
Y01254053D01*
X01261979*
Y01243893*
X01251819*
X01277219D02*
Y01254053D01*
X01287379*
Y01243893*
X01277219*
Y01294693D02*
Y01304853D01*
X01287379*
Y01294693*
X01277219*
X01251819D02*
Y01304853D01*
X01261979*
Y01294693*
X01251819*
X01226419D02*
Y01304853D01*
X01236579*
Y01294693*
X01226419*
X01201019D02*
Y01304853D01*
X01211179*
Y01294693*
X01201019*
X01175619D02*
Y01304853D01*
X01185779*
Y01294693*
X01175619*
X01150219D02*
Y01304853D01*
X01160379*
Y01294693*
X01150219*
X01124819D02*
Y01304853D01*
X01134979*
Y01294693*
X01124819*
X01099419D02*
Y01304853D01*
X01109579*
Y01294693*
X01099419*
X01074019D02*
Y01304853D01*
X01084179*
Y01294693*
X01074019*
X01048619D02*
Y01304853D01*
X01058779*
Y01294693*
X01048619*
X01023219D02*
Y01304853D01*
X01033379*
Y01294693*
X01023219*
X00997819D02*
Y01304853D01*
X01007979*
Y01294693*
X00997819*
X00972419D02*
Y01304853D01*
X00982579*
Y01294693*
X00972419*
X00947019D02*
Y01304853D01*
X00957179*
Y01294693*
X00947019*
X00921619D02*
Y01304853D01*
X00931779*
Y01294693*
X00921619*
X00896219D02*
Y01304853D01*
X00906379*
Y01294693*
X00896219*
X00870819D02*
Y01304853D01*
X00880979*
Y01294693*
X00870819*
X00845419D02*
Y01304853D01*
X00855579*
Y01294693*
X00845419*
X00820019D02*
Y01304853D01*
X00830179*
Y01294693*
X00820019*
X00794619D02*
Y01304853D01*
X00804779*
Y01294693*
X00794619*
X00769219D02*
Y01304853D01*
X00779379*
Y01294693*
X00769219*
X00743819D02*
Y01304853D01*
X00753979*
Y01294693*
X00743819*
X00718419D02*
Y01304853D01*
X00728579*
Y01294693*
X00718419*
X00693019D02*
Y01304853D01*
X00703179*
Y01294693*
X00693019*
X00667619D02*
Y01304853D01*
X00677779*
Y01294693*
X00667619*
X00642219D02*
Y01304853D01*
X00652379*
Y01294693*
X00642219*
X00616819D02*
Y01304853D01*
X00626979*
Y01294693*
X00616819*
X00591419D02*
Y01304853D01*
X00601579*
Y01294693*
X00591419*
X00566019D02*
Y01304853D01*
X00576179*
Y01294693*
X00566019*
X00540619D02*
Y01304853D01*
X00550779*
Y01294693*
X00540619*
X00515219D02*
Y01304853D01*
X00525379*
Y01294693*
X00515219*
X00489819D02*
Y01304853D01*
X00499979*
Y01294693*
X00489819*
X00404359Y01269293D02*
X00406899D01*
X00409439Y01271833*
X00411979Y01269293*
X00414519*
Y01271833*
X00411979Y01274373*
X00414519Y01276913*
Y01279453*
X00411979*
X00409439Y01276913*
X00406899Y01279453*
X00404359*
Y01276913*
X00406899Y01274373*
X00404359Y01271833*
Y01269293*
X01364659D02*
X01367199D01*
X01369739Y01271833*
X01372279Y01269293*
X01374819*
Y01271833*
X01372279Y01274373*
X01374819Y01276913*
Y01279453*
X01372279*
X01369739Y01276913*
X01367199Y01279453*
X01364659*
Y01276913*
X01367199Y01274373*
X01364659Y01271833*
Y01269293*
X00584919Y01851999D02*
X00589999Y01857079D01*
X00595079Y01851999*
X00589999Y01846919*
X00584919Y01851999*
X00634919Y01902999D02*
X00639999Y01908079D01*
X00645079Y01902999*
X00639999Y01897919*
X00634919Y01902999*
X00684919Y01851999D02*
X00689999Y01857079D01*
X00695079Y01851999*
X00689999Y01846919*
X00684919Y01851999*
X00634919Y01844919D02*
Y01855079D01*
X00645079*
Y01844919*
X00634919*
X00636951Y01846951D02*
Y01853047D01*
X00643047*
Y01846951*
X00636951*
X00412909Y0027178D02*
X00407829Y0028194D01*
X00417989*
X00412909Y0027178*
Y00273812D02*
X00409861Y00279908D01*
X00415957*
X00412909Y00273812*
X00574199Y0027178D02*
X00569119Y0028194D01*
X00579279*
X00574199Y0027178*
Y00273812D02*
X00571151Y00279908D01*
X00577247*
X00574199Y00273812*
X01019169Y01850089D02*
X01021709Y01852629D01*
X01024249*
X01021709Y01855169*
X01024249Y01857709*
X01021709*
X01019169Y01860249*
X01016629Y01857709*
X01014089*
X01016629Y01855169*
X01014089Y01852629*
X01016629*
X01019169Y01850089*
Y01852121D02*
X01020693Y01853645D01*
X01022217*
X01020693Y01855169*
X01022217Y01856693*
X01020693*
X01019169Y01858217*
X01017645Y01856693*
X01016121*
X01017645Y01855169*
X01016121Y01853645*
X01017645*
X01019169Y01852121*
X00959169Y01850089D02*
X00961709Y01852629D01*
X00964249*
X00961709Y01855169*
X00964249Y01857709*
X00961709*
X00959169Y01860249*
X00956629Y01857709*
X00954089*
X00956629Y01855169*
X00954089Y01852629*
X00956629*
X00959169Y01850089*
Y01852121D02*
X00960693Y01853645D01*
X00962217*
X00960693Y01855169*
X00962217Y01856693*
X00960693*
X00959169Y01858217*
X00957645Y01856693*
X00956121*
X00957645Y01855169*
X00956121Y01853645*
X00957645*
X00959169Y01852121*
X00999169Y01850089D02*
X01001709Y01852629D01*
X01004249*
X01001709Y01855169*
X01004249Y01857709*
X01001709*
X00999169Y01860249*
X00996629Y01857709*
X00994089*
X00996629Y01855169*
X00994089Y01852629*
X00996629*
X00999169Y01850089*
Y01852121D02*
X01000693Y01853645D01*
X01002217*
X01000693Y01855169*
X01002217Y01856693*
X01000693*
X00999169Y01858217*
X00997645Y01856693*
X00996121*
X00997645Y01855169*
X00996121Y01853645*
X00997645*
X00999169Y01852121*
X00939169Y01875089D02*
X00941709Y01877629D01*
X00944249*
X00941709Y01880169*
X00944249Y01882709*
X00941709*
X00939169Y01885249*
X00936629Y01882709*
X00934089*
X00936629Y01880169*
X00934089Y01877629*
X00936629*
X00939169Y01875089*
Y01877121D02*
X00940693Y01878645D01*
X00942217*
X00940693Y01880169*
X00942217Y01881693*
X00940693*
X00939169Y01883217*
X00937645Y01881693*
X00936121*
X00937645Y01880169*
X00936121Y01878645*
X00937645*
X00939169Y01877121*
X01019169Y01875089D02*
X01021709Y01877629D01*
X01024249*
X01021709Y01880169*
X01024249Y01882709*
X01021709*
X01019169Y01885249*
X01016629Y01882709*
X01014089*
X01016629Y01880169*
X01014089Y01877629*
X01016629*
X01019169Y01875089*
Y01877121D02*
X01020693Y01878645D01*
X01022217*
X01020693Y01880169*
X01022217Y01881693*
X01020693*
X01019169Y01883217*
X01017645Y01881693*
X01016121*
X01017645Y01880169*
X01016121Y01878645*
X01017645*
X01019169Y01877121*
X00986169Y01875089D02*
X00988709Y01877629D01*
X00991249*
X00988709Y01880169*
X00991249Y01882709*
X00988709*
X00986169Y01885249*
X00983629Y01882709*
X00981089*
X00983629Y01880169*
X00981089Y01877629*
X00983629*
X00986169Y01875089*
Y01877121D02*
X00987693Y01878645D01*
X00989217*
X00987693Y01880169*
X00989217Y01881693*
X00987693*
X00986169Y01883217*
X00984645Y01881693*
X00983121*
X00984645Y01880169*
X00983121Y01878645*
X00984645*
X00986169Y01877121*
X00966169Y01875089D02*
X00968709Y01877629D01*
X00971249*
X00968709Y01880169*
X00971249Y01882709*
X00968709*
X00966169Y01885249*
X00963629Y01882709*
X00961089*
X00963629Y01880169*
X00961089Y01877629*
X00963629*
X00966169Y01875089*
Y01877121D02*
X00967693Y01878645D01*
X00969217*
X00967693Y01880169*
X00969217Y01881693*
X00967693*
X00966169Y01883217*
X00964645Y01881693*
X00963121*
X00964645Y01880169*
X00963121Y01878645*
X00964645*
X00966169Y01877121*
X0097409Y01913089D02*
X0097663Y01918169D01*
X0097409Y01923249*
X0097917Y01920709*
X0098425Y01923249*
X0098171Y01918169*
X0098425Y01913089*
X0097917Y01915629*
X0097409Y01913089*
X00976122Y01915121D02*
X00977646Y01918169D01*
X00976122Y01921217*
X0097917Y01919693*
X00982218Y01921217*
X00980694Y01918169*
X00982218Y01915121*
X0097917Y01916645*
X00976122Y01915121*
X0097917Y01850089D02*
X0098171Y01852629D01*
X0098425*
X0098171Y01855169*
X0098425Y01857709*
X0098171*
X0097917Y01860249*
X0097663Y01857709*
X0097409*
X0097663Y01855169*
X0097409Y01852629*
X0097663*
X0097917Y01850089*
Y01852121D02*
X00980694Y01853645D01*
X00982218*
X00980694Y01855169*
X00982218Y01856693*
X00980694*
X0097917Y01858217*
X00977646Y01856693*
X00976122*
X00977646Y01855169*
X00976122Y01853645*
X00977646*
X0097917Y01852121*
X00939169Y01850089D02*
X00941709Y01852629D01*
X00944249*
X00941709Y01855169*
X00944249Y01857709*
X00941709*
X00939169Y01860249*
X00936629Y01857709*
X00934089*
X00936629Y01855169*
X00934089Y01852629*
X00936629*
X00939169Y01850089*
Y01852121D02*
X00940693Y01853645D01*
X00942217*
X00940693Y01855169*
X00942217Y01856693*
X00940693*
X00939169Y01858217*
X00937645Y01856693*
X00936121*
X00937645Y01855169*
X00936121Y01853645*
X00937645*
X00939169Y01852121*
X00332759Y01883119D02*
Y01880579D01*
X00337839*
Y01883119*
X00340379*
Y01888199*
X00337839*
Y01890739*
X00332759*
Y01888199*
X00330219*
Y01883119*
X00332759*
X00246359D02*
Y01880579D01*
X00251439*
Y01883119*
X00253979*
Y01888199*
X00251439*
Y01890739*
X00246359*
Y01888199*
X00243819*
Y01883119*
X00246359*
X00332759Y01921119D02*
Y01918579D01*
X00337839*
Y01921119*
X00340379*
Y01926199*
X00337839*
Y01928739*
X00332759*
Y01926199*
X00330219*
Y01921119*
X00332759*
X00246359D02*
Y01918579D01*
X00251439*
Y01921119*
X00253979*
Y01926199*
X00251439*
Y01928739*
X00246359*
Y01926199*
X00243819*
Y01921119*
X00246359*
X01105689Y00123169D02*
X01100609Y00133329D01*
X01110769*
X01105689Y00123169*
X01091839Y00094769D02*
X01086759Y00104929D01*
X01096919*
X01091839Y00094769*
X01077989Y00123169D02*
X01072909Y00133329D01*
X01083069*
X01077989Y00123169*
X01064139Y00094769D02*
X01059059Y00104929D01*
X01069219*
X01064139Y00094769*
X0105029Y00123169D02*
X0104521Y00133329D01*
X0105537*
X0105029Y00123169*
X01036439Y00094769D02*
X01031359Y00104929D01*
X01041519*
X01036439Y00094769*
X01022589Y00123169D02*
X01017509Y00133329D01*
X01027669*
X01022589Y00123169*
X01008739Y00094769D02*
X01003659Y00104929D01*
X01013819*
X01008739Y00094769*
X00994889Y00123169D02*
X00989809Y00133329D01*
X00999969*
X00994889Y00123169*
X0137922Y00256069D02*
Y00253529D01*
X013843*
Y00256069*
X0138684*
Y00261149*
X013843*
Y00263689*
X0137922*
Y00261149*
X0137668*
Y00256069*
X0137922*
X01380236Y00257085D02*
Y00255561D01*
X01383284*
Y00257085*
X01384808*
Y00260133*
X01383284*
Y00261657*
X01380236*
Y00260133*
X01378712*
Y00257085*
X01380236*
X01254219Y00256069D02*
Y00253529D01*
X01259299*
Y00256069*
X01261839*
Y00261149*
X01259299*
Y00263689*
X01254219*
Y00261149*
X01251679*
Y00256069*
X01254219*
X01255235Y00257085D02*
Y00255561D01*
X01258283*
Y00257085*
X01259807*
Y00260133*
X01258283*
Y00261657*
X01255235*
Y00260133*
X01253711*
Y00257085*
X01255235*
X0137922Y0030607D02*
Y0030353D01*
X013843*
Y0030607*
X0138684*
Y0031115*
X013843*
Y0031369*
X0137922*
Y0031115*
X0137668*
Y0030607*
X0137922*
X01380236Y00307086D02*
Y00305562D01*
X01383284*
Y00307086*
X01384808*
Y00310134*
X01383284*
Y00311658*
X01380236*
Y00310134*
X01378712*
Y00307086*
X01380236*
X01254219Y0030607D02*
Y0030353D01*
X01259299*
Y0030607*
X01261839*
Y0031115*
X01259299*
Y0031369*
X01254219*
Y0031115*
X01251679*
Y0030607*
X01254219*
X01255235Y00307086D02*
Y00305562D01*
X01258283*
Y00307086*
X01259807*
Y00310134*
X01258283*
Y00311658*
X01255235*
Y00310134*
X01253711*
Y00307086*
X01255235*
X0153416Y01125579D02*
X015367D01*
X0153924Y01128119*
X0154178Y01125579*
X0154432*
Y01128119*
X0154178Y01130659*
X0154432Y01133199*
Y01135739*
X0154178*
X0153924Y01133199*
X015367Y01135739*
X0153416*
Y01133199*
X015367Y01130659*
X0153416Y01128119*
Y01125579*
X01536192Y01127611D02*
X01537716D01*
X0153924Y01129135*
X01540764Y01127611*
X01542288*
Y01129135*
X01540764Y01130659*
X01542288Y01132183*
Y01133707*
X01540764*
X0153924Y01132183*
X01537716Y01133707*
X01536192*
Y01132183*
X01537716Y01130659*
X01536192Y01129135*
Y01127611*
X0153416Y00965579D02*
X015367D01*
X0153924Y00968119*
X0154178Y00965579*
X0154432*
Y00968119*
X0154178Y00970659*
X0154432Y00973199*
Y00975739*
X0154178*
X0153924Y00973199*
X015367Y00975739*
X0153416*
Y00973199*
X015367Y00970659*
X0153416Y00968119*
Y00965579*
X01536192Y00967611D02*
X01537716D01*
X0153924Y00969135*
X01540764Y00967611*
X01542288*
Y00969135*
X01540764Y00970659*
X01542288Y00972183*
Y00973707*
X01540764*
X0153924Y00972183*
X01537716Y00973707*
X01536192*
Y00972183*
X01537716Y00970659*
X01536192Y00969135*
Y00967611*
X0153924Y0108966D02*
Y01098123D01*
X01543471Y01102355*
X01547703Y01098123*
Y0108966*
Y01096007*
X0153924*
Y01049659D02*
Y01058123D01*
X01543471Y01062355*
X01547703Y01058123*
Y01049659*
Y01056007*
X0153924*
Y01029659D02*
Y01038123D01*
X01543471Y01042355*
X01547703Y01038123*
Y01029659*
Y01036007*
X0153924*
Y01009659D02*
Y01018123D01*
X01543471Y01022355*
X01547703Y01018123*
Y01009659*
Y01016007*
X0153924*
X0084328Y01437599D02*
Y01446063D01*
X00847511Y01450295*
X00851743Y01446063*
Y01437599*
Y01443947*
X0084328*
Y01457599D02*
Y01466063D01*
X00847511Y01470295*
X00851743Y01466063*
Y01457599*
Y01463947*
X0084328*
Y01477599D02*
Y01486063D01*
X00847511Y01490295*
X00851743Y01486063*
Y01477599*
Y01483947*
X0084328*
Y01429295D02*
Y01416599D01*
X00849627*
X00851743Y01418715*
Y01420831*
X00849627Y01422947*
X0084328*
X00849627*
X00851743Y01425063*
Y01427179*
X00849627Y01429295*
X0084328*
Y01511295D02*
Y014986D01*
X00849627*
X00851743Y01500715*
Y01502831*
X00849627Y01504947*
X0084328*
X00849627*
X00851743Y01507063*
Y01509179*
X00849627Y01511295*
X0084328*
X01402923Y01729759D02*
X01400807Y01731875D01*
X01396575*
X0139446Y01729759*
Y01721295*
X01396575Y01719179*
X01400807*
X01402923Y01721295*
Y01704759D02*
X01400807Y01706875D01*
X01396575*
X0139446Y01704759*
Y01696295*
X01396575Y0169418*
X01400807*
X01402923Y01696295*
X0109982Y00337815D02*
Y0032512D01*
X01106167*
X01108283Y00327235*
Y00335699*
X01106167Y00337815*
X0109982*
Y00386615D02*
Y00373919D01*
X01106167*
X01108283Y00376035*
Y00384499*
X01106167Y00386615*
X0109982*
X01242743Y01471079D02*
X01240627Y01473195D01*
X01236395*
X01234279Y01471079*
Y01462615*
X01236395Y014605*
X01240627*
X01242743Y01462615*
X01222743Y01471079D02*
X01220627Y01473195D01*
X01216395*
X01214279Y01471079*
Y01462615*
X01216395Y014605*
X01220627*
X01222743Y01462615*
X01197183Y01640835D02*
X0118872D01*
Y0162814*
X01197183*
X0118872Y01634487D02*
X01192951D01*
X01157183Y01640835D02*
X01148719D01*
Y0162814*
X01157183*
X01148719Y01634487D02*
X01152951D01*
X01463883Y00833115D02*
X0145542D01*
Y00826767*
X01459651*
X0145542*
Y0082042*
X01463883Y00807715D02*
X0145542D01*
Y00801367*
X01459651*
X0145542*
Y0079502*
X01463883Y00782315D02*
X0145542D01*
Y00775967*
X01459651*
X0145542*
Y0076962*
X00463323Y01775879D02*
X00461207Y01777995D01*
X00456975*
X00454859Y01775879*
Y01767415*
X00456975Y017653*
X00461207*
X00463323Y01767415*
X00488323Y01775879D02*
X00486207Y01777995D01*
X00481975*
X00479859Y01775879*
Y01767415*
X00481975Y017653*
X00486207*
X00488323Y01767415*
X00854283Y00589539D02*
X00852167Y00591655D01*
X00847935*
X0084582Y00589539*
Y00581075*
X00847935Y00578959*
X00852167*
X00854283Y00581075*
Y00569539D02*
X00852167Y00571655D01*
X00847935*
X0084582Y00569539*
Y00561075*
X00847935Y00558959*
X00852167*
X00854283Y00561075*
X00675329Y00123169D02*
X00670249Y00133329D01*
X00680409*
X00675329Y00123169*
X00689179Y00094769D02*
X00684099Y00104929D01*
X00694259*
X00689179Y00094769*
X00703029Y00123169D02*
X00697949Y00133329D01*
X00708109*
X00703029Y00123169*
X00716879Y00094769D02*
X00711799Y00104929D01*
X00721959*
X00716879Y00094769*
X00730729Y00123169D02*
X00725649Y00133329D01*
X00735809*
X00730729Y00123169*
X00744579Y00094769D02*
X00739499Y00104929D01*
X00749659*
X00744579Y00094769*
X00758429Y00123169D02*
X00753349Y00133329D01*
X00763509*
X00758429Y00123169*
X00772279Y00094769D02*
X00767199Y00104929D01*
X00777359*
X00772279Y00094769*
X0078613Y00123169D02*
X0078105Y00133329D01*
X0079121*
X0078613Y00123169*
X00799919Y01844919D02*
Y01855079D01*
X00810079*
Y01844919*
X00799919*
X00801951Y01846951D02*
Y01853047D01*
X00808047*
Y01846951*
X00801951*
X00849919Y01851999D02*
X00854999Y01857079D01*
X00860079Y01851999*
X00854999Y01846919*
X00849919Y01851999*
X00799919Y01902999D02*
X00804999Y01908079D01*
X00810079Y01902999*
X00804999Y01897919*
X00799919Y01902999*
X00749919Y01851999D02*
X00754999Y01857079D01*
X00760079Y01851999*
X00754999Y01846919*
X00749919Y01851999*
X00419919D02*
X00424999Y01857079D01*
X00430079Y01851999*
X00424999Y01846919*
X00419919Y01851999*
X00469919Y01902999D02*
X00474999Y01908079D01*
X00480079Y01902999*
X00474999Y01897919*
X00469919Y01902999*
X00519919Y01851999D02*
X00524999Y01857079D01*
X00530079Y01851999*
X00524999Y01846919*
X00519919Y01851999*
X00469919Y01844919D02*
Y01855079D01*
X00480079*
Y01844919*
X00469919*
X00471951Y01846951D02*
Y01853047D01*
X00478047*
Y01846951*
X00471951*
X0154178Y00778519D02*
Y00786983D01*
X01546011Y00791215*
X01550243Y00786983*
Y00778519*
Y00784867*
X0154178*
Y00798519D02*
Y00806983D01*
X01546011Y00811215*
X01550243Y00806983*
Y00798519*
Y00804867*
X0154178*
Y00818519D02*
Y00826983D01*
X01546011Y00831215*
X01550243Y00826983*
Y00818519*
Y00824867*
X0154178*
Y00770215D02*
Y00757519D01*
X01548127*
X01550243Y00759635*
Y00761751*
X01548127Y00763867*
X0154178*
X01548127*
X01550243Y00765983*
Y00768099*
X01548127Y00770215*
X0154178*
Y00852215D02*
Y00839519D01*
X01548127*
X01550243Y00841635*
Y00843751*
X01548127Y00845867*
X0154178*
X01548127*
X01550243Y00847983*
Y00850099*
X01548127Y00852215*
X0154178*
X01070823Y01640835D02*
X01062359D01*
Y0162814*
X01070823*
X01062359Y01634487D02*
X01066591D01*
X01110823Y01640835D02*
X0110236D01*
Y0162814*
X01110823*
X0110236Y01634487D02*
X01106591D01*
X01095583Y01702619D02*
X01093467Y01704735D01*
X01089235*
X0108712Y01702619*
Y01694155*
X01089235Y01692039*
X01093467*
X01095583Y01694155*
Y01727619D02*
X01093467Y01729735D01*
X01089235*
X0108712Y01727619*
Y01719155*
X01089235Y0171704*
X01093467*
X01095583Y01719155*
X00838643Y01747939D02*
X00836527Y01750055D01*
X00832295*
X00830179Y01747939*
Y01739475*
X00832295Y0173736*
X00836527*
X00838643Y01739475*
X00813643Y01747939D02*
X00811527Y01750055D01*
X00807295*
X0080518Y01747939*
Y01739475*
X00807295Y0173736*
X00811527*
X00813643Y01739475*
X00839043Y01590459D02*
X00836927Y01592575D01*
X00832695*
X0083058Y01590459*
Y01581995*
X00832695Y0157988*
X00836927*
X00839043Y01581995*
X00814043Y01590459D02*
X00811927Y01592575D01*
X00807695*
X00805579Y01590459*
Y01581995*
X00807695Y0157988*
X00811927*
X00814043Y01581995*
X01250523Y01729759D02*
X01248407Y01731875D01*
X01244175*
X0124206Y01729759*
Y01721295*
X01244175Y01719179*
X01248407*
X01250523Y01721295*
Y01704759D02*
X01248407Y01706875D01*
X01244175*
X0124206Y01704759*
Y01696295*
X01244175Y0169418*
X01248407*
X01250523Y01696295*
X00455503Y01559979D02*
X00453387Y01562095D01*
X00449155*
X0044704Y01559979*
Y01551515*
X00449155Y015494*
X00453387*
X00455503Y01551515*
Y01579979D02*
X00453387Y01582095D01*
X00449155*
X0044704Y01579979*
Y01571515*
X00449155Y01569399*
X00453387*
X00455503Y01571515*
X00445343Y01440599D02*
X00443227Y01442715D01*
X00438995*
X0043688Y01440599*
Y01432135*
X00438995Y0143002*
X00443227*
X00445343Y01432135*
X00465343Y01440599D02*
X00463227Y01442715D01*
X00458995*
X00456879Y01440599*
Y01432135*
X00458995Y0143002*
X00463227*
X00465343Y01432135*
X00455503Y01513939D02*
X00453387Y01516055D01*
X00449155*
X0044704Y01513939*
Y01505475*
X00449155Y01503359*
X00453387*
X00455503Y01505475*
Y01493939D02*
X00453387Y01496055D01*
X00449155*
X0044704Y01493939*
Y01485475*
X00449155Y0148336*
X00453387*
X00455503Y01485475*
X00389463Y01430439D02*
X00387347Y01432555D01*
X00383115*
X00381Y01430439*
Y01421975*
X00383115Y0141986*
X00387347*
X00389463Y01421975*
Y01450439D02*
X00387347Y01452555D01*
X00383115*
X00381Y01450439*
Y01441975*
X00383115Y01439859*
X00387347*
X00389463Y01441975*
X00653623Y01773139D02*
X00651507Y01775255D01*
X00647275*
X0064516Y01773139*
Y01764675*
X00647275Y01762559*
X00651507*
X00653623Y01764675*
Y01748139D02*
X00651507Y01750255D01*
X00647275*
X0064516Y01748139*
Y01739675*
X00647275Y01737559*
X00651507*
X00653623Y01739675*
X00567463Y01760639D02*
X00565347Y01762755D01*
X00561115*
X00558999Y01760639*
Y01752175*
X00561115Y0175006*
X00565347*
X00567463Y01752175*
X00592463Y01760639D02*
X00590347Y01762755D01*
X00586115*
X00583999Y01760639*
Y01752175*
X00586115Y0175006*
X00590347*
X00592463Y01752175*
X00445663Y01633639D02*
X00443547Y01635755D01*
X00439315*
X00437199Y01633639*
Y01625175*
X00439315Y0162306*
X00443547*
X00445663Y01625175*
X00465663Y01633639D02*
X00463547Y01635755D01*
X00459315*
X004572Y01633639*
Y01625175*
X00459315Y0162306*
X00463547*
X00465663Y01625175*
X00389463Y01559979D02*
X00387347Y01562095D01*
X00383115*
X00381Y01559979*
Y01551515*
X00383115Y015494*
X00387347*
X00389463Y01551515*
Y01579979D02*
X00387347Y01582095D01*
X00383115*
X00381Y01579979*
Y01571515*
X00383115Y01569399*
X00387347*
X00389463Y01571515*
X00675329Y00073639D02*
X00670249Y00083799D01*
X00680409*
X00675329Y00073639*
X00689179Y00045239D02*
X00684099Y00055399D01*
X00694259*
X00689179Y00045239*
X00703029Y00073639D02*
X00697949Y00083799D01*
X00708109*
X00703029Y00073639*
X00716879Y00045239D02*
X00711799Y00055399D01*
X00721959*
X00716879Y00045239*
X00730729Y00073639D02*
X00725649Y00083799D01*
X00735809*
X00730729Y00073639*
X00744579Y00045239D02*
X00739499Y00055399D01*
X00749659*
X00744579Y00045239*
X00758429Y00073639D02*
X00753349Y00083799D01*
X00763509*
X00758429Y00073639*
X00772279Y00045239D02*
X00767199Y00055399D01*
X00777359*
X00772279Y00045239*
X0078613Y00073639D02*
X0078105Y00083799D01*
X0079121*
X0078613Y00073639*
X01174323Y01729759D02*
X01172207Y01731875D01*
X01167975*
X0116586Y01729759*
Y01721295*
X01167975Y01719179*
X01172207*
X01174323Y01721295*
Y01704759D02*
X01172207Y01706875D01*
X01167975*
X0116586Y01704759*
Y01696295*
X01167975Y0169418*
X01172207*
X01174323Y01696295*
X00475823Y01714919D02*
X00473707Y01717035D01*
X00469475*
X0046736Y01714919*
Y01706455*
X00469475Y0170434*
X00473707*
X00475823Y01706455*
Y01689919D02*
X00473707Y01692035D01*
X00469475*
X0046736Y01689919*
Y01681455*
X00469475Y01679339*
X00473707*
X00475823Y01681455*
X01326723Y01729759D02*
X01324607Y01731875D01*
X01320375*
X0131826Y01729759*
Y01721295*
X01320375Y01719179*
X01324607*
X01326723Y01721295*
Y01704759D02*
X01324607Y01706875D01*
X01320375*
X0131826Y01704759*
Y01696295*
X01320375Y0169418*
X01324607*
X01326723Y01696295*
X00839043Y01669199D02*
X00836927Y01671315D01*
X00832695*
X0083058Y01669199*
Y01660735*
X00832695Y0165862*
X00836927*
X00839043Y01660735*
X00814043Y01669199D02*
X00811927Y01671315D01*
X00807695*
X00805579Y01669199*
Y01660735*
X00807695Y0165862*
X00811927*
X00814043Y01660735*
X00396883Y00429679D02*
X00394767Y00431795D01*
X00390535*
X00388419Y00429679*
Y00421215*
X00390535Y004191*
X00394767*
X00396883Y00421215*
X00371883Y00429679D02*
X00369767Y00431795D01*
X00365535*
X00363419Y00429679*
Y00421215*
X00365535Y004191*
X00369767*
X00371883Y00421215*
X01476583Y01729759D02*
X01474467Y01731875D01*
X01470235*
X0146812Y01729759*
Y01721295*
X01470235Y01719179*
X01474467*
X01476583Y01721295*
Y01704759D02*
X01474467Y01706875D01*
X01470235*
X0146812Y01704759*
Y01696295*
X01470235Y0169418*
X01474467*
X01476583Y01696295*
X00927943Y01471079D02*
X00925827Y01473195D01*
X00921595*
X0091948Y01471079*
Y01462615*
X00921595Y014605*
X00925827*
X00927943Y01462615*
Y01496079D02*
X00925827Y01498195D01*
X00921595*
X0091948Y01496079*
Y01487615*
X00921595Y01485499*
X00925827*
X00927943Y01487615*
X01552783Y01729959D02*
X01550667Y01732075D01*
X01546435*
X0154432Y01729959*
Y01721495*
X01546435Y01719379*
X01550667*
X01552783Y01721495*
Y01704959D02*
X01550667Y01707075D01*
X01546435*
X0154432Y01704959*
Y01696495*
X01546435Y01694379*
X01550667*
X01552783Y01696495*
X00460583Y01143419D02*
X00458467Y01145535D01*
X00454235*
X0045212Y01143419*
Y01134955*
X00454235Y0113284*
X00458467*
X00460583Y01134955*
X00480583Y01143419D02*
X00478467Y01145535D01*
X00474235*
X00472119Y01143419*
Y01134955*
X00474235Y0113284*
X00478467*
X00480583Y01134955*
X00602823Y01059599D02*
X00600707Y01061715D01*
X00596475*
X0059436Y01059599*
Y01051135*
X00596475Y0104902*
X00600707*
X00602823Y01051135*
Y01079599D02*
X00600707Y01081715D01*
X00596475*
X0059436Y01079599*
Y01071135*
X00596475Y01069019*
X00600707*
X00602823Y01071135*
X01244273Y00815919D02*
X01242157Y00818035D01*
X01237925*
X01235809Y00815919*
Y00807455*
X01237925Y00805339*
X01242157*
X01244273Y00807455*
Y00835919D02*
X01242157Y00838035D01*
X01237925*
X01235809Y00835919*
Y00827455*
X01237925Y00825339*
X01242157*
X01244273Y00827455*
X0088646Y00386615D02*
Y00373919D01*
X00892807*
X00894923Y00376035*
Y00384499*
X00892807Y00386615*
X0088646*
Y00337815D02*
Y0032512D01*
X00892807*
X00894923Y00327235*
Y00335699*
X00892807Y00337815*
X0088646*
X00381313Y00646926D02*
X00379197Y00649042D01*
X00374965*
X00372849Y00646926*
Y00638462*
X00374965Y00636346*
X00379197*
X00381313Y00638462*
Y00626926D02*
X00379197Y00629042D01*
X00374965*
X00372849Y00626926*
Y00618462*
X00374965Y00616346*
X00379197*
X00381313Y00618462*
X00564723Y01679039D02*
X00562607Y01681155D01*
X00558375*
X0055626Y01679039*
Y01670575*
X00558375Y01668459*
X00562607*
X00564723Y01670575*
Y01659039D02*
X00562607Y01661155D01*
X00558375*
X0055626Y01659039*
Y01650575*
X00558375Y0164846*
X00562607*
X00564723Y01650575*
X01476583Y01648879D02*
X01474467Y01650995D01*
X01470235*
X0146812Y01648879*
Y01640415*
X01470235Y016383*
X01474467*
X01476583Y01640415*
Y01628879D02*
X01474467Y01630995D01*
X01470235*
X0146812Y01628879*
Y01620415*
X01470235Y01618299*
X01474467*
X01476583Y01620415*
X01253063Y01633639D02*
X01250947Y01635755D01*
X01246715*
X012446Y01633639*
Y01625175*
X01246715Y0162306*
X01250947*
X01253063Y01625175*
Y01653639D02*
X01250947Y01655755D01*
X01246715*
X012446Y01653639*
Y01645175*
X01246715Y01643059*
X01250947*
X01253063Y01645175*
X00426463Y00255579D02*
X00424347Y00257695D01*
X00420116*
X00417999Y00255579*
Y00247115*
X00420116Y00244999*
X00424347*
X00426463Y00247115*
Y00251347*
X00422231*
X00426463Y00320579D02*
X00424347Y00322695D01*
X00420116*
X00417999Y00320579*
Y00312115*
X00420116Y00309999*
X00424347*
X00426463Y00312115*
Y00316347*
X00422231*
X00575463Y00320579D02*
X00573347Y00322695D01*
X00569115*
X00566999Y00320579*
Y00312115*
X00569115Y00309999*
X00573347*
X00575463Y00312115*
Y00316347*
X00571231*
X00575463Y00255579D02*
X00573347Y00257695D01*
X00569115*
X00566999Y00255579*
Y00247115*
X00569115Y00244999*
X00573347*
X00575463Y00247115*
Y00251347*
X00571231*
X0088646Y00464815D02*
Y0045212D01*
Y00458467*
X00894923*
Y00464815*
Y0045212*
X00349062Y01748241D02*
Y01735545D01*
Y01741893*
X00357526*
Y01748241*
Y01735545*
X0029464Y01693795D02*
Y01681099D01*
Y01687447*
X00303103*
Y01693795*
Y01681099*
X0029464Y00615744D02*
Y00603048D01*
Y00609396*
X00303103*
Y00615744*
Y00603048*
X0029464Y00708053D02*
Y00695357D01*
Y00701705*
X00303103*
Y00708053*
Y00695357*
X0029464Y00800362D02*
Y00787666D01*
Y00794014*
X00303103*
Y00800362*
Y00787666*
X0029464Y0089267D02*
Y00879974D01*
Y00886322*
X00303103*
Y0089267*
Y00879974*
X0029464Y00984979D02*
Y00972283D01*
Y00978631*
X00303103*
Y00984979*
Y00972283*
X0029464Y01077288D02*
Y01064592D01*
Y0107094*
X00303103*
Y01077288*
Y01064592*
X0029464Y01169596D02*
Y011569D01*
Y01163248*
X00303103*
Y01169596*
Y011569*
X0029464Y01261905D02*
Y01249209D01*
Y01255557*
X00303103*
Y01261905*
Y01249209*
X0029464Y01354214D02*
Y01341518D01*
Y01347866*
X00303103*
Y01354214*
Y01341518*
X0029464Y01400368D02*
Y01387672D01*
Y0139402*
X00303103*
Y01400368*
Y01387672*
X0029464Y01446522D02*
Y01433827D01*
Y01440174*
X00303103*
Y01446522*
Y01433827*
X0029464Y01492677D02*
Y01479981D01*
Y01486329*
X00303103*
Y01492677*
Y01479981*
X0029464Y01538831D02*
Y01526135D01*
Y01532483*
X00303103*
Y01538831*
Y01526135*
X0029464Y01584985D02*
Y01572289D01*
Y01578637*
X00303103*
Y01584985*
Y01572289*
X0029464Y0163114D02*
Y01618444D01*
Y01624792*
X00303103*
Y0163114*
Y01618444*
X0027178Y00740888D02*
Y00728193D01*
Y0073454*
X00280243*
Y00740888*
Y00728193*
X0027178Y00576254D02*
Y00563558D01*
Y00569906*
X00280243*
Y00576254*
Y00563558*
X00314659Y00505755D02*
X00318891D01*
X00316775*
Y00493059*
X00314659*
X00318891*
X00492689Y00251385D02*
Y00238689D01*
Y00245037*
X00501153*
Y00251385*
Y00238689*
X0042037Y00218435D02*
Y0020574D01*
Y00212087*
X00428833*
Y00218435*
Y0020574*
X0032258Y00276855D02*
Y0026416D01*
Y00270507*
X00331043*
Y00276855*
Y0026416*
X0027178Y00329301D02*
Y00316605D01*
Y00322953*
X00280243*
Y00329301*
Y00316605*
X0027178Y00411619D02*
Y00398923D01*
Y00405271*
X00280243*
Y00411619*
Y00398923*
X0027178Y00493936D02*
Y0048124D01*
Y00487588*
X00280243*
Y00493936*
Y0048124*
X0027178Y00658571D02*
Y00645875D01*
Y00652223*
X00280243*
Y00658571*
Y00645875*
X0027178Y00823206D02*
Y0081051D01*
Y00816858*
X00280243*
Y00823206*
Y0081051*
X0027178Y00905523D02*
Y00892827D01*
Y00899175*
X00280243*
Y00905523*
Y00892827*
X0027178Y00987841D02*
Y00975145D01*
Y00981493*
X00280243*
Y00987841*
Y00975145*
X0027178Y01070158D02*
Y01057462D01*
Y0106381*
X00280243*
Y01070158*
Y01057462*
X0027178Y01152475D02*
Y0113978D01*
Y01146127*
X00280243*
Y01152475*
Y0113978*
X0027178Y01234793D02*
Y01222097D01*
Y01228445*
X00280243*
Y01234793*
Y01222097*
X0027178Y0131711D02*
Y01304414D01*
Y01310762*
X00280243*
Y0131711*
Y01304414*
X0027178Y01399428D02*
Y01386732D01*
Y0139308*
X00280243*
Y01399428*
Y01386732*
X0027178Y01481745D02*
Y01469049D01*
Y01475397*
X00280243*
Y01481745*
Y01469049*
X0027178Y01564063D02*
Y01551367D01*
Y01557715*
X00280243*
Y01564063*
Y01551367*
X0027178Y0164638D02*
Y01633684D01*
Y01640032*
X00280243*
Y0164638*
Y01633684*
X0027178Y01728697D02*
Y01716001D01*
Y01722349*
X00280243*
Y01728697*
Y01716001*
X0027178Y01811015D02*
Y0179832D01*
Y01804667*
X00280243*
Y01811015*
Y0179832*
X00282718Y01839734D02*
Y01827038D01*
Y01833386*
X00291182*
Y01839734*
Y01827038*
X00293657Y01871975D02*
Y0185928D01*
Y01865627*
X00302121*
Y01871975*
Y0185928*
X00293657Y01871975D02*
X00297889D01*
X00295773*
Y0185928*
X00293657*
X00297889*
X0098552Y00596895D02*
X00989751D01*
X00987635*
Y005842*
X0098552*
X00989751*
X0096774Y00596895D02*
X00971971D01*
X00969855*
Y005842*
X0096774*
X00971971*
X0096266Y00627375D02*
X00966891D01*
X00964775*
Y0061468*
X0096266*
X00966891*
X01020635Y01616473D02*
Y01603777D01*
Y01610125*
X01029099*
Y01616473*
Y01603777*
X01450807Y0134266D02*
Y01329964D01*
Y01336312*
X01459271*
Y0134266*
Y01329964*
X01412707Y012055D02*
Y01192804D01*
Y01199152*
X01421171*
Y012055*
Y01192804*
X01280627Y0119788D02*
Y01185184D01*
Y01191532*
X01289091*
Y0119788*
Y01185184*
X00589747Y0054002D02*
Y00527324D01*
Y00533672*
X00598211*
Y0054002*
Y00527324*
X00693887Y0054764D02*
Y00534944D01*
Y00541292*
X00702351*
Y0054764*
Y00534944*
X00716747Y0053494D02*
Y00522244D01*
Y00528592*
X00725211*
Y0053494*
Y00522244*
X00866607Y006721D02*
Y00659404D01*
Y00665752*
X00875071*
Y006721*
Y00659404*
X01006307Y0080926D02*
Y00796564D01*
Y00802912*
X01014771*
Y0080926*
Y00796564*
X00678647Y0090578D02*
Y00893084D01*
Y00899432*
X00687111*
Y0090578*
Y00893084*
X00457667Y0066194D02*
Y00649244D01*
Y00655592*
X00466131*
Y0066194*
Y00649244*
X00417027Y0058574D02*
Y00573044D01*
Y00579392*
X00425491*
Y0058574*
Y00573044*
X00409407Y008753D02*
Y00862604D01*
Y00868952*
X00417871*
Y008753*
Y00862604*
X00406867Y0090832D02*
Y00895624D01*
Y00901972*
X00415331*
Y0090832*
Y00895624*
X00409407Y0075846D02*
Y00745764D01*
Y00752112*
X00417871*
Y0075846*
Y00745764*
X00475447Y0083974D02*
Y00827044D01*
Y00833392*
X00483911*
Y0083974*
Y00827044*
X00597367Y0083212D02*
Y00819424D01*
Y00825772*
X00605831*
Y0083212*
Y00819424*
X00693887Y008372D02*
Y00824504D01*
Y00830852*
X00702351*
Y008372*
Y00824504*
X01257767Y0096166D02*
Y00948964D01*
Y00955312*
X01266231*
Y0096166*
Y00948964*
X00500847Y0141886D02*
Y01406164D01*
Y01412512*
X00509311*
Y0141886*
Y01406164*
X00493227Y015738D02*
Y01561104D01*
Y01567452*
X00501691*
Y015738*
Y01561104*
X00493227Y0161698D02*
Y01604284D01*
Y01610632*
X00501691*
Y0161698*
Y01604284*
X00485607Y0146712D02*
Y01454424D01*
Y01460772*
X00494071*
Y0146712*
Y01454424*
X00409407Y0150522D02*
Y01492524D01*
Y01498872*
X00417871*
Y0150522*
Y01492524*
X003556Y01437635D02*
Y0142494D01*
Y01431287*
X00364063*
Y01437635*
Y0142494*
X00348447Y0152554D02*
Y01512844D01*
Y01519192*
X00356911*
Y0152554*
Y01512844*
X00350987Y0155856D02*
Y01545864D01*
Y01552212*
X00359451*
Y0155856*
Y01545864*
X00350987Y016373D02*
Y01624604D01*
Y01630952*
X00359451*
Y016373*
Y01624604*
X00353527Y0168048D02*
Y01667784D01*
Y01674132*
X00361991*
Y0168048*
Y01667784*
X00353527Y0171096D02*
Y01698264D01*
Y01704612*
X00361991*
Y0171096*
Y01698264*
X0070104Y00957575D02*
X00705271D01*
X00703155*
Y0094488*
X0070104*
X00705271*
X0055118Y01445617D02*
X00555411D01*
X00553295*
Y01432921*
X0055118*
X00555411*
X0123966Y01389516D02*
Y0137682D01*
Y01383168*
X01248124*
Y01389516*
Y0137682*
X01211441Y00906042D02*
X01215673D01*
X01213557*
Y00893346*
X01211441*
X01215673*
X01333361Y00789202D02*
X01337593D01*
X01335477*
Y00776506*
X01333361*
X01337593*
X01244461Y00766342D02*
X01248693D01*
X01246577*
Y00753646*
X01244461*
X01248693*
X01198741Y00720622D02*
X01202973D01*
X01200857*
Y00707926*
X01198741*
X01202973*
X01196201Y00768882D02*
X01200433D01*
X01198317*
Y00756186*
X01196201*
X01200433*
X00976072Y00694915D02*
X00980304D01*
X00978188*
Y0068222*
X00976072*
X00980304*
X01024463Y00703575D02*
X01020231D01*
X01022347*
Y00692995*
X01020231Y0069088*
X01018115*
X01016Y00692995*
X0097028Y00652775D02*
X00974511D01*
X00972395*
Y0064008*
X0097028*
X00974511*
X0058674Y01018535D02*
X00590971D01*
X00588855*
Y0100584*
X0058674*
X00590971*
X005334Y01018535D02*
X00537631D01*
X00535515*
Y0100584*
X005334*
X00537631*
X0048006Y01018535D02*
X00484291D01*
X00482175*
Y0100584*
X0048006*
X00484291*
X0042672Y01018535D02*
X00430951D01*
X00428835*
Y0100584*
X0042672*
X00430951*
X00398493Y0098064D02*
X00402725D01*
X00400609*
Y00967944*
X00398493*
X00402725*
X00451833Y0098064D02*
X00456065D01*
X00453949*
Y00967944*
X00451833*
X00456065*
X00505173Y0098064D02*
X00509405D01*
X00507289*
Y00967944*
X00505173*
X00509405*
X00558513Y0098064D02*
X00562745D01*
X00560629*
Y00967944*
X00558513*
X00562745*
X00611853Y0098064D02*
X00616085D01*
X00613969*
Y00967944*
X00611853*
X00616085*
X00665193Y0098064D02*
X00669425D01*
X00667309*
Y00967944*
X00665193*
X00669425*
X009017Y00668015D02*
X00905931D01*
X00903815*
Y0065532*
X009017*
X00905931*
X0088646Y00655315D02*
X00890691D01*
X00888575*
Y0064262*
X0088646*
X00890691*
X00380624Y00828149D02*
Y00815453D01*
Y00819685*
X00389088Y00828149*
X0038274Y00821801*
X00389088Y00815453*
X00380624Y00896729D02*
Y00884033D01*
Y00888265*
X00389088Y00896729*
X0038274Y00890381*
X00389088Y00884033*
X00380624Y00805289D02*
Y00792593D01*
Y00796825*
X00389088Y00805289*
X0038274Y00798941*
X00389088Y00792593*
X00626949Y0017697D02*
Y00164274D01*
Y00170622*
X00635413*
Y0017697*
Y00164274*
X00626949Y0027504D02*
Y00262344D01*
Y00268692*
X00635413*
Y0027504*
Y00262344*
X0102604Y00536174D02*
Y00523478D01*
Y00529826*
X01034504*
Y00536174*
Y00523478*
X00627592Y00326692D02*
Y00313996D01*
Y00320344*
X00636056*
Y00326692*
Y00313996*
X01125432Y00255572D02*
Y00242876D01*
Y00249224*
X01133896*
Y00255572*
Y00242876*
X01041612Y00230172D02*
Y00217476D01*
Y00223824*
X01050076*
Y00230172*
Y00217476*
X00970492Y00273352D02*
Y00260656D01*
Y00267004*
X00978956*
Y00273352*
Y00260656*
X01049232Y00268272D02*
Y00255576D01*
Y00261924*
X01057696*
Y00268272*
Y00255576*
X00668528Y014497D02*
Y01437005D01*
Y01443352*
X00676991*
Y014497*
Y01437005*
X0063246Y014497D02*
Y01437005D01*
Y01443352*
X00640923*
Y014497*
Y01437005*
X00998419Y00373375D02*
X01002651D01*
X01000535*
Y0036068*
X00998419*
X01002651*
X0138176Y01579875D02*
Y0156718D01*
Y01573527*
X01390223*
Y01579875*
Y0156718*
X0155194Y01432555D02*
Y0141986D01*
Y01426207*
X01560403*
Y01432555*
Y0141986*
X01668272Y01465972D02*
Y01453276D01*
Y01459624*
X01676736*
Y01465972*
Y01453276*
X01668272Y01497722D02*
Y01485026D01*
Y01491374*
X01676736*
Y01497722*
Y01485026*
X01668272Y01529472D02*
Y01516776D01*
Y01523124*
X01676736*
Y01529472*
Y01516776*
X01660652Y01443112D02*
Y01430416D01*
Y01436764*
X01669116*
Y01443112*
Y01430416*
X01630172Y01432952D02*
Y01420256D01*
Y01426604*
X01638636*
Y01432952*
Y01420256*
X01515872Y01453272D02*
Y01440576D01*
Y01446924*
X01524336*
Y01453272*
Y01440576*
X01566672Y01455812D02*
Y01443116D01*
Y01449464*
X01575136*
Y01455812*
Y01443116*
X01637792Y01460892D02*
Y01448196D01*
Y01454544*
X01646256*
Y01460892*
Y01448196*
X01622552Y01458352D02*
Y01445656D01*
Y01452004*
X01631016*
Y01458352*
Y01445656*
X01641112Y01480382D02*
Y01467686D01*
Y01474034*
X01649576*
Y01480382*
Y01467686*
X01622552Y01478672D02*
Y01465976D01*
Y01472324*
X01631016*
Y01478672*
Y01465976*
X01622552Y01504072D02*
Y01491376D01*
Y01497724*
X01631016*
Y01504072*
Y01491376*
X01640332Y01504072D02*
Y01491376D01*
Y01497724*
X01648796*
Y01504072*
Y01491376*
X01640332Y01524392D02*
Y01511696D01*
Y01518044*
X01648796*
Y01524392*
Y01511696*
X01622552Y01524392D02*
Y01511696D01*
Y01518044*
X01631016*
Y01524392*
Y01511696*
X01553972Y01524392D02*
Y01511696D01*
Y01518044*
X01562436*
Y01524392*
Y01511696*
X01569212Y01524392D02*
Y01511696D01*
Y01518044*
X01577676*
Y01524392*
Y01511696*
X01574292Y01501532D02*
Y01488836D01*
Y01495184*
X01582756*
Y01501532*
Y01488836*
X01569212Y01478672D02*
Y01465976D01*
Y01472324*
X01577676*
Y01478672*
Y01465976*
X00433737Y01731634D02*
Y01718938D01*
Y01725286*
X00442201*
Y01731634*
Y01718938*
X0149352Y00815335D02*
Y0080264D01*
Y00808987*
X01501983*
Y00815335*
Y0080264*
X014097Y00883915D02*
Y0087122D01*
Y00877567*
X01418163*
Y00883915*
Y0087122*
X0149098Y00881375D02*
Y0086868D01*
Y00875027*
X01499443*
Y00881375*
Y0086868*
X014478Y00927095D02*
Y009144D01*
Y00920747*
X01456263*
Y00927095*
Y009144*
X0155448Y00927095D02*
Y009144D01*
Y00920747*
X01562943*
Y00927095*
Y009144*
X01473643Y01089339D02*
Y01076644D01*
Y01082991*
X01482107*
Y01089339*
Y01076644*
X014732Y01137915D02*
Y0112522D01*
Y01131567*
X01481663*
Y01137915*
Y0112522*
X008128Y00490215D02*
Y0047752D01*
Y00483867*
X00821263*
Y00490215*
Y0047752*
X0092456Y00462275D02*
Y0044958D01*
Y00455927*
X00933023*
Y00462275*
Y0044958*
X00764919Y00452559D02*
Y00439863D01*
Y00446211*
X00773383*
Y00452559*
Y00439863*
X0087376Y00360675D02*
Y0034798D01*
Y00354327*
X00882223*
Y00360675*
Y0034798*
X0082042Y00363215D02*
Y0035052D01*
Y00356867*
X00828883*
Y00363215*
Y0035052*
X008636Y00302255D02*
Y0028956D01*
Y00295907*
X00872063*
Y00302255*
Y0028956*
X0082804Y00253995D02*
Y002413D01*
Y00247647*
X00836503*
Y00253995*
Y002413*
X0076962Y00253995D02*
Y002413D01*
Y00247647*
X00778083*
Y00253995*
Y002413*
X0062738Y00386075D02*
Y0037338D01*
Y00379727*
X00635843*
Y00386075*
Y0037338*
X0062992Y00449575D02*
Y0043688D01*
Y00443227*
X00638383*
Y00449575*
Y0043688*
X0054864Y00386075D02*
Y0037338D01*
Y00379727*
X00557103*
Y00386075*
Y0037338*
X00550519Y00449575D02*
Y0043688D01*
Y00443227*
X00558983*
Y00449575*
Y0043688*
X0055118Y00513075D02*
Y0050038D01*
Y00506727*
X00559643*
Y00513075*
Y0050038*
X004699Y00386075D02*
Y0037338D01*
Y00379727*
X00478363*
Y00386075*
Y0037338*
X00471119Y00449575D02*
Y0043688D01*
Y00443227*
X00479583*
Y00449575*
Y0043688*
X004699Y00513075D02*
Y0050038D01*
Y00506727*
X00478363*
Y00513075*
Y0050038*
X010922Y00523235D02*
Y0051054D01*
Y00516887*
X01100663*
Y00523235*
Y0051054*
X010922Y00500375D02*
Y0048768D01*
Y00494027*
X01100663*
Y00500375*
Y0048768*
X010922Y00477515D02*
Y0046482D01*
Y00471167*
X01100663*
Y00477515*
Y0046482*
X0102616Y00523235D02*
Y0051054D01*
Y00516887*
X01034623*
Y00523235*
Y0051054*
X0105664Y00505455D02*
Y0049276D01*
Y00499107*
X01065103*
Y00505455*
Y0049276*
X0102616Y00500375D02*
Y0048768D01*
Y00494027*
X01034623*
Y00500375*
Y0048768*
X0112014Y00584195D02*
Y005715D01*
Y00577847*
X01128603*
Y00584195*
Y005715*
X0108458Y00642615D02*
Y0062992D01*
Y00636267*
X01093043*
Y00642615*
Y0062992*
X0099314Y00619755D02*
Y0060706D01*
Y00613407*
X01001603*
Y00619755*
Y0060706*
X0107696Y00713735D02*
Y0070104D01*
Y00707387*
X01085423*
Y00713735*
Y0070104*
X008255Y00873755D02*
Y0086106D01*
Y00867407*
X00833963*
Y00873755*
Y0086106*
X0096012Y00795015D02*
Y0078232D01*
Y00788667*
X00968583*
Y00795015*
Y0078232*
X0090678Y00756915D02*
Y0074422D01*
Y00750567*
X00915243*
Y00756915*
Y0074422*
X009652Y01628135D02*
Y0161544D01*
Y01621787*
X00973663*
Y01628135*
Y0161544*
X009652Y01579875D02*
Y0156718D01*
Y01573527*
X00973663*
Y01579875*
Y0156718*
X009652Y01531615D02*
Y0151892D01*
Y01525267*
X00973663*
Y01531615*
Y0151892*
X009652Y01483355D02*
Y0147066D01*
Y01477007*
X00973663*
Y01483355*
Y0147066*
X009652Y01435095D02*
Y014224D01*
Y01428747*
X00973663*
Y01435095*
Y014224*
X009652Y01386835D02*
Y0137414D01*
Y01380487*
X00973663*
Y01386835*
Y0137414*
X016002Y01371595D02*
Y013589D01*
Y01365247*
X01608663*
Y01371595*
Y013589*
X0164084Y01371595D02*
Y013589D01*
Y01365247*
X01649303*
Y01371595*
Y013589*
X0168148Y01371595D02*
Y013589D01*
Y01365247*
X01689943*
Y01371595*
Y013589*
X0166116Y01396995D02*
Y013843D01*
Y01390647*
X01669623*
Y01396995*
Y013843*
X0161925Y01396995D02*
Y013843D01*
Y01390647*
X01627713*
Y01396995*
Y013843*
X0157734Y01396995D02*
Y013843D01*
Y01390647*
X01585803*
Y01396995*
Y013843*
X0147066Y01369055D02*
Y0135636D01*
Y01362707*
X01479123*
Y01369055*
Y0135636*
X0144018Y01379215D02*
Y0136652D01*
Y01372867*
X01448643*
Y01379215*
Y0136652*
X01541483Y01579875D02*
Y0156718D01*
Y01573527*
X01549947*
Y01579875*
Y0156718*
X016637Y01579875D02*
Y0156718D01*
Y01573527*
X01672163*
Y01579875*
Y0156718*
X016637Y01623055D02*
Y0161036D01*
Y01616707*
X01672163*
Y01623055*
Y0161036*
X016637Y01663695D02*
Y01651D01*
Y01657347*
X01672163*
Y01663695*
Y01651*
X01602591Y01579875D02*
Y0156718D01*
Y01573527*
X01611055*
Y01579875*
Y0156718*
X01602591Y01621785D02*
Y0160909D01*
Y01615437*
X01611055*
Y01621785*
Y0160909*
X01602591Y01663695D02*
Y01651D01*
Y01657347*
X01611055*
Y01663695*
Y01651*
X0155194Y01767835D02*
Y0175514D01*
Y01761487*
X01560403*
Y01767835*
Y0175514*
X0159766Y01767835D02*
Y0175514D01*
Y01761487*
X01606123*
Y01767835*
Y0175514*
X0120396Y01531615D02*
Y0151892D01*
Y01525267*
X01212423*
Y01531615*
Y0151892*
X0125476Y01529075D02*
Y0151638D01*
Y01522727*
X01263223*
Y01529075*
Y0151638*
X0150622Y01719575D02*
Y0170688D01*
Y01713227*
X01514683*
Y01719575*
Y0170688*
X0143002Y01719575D02*
Y0170688D01*
Y01713227*
X01438483*
Y01719575*
Y0170688*
X0134366Y01640835D02*
Y0162814D01*
Y01634487*
X01352123*
Y01640835*
Y0162814*
X0135382Y01610355D02*
Y0159766D01*
Y01604007*
X01362283*
Y01610355*
Y0159766*
X0136144Y01579875D02*
Y0156718D01*
Y01573527*
X01369903*
Y01579875*
Y0156718*
X0135382Y01437635D02*
Y0142494D01*
Y01431287*
X01362283*
Y01437635*
Y0142494*
X01325643Y01422347D02*
Y01409651D01*
Y01415999*
X01334107*
Y01422347*
Y01409651*
X0130556Y01374135D02*
Y0136144D01*
Y01367787*
X01314023*
Y01374135*
Y0136144*
X0127508Y01396995D02*
Y013843D01*
Y01390647*
X01283543*
Y01396995*
Y013843*
X012573Y01437635D02*
Y0142494D01*
Y01431287*
X01265763*
Y01437635*
Y0142494*
X012573Y01470655D02*
Y0145796D01*
Y01464307*
X01265763*
Y01470655*
Y0145796*
X011938Y01483355D02*
Y0147066D01*
Y01477007*
X01202263*
Y01483355*
Y0147066*
X0124206Y01369055D02*
Y0135636D01*
Y01362707*
X01250523*
Y01369055*
Y0135636*
X0118872Y01369055D02*
Y0135636D01*
Y01362707*
X01197183*
Y01369055*
Y0135636*
X0112268Y01369055D02*
Y0135636D01*
Y01362707*
X01131143*
Y01369055*
Y0135636*
X0112268Y01399535D02*
Y0138684D01*
Y01393187*
X01131143*
Y01399535*
Y0138684*
X0118872Y01457955D02*
Y0144526D01*
Y01451607*
X01197183*
Y01457955*
Y0144526*
X0115316Y01457955D02*
Y0144526D01*
Y01451607*
X01161623*
Y01457955*
Y0144526*
X0112268Y01457955D02*
Y0144526D01*
Y01451607*
X01131143*
Y01457955*
Y0144526*
X011176Y01503675D02*
Y0149098D01*
Y01497327*
X01126063*
Y01503675*
Y0149098*
X010795Y01457955D02*
Y0144526D01*
Y01451607*
X01087963*
Y01457955*
Y0144526*
X01032366Y01384295D02*
Y013716D01*
Y01377947*
X0104083*
Y01384295*
Y013716*
X01032366Y01412013D02*
Y01399318D01*
Y01405665*
X0104083*
Y01412013*
Y01399318*
X01032366Y01439732D02*
Y01427036D01*
Y01433384*
X0104083*
Y01439732*
Y01427036*
X01032366Y0146745D02*
Y01454754D01*
Y01461102*
X0104083*
Y0146745*
Y01454754*
X01032366Y01495169D02*
Y01482473D01*
Y01488821*
X0104083*
Y01495169*
Y01482473*
X01032366Y01522887D02*
Y01510191D01*
Y01516539*
X0104083*
Y01522887*
Y01510191*
X01032366Y01550606D02*
Y0153791D01*
Y01544258*
X0104083*
Y01550606*
Y0153791*
X0101346Y01384295D02*
Y013716D01*
Y01377947*
X01021923*
Y01384295*
Y013716*
X0101346Y01412235D02*
Y0139954D01*
Y01405887*
X01021923*
Y01412235*
Y0139954*
X0101346Y01440175D02*
Y0142748D01*
Y01433827*
X01021923*
Y01440175*
Y0142748*
X0101346Y01468115D02*
Y0145542D01*
Y01461767*
X01021923*
Y01468115*
Y0145542*
X0101346Y01496055D02*
Y0148336D01*
Y01489707*
X01021923*
Y01496055*
Y0148336*
X0101346Y01523995D02*
Y015113D01*
Y01517647*
X01021923*
Y01523995*
Y015113*
X0101346Y01551935D02*
Y0153924D01*
Y01545587*
X01021923*
Y01551935*
Y0153924*
X0101346Y01579875D02*
Y0156718D01*
Y01573527*
X01021923*
Y01579875*
Y0156718*
X01031551Y01660387D02*
Y01647691D01*
Y01654039*
X01040015*
Y01660387*
Y01647691*
X010541Y01686555D02*
Y0167386D01*
Y01680207*
X01062563*
Y01686555*
Y0167386*
X010287Y01694175D02*
Y0168148D01*
Y01687827*
X01037163*
Y01694175*
Y0168148*
X0105918Y01819687D02*
Y01806991D01*
Y01813339*
X01067643*
Y01819687*
Y01806991*
X0102616Y01818635D02*
Y0180594D01*
Y01812287*
X01034623*
Y01818635*
Y0180594*
X0109728Y01819905D02*
Y0180721D01*
Y01813557*
X01105743*
Y01819905*
Y0180721*
X0109728Y01793235D02*
Y0178054D01*
Y01786887*
X01105743*
Y01793235*
Y0178054*
X0109728Y01846575D02*
Y0183388D01*
Y01840227*
X01105743*
Y01846575*
Y0183388*
X0105918Y01846139D02*
Y01833443D01*
Y01839791*
X01067643*
Y01846139*
Y01833443*
X0105156Y01894835D02*
Y0188214D01*
Y01888487*
X01060023*
Y01894835*
Y0188214*
X0092456Y01841495D02*
Y018288D01*
Y01835147*
X00933023*
Y01841495*
Y018288*
X0088646Y01785615D02*
Y0177292D01*
Y01779267*
X00894923*
Y01785615*
Y0177292*
X0098552Y01785615D02*
Y0177292D01*
Y01779267*
X00993983*
Y01785615*
Y0177292*
X0105918Y01793235D02*
Y0178054D01*
Y01786887*
X01067643*
Y01793235*
Y0178054*
X0098044Y01770375D02*
Y0175768D01*
Y01764027*
X00988903*
Y01770375*
Y0175768*
X0090424Y01663695D02*
Y01651D01*
Y01657347*
X00912703*
Y01663695*
Y01651*
X0086614Y01628135D02*
Y0161544D01*
Y01621787*
X00874603*
Y01628135*
Y0161544*
X0078486Y01541775D02*
Y0152908D01*
Y01535427*
X00793323*
Y01541775*
Y0152908*
X0047244Y01376675D02*
Y0136398D01*
Y01370327*
X00480903*
Y01376675*
Y0136398*
X00516782Y01376229D02*
Y01363533D01*
Y01369881*
X00525246*
Y01376229*
Y01363533*
X0043688Y01376675D02*
Y0136398D01*
Y01370327*
X00445343*
Y01376675*
Y0136398*
X0041402Y01427475D02*
Y0141478D01*
Y01421127*
X00422483*
Y01427475*
Y0141478*
X008128Y01404615D02*
Y0139192D01*
Y01398267*
X00821263*
Y01404615*
Y0139192*
X00776732Y01404615D02*
Y0139192D01*
Y01398267*
X00785195*
Y01404615*
Y0139192*
X00740664Y01404615D02*
Y0139192D01*
Y01398267*
X00749127*
Y01404615*
Y0139192*
X00704596Y01404615D02*
Y0139192D01*
Y01398267*
X00713059*
Y01404615*
Y0139192*
X00668528Y01404615D02*
Y0139192D01*
Y01398267*
X00676991*
Y01404615*
Y0139192*
X0063246Y01404615D02*
Y0139192D01*
Y01398267*
X00640923*
Y01404615*
Y0139192*
X008128Y01442715D02*
Y0143002D01*
Y01436367*
X00821263*
Y01442715*
Y0143002*
X00704596Y01442715D02*
Y0143002D01*
Y01436367*
X00713059*
Y01442715*
Y0143002*
X00776732Y01442715D02*
Y0143002D01*
Y01436367*
X00785195*
Y01442715*
Y0143002*
X00740664Y01442715D02*
Y0143002D01*
Y01436367*
X00749127*
Y01442715*
Y0143002*
X0088646Y01932935D02*
Y0192024D01*
Y01926587*
X00894923*
Y01932935*
Y0192024*
X0072136Y01932935D02*
Y0192024D01*
Y01926587*
X00729823*
Y01932935*
Y0192024*
X0056134Y01932935D02*
Y0192024D01*
Y01926587*
X00569803*
Y01932935*
Y0192024*
X0069088Y01785615D02*
Y0177292D01*
Y01779267*
X00699343*
Y01785615*
Y0177292*
X0071882Y01785615D02*
Y0177292D01*
Y01779267*
X00727283*
Y01785615*
Y0177292*
X0074676Y01785615D02*
Y0177292D01*
Y01779267*
X00755223*
Y01785615*
Y0177292*
X00746216Y0175924D02*
Y01746544D01*
Y01752892*
X0075468*
Y0175924*
Y01746544*
X00719035Y0175924D02*
Y01746544D01*
Y01752892*
X00727499*
Y0175924*
Y01746544*
X00691854Y0175924D02*
Y01746544D01*
Y01752892*
X00700318*
Y0175924*
Y01746544*
X0066294Y01706875D02*
Y0169418D01*
Y01700527*
X00671403*
Y01706875*
Y0169418*
X00746979Y01708502D02*
Y01695806D01*
Y01702154*
X00755443*
Y01708502*
Y01695806*
X0071628Y01709415D02*
Y0169672D01*
Y01703067*
X00724743*
Y01709415*
Y0169672*
X0063246Y01706875D02*
Y0169418D01*
Y01700527*
X00640923*
Y01706875*
Y0169418*
X0059944Y01706875D02*
Y0169418D01*
Y01700527*
X00607903*
Y01706875*
Y0169418*
X0059182Y01559555D02*
Y0154686D01*
Y01553207*
X00600283*
Y01559555*
Y0154686*
X0062484Y01584955D02*
Y0157226D01*
Y01578607*
X00633303*
Y01584955*
Y0157226*
X005334Y01579875D02*
Y0156718D01*
Y01573527*
X00541863*
Y01579875*
Y0156718*
X0050546Y01529075D02*
Y0151638D01*
Y01522727*
X00513923*
Y01529075*
Y0151638*
X0046482Y01506215D02*
Y0149352D01*
Y01499867*
X00473283*
Y01506215*
Y0149352*
X0047244Y01549395D02*
Y015367D01*
Y01543047*
X00480903*
Y01549395*
Y015367*
X0048006Y01661155D02*
Y0164846D01*
Y01654807*
X00488523*
Y01661155*
Y0164846*
X0051054Y01752595D02*
Y017399D01*
Y01746247*
X00519003*
Y01752595*
Y017399*
X005207Y01696715D02*
Y0168402D01*
Y01690367*
X00529163*
Y01696715*
Y0168402*
X0124714Y01496055D02*
X01251371D01*
X01249255*
Y0148336*
X0124714*
X01251371*
X0135636Y01765295D02*
Y017526D01*
Y01758947*
X01364823*
Y01765295*
Y017526*
X0087884Y01760215D02*
X00883071D01*
X00880955*
Y0174752*
X0087884*
X00883071*
X0105156Y00431795D02*
Y004191D01*
Y00423331*
X01060023Y00431795*
X01053675Y00425447*
X01060023Y004191*
X0096774Y00246375D02*
Y0023368D01*
Y00237911*
X00976203Y00246375*
X00969855Y00240027*
X00976203Y0023368*
X0034245Y01406706D02*
X00346682D01*
X00344566*
Y0139401*
X0034245*
X00346682*
X00455503Y00563875D02*
X00451271D01*
X00453387*
Y00553295*
X00451271Y0055118*
X00449155*
X0044704Y00553295*
X00381Y00871215D02*
Y0085852D01*
Y00862751*
X00389463Y00871215*
X00383115Y00864867*
X00389463Y0085852*
X0087122Y00655315D02*
Y0064262D01*
Y00646851*
X00879683Y00655315*
X00873335Y00648967*
X00879683Y0064262*
X0097536Y00386075D02*
X00979591D01*
X00977475*
Y0037338*
X0097536*
X00979591*
X0082804Y00647695D02*
X00832271D01*
X00830155*
Y00635*
X0082804*
X00832271*
X013716Y00934715D02*
X01375831D01*
X01373715*
Y0092202*
X013716*
X01375831*
X013716Y00886455D02*
X01375831D01*
X01373715*
Y0087376*
X013716*
X01375831*
X0146304Y01521455D02*
X01467271D01*
X01465155*
Y0150876*
X0146304*
X01467271*
X0150876Y01437635D02*
X01512991D01*
X01510875*
Y0142494*
X0150876*
X01512991*
X0150622Y01478275D02*
X01510451D01*
X01508335*
Y0146558*
X0150622*
X01510451*
X0150876Y01518915D02*
X01512991D01*
X01510875*
Y0150622*
X0150876*
X01512991*
X0147066Y01546855D02*
X01474891D01*
X01472775*
Y0153416*
X0147066*
X01474891*
X0149606Y0157543D02*
X01500291D01*
X01498175*
Y01562735*
X0149606*
X01500291*
X0104648Y00726435D02*
X01050711D01*
X01048595*
Y0071374*
X0104648*
X01050711*
X0106426Y00728975D02*
X01068491D01*
X01066375*
Y0071628*
X0106426*
X01068491*
X0140462Y01508755D02*
X01408851D01*
X01406735*
Y0149606*
X0140462*
X01408851*
X0104902Y01602735D02*
X01053251D01*
X01051135*
Y0159004*
X0104902*
X01053251*
X0115316Y01605275D02*
X01157391D01*
X01155275*
Y0159258*
X0115316*
X01157391*
X0108458Y01605275D02*
X01088811D01*
X01086695*
Y0159258*
X0108458*
X01088811*
X0130302Y01582415D02*
X01307251D01*
X01305135*
Y0156972*
X0130302*
X01307251*
X0066294Y01610355D02*
X00667171D01*
X00665055*
Y0159766*
X0066294*
X00667171*
X0055372Y01625595D02*
X00557951D01*
X00555835*
Y016129*
X0055372*
X00557951*
X0073406Y01549395D02*
X00738291D01*
X00736175*
Y015367*
X0073406*
X00738291*
X0053594Y01539235D02*
X00540171D01*
X00538055*
Y0152654*
X0053594*
X00540171*
X006096Y01506215D02*
X00613831D01*
X00611715*
Y0149352*
X006096*
X00613831*
X0055372Y01602735D02*
X00557951D01*
X00555835*
Y0159004*
X0055372*
X00557951*
X003429Y01386835D02*
X00347131D01*
X00345015*
Y0137414*
X003429*
X00347131*
X01257259Y01062022D02*
X01261491D01*
X01259375*
Y01049326*
X01257259*
X01261491*
X01197689Y01169362D02*
X01201921D01*
X01199805*
Y01156666*
X01197689*
X01201921*
X01248815Y01154019D02*
X01253047D01*
X01250931*
Y01141323*
X01248815*
X01253047*
X0127Y00980435D02*
X01274231D01*
X01272115*
Y0096774*
X0127*
X01274231*
X0160528Y00817875D02*
X01609511D01*
X01607395*
Y0080518*
X0160528*
X01609511*
X010414Y00848355D02*
X01045631D01*
X01043515*
Y0083566*
X010414*
X01045631*
X0085299Y00875426D02*
X00857222D01*
X00855106*
Y0086273*
X0085299*
X00857222*
X0090932Y00789935D02*
X00913551D01*
X00911435*
Y0077724*
X0090932*
X00913551*
X0077978Y00723895D02*
X00784011D01*
X00781895*
Y007112*
X0077978*
X00784011*
X0023622Y00347975D02*
X00240451D01*
X00238335*
Y0033528*
X0023622*
X00240451*
X0023622Y00414691D02*
X00240451D01*
X00238335*
Y00401995*
X0023622*
X00240451*
X0023622Y00481407D02*
X00240451D01*
X00238335*
Y00468712*
X0023622*
X00240451*
X0023622Y00548124D02*
X00240451D01*
X00238335*
Y00535428*
X0023622*
X00240451*
X0023622Y0061484D02*
X00240451D01*
X00238335*
Y00602144*
X0023622*
X00240451*
X0023622Y00681556D02*
X00240451D01*
X00238335*
Y0066886*
X0023622*
X00240451*
X0023622Y00748272D02*
X00240451D01*
X00238335*
Y00735576*
X0023622*
X00240451*
X0023622Y00814989D02*
X00240451D01*
X00238335*
Y00802293*
X0023622*
X00240451*
X0023622Y00881705D02*
X00240451D01*
X00238335*
Y00869009*
X0023622*
X00240451*
X0023622Y00948421D02*
X00240451D01*
X00238335*
Y00935725*
X0023622*
X00240451*
X0023622Y01015137D02*
X00240451D01*
X00238335*
Y01002441*
X0023622*
X00240451*
X0023622Y01081854D02*
X00240451D01*
X00238335*
Y01069158*
X0023622*
X00240451*
X0023622Y0114857D02*
X00240451D01*
X00238335*
Y01135874*
X0023622*
X00240451*
X0023622Y01215286D02*
X00240451D01*
X00238335*
Y0120259*
X0023622*
X00240451*
X0023622Y01282002D02*
X00240451D01*
X00238335*
Y01269306*
X0023622*
X00240451*
X0023622Y01348719D02*
X00240451D01*
X00238335*
Y01336023*
X0023622*
X00240451*
X0023622Y01415435D02*
X00240451D01*
X00238335*
Y01402739*
X0023622*
X00240451*
X0023622Y01482151D02*
X00240451D01*
X00238335*
Y01469455*
X0023622*
X00240451*
X0023622Y01548867D02*
X00240451D01*
X00238335*
Y01536171*
X0023622*
X00240451*
X0023622Y01615584D02*
X00240451D01*
X00238335*
Y01602888*
X0023622*
X00240451*
X0055626Y01176015D02*
X00560491D01*
X00558375*
Y0116332*
X0055626*
X00560491*
X0047752Y01082035D02*
X00481751D01*
X00479635*
Y0106934*
X0047752*
X00481751*
X0041656Y01082035D02*
X00420791D01*
X00418675*
Y0106934*
X0041656*
X00420791*
X0057912Y00881375D02*
X00583351D01*
X00581235*
Y0086868*
X0057912*
X00583351*
X003429Y00759455D02*
X00347131D01*
X00345015*
Y0074676*
X003429*
X00347131*
X003429Y00815335D02*
X00347131D01*
X00345015*
Y0080264*
X003429*
X00347131*
X003429Y00868675D02*
X00347131D01*
X00345015*
Y0085598*
X003429*
X00347131*
X005715Y00177795D02*
X00575731D01*
X00573615*
Y001651*
X005715*
X00575731*
X0049784Y00177795D02*
X00502071D01*
X00499955*
Y001651*
X0049784*
X00502071*
X0042418Y00177795D02*
X00428411D01*
X00426295*
Y001651*
X0042418*
X00428411*
X0035052Y00177795D02*
X00354751D01*
X00352635*
Y001651*
X0035052*
X00354751*
X0032258Y00304795D02*
X00326811D01*
X00324695*
Y002921*
X0032258*
X00326811*
X0032258Y00363215D02*
X00326811D01*
X00324695*
Y0035052*
X0032258*
X00326811*
X0032258Y00421635D02*
X00326811D01*
X00324695*
Y0040894*
X0032258*
X00326811*
X0032258Y00480055D02*
X00326811D01*
X00324695*
Y0046736*
X0032258*
X00326811*
X0130048Y00731515D02*
X01304711D01*
X01302595*
Y0071882*
X0130048*
X01304711*
X0095504Y00162555D02*
X00959271D01*
X00957155*
Y0014986*
X0095504*
X00959271*
X0089662Y00162555D02*
X00900851D01*
X00898735*
Y0014986*
X0089662*
X00900851*
X008382Y00162555D02*
X00842431D01*
X00840315*
Y0014986*
X008382*
X00842431*
X01235459Y00200655D02*
X01239691D01*
X01237575*
Y0018796*
X01235459*
X01239691*
X0115062Y00200655D02*
X01154851D01*
X01152735*
Y0018796*
X0115062*
X01154851*
X0159766Y00549135D02*
X01601891D01*
X01599775*
Y00536439*
X0159766*
X01601891*
X0137668Y00535935D02*
X01380911D01*
X01378795*
Y0052324*
X0137668*
X01380911*
X0167894Y00398775D02*
X01683171D01*
X01681055*
Y0038608*
X0167894*
X01683171*
X0148844Y00380995D02*
X01492671D01*
X01490555*
Y003683*
X0148844*
X01492671*
X0132588Y00380995D02*
X01330111D01*
X01327995*
Y003683*
X0132588*
X01330111*
X0164592Y00467355D02*
X01650151D01*
X01648035*
Y0045466*
X0164592*
X01650151*
X0155702Y00477515D02*
X01561251D01*
X01559135*
Y0046482*
X0155702*
X01561251*
X0145034Y00474975D02*
X01454571D01*
X01452455*
Y0046228*
X0145034*
X01454571*
X0132334Y00596895D02*
X01327571D01*
X01325455*
Y005842*
X0132334*
X01327571*
X0167894Y00704422D02*
X01683171D01*
X01681055*
Y00691726*
X0167894*
X01683171*
X0168148Y00802635D02*
X01685711D01*
X01683595*
Y0078994*
X0168148*
X01685711*
X0167894Y00909315D02*
X01683171D01*
X01681055*
Y0089662*
X0167894*
X01683171*
X0167894Y01011761D02*
X01683171D01*
X01681055*
Y00999066*
X0167894*
X01683171*
X0167894Y01114208D02*
X01683171D01*
X01681055*
Y01101512*
X0167894*
X01683171*
X0167894Y01216655D02*
X01683171D01*
X01681055*
Y0120396*
X0167894*
X01683171*
X0167894Y01319101D02*
X01683171D01*
X01681055*
Y01306406*
X0167894*
X01683171*
X0160528Y00857668D02*
X01609511D01*
X01607395*
Y00844972*
X0160528*
X01609511*
X0160528Y00904235D02*
X01609511D01*
X01607395*
Y0089154*
X0160528*
X01609511*
X0160528Y00937255D02*
X01609511D01*
X01607395*
Y0092456*
X0160528*
X01609511*
X0160528Y00977048D02*
X01609511D01*
X01607395*
Y00964352*
X0160528*
X01609511*
X0160274Y01193795D02*
X01606971D01*
X01604855*
Y011811*
X0160274*
X01606971*
X0160528Y01120135D02*
X01609511D01*
X01607395*
Y0110744*
X0160528*
X01609511*
X0160528Y01056635D02*
X01609511D01*
X01607395*
Y0104394*
X0160528*
X01609511*
X0160528Y01008375D02*
X01609511D01*
X01607395*
Y0099568*
X0160528*
X01609511*
X01098608Y01090925D02*
X0110284D01*
X01100724*
Y0107823*
X01098608*
X0110284*
X011049Y01033775D02*
X01109131D01*
X01107015*
Y0102108*
X011049*
X01109131*
X0115031Y01048294D02*
X01154542D01*
X01152426*
Y01035598*
X0115031*
X01154542*
X00694263Y00665269D02*
X00690031D01*
X00692147*
Y00654689*
X00690031Y00652573*
X00687915*
X006858Y00654689*
X00643868Y00666285D02*
X00639636D01*
X00641752*
Y00655705*
X00639636Y00653589*
X0063752*
X00635404Y00655705*
X01188074Y01059175D02*
X01192306D01*
X0119019*
Y0104648*
X01188074*
X01192306*
X0119634Y01085885D02*
X01200571D01*
X01198455*
Y01073189*
X0119634*
X01200571*
X01202729Y01177905D02*
X01206961D01*
X01204845*
Y01165209*
X01202729*
X01206961*
X0046736Y00718815D02*
Y0070612D01*
Y00712467*
X00475823*
Y00718815*
Y0070612*
X0048006Y00708655D02*
Y0069596D01*
Y00702307*
X00488523*
Y00708655*
Y0069596*
X006604Y00596895D02*
Y005842D01*
Y00590547*
X00668863*
Y00596895*
Y005842*
X0071374Y00662935D02*
Y0065024D01*
Y00656587*
X00722203*
Y00662935*
Y0065024*
X0025146Y01844035D02*
Y0183134D01*
Y01837687*
X00259923*
Y01844035*
Y0183134*
X0031496Y01821175D02*
Y0180848D01*
Y01814827*
X00323423*
Y01821175*
Y0180848*
X0036322Y01897375D02*
Y0188468D01*
Y01891027*
X00371683*
Y01897375*
Y0188468*
X0036322Y01912615D02*
Y0189992D01*
Y01906267*
X00371683*
Y01912615*
Y0189992*
X0036322Y01927855D02*
Y0191516D01*
Y01921507*
X00371683*
Y01927855*
Y0191516*
X0036322Y01882135D02*
Y0186944D01*
Y01875787*
X00371683*
Y01882135*
Y0186944*
X0039116Y01798315D02*
Y0178562D01*
Y01791967*
X00399623*
Y01798315*
Y0178562*
X0090424Y01102355D02*
X00908471D01*
X00906355*
Y0108966*
X0090424*
X00908471*
X0102616Y01010915D02*
X01030391D01*
X01028275*
Y0099822*
X0102616*
X01030391*
X0105664Y01041395D02*
X01060871D01*
X01058755*
Y010287*
X0105664*
X01060871*
X0118618Y00998215D02*
X01190411D01*
X01188295*
Y0098552*
X0118618*
X01190411*
X0115316Y01290315D02*
X01157391D01*
X01155275*
Y0127762*
X0115316*
X01157391*
X010541Y01290315D02*
X01058331D01*
X01056215*
Y0127762*
X010541*
X01058331*
X0103124Y01287775D02*
X01035471D01*
X01033355*
Y0127508*
X0103124*
X01035471*
X0143764Y01282695D02*
X01441871D01*
X01439755*
Y0127*
X0143764*
X01441871*
X0152654Y01285235D02*
X01530771D01*
X01528655*
Y0127254*
X0152654*
X01530771*
X0110744Y00886455D02*
X01111671D01*
X01109555*
Y0087376*
X0110744*
X01111671*
X0134366Y00855975D02*
X01347891D01*
X01345775*
Y0084328*
X0134366*
X01347891*
X0117602Y00927095D02*
X01180251D01*
X01178135*
Y009144*
X0117602*
X01180251*
X013208Y00965195D02*
X01325031D01*
X01322915*
Y009525*
X013208*
X01325031*
X0138684Y01173475D02*
X01391071D01*
X01388955*
Y0116078*
X0138684*
X01391071*
X0161544Y00645155D02*
X01619671D01*
X01617555*
Y0063246*
X0161544*
X01619671*
X0130048Y00533395D02*
X01304711D01*
X01302595*
Y005207*
X0130048*
X01304711*
X0151892Y00175255D02*
X01523151D01*
X01521035*
Y0016256*
X0151892*
X01523151*
X0146304Y00269235D02*
X01467271D01*
X01465155*
Y0025654*
X0146304*
X01467271*
X013208Y00200155D02*
X01325031D01*
X01322915*
Y00187459*
X013208*
X01325031*
X0124206Y00634995D02*
X01246291D01*
X01244175*
Y006223*
X0124206*
X01246291*
X0078486Y00533395D02*
X00789091D01*
X00786975*
Y005207*
X0078486*
X00789091*
X0080264Y00561335D02*
X00806871D01*
X00804755*
Y0054864*
X0080264*
X00806871*
X008763Y00604515D02*
X00880531D01*
X00878415*
Y0059182*
X008763*
X00880531*
X0087376Y00761995D02*
X00877991D01*
X00875875*
Y007493*
X0087376*
X00877991*
X0077978Y00657855D02*
X00784011D01*
X00781895*
Y0064516*
X0077978*
X00784011*
X0074676Y00703575D02*
X00750991D01*
X00748875*
Y0069088*
X0074676*
X00750991*
X0054102Y00680715D02*
X00545251D01*
X00543135*
Y0066802*
X0054102*
X00545251*
X0049276Y00767075D02*
X00496991D01*
X00494875*
Y0075438*
X0049276*
X00496991*
X0064262Y00769615D02*
X00646851D01*
X00644735*
Y0075692*
X0064262*
X00646851*
X0075184Y00792475D02*
X00756071D01*
X00753955*
Y0077978*
X0075184*
X00756071*
X0114808Y00995675D02*
X01152311D01*
X01150195*
Y0098298*
X0114808*
X01152311*
X0109728Y00982975D02*
X01101511D01*
X01099395*
Y0097028*
X0109728*
X01101511*
X01096583Y00973355D02*
X01100815D01*
X01098698*
Y00960659*
X01096583*
X01100815*
X0114808Y00965848D02*
X01152311D01*
X01150195*
Y00953153*
X0114808*
X01152311*
X00664525Y01171018D02*
X00668756D01*
X0066664*
Y01158322*
X00664525*
X00668756*
X006477Y01173475D02*
X00651931D01*
X00649815*
Y0116078*
X006477*
X00651931*
X00723013Y00243835D02*
X00718781D01*
X00720897*
Y00233255*
X00718781Y0023114*
X00716665*
X00714549Y00233255*
X00750143Y00228595D02*
X00745911D01*
X00748027*
Y00218015*
X00745911Y002159*
X00743795*
X0074168Y00218015*
X0098552Y00226055D02*
X00989751D01*
X00987635*
Y0021336*
X0098552*
X00989751*
X0116586Y00614675D02*
X01170091D01*
X01167975*
Y0060198*
X0116586*
X01170091*
X01224839Y01185415D02*
X01229071D01*
X01226955*
Y01172719*
X01224839*
X01229071*
X0122682Y01198875D02*
X01231051D01*
X01228935*
Y0118618*
X0122682*
X01231051*
X01200583Y01225357D02*
X01204815D01*
X01202699*
Y01212662*
X01200583*
X01204815*
X01166749Y01180205D02*
X01170981D01*
X01168865*
Y01167509*
X01166749*
X01170981*
X0106426Y01125215D02*
X01068491D01*
X01066375*
Y0111252*
X0106426*
X01068491*
X010795Y01142995D02*
X01083731D01*
X01081615*
Y011303*
X010795*
X01083731*
X0108204Y01135375D02*
X01086271D01*
X01084155*
Y0112268*
X0108204*
X01086271*
X0095504Y00637535D02*
X00959271D01*
X00957155*
Y0062484*
X0095504*
X00959271*
X00831423Y00807295D02*
X00827191D01*
X00829307*
Y00796715*
X00827191Y00794599*
X00825075*
X0082296Y00796715*
X0076708Y00852205D02*
X00771311D01*
X00769195*
Y00839509*
X0076708*
X00771311*
X00826806Y00839502D02*
X00831038D01*
X00828922*
Y00826806*
X00826806*
X00831038*
X00811267Y00807473D02*
X00807035D01*
X00809151*
Y00796893*
X00807035Y00794777*
X00804919*
X00802803Y00796893*
X0082042Y00975355D02*
X00824651D01*
X00822535*
Y0096266*
X0082042*
X00824651*
X00846001Y00948469D02*
X00850233D01*
X00848117*
Y00935773*
X00846001*
X00850233*
X0085344Y00949955D02*
X00857671D01*
X00855555*
Y0093726*
X0085344*
X00857671*
X00932561Y00928364D02*
X00936794D01*
X00934677*
Y00915668*
X00932561*
X00936794*
X00910995Y00917822D02*
X00915227D01*
X00913111*
Y00905126*
X00910995*
X00915227*
X00902935Y00916946D02*
X00907167D01*
X00905051*
Y0090425*
X00902935*
X00907167*
X00884547Y00912926D02*
X00888778D01*
X00886662*
Y0090023*
X00884547*
X00888778*
X00894258Y00915453D02*
X0089849D01*
X00896374*
Y00902757*
X00894258*
X0089849*
X00875517Y00911081D02*
X00879749D01*
X00877633*
Y00898385*
X00875517*
X00879749*
X00868897Y00981521D02*
X00873129D01*
X00871013*
Y00968825*
X00868897*
X00873129*
X00892158Y01014628D02*
X0089639D01*
X00894274*
Y01001932*
X00892158*
X0089639*
X00890453Y01007283D02*
X00894685D01*
X00892569*
Y00994587*
X00890453*
X00894685*
X00822341Y00955653D02*
X00826573D01*
X00824457*
Y00942957*
X00822341*
X00826573*
X00894341Y01023874D02*
X00898573D01*
X00896457*
Y01011178*
X00894341*
X00898573*
X00945236Y00931103D02*
X00949468D01*
X00947352*
Y00918407*
X00945236*
X00949468*
X009525Y00891535D02*
X00956731D01*
X00954615*
Y0087884*
X009525*
X00956731*
X009652Y00876295D02*
X00969431D01*
X00967315*
Y008636*
X009652*
X00969431*
X0102362Y00894075D02*
X01027851D01*
X01025735*
Y0088138*
X0102362*
X01027851*
X00981169Y00902925D02*
X00985401D01*
X00983285*
Y00890229*
X00981169*
X00985401*
X00731279Y01168395D02*
X00735511D01*
X00733395*
Y011557*
X00731279*
X00735511*
X00719663Y006115D02*
X00715431D01*
X00717547*
Y0060092*
X00715431Y00598805*
X00713315*
X007112Y0060092*
X0094234Y00756915D02*
X00946571D01*
X00944455*
Y0074422*
X0094234*
X00946571*
X007239Y00561335D02*
X00728131D01*
X00726015*
Y0054864*
X007239*
X00728131*
X0080518Y00718815D02*
X00809411D01*
X00807295*
Y0070612*
X0080518*
X00809411*
X0121666Y00431795D02*
X01220891D01*
X01218775*
Y004191*
X0121666*
X01220891*
X012573Y00386075D02*
X01261531D01*
X01259415*
Y0037338*
X012573*
X01261531*
X0117348Y00785725D02*
X01177711D01*
X01175595*
Y00773029*
X0117348*
X01177711*
X00539323Y00596895D02*
X00535091D01*
X00537207*
Y00586315*
X00535091Y005842*
X00532975*
X0053086Y00586315*
X00553657Y00607769D02*
X00549425D01*
X00551541*
Y00597189*
X00549425Y00595073*
X00547309*
X00545193Y00597189*
X0048006Y00607055D02*
X00484291D01*
X00482175*
Y0059436*
X0048006*
X00484291*
X004953Y00688335D02*
X00499531D01*
X00497415*
Y0067564*
X004953*
X00499531*
X00579963Y00772457D02*
X00575731D01*
X00577847*
Y00761877*
X00575731Y00759761*
X00573615*
X005715Y00761877*
X00666805Y00772637D02*
X00662573D01*
X00664689*
Y00762057*
X00662573Y00759941*
X00660458*
X00658342Y00762057*
X00556403Y00772457D02*
X00552171D01*
X00554286*
Y00761877*
X00552171Y00759761*
X00550055*
X00547939Y00761877*
X00592663Y00772457D02*
X00588431D01*
X00590547*
Y00761877*
X00588431Y00759761*
X00586315*
X005842Y00761877*
X00567263Y00772457D02*
X00563031D01*
X00565147*
Y00761877*
X00563031Y00759761*
X00560915*
X005588Y00761877*
X00623143Y00655315D02*
X00618911D01*
X00621027*
Y00644735*
X00618911Y0064262*
X00616795*
X0061468Y00644735*
X00638383Y00767075D02*
X00634151D01*
X00636267*
Y00756495*
X00634151Y0075438*
X00632035*
X0062992Y00756495*
X00791643Y00850059D02*
X00795875D01*
X00793759*
Y00837363*
X00791643*
X00795875*
X00777521Y00869239D02*
X00781753D01*
X00779637*
Y00856543*
X00777521*
X00781753*
X0084328Y00835655D02*
X00847511D01*
X00845395*
Y0082296*
X0084328*
X00847511*
X01371165Y00975789D02*
X01375397D01*
X01373281*
Y00963093*
X01371165*
X01375397*
X012954Y01343655D02*
X01299631D01*
X01297515*
Y0133096*
X012954*
X01299631*
X0131826Y01130295D02*
X01322491D01*
X01320375*
Y011176*
X0131826*
X01322491*
X0132334Y01137915D02*
X01327571D01*
X01325455*
Y0112522*
X0132334*
X01327571*
X00762Y01162085D02*
X00766231D01*
X00764115*
Y01149389*
X00762*
X00766231*
X008128Y01170935D02*
X00817031D01*
X00814915*
Y0115824*
X008128*
X00817031*
X00824109Y0114812D02*
X00828341D01*
X00826225*
Y01135424*
X00824109*
X00828341*
X0082042Y01160708D02*
X00824651D01*
X00822535*
Y01148012*
X0082042*
X00824651*
X008636Y01160775D02*
X00867831D01*
X00865715*
Y0114808*
X008636*
X00867831*
X0096774Y01130295D02*
X00971971D01*
X00969855*
Y011176*
X0096774*
X00971971*
X0111252Y01203955D02*
X01116751D01*
X01114635*
Y0119126*
X0111252*
X01116751*
X01098431Y01211055D02*
X01102663D01*
X01100547*
Y01198359*
X01098431*
X01102663*
X0072898Y01076955D02*
X00733211D01*
X00731095*
Y0106426*
X0072898*
X00733211*
X00796249Y01135174D02*
X00800481D01*
X00798365*
Y01122478*
X00796249*
X00800481*
X00791169Y01092195D02*
X00795401D01*
X00793285*
Y010795*
X00791169*
X00795401*
X00825339Y01107435D02*
X00829571D01*
X00827455*
Y0109474*
X00825339*
X00829571*
X00855522Y01153612D02*
X00859754D01*
X00857638*
Y01140916*
X00855522*
X00859754*
X00871871Y01134723D02*
X00876103D01*
X00873987*
Y01122027*
X00871871*
X00876103*
X0086614Y01092195D02*
X00870371D01*
X00868255*
Y010795*
X0086614*
X00870371*
X0088646Y01102355D02*
X00890691D01*
X00888575*
Y0108966*
X0088646*
X00890691*
X00843199Y0116632D02*
X00847431D01*
X00845315*
Y01153624*
X00843199*
X00847431*
X00830139Y01128551D02*
X00834371D01*
X00832255*
Y01115855*
X00830139*
X00834371*
X0078328Y01026155D02*
X00787512D01*
X00785396*
Y0101346*
X0078328*
X00787512*
X0074422Y01056635D02*
X00748451D01*
X00746335*
Y0104394*
X0074422*
X00748451*
X0071628Y01046475D02*
X00720511D01*
X00718395*
Y0103378*
X0071628*
X00720511*
X0078836Y01066795D02*
X00792592D01*
X00790476*
Y010541*
X0078836*
X00792592*
X00819029Y01092295D02*
X00823261D01*
X00821145*
Y01079599*
X00819029*
X00823261*
X00986749Y01236895D02*
X00990981D01*
X00988865*
Y01224199*
X00986749*
X00990981*
X0097028Y01229355D02*
X00974511D01*
X00972395*
Y0121666*
X0097028*
X00974511*
X009525Y01214115D02*
X00956731D01*
X00954615*
Y0120142*
X009525*
X00956731*
X0094996Y01226815D02*
X00954191D01*
X00952075*
Y0121412*
X0094996*
X00954191*
X00939147Y01228703D02*
X00943379D01*
X00941263*
Y01216007*
X00939147*
X00943379*
X0089662Y00886455D02*
X00900851D01*
X00898735*
Y0087376*
X0089662*
X00900851*
X01191836Y01221076D02*
X01196068D01*
X01193952*
Y0120838*
X01191836*
X01196068*
X01184257Y01212837D02*
X01188489D01*
X01186373*
Y01200141*
X01184257*
X01188489*
X01194051Y01053843D02*
X01198282D01*
X01196167*
Y01041147*
X01194051*
X01198282*
X0110236Y01129065D02*
X01106591D01*
X01104475*
Y01116369*
X0110236*
X01106591*
X0119126Y01163315D02*
X01195491D01*
X01193375*
Y0115062*
X0119126*
X01195491*
X0112522Y00942662D02*
X01129451D01*
X01127335*
Y00929966*
X0112522*
X01129451*
X0116332Y00965848D02*
X01167551D01*
X01165435*
Y00953153*
X0116332*
X01167551*
X01143Y00943068D02*
X01147231D01*
X01145115*
Y00930373*
X01143*
X01147231*
X01143Y00934715D02*
X01147231D01*
X01145115*
Y0092202*
X01143*
X01147231*
X01221213Y00978468D02*
X01225445D01*
X01223329*
Y00965772*
X01221213*
X01225445*
X0124968Y01046475D02*
X01253911D01*
X01251795*
Y0103378*
X0124968*
X01253911*
X010795Y00955035D02*
X01083731D01*
X01081615*
Y0094234*
X010795*
X01083731*
X0110744Y01008375D02*
X01111671D01*
X01109555*
Y0099568*
X0110744*
X01111671*
X011049Y01021075D02*
X01109131D01*
X01107015*
Y0100838*
X011049*
X01109131*
X0103124Y01092195D02*
X01035471D01*
X01033355*
Y010795*
X0103124*
X01035471*
X011049Y01115055D02*
X01109131D01*
X01107015*
Y0110236*
X011049*
X01109131*
X01103047Y00605635D02*
X01107279D01*
X01105163*
Y0059294*
X01103047*
X01107279*
X01104996Y00612919D02*
X01109228D01*
X01107112*
Y00600223*
X01104996*
X01109228*
X01101049Y00634995D02*
X01105281D01*
X01103165*
Y006223*
X01101049*
X01105281*
X0109474Y00619755D02*
X01098971D01*
X01096855*
Y0060706*
X0109474*
X01098971*
X01137045Y00612497D02*
X01141277D01*
X01139161*
Y00599801*
X01137045*
X01141277*
X01149985Y00607684D02*
X01154218D01*
X01152102*
Y00594988*
X01149985*
X01154218*
X01122245Y00622729D02*
X01126477D01*
X01124361*
Y00610033*
X01122245*
X01126477*
X01113749Y00622362D02*
X01117981D01*
X01115865*
Y00609666*
X01113749*
X01117981*
X0104394Y00210815D02*
X01048171D01*
X01046055*
Y0019812*
X0104394*
X01048171*
X01161397Y00601357D02*
X01165629D01*
X01163513*
Y00588661*
X01161397*
X01165629*
X01163353Y00589241D02*
X01167585D01*
X01165469*
Y00576546*
X01163353*
X01167585*
X01142288Y00627654D02*
X0114652D01*
X01144404*
Y00614958*
X01142288*
X0114652*
X01154469Y00622729D02*
X01158701D01*
X01156585*
Y00610033*
X01154469*
X01158701*
X01133457Y00626757D02*
X01137689D01*
X01135573*
Y00614061*
X01133457*
X01137689*
X01075029Y00756915D02*
X01070797D01*
X01072913*
Y00746335*
X01070797Y0074422*
X01068681*
X01066565Y00746335*
X00682179Y00657855D02*
X00677947D01*
X00680063*
Y00647275*
X00677947Y0064516*
X00675831*
X00673715Y00647275*
X01044783Y00718815D02*
X01040551D01*
X01042667*
Y00708235*
X01040551Y0070612*
X01038435*
X0103632Y00708235*
X00805344Y00939117D02*
X00809576D01*
X0080746*
Y00926421*
X00805344*
X00809576*
X00841542Y00894878D02*
X00845774D01*
X00843658*
Y00882182*
X00841542*
X00845774*
X00829927Y00906123D02*
X00834159D01*
X00832043*
Y00893427*
X00829927*
X00834159*
X00817227Y00918823D02*
X00821459D01*
X00819343*
Y00906127*
X00817227*
X00821459*
X00807054Y00926497D02*
X00811285D01*
X0080917*
Y00913801*
X00807054*
X00811285*
X008382Y00881375D02*
X00842431D01*
X00840315*
Y0086868*
X008382*
X00842431*
X0080772Y00910545D02*
X00811951D01*
X00809835*
Y00897849*
X0080772*
X00811951*
X0083312Y00896615D02*
X00837351D01*
X00835235*
Y0088392*
X0083312*
X00837351*
X0082296Y00899155D02*
X00827191D01*
X00825075*
Y0088646*
X0082296*
X00827191*
X00862327Y00900427D02*
X00866559D01*
X00864443*
Y00887731*
X00862327*
X00866559*
X00820243Y00848179D02*
X00824475D01*
X00822359*
Y00835483*
X00820243*
X00824475*
X00685638Y0087275D02*
X00681406D01*
X00683522*
Y0086217*
X00681406Y00860054*
X0067929*
X00677174Y0086217*
X0082376Y00987183D02*
X00827992D01*
X00825876*
Y00974487*
X0082376*
X00827992*
X0103378Y00888995D02*
X01038011D01*
X01035895*
Y008763*
X0103378*
X01038011*
X01015314Y0088069D02*
X01019546D01*
X0101743*
Y00867994*
X01015314*
X01019546*
X01050249Y00919475D02*
X01054481D01*
X01052365*
Y0090678*
X01050249*
X01054481*
X01039079Y00870995D02*
X01043311D01*
X01041195*
Y00858299*
X01039079*
X01043311*
X01006277Y01132397D02*
X01010509D01*
X01008393*
Y01119701*
X01006277*
X01010509*
X0109474Y01193354D02*
X01098971D01*
X01096855*
Y01180659*
X0109474*
X01098971*
X0089154Y00869905D02*
X00895771D01*
X00893655*
Y00857209*
X0089154*
X00895771*
X00989947Y00879487D02*
X00994179D01*
X00992063*
Y00866791*
X00989947*
X00994179*
X00997567Y00887107D02*
X01001799D01*
X00999683*
Y00874411*
X00997567*
X01001799*
X01016312Y00935535D02*
X01020544D01*
X01018428*
Y00922839*
X01016312*
X01020544*
X0116586Y01200185D02*
X01170091D01*
X01167975*
Y01187489*
X0116586*
X01170091*
X00976669Y00924555D02*
X00980901D01*
X00978785*
Y0091186*
X00976669*
X00980901*
X00958889Y00922015D02*
X00963121D01*
X00961005*
Y0090932*
X00958889*
X00963121*
X00974049Y00916935D02*
X00978281D01*
X00976165*
Y0090424*
X00974049*
X00978281*
X00640923Y00591815D02*
X00636691D01*
X00638807*
Y00581235*
X00636691Y0057912*
X00634575*
X0063246Y00581235*
X00592663Y00604515D02*
X00588431D01*
X00590547*
Y00593935*
X00588431Y0059182*
X00586315*
X005842Y00593935*
X00579963Y00604515D02*
X00575731D01*
X00577847*
Y00593935*
X00575731Y0059182*
X00573615*
X005715Y00593935*
X00605363Y00574035D02*
X00601131D01*
X00603247*
Y00563455*
X00601131Y0056134*
X00599015*
X005969Y00563455*
X00389463Y01066795D02*
X00385231D01*
X00387347*
Y01056215*
X00385231Y010541*
X00383115*
X00381Y01056215*
X00552023Y00901695D02*
X00547791D01*
X00549907*
Y00891115*
X00547791Y00889*
X00545675*
X0054356Y00891115*
X00706963Y00660395D02*
X00702731D01*
X00704847*
Y00649815*
X00702731Y006477*
X00700615*
X006985Y00649815*
X00681563Y00774695D02*
X00677331D01*
X00679447*
Y00764115*
X00677331Y00762*
X00675215*
X006731Y00764115*
X00694263Y00774695D02*
X00690031D01*
X00692147*
Y00764115*
X00690031Y00762*
X00687915*
X006858Y00764115*
X00757763Y00782315D02*
X00753531D01*
X00755647*
Y00771735*
X00753531Y0076962*
X00751415*
X007493Y00771735*
X00831423Y00797555D02*
X00827191D01*
X00829307*
Y00786975*
X00827191Y0078486*
X00825075*
X0082296Y00786975*
X00706963Y00774695D02*
X00702731D01*
X00704847*
Y00764115*
X00702731Y00762*
X00700615*
X006985Y00764115*
X00706963Y00787395D02*
X00702731D01*
X00704847*
Y00776815*
X00702731Y007747*
X00700615*
X006985Y00776815*
X0103941Y00703038D02*
X01035178D01*
X01037294*
Y00692458*
X01035178Y00690342*
X01033062*
X01030946Y00692458*
G54D174*
X01180319Y0005334D02*
D01*
X01180307Y00053694*
X0118027Y00054046*
X01180208Y00054396*
X01180123Y0005474*
X01180013Y00055077*
X0117988Y00055406*
X01179725Y00055724*
X01179548Y00056031*
X01179349Y00056325*
X01179131Y00056605*
X01178894Y00056868*
X01178638Y00057114*
X01178367Y00057343*
X0117808Y00057551*
X01177779Y00057739*
X01177466Y00057905*
X01177142Y00058049*
X01176809Y00058171*
X01176468Y00058268*
X01176122Y00058342*
X0117577Y00058392*
X01175417Y00058416*
X01175062*
X01174708Y00058392*
X01174357Y00058342*
X0117401Y00058268*
X01173669Y00058171*
X01173336Y00058049*
X01173012Y00057905*
X01172699Y00057739*
X01172399Y00057551*
X01172112Y00057343*
X0117184Y00057114*
X01171585Y00056868*
X01171348Y00056605*
X01171129Y00056325*
X01170931Y00056031*
X01170754Y00055724*
X01170599Y00055406*
X01170466Y00055077*
X01170356Y0005474*
X0117027Y00054396*
X01170209Y00054046*
X01170172Y00053694*
X01170159Y0005334*
X01170172Y00052985*
X01170209Y00052632*
X0117027Y00052283*
X01170356Y00051939*
X01170466Y00051602*
X01170599Y00051273*
X01170754Y00050954*
X01170931Y00050647*
X01171129Y00050353*
X01171348Y00050074*
X01171585Y0004981*
X0117184Y00049564*
X01172112Y00049336*
X01172399Y00049128*
X01172699Y0004894*
X01173012Y00048774*
X01173336Y00048629*
X01173669Y00048508*
X0117401Y0004841*
X01174357Y00048336*
X01174708Y00048287*
X01175062Y00048263*
X01175417*
X0117577Y00048287*
X01176122Y00048336*
X01176468Y0004841*
X01176809Y00048508*
X01177142Y00048629*
X01177466Y00048774*
X01177779Y0004894*
X0117808Y00049128*
X01178367Y00049336*
X01178638Y00049564*
X01178894Y0004981*
X01179131Y00050074*
X01179349Y00050353*
X01179548Y00050647*
X01179725Y00050954*
X0117988Y00051273*
X01180013Y00051602*
X01180123Y00051939*
X01180208Y00052283*
X0118027Y00052632*
X01180307Y00052985*
X01180319Y0005334*
X00497902Y0026392D02*
D01*
X0049789Y00264275*
X00497853Y00264627*
X00497791Y00264977*
X00497706Y00265321*
X00497596Y00265658*
X00497463Y00265987*
X00497308Y00266305*
X0049713Y00266612*
X00496932Y00266906*
X00496714Y00267186*
X00496477Y00267449*
X00496222Y00267695*
X0049595Y00267924*
X00495663Y00268132*
X00495362Y0026832*
X00495049Y00268486*
X00494725Y0026863*
X00494392Y00268752*
X00494051Y00268849*
X00493704Y00268923*
X00493353Y00268973*
X00493Y00268997*
X00492645*
X00492291Y00268973*
X0049194Y00268923*
X00491593Y00268849*
X00491253Y00268752*
X00490919Y0026863*
X00490595Y00268486*
X00490282Y0026832*
X00489982Y00268132*
X00489695Y00267924*
X00489423Y00267695*
X00489168Y00267449*
X00488931Y00267186*
X00488713Y00266906*
X00488514Y00266612*
X00488337Y00266305*
X00488182Y00265987*
X00488049Y00265658*
X00487939Y00265321*
X00487853Y00264977*
X00487792Y00264627*
X00487755Y00264275*
X00487742Y0026392*
X00487755Y00263566*
X00487792Y00263213*
X00487853Y00262864*
X00487939Y0026252*
X00488049Y00262183*
X00488182Y00261854*
X00488337Y00261535*
X00488514Y00261228*
X00488713Y00260934*
X00488931Y00260655*
X00489168Y00260391*
X00489423Y00260145*
X00489695Y00259917*
X00489982Y00259709*
X00490282Y00259521*
X00490595Y00259355*
X00490919Y0025921*
X00491253Y00259089*
X00491593Y00258991*
X0049194Y00258917*
X00492291Y00258868*
X00492645Y00258844*
X00493*
X00493353Y00258868*
X00493704Y00258917*
X00494051Y00258991*
X00494392Y00259089*
X00494725Y0025921*
X00495049Y00259355*
X00495362Y00259521*
X00495663Y00259709*
X0049595Y00259917*
X00496222Y00260145*
X00496477Y00260391*
X00496714Y00260655*
X00496932Y00260934*
X0049713Y00261228*
X00497308Y00261535*
X00497463Y00261854*
X00497596Y00262183*
X00497706Y0026252*
X00497791Y00262864*
X00497853Y00263213*
X0049789Y00263566*
X00497902Y0026392*
X00538077D02*
D01*
X00538065Y00264275*
X00538028Y00264627*
X00537966Y00264977*
X00537881Y00265321*
X00537771Y00265658*
X00537638Y00265987*
X00537483Y00266305*
X00537306Y00266612*
X00537107Y00266906*
X00536889Y00267186*
X00536652Y00267449*
X00536396Y00267695*
X00536125Y00267924*
X00535838Y00268132*
X00535537Y0026832*
X00535224Y00268486*
X005349Y0026863*
X00534567Y00268752*
X00534226Y00268849*
X0053388Y00268923*
X00533528Y00268973*
X00533175Y00268997*
X0053282*
X00532466Y00268973*
X00532115Y00268923*
X00531768Y00268849*
X00531427Y00268752*
X00531094Y0026863*
X0053077Y00268486*
X00530457Y0026832*
X00530157Y00268132*
X0052987Y00267924*
X00529598Y00267695*
X00529343Y00267449*
X00529106Y00267186*
X00528887Y00266906*
X00528689Y00266612*
X00528512Y00266305*
X00528357Y00265987*
X00528224Y00265658*
X00528114Y00265321*
X00528028Y00264977*
X00527967Y00264627*
X0052793Y00264275*
X00527917Y0026392*
X0052793Y00263566*
X00527967Y00263213*
X00528028Y00262864*
X00528114Y0026252*
X00528224Y00262183*
X00528357Y00261854*
X00528512Y00261535*
X00528689Y00261228*
X00528887Y00260934*
X00529106Y00260655*
X00529343Y00260391*
X00529598Y00260145*
X0052987Y00259917*
X00530157Y00259709*
X00530457Y00259521*
X0053077Y00259355*
X00531094Y0025921*
X00531427Y00259089*
X00531768Y00258991*
X00532115Y00258917*
X00532466Y00258868*
X0053282Y00258844*
X00533175*
X00533528Y00258868*
X0053388Y00258917*
X00534226Y00258991*
X00534567Y00259089*
X005349Y0025921*
X00535224Y00259355*
X00535537Y00259521*
X00535838Y00259709*
X00536125Y00259917*
X00536396Y00260145*
X00536652Y00260391*
X00536889Y00260655*
X00537107Y00260934*
X00537306Y00261228*
X00537483Y00261535*
X00537638Y00261854*
X00537771Y00262183*
X00537881Y0026252*
X00537966Y00262864*
X00538028Y00263213*
X00538065Y00263566*
X00538077Y0026392*
X00457891D02*
D01*
X00457879Y00264275*
X00457842Y00264627*
X0045778Y00264977*
X00457695Y00265321*
X00457585Y00265658*
X00457452Y00265987*
X00457297Y00266305*
X00457119Y00266612*
X00456921Y00266906*
X00456703Y00267186*
X00456466Y00267449*
X00456211Y00267695*
X00455939Y00267924*
X00455652Y00268132*
X00455351Y0026832*
X00455038Y00268486*
X00454714Y0026863*
X00454381Y00268752*
X0045404Y00268849*
X00453694Y00268923*
X00453342Y00268973*
X00452989Y00268997*
X00452634*
X0045228Y00268973*
X00451929Y00268923*
X00451582Y00268849*
X00451242Y00268752*
X00450908Y0026863*
X00450584Y00268486*
X00450271Y0026832*
X00449971Y00268132*
X00449684Y00267924*
X00449412Y00267695*
X00449157Y00267449*
X0044892Y00267186*
X00448702Y00266906*
X00448503Y00266612*
X00448326Y00266305*
X00448171Y00265987*
X00448038Y00265658*
X00447928Y00265321*
X00447842Y00264977*
X00447781Y00264627*
X00447744Y00264275*
X00447731Y0026392*
X00447744Y00263566*
X00447781Y00263213*
X00447842Y00262864*
X00447928Y0026252*
X00448038Y00262183*
X00448171Y00261854*
X00448326Y00261535*
X00448503Y00261228*
X00448702Y00260934*
X0044892Y00260655*
X00449157Y00260391*
X00449412Y00260145*
X00449684Y00259917*
X00449971Y00259709*
X00450271Y00259521*
X00450584Y00259355*
X00450908Y0025921*
X00451242Y00259089*
X00451582Y00258991*
X00451929Y00258917*
X0045228Y00258868*
X00452634Y00258844*
X00452989*
X00453342Y00258868*
X00453694Y00258917*
X0045404Y00258991*
X00454381Y00259089*
X00454714Y0025921*
X00455038Y00259355*
X00455351Y00259521*
X00455652Y00259709*
X00455939Y00259917*
X00456211Y00260145*
X00456466Y00260391*
X00456703Y00260655*
X00456921Y00260934*
X00457119Y00261228*
X00457297Y00261535*
X00457452Y00261854*
X00457585Y00262183*
X00457695Y0026252*
X0045778Y00262864*
X00457842Y00263213*
X00457879Y00263566*
X00457891Y0026392*
X00498464Y0028956D02*
D01*
X00498452Y00289914*
X00498415Y00290266*
X00498353Y00290616*
X00498267Y0029096*
X00498158Y00291297*
X00498025Y00291626*
X0049787Y00291944*
X00497692Y00292251*
X00497494Y00292545*
X00497276Y00292825*
X00497039Y00293088*
X00496784Y00293334*
X00496512Y00293563*
X00496225Y00293771*
X00495924Y00293959*
X00495611Y00294125*
X00495287Y00294269*
X00494954Y00294391*
X00494613Y00294488*
X00494266Y00294562*
X00493915Y00294612*
X00493562Y00294636*
X00493207*
X00492853Y00294612*
X00492502Y00294562*
X00492155Y00294488*
X00491815Y00294391*
X00491481Y00294269*
X00491158Y00294125*
X00490844Y00293959*
X00490544Y00293771*
X00490257Y00293563*
X00489985Y00293334*
X0048973Y00293088*
X00489493Y00292825*
X00489275Y00292545*
X00489076Y00292251*
X00488899Y00291944*
X00488744Y00291626*
X00488611Y00291297*
X00488501Y0029096*
X00488415Y00290616*
X00488354Y00290266*
X00488317Y00289914*
X00488304Y0028956*
X00488317Y00289205*
X00488354Y00288852*
X00488415Y00288503*
X00488501Y00288159*
X00488611Y00287822*
X00488744Y00287493*
X00488899Y00287174*
X00489076Y00286867*
X00489275Y00286573*
X00489493Y00286294*
X0048973Y0028603*
X00489985Y00285784*
X00490257Y00285556*
X00490544Y00285348*
X00490844Y0028516*
X00491158Y00284994*
X00491481Y00284849*
X00491815Y00284728*
X00492155Y0028463*
X00492502Y00284556*
X00492853Y00284507*
X00493207Y00284483*
X00493562*
X00493915Y00284507*
X00494266Y00284556*
X00494613Y0028463*
X00494954Y00284728*
X00495287Y00284849*
X00495611Y00284994*
X00495924Y0028516*
X00496225Y00285348*
X00496512Y00285556*
X00496784Y00285784*
X00497039Y0028603*
X00497276Y00286294*
X00497494Y00286573*
X00497692Y00286867*
X0049787Y00287174*
X00498025Y00287493*
X00498158Y00287822*
X00498267Y00288159*
X00498353Y00288503*
X00498415Y00288852*
X00498452Y00289205*
X00498464Y0028956*
X00538639D02*
D01*
X00538627Y00289914*
X0053859Y00290266*
X00538528Y00290616*
X00538443Y0029096*
X00538333Y00291297*
X005382Y00291626*
X00538045Y00291944*
X00537867Y00292251*
X00537669Y00292545*
X00537451Y00292825*
X00537214Y00293088*
X00536959Y00293334*
X00536687Y00293563*
X005364Y00293771*
X00536099Y00293959*
X00535786Y00294125*
X00535462Y00294269*
X00535129Y00294391*
X00534788Y00294488*
X00534441Y00294562*
X0053409Y00294612*
X00533737Y00294636*
X00533382*
X00533028Y00294612*
X00532677Y00294562*
X0053233Y00294488*
X0053199Y00294391*
X00531656Y00294269*
X00531332Y00294125*
X00531019Y00293959*
X00530719Y00293771*
X00530432Y00293563*
X0053016Y00293334*
X00529905Y00293088*
X00529668Y00292825*
X0052945Y00292545*
X00529251Y00292251*
X00529074Y00291944*
X00528919Y00291626*
X00528786Y00291297*
X00528676Y0029096*
X0052859Y00290616*
X00528529Y00290266*
X00528492Y00289914*
X00528479Y0028956*
X00528492Y00289205*
X00528529Y00288852*
X0052859Y00288503*
X00528676Y00288159*
X00528786Y00287822*
X00528919Y00287493*
X00529074Y00287174*
X00529251Y00286867*
X0052945Y00286573*
X00529668Y00286294*
X00529905Y0028603*
X0053016Y00285784*
X00530432Y00285556*
X00530719Y00285348*
X00531019Y0028516*
X00531332Y00284994*
X00531656Y00284849*
X0053199Y00284728*
X0053233Y0028463*
X00532677Y00284556*
X00533028Y00284507*
X00533382Y00284483*
X00533737*
X0053409Y00284507*
X00534441Y00284556*
X00534788Y0028463*
X00535129Y00284728*
X00535462Y00284849*
X00535786Y00284994*
X00536099Y0028516*
X005364Y00285348*
X00536687Y00285556*
X00536959Y00285784*
X00537214Y0028603*
X00537451Y00286294*
X00537669Y00286573*
X00537867Y00286867*
X00538045Y00287174*
X005382Y00287493*
X00538333Y00287822*
X00538443Y00288159*
X00538528Y00288503*
X0053859Y00288852*
X00538627Y00289205*
X00538639Y0028956*
X00458453D02*
D01*
X00458441Y00289914*
X00458404Y00290266*
X00458342Y00290616*
X00458257Y0029096*
X00458147Y00291297*
X00458014Y00291626*
X00457859Y00291944*
X00457681Y00292251*
X00457483Y00292545*
X00457265Y00292825*
X00457028Y00293088*
X00456773Y00293334*
X00456501Y00293563*
X00456214Y00293771*
X00455913Y00293959*
X004556Y00294125*
X00455276Y00294269*
X00454943Y00294391*
X00454602Y00294488*
X00454255Y00294562*
X00453904Y00294612*
X00453551Y00294636*
X00453196*
X00452842Y00294612*
X00452491Y00294562*
X00452144Y00294488*
X00451804Y00294391*
X0045147Y00294269*
X00451146Y00294125*
X00450833Y00293959*
X00450533Y00293771*
X00450246Y00293563*
X00449974Y00293334*
X00449719Y00293088*
X00449482Y00292825*
X00449264Y00292545*
X00449065Y00292251*
X00448888Y00291944*
X00448733Y00291626*
X004486Y00291297*
X0044849Y0029096*
X00448404Y00290616*
X00448343Y00290266*
X00448306Y00289914*
X00448293Y0028956*
X00448306Y00289205*
X00448343Y00288852*
X00448404Y00288503*
X0044849Y00288159*
X004486Y00287822*
X00448733Y00287493*
X00448888Y00287174*
X00449065Y00286867*
X00449264Y00286573*
X00449482Y00286294*
X00449719Y0028603*
X00449974Y00285784*
X00450246Y00285556*
X00450533Y00285348*
X00450833Y0028516*
X00451146Y00284994*
X0045147Y00284849*
X00451804Y00284728*
X00452144Y0028463*
X00452491Y00284556*
X00452842Y00284507*
X00453196Y00284483*
X00453551*
X00453904Y00284507*
X00454255Y00284556*
X00454602Y0028463*
X00454943Y00284728*
X00455276Y00284849*
X004556Y00284994*
X00455913Y0028516*
X00456214Y00285348*
X00456501Y00285556*
X00456773Y00285784*
X00457028Y0028603*
X00457265Y00286294*
X00457483Y00286573*
X00457681Y00286867*
X00457859Y00287174*
X00458014Y00287493*
X00458147Y00287822*
X00458257Y00288159*
X00458342Y00288503*
X00458404Y00288852*
X00458441Y00289205*
X00458453Y0028956*
X00610859Y0005334D02*
D01*
X00610847Y00053694*
X0061081Y00054046*
X00610748Y00054396*
X00610662Y0005474*
X00610553Y00055077*
X0061042Y00055406*
X00610265Y00055724*
X00610087Y00056031*
X00609889Y00056325*
X00609671Y00056605*
X00609434Y00056868*
X00609179Y00057114*
X00608907Y00057343*
X0060862Y00057551*
X00608319Y00057739*
X00608006Y00057905*
X00607682Y00058049*
X00607349Y00058171*
X00607008Y00058268*
X00606661Y00058342*
X0060631Y00058392*
X00605957Y00058416*
X00605602*
X00605248Y00058392*
X00604897Y00058342*
X0060455Y00058268*
X0060421Y00058171*
X00603876Y00058049*
X00603553Y00057905*
X00603239Y00057739*
X00602939Y00057551*
X00602652Y00057343*
X0060238Y00057114*
X00602125Y00056868*
X00601888Y00056605*
X0060167Y00056325*
X00601471Y00056031*
X00601294Y00055724*
X00601139Y00055406*
X00601006Y00055077*
X00600896Y0005474*
X0060081Y00054396*
X00600749Y00054046*
X00600712Y00053694*
X00600699Y0005334*
X00600712Y00052985*
X00600749Y00052632*
X0060081Y00052283*
X00600896Y00051939*
X00601006Y00051602*
X00601139Y00051273*
X00601294Y00050954*
X00601471Y00050647*
X0060167Y00050353*
X00601888Y00050074*
X00602125Y0004981*
X0060238Y00049564*
X00602652Y00049336*
X00602939Y00049128*
X00603239Y0004894*
X00603553Y00048774*
X00603876Y00048629*
X0060421Y00048508*
X0060455Y0004841*
X00604897Y00048336*
X00605248Y00048287*
X00605602Y00048263*
X00605957*
X0060631Y00048287*
X00606661Y00048336*
X00607008Y0004841*
X00607349Y00048508*
X00607682Y00048629*
X00608006Y00048774*
X00608319Y0004894*
X0060862Y00049128*
X00608907Y00049336*
X00609179Y00049564*
X00609434Y0004981*
X00609671Y00050074*
X00609889Y00050353*
X00610087Y00050647*
X00610265Y00050954*
X0061042Y00051273*
X00610553Y00051602*
X00610662Y00051939*
X00610748Y00052283*
X0061081Y00052632*
X00610847Y00052985*
X00610859Y0005334*
X00860759D02*
D01*
X00860747Y00053694*
X0086071Y00054046*
X00860648Y00054396*
X00860563Y0005474*
X00860453Y00055077*
X0086032Y00055406*
X00860165Y00055724*
X00859987Y00056031*
X00859789Y00056325*
X00859571Y00056605*
X00859334Y00056868*
X00859079Y00057114*
X00858807Y00057343*
X0085852Y00057551*
X00858219Y00057739*
X00857906Y00057905*
X00857582Y00058049*
X00857249Y00058171*
X00856908Y00058268*
X00856561Y00058342*
X0085621Y00058392*
X00855857Y00058416*
X00855502*
X00855148Y00058392*
X00854797Y00058342*
X0085445Y00058268*
X0085411Y00058171*
X00853776Y00058049*
X00853452Y00057905*
X00853139Y00057739*
X00852839Y00057551*
X00852552Y00057343*
X0085228Y00057114*
X00852025Y00056868*
X00851788Y00056605*
X0085157Y00056325*
X00851371Y00056031*
X00851194Y00055724*
X00851038Y00055406*
X00850906Y00055077*
X00850796Y0005474*
X0085071Y00054396*
X00850649Y00054046*
X00850612Y00053694*
X00850599Y0005334*
X00850612Y00052985*
X00850649Y00052632*
X0085071Y00052283*
X00850796Y00051939*
X00850906Y00051602*
X00851038Y00051273*
X00851194Y00050954*
X00851371Y00050647*
X0085157Y00050353*
X00851788Y00050074*
X00852025Y0004981*
X0085228Y00049564*
X00852552Y00049336*
X00852839Y00049128*
X00853139Y0004894*
X00853452Y00048774*
X00853776Y00048629*
X0085411Y00048508*
X0085445Y0004841*
X00854797Y00048336*
X00855148Y00048287*
X00855502Y00048263*
X00855857*
X0085621Y00048287*
X00856561Y00048336*
X00856908Y0004841*
X00857249Y00048508*
X00857582Y00048629*
X00857906Y00048774*
X00858219Y0004894*
X0085852Y00049128*
X00858807Y00049336*
X00859079Y00049564*
X00859334Y0004981*
X00859571Y00050074*
X00859789Y00050353*
X00859987Y00050647*
X00860165Y00050954*
X0086032Y00051273*
X00860453Y00051602*
X00860563Y00051939*
X00860648Y00052283*
X0086071Y00052632*
X00860747Y00052985*
X00860759Y0005334*
G54D175*
X0049587Y0026392D02*
D01*
X00495863Y00264133*
X00495841Y00264345*
X00495804Y00264554*
X00495752Y0026476*
X00495687Y00264963*
X00495607Y0026516*
X00495514Y00265351*
X00495407Y00265536*
X00495288Y00265712*
X00495157Y0026588*
X00495015Y00266038*
X00494862Y00266185*
X00494699Y00266322*
X00494527Y00266447*
X00494346Y0026656*
X00494159Y0026666*
X00493964Y00266746*
X00493764Y00266819*
X0049356Y00266878*
X00493352Y00266922*
X00493141Y00266952*
X00492929Y00266966*
X00492716*
X00492504Y00266952*
X00492293Y00266922*
X00492085Y00266878*
X0049188Y00266819*
X00491681Y00266746*
X00491486Y0026666*
X00491298Y0026656*
X00491118Y00266447*
X00490946Y00266322*
X00490783Y00266185*
X0049063Y00266038*
X00490487Y0026588*
X00490356Y00265712*
X00490238Y00265536*
X00490131Y00265351*
X00490038Y0026516*
X00489958Y00264963*
X00489892Y0026476*
X00489841Y00264554*
X00489804Y00264345*
X00489782Y00264133*
X00489774Y0026392*
X00489782Y00263708*
X00489804Y00263496*
X00489841Y00263287*
X00489892Y0026308*
X00489958Y00262878*
X00490038Y00262681*
X00490131Y00262489*
X00490238Y00262305*
X00490356Y00262129*
X00490487Y00261961*
X0049063Y00261803*
X00490783Y00261655*
X00490946Y00261518*
X00491118Y00261393*
X00491298Y00261281*
X00491486Y00261181*
X00491681Y00261094*
X0049188Y00261022*
X00492085Y00260963*
X00492293Y00260919*
X00492504Y00260889*
X00492716Y00260874*
X00492929*
X00493141Y00260889*
X00493352Y00260919*
X0049356Y00260963*
X00493764Y00261022*
X00493964Y00261094*
X00494159Y00261181*
X00494346Y00261281*
X00494527Y00261393*
X00494699Y00261518*
X00494862Y00261655*
X00495015Y00261803*
X00495157Y00261961*
X00495288Y00262129*
X00495407Y00262305*
X00495514Y00262489*
X00495607Y00262681*
X00495687Y00262878*
X00495752Y0026308*
X00495804Y00263287*
X00495841Y00263496*
X00495863Y00263708*
X0049587Y0026392*
X00536045D02*
D01*
X00536038Y00264133*
X00536016Y00264345*
X00535979Y00264554*
X00535927Y0026476*
X00535862Y00264963*
X00535782Y0026516*
X00535689Y00265351*
X00535582Y00265536*
X00535463Y00265712*
X00535332Y0026588*
X0053519Y00266038*
X00535037Y00266185*
X00534874Y00266322*
X00534702Y00266447*
X00534521Y0026656*
X00534333Y0026666*
X00534139Y00266746*
X00533939Y00266819*
X00533735Y00266878*
X00533527Y00266922*
X00533316Y00266952*
X00533104Y00266966*
X00532891*
X00532679Y00266952*
X00532468Y00266922*
X0053226Y00266878*
X00532056Y00266819*
X00531856Y00266746*
X00531661Y0026666*
X00531473Y0026656*
X00531293Y00266447*
X00531121Y00266322*
X00530958Y00266185*
X00530805Y00266038*
X00530662Y0026588*
X00530532Y00265712*
X00530412Y00265536*
X00530306Y00265351*
X00530213Y0026516*
X00530133Y00264963*
X00530068Y0026476*
X00530016Y00264554*
X00529979Y00264345*
X00529957Y00264133*
X00529949Y0026392*
X00529957Y00263708*
X00529979Y00263496*
X00530016Y00263287*
X00530068Y0026308*
X00530133Y00262878*
X00530213Y00262681*
X00530306Y00262489*
X00530412Y00262305*
X00530532Y00262129*
X00530662Y00261961*
X00530805Y00261803*
X00530958Y00261655*
X00531121Y00261518*
X00531293Y00261393*
X00531473Y00261281*
X00531661Y00261181*
X00531856Y00261094*
X00532056Y00261022*
X0053226Y00260963*
X00532468Y00260919*
X00532679Y00260889*
X00532891Y00260874*
X00533104*
X00533316Y00260889*
X00533527Y00260919*
X00533735Y00260963*
X00533939Y00261022*
X00534139Y00261094*
X00534333Y00261181*
X00534521Y00261281*
X00534702Y00261393*
X00534874Y00261518*
X00535037Y00261655*
X0053519Y00261803*
X00535332Y00261961*
X00535463Y00262129*
X00535582Y00262305*
X00535689Y00262489*
X00535782Y00262681*
X00535862Y00262878*
X00535927Y0026308*
X00535979Y00263287*
X00536016Y00263496*
X00536038Y00263708*
X00536045Y0026392*
X00455859D02*
D01*
X00455852Y00264133*
X0045583Y00264345*
X00455793Y00264554*
X00455741Y0026476*
X00455676Y00264963*
X00455596Y0026516*
X00455503Y00265351*
X00455396Y00265536*
X00455277Y00265712*
X00455146Y0026588*
X00455004Y00266038*
X00454851Y00266185*
X00454688Y00266322*
X00454516Y00266447*
X00454335Y0026656*
X00454147Y0026666*
X00453953Y00266746*
X00453753Y00266819*
X00453549Y00266878*
X00453341Y00266922*
X0045313Y00266952*
X00452918Y00266966*
X00452705*
X00452493Y00266952*
X00452282Y00266922*
X00452074Y00266878*
X0045187Y00266819*
X0045167Y00266746*
X00451475Y0026666*
X00451287Y0026656*
X00451107Y00266447*
X00450935Y00266322*
X00450772Y00266185*
X00450619Y00266038*
X00450476Y0026588*
X00450346Y00265712*
X00450226Y00265536*
X0045012Y00265351*
X00450027Y0026516*
X00449947Y00264963*
X00449882Y0026476*
X0044983Y00264554*
X00449793Y00264345*
X00449771Y00264133*
X00449763Y0026392*
X00449771Y00263708*
X00449793Y00263496*
X0044983Y00263287*
X00449882Y0026308*
X00449947Y00262878*
X00450027Y00262681*
X0045012Y00262489*
X00450226Y00262305*
X00450346Y00262129*
X00450476Y00261961*
X00450619Y00261803*
X00450772Y00261655*
X00450935Y00261518*
X00451107Y00261393*
X00451287Y00261281*
X00451475Y00261181*
X0045167Y00261094*
X0045187Y00261022*
X00452074Y00260963*
X00452282Y00260919*
X00452493Y00260889*
X00452705Y00260874*
X00452918*
X0045313Y00260889*
X00453341Y00260919*
X00453549Y00260963*
X00453753Y00261022*
X00453953Y00261094*
X00454147Y00261181*
X00454335Y00261281*
X00454516Y00261393*
X00454688Y00261518*
X00454851Y00261655*
X00455004Y00261803*
X00455146Y00261961*
X00455277Y00262129*
X00455396Y00262305*
X00455503Y00262489*
X00455596Y00262681*
X00455676Y00262878*
X00455741Y0026308*
X00455793Y00263287*
X0045583Y00263496*
X00455852Y00263708*
X00455859Y0026392*
X00496432Y0028956D02*
D01*
X00496425Y00289772*
X00496403Y00289984*
X00496366Y00290193*
X00496314Y00290399*
X00496248Y00290602*
X00496169Y00290799*
X00496076Y0029099*
X00495969Y00291175*
X0049585Y00291351*
X00495719Y00291519*
X00495577Y00291677*
X00495424Y00291824*
X00495261Y00291961*
X00495089Y00292086*
X00494908Y00292199*
X00494721Y00292299*
X00494526Y00292386*
X00494326Y00292458*
X00494122Y00292517*
X00493914Y00292561*
X00493703Y00292591*
X00493491Y00292605*
X00493278*
X00493066Y00292591*
X00492855Y00292561*
X00492647Y00292517*
X00492443Y00292458*
X00492243Y00292386*
X00492048Y00292299*
X0049186Y00292199*
X0049168Y00292086*
X00491508Y00291961*
X00491345Y00291824*
X00491192Y00291677*
X0049105Y00291519*
X00490919Y00291351*
X004908Y00291175*
X00490693Y0029099*
X004906Y00290799*
X0049052Y00290602*
X00490454Y00290399*
X00490403Y00290193*
X00490366Y00289984*
X00490344Y00289772*
X00490336Y0028956*
X00490344Y00289347*
X00490366Y00289135*
X00490403Y00288926*
X00490454Y00288719*
X0049052Y00288517*
X004906Y0028832*
X00490693Y00288128*
X004908Y00287944*
X00490919Y00287768*
X0049105Y002876*
X00491192Y00287442*
X00491345Y00287294*
X00491508Y00287157*
X0049168Y00287032*
X0049186Y0028692*
X00492048Y0028682*
X00492243Y00286733*
X00492443Y00286661*
X00492647Y00286602*
X00492855Y00286558*
X00493066Y00286528*
X00493278Y00286513*
X00493491*
X00493703Y00286528*
X00493914Y00286558*
X00494122Y00286602*
X00494326Y00286661*
X00494526Y00286733*
X00494721Y0028682*
X00494908Y0028692*
X00495089Y00287032*
X00495261Y00287157*
X00495424Y00287294*
X00495577Y00287442*
X00495719Y002876*
X0049585Y00287768*
X00495969Y00287944*
X00496076Y00288128*
X00496169Y0028832*
X00496248Y00288517*
X00496314Y00288719*
X00496366Y00288926*
X00496403Y00289135*
X00496425Y00289347*
X00496432Y0028956*
X00536607D02*
D01*
X005366Y00289772*
X00536578Y00289984*
X00536541Y00290193*
X00536489Y00290399*
X00536424Y00290602*
X00536344Y00290799*
X00536251Y0029099*
X00536144Y00291175*
X00536025Y00291351*
X00535894Y00291519*
X00535752Y00291677*
X00535599Y00291824*
X00535436Y00291961*
X00535264Y00292086*
X00535083Y00292199*
X00534896Y00292299*
X00534701Y00292386*
X00534501Y00292458*
X00534297Y00292517*
X00534089Y00292561*
X00533878Y00292591*
X00533666Y00292605*
X00533453*
X00533241Y00292591*
X0053303Y00292561*
X00532822Y00292517*
X00532617Y00292458*
X00532418Y00292386*
X00532223Y00292299*
X00532035Y00292199*
X00531855Y00292086*
X00531683Y00291961*
X0053152Y00291824*
X00531367Y00291677*
X00531224Y00291519*
X00531093Y00291351*
X00530975Y00291175*
X00530868Y0029099*
X00530775Y00290799*
X00530695Y00290602*
X00530629Y00290399*
X00530578Y00290193*
X00530541Y00289984*
X00530519Y00289772*
X00530511Y0028956*
X00530519Y00289347*
X00530541Y00289135*
X00530578Y00288926*
X00530629Y00288719*
X00530695Y00288517*
X00530775Y0028832*
X00530868Y00288128*
X00530975Y00287944*
X00531093Y00287768*
X00531224Y002876*
X00531367Y00287442*
X0053152Y00287294*
X00531683Y00287157*
X00531855Y00287032*
X00532035Y0028692*
X00532223Y0028682*
X00532418Y00286733*
X00532617Y00286661*
X00532822Y00286602*
X0053303Y00286558*
X00533241Y00286528*
X00533453Y00286513*
X00533666*
X00533878Y00286528*
X00534089Y00286558*
X00534297Y00286602*
X00534501Y00286661*
X00534701Y00286733*
X00534896Y0028682*
X00535083Y0028692*
X00535264Y00287032*
X00535436Y00287157*
X00535599Y00287294*
X00535752Y00287442*
X00535894Y002876*
X00536025Y00287768*
X00536144Y00287944*
X00536251Y00288128*
X00536344Y0028832*
X00536424Y00288517*
X00536489Y00288719*
X00536541Y00288926*
X00536578Y00289135*
X005366Y00289347*
X00536607Y0028956*
X00456421D02*
D01*
X00456414Y00289772*
X00456392Y00289984*
X00456355Y00290193*
X00456303Y00290399*
X00456238Y00290602*
X00456158Y00290799*
X00456065Y0029099*
X00455958Y00291175*
X00455839Y00291351*
X00455708Y00291519*
X00455566Y00291677*
X00455413Y00291824*
X0045525Y00291961*
X00455078Y00292086*
X00454897Y00292199*
X0045471Y00292299*
X00454515Y00292386*
X00454315Y00292458*
X00454111Y00292517*
X00453903Y00292561*
X00453692Y00292591*
X0045348Y00292605*
X00453267*
X00453055Y00292591*
X00452844Y00292561*
X00452636Y00292517*
X00452431Y00292458*
X00452232Y00292386*
X00452037Y00292299*
X00451849Y00292199*
X00451669Y00292086*
X00451497Y00291961*
X00451334Y00291824*
X00451181Y00291677*
X00451038Y00291519*
X00450907Y00291351*
X00450789Y00291175*
X00450682Y0029099*
X00450589Y00290799*
X00450509Y00290602*
X00450443Y00290399*
X00450392Y00290193*
X00450355Y00289984*
X00450333Y00289772*
X00450325Y0028956*
X00450333Y00289347*
X00450355Y00289135*
X00450392Y00288926*
X00450443Y00288719*
X00450509Y00288517*
X00450589Y0028832*
X00450682Y00288128*
X00450789Y00287944*
X00450907Y00287768*
X00451038Y002876*
X00451181Y00287442*
X00451334Y00287294*
X00451497Y00287157*
X00451669Y00287032*
X00451849Y0028692*
X00452037Y0028682*
X00452232Y00286733*
X00452431Y00286661*
X00452636Y00286602*
X00452844Y00286558*
X00453055Y00286528*
X00453267Y00286513*
X0045348*
X00453692Y00286528*
X00453903Y00286558*
X00454111Y00286602*
X00454315Y00286661*
X00454515Y00286733*
X0045471Y0028682*
X00454897Y0028692*
X00455078Y00287032*
X0045525Y00287157*
X00455413Y00287294*
X00455566Y00287442*
X00455708Y002876*
X00455839Y00287768*
X00455958Y00287944*
X00456065Y00288128*
X00456158Y0028832*
X00456238Y00288517*
X00456303Y00288719*
X00456355Y00288926*
X00456392Y00289135*
X00456414Y00289347*
X00456421Y0028956*
M02*