%FSTAX44Y44*%
%MOMM*%
%SFA1B1*%

%IPPOS*%
%ADD139C,0.012700*%
%LNsega_801_remake_mechanical_1-1*%
%LPD*%
G54D139*
X009058Y00235189D02*
D01*
X00905764Y00236236*
X00905654Y00237277*
X00905473Y00238308*
X00905219Y00239324*
X00904896Y0024032*
X00904504Y0024129*
X00904045Y00242231*
X00903521Y00243138*
X00902936Y00244006*
X00902291Y00244831*
X00901591Y00245609*
X00900837Y00246337*
X00900035Y00247009*
X00899188Y00247625*
X008983Y0024818*
X00897376Y00248671*
X00896419Y00249097*
X00895436Y00249455*
X00894429Y00249744*
X00893405Y00249961*
X00892368Y00250107*
X00891324Y0025018*
X00890277*
X00889232Y00250107*
X00888196Y00249961*
X00887171Y00249744*
X00886165Y00249455*
X00885181Y00249097*
X00884225Y00248671*
X008833Y0024818*
X00882413Y00247625*
X00881565Y00247009*
X00880763Y00246337*
X0088001Y00245609*
X0087931Y00244831*
X00878665Y00244006*
X0087808Y00243138*
X00877556Y00242231*
X00877097Y0024129*
X00876705Y0024032*
X00876382Y00239324*
X00876128Y00238308*
X00875946Y00237277*
X00875837Y00236236*
X008758Y00235189*
X00875837Y00234143*
X00875946Y00233102*
X00876128Y00232071*
X00876382Y00231055*
X00876705Y00230059*
X00877097Y00229088*
X00877556Y00228147*
X0087808Y00227241*
X00878665Y00226373*
X0087931Y00225547*
X0088001Y00224769*
X00880763Y00224042*
X00881565Y00223369*
X00882413Y00222754*
X008833Y00222199*
X00884225Y00221707*
X00885181Y00221282*
X00886165Y00220924*
X00887171Y00220635*
X00888196Y00220417*
X00889232Y00220272*
X00890277Y00220198*
X00891324*
X00892368Y00220272*
X00893405Y00220417*
X00894429Y00220635*
X00895436Y00220924*
X00896419Y00221282*
X00897376Y00221707*
X008983Y00222199*
X00899188Y00222754*
X00900035Y00223369*
X00900837Y00224042*
X00901591Y00224769*
X00902291Y00225547*
X00902936Y00226373*
X00903521Y00227241*
X00904045Y00228147*
X00904504Y00229088*
X00904896Y00230059*
X00905219Y00231055*
X00905473Y00232071*
X00905654Y00233102*
X00905764Y00234143*
X009058Y00235189*
X00502444Y01300155D02*
D01*
X00502426Y01300676*
X00502372Y01301195*
X00502281Y01301708*
X00502155Y01302214*
X00501994Y0130271*
X00501799Y01303193*
X0050157Y01303661*
X0050131Y01304113*
X00501018Y01304545*
X00500697Y01304956*
X00500349Y01305343*
X00499973Y01305705*
X00499574Y0130604*
X00499152Y01306347*
X0049871Y01306623*
X0049825Y01306868*
X00497774Y0130708*
X00497284Y01307258*
X00496783Y01307402*
X00496273Y0130751*
X00495757Y01307582*
X00495237Y01307619*
X00494716*
X00494196Y01307582*
X00493679Y0130751*
X0049317Y01307402*
X00492669Y01307258*
X00492179Y0130708*
X00491703Y01306868*
X00491242Y01306623*
X004908Y01306347*
X00490379Y0130604*
X00489979Y01305705*
X00489604Y01305343*
X00489256Y01304956*
X00488935Y01304545*
X00488643Y01304113*
X00488383Y01303661*
X00488154Y01303193*
X00487959Y0130271*
X00487798Y01302214*
X00487672Y01301708*
X00487581Y01301195*
X00487527Y01300676*
X00487508Y01300155*
X00487527Y01299634*
X00487581Y01299116*
X00487672Y01298603*
X00487798Y01298097*
X00487959Y01297601*
X00488154Y01297118*
X00488383Y01296649*
X00488643Y01296198*
X00488935Y01295766*
X00489256Y01295355*
X00489604Y01294968*
X00489979Y01294605*
X00490379Y0129427*
X004908Y01293964*
X00491242Y01293688*
X00491703Y01293443*
X00492179Y01293231*
X00492669Y01293053*
X0049317Y01292909*
X00493679Y01292801*
X00494196Y01292728*
X00494716Y01292692*
X00495237*
X00495757Y01292728*
X00496273Y01292801*
X00496783Y01292909*
X00497284Y01293053*
X00497774Y01293231*
X0049825Y01293443*
X0049871Y01293688*
X00499152Y01293964*
X00499574Y0129427*
X00499973Y01294605*
X00500349Y01294968*
X00500697Y01295355*
X00501018Y01295766*
X0050131Y01296198*
X0050157Y01296649*
X00501799Y01297118*
X00501994Y01297601*
X00502155Y01298097*
X00502281Y01298603*
X00502372Y01299116*
X00502426Y01299634*
X00502444Y01300155*
X00527844D02*
D01*
X00527826Y01300676*
X00527772Y01301195*
X00527681Y01301708*
X00527555Y01302214*
X00527394Y0130271*
X00527199Y01303193*
X0052697Y01303661*
X0052671Y01304113*
X00526418Y01304545*
X00526097Y01304956*
X00525749Y01305343*
X00525373Y01305705*
X00524974Y0130604*
X00524552Y01306347*
X0052411Y01306623*
X0052365Y01306868*
X00523174Y0130708*
X00522684Y01307258*
X00522183Y01307402*
X00521673Y0130751*
X00521157Y01307582*
X00520637Y01307619*
X00520116*
X00519596Y01307582*
X00519079Y0130751*
X0051857Y01307402*
X00518069Y01307258*
X00517579Y0130708*
X00517103Y01306868*
X00516642Y01306623*
X005162Y01306347*
X00515779Y0130604*
X00515379Y01305705*
X00515004Y01305343*
X00514656Y01304956*
X00514335Y01304545*
X00514043Y01304113*
X00513783Y01303661*
X00513554Y01303193*
X00513359Y0130271*
X00513198Y01302214*
X00513072Y01301708*
X00512981Y01301195*
X00512927Y01300676*
X00512908Y01300155*
X00512927Y01299634*
X00512981Y01299116*
X00513072Y01298603*
X00513198Y01298097*
X00513359Y01297601*
X00513554Y01297118*
X00513783Y01296649*
X00514043Y01296198*
X00514335Y01295766*
X00514656Y01295355*
X00515004Y01294968*
X00515379Y01294605*
X00515779Y0129427*
X005162Y01293964*
X00516642Y01293688*
X00517103Y01293443*
X00517579Y01293231*
X00518069Y01293053*
X0051857Y01292909*
X00519079Y01292801*
X00519596Y01292728*
X00520116Y01292692*
X00520637*
X00521157Y01292728*
X00521673Y01292801*
X00522183Y01292909*
X00522684Y01293053*
X00523174Y01293231*
X0052365Y01293443*
X0052411Y01293688*
X00524552Y01293964*
X00524974Y0129427*
X00525373Y01294605*
X00525749Y01294968*
X00526097Y01295355*
X00526418Y01295766*
X0052671Y01296198*
X0052697Y01296649*
X00527199Y01297118*
X00527394Y01297601*
X00527555Y01298097*
X00527681Y01298603*
X00527772Y01299116*
X00527826Y01299634*
X00527844Y01300155*
X00553244D02*
D01*
X00553226Y01300676*
X00553172Y01301195*
X00553081Y01301708*
X00552955Y01302214*
X00552794Y0130271*
X00552599Y01303193*
X0055237Y01303661*
X0055211Y01304113*
X00551818Y01304545*
X00551497Y01304956*
X00551149Y01305343*
X00550773Y01305705*
X00550374Y0130604*
X00549952Y01306347*
X0054951Y01306623*
X0054905Y01306868*
X00548574Y0130708*
X00548084Y01307258*
X00547583Y01307402*
X00547073Y0130751*
X00546557Y01307582*
X00546037Y01307619*
X00545516*
X00544996Y01307582*
X00544479Y0130751*
X0054397Y01307402*
X00543469Y01307258*
X00542979Y0130708*
X00542503Y01306868*
X00542042Y01306623*
X005416Y01306347*
X00541179Y0130604*
X00540779Y01305705*
X00540404Y01305343*
X00540056Y01304956*
X00539735Y01304545*
X00539443Y01304113*
X00539183Y01303661*
X00538954Y01303193*
X00538759Y0130271*
X00538598Y01302214*
X00538472Y01301708*
X00538381Y01301195*
X00538327Y01300676*
X00538308Y01300155*
X00538327Y01299634*
X00538381Y01299116*
X00538472Y01298603*
X00538598Y01298097*
X00538759Y01297601*
X00538954Y01297118*
X00539183Y01296649*
X00539443Y01296198*
X00539735Y01295766*
X00540056Y01295355*
X00540404Y01294968*
X00540779Y01294605*
X00541179Y0129427*
X005416Y01293964*
X00542042Y01293688*
X00542503Y01293443*
X00542979Y01293231*
X00543469Y01293053*
X0054397Y01292909*
X00544479Y01292801*
X00544996Y01292728*
X00545516Y01292692*
X00546037*
X00546557Y01292728*
X00547073Y01292801*
X00547583Y01292909*
X00548084Y01293053*
X00548574Y01293231*
X0054905Y01293443*
X0054951Y01293688*
X00549952Y01293964*
X00550374Y0129427*
X00550773Y01294605*
X00551149Y01294968*
X00551497Y01295355*
X00551818Y01295766*
X0055211Y01296198*
X0055237Y01296649*
X00552599Y01297118*
X00552794Y01297601*
X00552955Y01298097*
X00553081Y01298603*
X00553172Y01299116*
X00553226Y01299634*
X00553244Y01300155*
X00578644D02*
D01*
X00578626Y01300676*
X00578572Y01301195*
X00578481Y01301708*
X00578355Y01302214*
X00578194Y0130271*
X00577999Y01303193*
X0057777Y01303661*
X0057751Y01304113*
X00577218Y01304545*
X00576897Y01304956*
X00576549Y01305343*
X00576173Y01305705*
X00575774Y0130604*
X00575352Y01306347*
X0057491Y01306623*
X0057445Y01306868*
X00573974Y0130708*
X00573484Y01307258*
X00572983Y01307402*
X00572473Y0130751*
X00571957Y01307582*
X00571437Y01307619*
X00570916*
X00570396Y01307582*
X00569879Y0130751*
X0056937Y01307402*
X00568869Y01307258*
X00568379Y0130708*
X00567903Y01306868*
X00567442Y01306623*
X00567Y01306347*
X00566579Y0130604*
X00566179Y01305705*
X00565804Y01305343*
X00565456Y01304956*
X00565135Y01304545*
X00564843Y01304113*
X00564583Y01303661*
X00564354Y01303193*
X00564159Y0130271*
X00563998Y01302214*
X00563872Y01301708*
X00563781Y01301195*
X00563727Y01300676*
X00563708Y01300155*
X00563727Y01299634*
X00563781Y01299116*
X00563872Y01298603*
X00563998Y01298097*
X00564159Y01297601*
X00564354Y01297118*
X00564583Y01296649*
X00564843Y01296198*
X00565135Y01295766*
X00565456Y01295355*
X00565804Y01294968*
X00566179Y01294605*
X00566579Y0129427*
X00567Y01293964*
X00567442Y01293688*
X00567903Y01293443*
X00568379Y01293231*
X00568869Y01293053*
X0056937Y01292909*
X00569879Y01292801*
X00570396Y01292728*
X00570916Y01292692*
X00571437*
X00571957Y01292728*
X00572473Y01292801*
X00572983Y01292909*
X00573484Y01293053*
X00573974Y01293231*
X0057445Y01293443*
X0057491Y01293688*
X00575352Y01293964*
X00575774Y0129427*
X00576173Y01294605*
X00576549Y01294968*
X00576897Y01295355*
X00577218Y01295766*
X0057751Y01296198*
X0057777Y01296649*
X00577999Y01297118*
X00578194Y01297601*
X00578355Y01298097*
X00578481Y01298603*
X00578572Y01299116*
X00578626Y01299634*
X00578644Y01300155*
X00604044D02*
D01*
X00604026Y01300676*
X00603972Y01301195*
X00603881Y01301708*
X00603755Y01302214*
X00603594Y0130271*
X00603399Y01303193*
X0060317Y01303661*
X0060291Y01304113*
X00602618Y01304545*
X00602297Y01304956*
X00601949Y01305343*
X00601573Y01305705*
X00601174Y0130604*
X00600752Y01306347*
X0060031Y01306623*
X0059985Y01306868*
X00599374Y0130708*
X00598884Y01307258*
X00598383Y01307402*
X00597873Y0130751*
X00597357Y01307582*
X00596837Y01307619*
X00596316*
X00595796Y01307582*
X00595279Y0130751*
X0059477Y01307402*
X00594269Y01307258*
X00593779Y0130708*
X00593303Y01306868*
X00592842Y01306623*
X005924Y01306347*
X00591979Y0130604*
X00591579Y01305705*
X00591204Y01305343*
X00590856Y01304956*
X00590535Y01304545*
X00590243Y01304113*
X00589983Y01303661*
X00589754Y01303193*
X00589559Y0130271*
X00589398Y01302214*
X00589272Y01301708*
X00589181Y01301195*
X00589127Y01300676*
X00589108Y01300155*
X00589127Y01299634*
X00589181Y01299116*
X00589272Y01298603*
X00589398Y01298097*
X00589559Y01297601*
X00589754Y01297118*
X00589983Y01296649*
X00590243Y01296198*
X00590535Y01295766*
X00590856Y01295355*
X00591204Y01294968*
X00591579Y01294605*
X00591979Y0129427*
X005924Y01293964*
X00592842Y01293688*
X00593303Y01293443*
X00593779Y01293231*
X00594269Y01293053*
X0059477Y01292909*
X00595279Y01292801*
X00595796Y01292728*
X00596316Y01292692*
X00596837*
X00597357Y01292728*
X00597873Y01292801*
X00598383Y01292909*
X00598884Y01293053*
X00599374Y01293231*
X0059985Y01293443*
X0060031Y01293688*
X00600752Y01293964*
X00601174Y0129427*
X00601573Y01294605*
X00601949Y01294968*
X00602297Y01295355*
X00602618Y01295766*
X0060291Y01296198*
X0060317Y01296649*
X00603399Y01297118*
X00603594Y01297601*
X00603755Y01298097*
X00603881Y01298603*
X00603972Y01299116*
X00604026Y01299634*
X00604044Y01300155*
X00629444D02*
D01*
X00629426Y01300676*
X00629372Y01301195*
X00629281Y01301708*
X00629155Y01302214*
X00628994Y0130271*
X00628799Y01303193*
X0062857Y01303661*
X0062831Y01304113*
X00628018Y01304545*
X00627697Y01304956*
X00627349Y01305343*
X00626973Y01305705*
X00626574Y0130604*
X00626152Y01306347*
X0062571Y01306623*
X0062525Y01306868*
X00624774Y0130708*
X00624284Y01307258*
X00623783Y01307402*
X00623273Y0130751*
X00622757Y01307582*
X00622237Y01307619*
X00621716*
X00621196Y01307582*
X00620679Y0130751*
X0062017Y01307402*
X00619669Y01307258*
X00619179Y0130708*
X00618703Y01306868*
X00618242Y01306623*
X006178Y01306347*
X00617379Y0130604*
X00616979Y01305705*
X00616604Y01305343*
X00616256Y01304956*
X00615935Y01304545*
X00615643Y01304113*
X00615383Y01303661*
X00615154Y01303193*
X00614959Y0130271*
X00614798Y01302214*
X00614672Y01301708*
X00614581Y01301195*
X00614527Y01300676*
X00614508Y01300155*
X00614527Y01299634*
X00614581Y01299116*
X00614672Y01298603*
X00614798Y01298097*
X00614959Y01297601*
X00615154Y01297118*
X00615383Y01296649*
X00615643Y01296198*
X00615935Y01295766*
X00616256Y01295355*
X00616604Y01294968*
X00616979Y01294605*
X00617379Y0129427*
X006178Y01293964*
X00618242Y01293688*
X00618703Y01293443*
X00619179Y01293231*
X00619669Y01293053*
X0062017Y01292909*
X00620679Y01292801*
X00621196Y01292728*
X00621716Y01292692*
X00622237*
X00622757Y01292728*
X00623273Y01292801*
X00623783Y01292909*
X00624284Y01293053*
X00624774Y01293231*
X0062525Y01293443*
X0062571Y01293688*
X00626152Y01293964*
X00626574Y0129427*
X00626973Y01294605*
X00627349Y01294968*
X00627697Y01295355*
X00628018Y01295766*
X0062831Y01296198*
X0062857Y01296649*
X00628799Y01297118*
X00628994Y01297601*
X00629155Y01298097*
X00629281Y01298603*
X00629372Y01299116*
X00629426Y01299634*
X00629444Y01300155*
X00654844D02*
D01*
X00654826Y01300676*
X00654772Y01301195*
X00654681Y01301708*
X00654555Y01302214*
X00654394Y0130271*
X00654199Y01303193*
X0065397Y01303661*
X0065371Y01304113*
X00653418Y01304545*
X00653097Y01304956*
X00652749Y01305343*
X00652373Y01305705*
X00651974Y0130604*
X00651552Y01306347*
X0065111Y01306623*
X0065065Y01306868*
X00650174Y0130708*
X00649684Y01307258*
X00649183Y01307402*
X00648673Y0130751*
X00648157Y01307582*
X00647637Y01307619*
X00647116*
X00646596Y01307582*
X00646079Y0130751*
X0064557Y01307402*
X00645069Y01307258*
X00644579Y0130708*
X00644103Y01306868*
X00643642Y01306623*
X006432Y01306347*
X00642779Y0130604*
X00642379Y01305705*
X00642004Y01305343*
X00641656Y01304956*
X00641335Y01304545*
X00641043Y01304113*
X00640783Y01303661*
X00640554Y01303193*
X00640359Y0130271*
X00640198Y01302214*
X00640072Y01301708*
X00639981Y01301195*
X00639927Y01300676*
X00639908Y01300155*
X00639927Y01299634*
X00639981Y01299116*
X00640072Y01298603*
X00640198Y01298097*
X00640359Y01297601*
X00640554Y01297118*
X00640783Y01296649*
X00641043Y01296198*
X00641335Y01295766*
X00641656Y01295355*
X00642004Y01294968*
X00642379Y01294605*
X00642779Y0129427*
X006432Y01293964*
X00643642Y01293688*
X00644103Y01293443*
X00644579Y01293231*
X00645069Y01293053*
X0064557Y01292909*
X00646079Y01292801*
X00646596Y01292728*
X00647116Y01292692*
X00647637*
X00648157Y01292728*
X00648673Y01292801*
X00649183Y01292909*
X00649684Y01293053*
X00650174Y01293231*
X0065065Y01293443*
X0065111Y01293688*
X00651552Y01293964*
X00651974Y0129427*
X00652373Y01294605*
X00652749Y01294968*
X00653097Y01295355*
X00653418Y01295766*
X0065371Y01296198*
X0065397Y01296649*
X00654199Y01297118*
X00654394Y01297601*
X00654555Y01298097*
X00654681Y01298603*
X00654772Y01299116*
X00654826Y01299634*
X00654844Y01300155*
X00680244D02*
D01*
X00680226Y01300676*
X00680172Y01301195*
X00680081Y01301708*
X00679955Y01302214*
X00679794Y0130271*
X00679599Y01303193*
X0067937Y01303661*
X0067911Y01304113*
X00678818Y01304545*
X00678497Y01304956*
X00678149Y01305343*
X00677773Y01305705*
X00677374Y0130604*
X00676952Y01306347*
X0067651Y01306623*
X0067605Y01306868*
X00675574Y0130708*
X00675084Y01307258*
X00674583Y01307402*
X00674073Y0130751*
X00673557Y01307582*
X00673037Y01307619*
X00672516*
X00671996Y01307582*
X00671479Y0130751*
X0067097Y01307402*
X00670469Y01307258*
X00669979Y0130708*
X00669503Y01306868*
X00669042Y01306623*
X006686Y01306347*
X00668179Y0130604*
X00667779Y01305705*
X00667404Y01305343*
X00667056Y01304956*
X00666735Y01304545*
X00666443Y01304113*
X00666183Y01303661*
X00665954Y01303193*
X00665759Y0130271*
X00665598Y01302214*
X00665472Y01301708*
X00665381Y01301195*
X00665327Y01300676*
X00665308Y01300155*
X00665327Y01299634*
X00665381Y01299116*
X00665472Y01298603*
X00665598Y01298097*
X00665759Y01297601*
X00665954Y01297118*
X00666183Y01296649*
X00666443Y01296198*
X00666735Y01295766*
X00667056Y01295355*
X00667404Y01294968*
X00667779Y01294605*
X00668179Y0129427*
X006686Y01293964*
X00669042Y01293688*
X00669503Y01293443*
X00669979Y01293231*
X00670469Y01293053*
X0067097Y01292909*
X00671479Y01292801*
X00671996Y01292728*
X00672516Y01292692*
X00673037*
X00673557Y01292728*
X00674073Y01292801*
X00674583Y01292909*
X00675084Y01293053*
X00675574Y01293231*
X0067605Y01293443*
X0067651Y01293688*
X00676952Y01293964*
X00677374Y0129427*
X00677773Y01294605*
X00678149Y01294968*
X00678497Y01295355*
X00678818Y01295766*
X0067911Y01296198*
X0067937Y01296649*
X00679599Y01297118*
X00679794Y01297601*
X00679955Y01298097*
X00680081Y01298603*
X00680172Y01299116*
X00680226Y01299634*
X00680244Y01300155*
X00705644D02*
D01*
X00705626Y01300676*
X00705572Y01301195*
X00705481Y01301708*
X00705355Y01302214*
X00705194Y0130271*
X00704999Y01303193*
X0070477Y01303661*
X0070451Y01304113*
X00704218Y01304545*
X00703897Y01304956*
X00703549Y01305343*
X00703173Y01305705*
X00702774Y0130604*
X00702352Y01306347*
X0070191Y01306623*
X0070145Y01306868*
X00700974Y0130708*
X00700484Y01307258*
X00699983Y01307402*
X00699473Y0130751*
X00698957Y01307582*
X00698437Y01307619*
X00697916*
X00697396Y01307582*
X00696879Y0130751*
X0069637Y01307402*
X00695869Y01307258*
X00695379Y0130708*
X00694903Y01306868*
X00694442Y01306623*
X00694Y01306347*
X00693579Y0130604*
X00693179Y01305705*
X00692804Y01305343*
X00692456Y01304956*
X00692135Y01304545*
X00691843Y01304113*
X00691583Y01303661*
X00691354Y01303193*
X00691159Y0130271*
X00690998Y01302214*
X00690872Y01301708*
X00690781Y01301195*
X00690727Y01300676*
X00690708Y01300155*
X00690727Y01299634*
X00690781Y01299116*
X00690872Y01298603*
X00690998Y01298097*
X00691159Y01297601*
X00691354Y01297118*
X00691583Y01296649*
X00691843Y01296198*
X00692135Y01295766*
X00692456Y01295355*
X00692804Y01294968*
X00693179Y01294605*
X00693579Y0129427*
X00694Y01293964*
X00694442Y01293688*
X00694903Y01293443*
X00695379Y01293231*
X00695869Y01293053*
X0069637Y01292909*
X00696879Y01292801*
X00697396Y01292728*
X00697916Y01292692*
X00698437*
X00698957Y01292728*
X00699473Y01292801*
X00699983Y01292909*
X00700484Y01293053*
X00700974Y01293231*
X0070145Y01293443*
X0070191Y01293688*
X00702352Y01293964*
X00702774Y0129427*
X00703173Y01294605*
X00703549Y01294968*
X00703897Y01295355*
X00704218Y01295766*
X0070451Y01296198*
X0070477Y01296649*
X00704999Y01297118*
X00705194Y01297601*
X00705355Y01298097*
X00705481Y01298603*
X00705572Y01299116*
X00705626Y01299634*
X00705644Y01300155*
X00731044D02*
D01*
X00731026Y01300676*
X00730972Y01301195*
X00730881Y01301708*
X00730755Y01302214*
X00730594Y0130271*
X00730399Y01303193*
X0073017Y01303661*
X0072991Y01304113*
X00729618Y01304545*
X00729297Y01304956*
X00728949Y01305343*
X00728573Y01305705*
X00728174Y0130604*
X00727752Y01306347*
X0072731Y01306623*
X0072685Y01306868*
X00726374Y0130708*
X00725884Y01307258*
X00725383Y01307402*
X00724873Y0130751*
X00724357Y01307582*
X00723837Y01307619*
X00723316*
X00722796Y01307582*
X00722279Y0130751*
X0072177Y01307402*
X00721269Y01307258*
X00720779Y0130708*
X00720303Y01306868*
X00719842Y01306623*
X007194Y01306347*
X00718979Y0130604*
X00718579Y01305705*
X00718204Y01305343*
X00717856Y01304956*
X00717535Y01304545*
X00717243Y01304113*
X00716983Y01303661*
X00716754Y01303193*
X00716559Y0130271*
X00716398Y01302214*
X00716272Y01301708*
X00716181Y01301195*
X00716127Y01300676*
X00716108Y01300155*
X00716127Y01299634*
X00716181Y01299116*
X00716272Y01298603*
X00716398Y01298097*
X00716559Y01297601*
X00716754Y01297118*
X00716983Y01296649*
X00717243Y01296198*
X00717535Y01295766*
X00717856Y01295355*
X00718204Y01294968*
X00718579Y01294605*
X00718979Y0129427*
X007194Y01293964*
X00719842Y01293688*
X00720303Y01293443*
X00720779Y01293231*
X00721269Y01293053*
X0072177Y01292909*
X00722279Y01292801*
X00722796Y01292728*
X00723316Y01292692*
X00723837*
X00724357Y01292728*
X00724873Y01292801*
X00725383Y01292909*
X00725884Y01293053*
X00726374Y01293231*
X0072685Y01293443*
X0072731Y01293688*
X00727752Y01293964*
X00728174Y0129427*
X00728573Y01294605*
X00728949Y01294968*
X00729297Y01295355*
X00729618Y01295766*
X0072991Y01296198*
X0073017Y01296649*
X00730399Y01297118*
X00730594Y01297601*
X00730755Y01298097*
X00730881Y01298603*
X00730972Y01299116*
X00731026Y01299634*
X00731044Y01300155*
X00756444D02*
D01*
X00756426Y01300676*
X00756372Y01301195*
X00756281Y01301708*
X00756155Y01302214*
X00755994Y0130271*
X00755799Y01303193*
X0075557Y01303661*
X0075531Y01304113*
X00755018Y01304545*
X00754697Y01304956*
X00754349Y01305343*
X00753973Y01305705*
X00753574Y0130604*
X00753152Y01306347*
X0075271Y01306623*
X0075225Y01306868*
X00751774Y0130708*
X00751284Y01307258*
X00750783Y01307402*
X00750273Y0130751*
X00749757Y01307582*
X00749237Y01307619*
X00748716*
X00748196Y01307582*
X00747679Y0130751*
X0074717Y01307402*
X00746669Y01307258*
X00746179Y0130708*
X00745703Y01306868*
X00745242Y01306623*
X007448Y01306347*
X00744379Y0130604*
X00743979Y01305705*
X00743604Y01305343*
X00743256Y01304956*
X00742935Y01304545*
X00742643Y01304113*
X00742383Y01303661*
X00742154Y01303193*
X00741959Y0130271*
X00741798Y01302214*
X00741672Y01301708*
X00741581Y01301195*
X00741527Y01300676*
X00741508Y01300155*
X00741527Y01299634*
X00741581Y01299116*
X00741672Y01298603*
X00741798Y01298097*
X00741959Y01297601*
X00742154Y01297118*
X00742383Y01296649*
X00742643Y01296198*
X00742935Y01295766*
X00743256Y01295355*
X00743604Y01294968*
X00743979Y01294605*
X00744379Y0129427*
X007448Y01293964*
X00745242Y01293688*
X00745703Y01293443*
X00746179Y01293231*
X00746669Y01293053*
X0074717Y01292909*
X00747679Y01292801*
X00748196Y01292728*
X00748716Y01292692*
X00749237*
X00749757Y01292728*
X00750273Y01292801*
X00750783Y01292909*
X00751284Y01293053*
X00751774Y01293231*
X0075225Y01293443*
X0075271Y01293688*
X00753152Y01293964*
X00753574Y0129427*
X00753973Y01294605*
X00754349Y01294968*
X00754697Y01295355*
X00755018Y01295766*
X0075531Y01296198*
X0075557Y01296649*
X00755799Y01297118*
X00755994Y01297601*
X00756155Y01298097*
X00756281Y01298603*
X00756372Y01299116*
X00756426Y01299634*
X00756444Y01300155*
X00781844D02*
D01*
X00781826Y01300676*
X00781772Y01301195*
X00781681Y01301708*
X00781555Y01302214*
X00781394Y0130271*
X00781199Y01303193*
X0078097Y01303661*
X0078071Y01304113*
X00780418Y01304545*
X00780097Y01304956*
X00779749Y01305343*
X00779373Y01305705*
X00778974Y0130604*
X00778552Y01306347*
X0077811Y01306623*
X0077765Y01306868*
X00777174Y0130708*
X00776684Y01307258*
X00776183Y01307402*
X00775673Y0130751*
X00775157Y01307582*
X00774637Y01307619*
X00774116*
X00773596Y01307582*
X00773079Y0130751*
X0077257Y01307402*
X00772069Y01307258*
X00771579Y0130708*
X00771103Y01306868*
X00770642Y01306623*
X007702Y01306347*
X00769779Y0130604*
X00769379Y01305705*
X00769004Y01305343*
X00768656Y01304956*
X00768335Y01304545*
X00768043Y01304113*
X00767783Y01303661*
X00767554Y01303193*
X00767359Y0130271*
X00767198Y01302214*
X00767072Y01301708*
X00766981Y01301195*
X00766927Y01300676*
X00766908Y01300155*
X00766927Y01299634*
X00766981Y01299116*
X00767072Y01298603*
X00767198Y01298097*
X00767359Y01297601*
X00767554Y01297118*
X00767783Y01296649*
X00768043Y01296198*
X00768335Y01295766*
X00768656Y01295355*
X00769004Y01294968*
X00769379Y01294605*
X00769779Y0129427*
X007702Y01293964*
X00770642Y01293688*
X00771103Y01293443*
X00771579Y01293231*
X00772069Y01293053*
X0077257Y01292909*
X00773079Y01292801*
X00773596Y01292728*
X00774116Y01292692*
X00774637*
X00775157Y01292728*
X00775673Y01292801*
X00776183Y01292909*
X00776684Y01293053*
X00777174Y01293231*
X0077765Y01293443*
X0077811Y01293688*
X00778552Y01293964*
X00778974Y0129427*
X00779373Y01294605*
X00779749Y01294968*
X00780097Y01295355*
X00780418Y01295766*
X0078071Y01296198*
X0078097Y01296649*
X00781199Y01297118*
X00781394Y01297601*
X00781555Y01298097*
X00781681Y01298603*
X00781772Y01299116*
X00781826Y01299634*
X00781844Y01300155*
X00807244D02*
D01*
X00807226Y01300676*
X00807172Y01301195*
X00807081Y01301708*
X00806955Y01302214*
X00806794Y0130271*
X00806599Y01303193*
X0080637Y01303661*
X0080611Y01304113*
X00805818Y01304545*
X00805497Y01304956*
X00805149Y01305343*
X00804773Y01305705*
X00804374Y0130604*
X00803952Y01306347*
X0080351Y01306623*
X0080305Y01306868*
X00802574Y0130708*
X00802084Y01307258*
X00801583Y01307402*
X00801073Y0130751*
X00800557Y01307582*
X00800037Y01307619*
X00799516*
X00798996Y01307582*
X00798479Y0130751*
X0079797Y01307402*
X00797469Y01307258*
X00796979Y0130708*
X00796503Y01306868*
X00796042Y01306623*
X007956Y01306347*
X00795179Y0130604*
X00794779Y01305705*
X00794404Y01305343*
X00794056Y01304956*
X00793735Y01304545*
X00793443Y01304113*
X00793183Y01303661*
X00792954Y01303193*
X00792759Y0130271*
X00792598Y01302214*
X00792472Y01301708*
X00792381Y01301195*
X00792327Y01300676*
X00792308Y01300155*
X00792327Y01299634*
X00792381Y01299116*
X00792472Y01298603*
X00792598Y01298097*
X00792759Y01297601*
X00792954Y01297118*
X00793183Y01296649*
X00793443Y01296198*
X00793735Y01295766*
X00794056Y01295355*
X00794404Y01294968*
X00794779Y01294605*
X00795179Y0129427*
X007956Y01293964*
X00796042Y01293688*
X00796503Y01293443*
X00796979Y01293231*
X00797469Y01293053*
X0079797Y01292909*
X00798479Y01292801*
X00798996Y01292728*
X00799516Y01292692*
X00800037*
X00800557Y01292728*
X00801073Y01292801*
X00801583Y01292909*
X00802084Y01293053*
X00802574Y01293231*
X0080305Y01293443*
X0080351Y01293688*
X00803952Y01293964*
X00804374Y0129427*
X00804773Y01294605*
X00805149Y01294968*
X00805497Y01295355*
X00805818Y01295766*
X0080611Y01296198*
X0080637Y01296649*
X00806599Y01297118*
X00806794Y01297601*
X00806955Y01298097*
X00807081Y01298603*
X00807172Y01299116*
X00807226Y01299634*
X00807244Y01300155*
X00832644D02*
D01*
X00832626Y01300676*
X00832572Y01301195*
X00832481Y01301708*
X00832355Y01302214*
X00832194Y0130271*
X00831999Y01303193*
X0083177Y01303661*
X0083151Y01304113*
X00831218Y01304545*
X00830897Y01304956*
X00830549Y01305343*
X00830173Y01305705*
X00829774Y0130604*
X00829352Y01306347*
X0082891Y01306623*
X0082845Y01306868*
X00827974Y0130708*
X00827484Y01307258*
X00826983Y01307402*
X00826473Y0130751*
X00825957Y01307582*
X00825437Y01307619*
X00824916*
X00824396Y01307582*
X00823879Y0130751*
X0082337Y01307402*
X00822869Y01307258*
X00822379Y0130708*
X00821903Y01306868*
X00821442Y01306623*
X00821Y01306347*
X00820579Y0130604*
X00820179Y01305705*
X00819804Y01305343*
X00819456Y01304956*
X00819135Y01304545*
X00818843Y01304113*
X00818583Y01303661*
X00818354Y01303193*
X00818159Y0130271*
X00817998Y01302214*
X00817872Y01301708*
X00817781Y01301195*
X00817727Y01300676*
X00817708Y01300155*
X00817727Y01299634*
X00817781Y01299116*
X00817872Y01298603*
X00817998Y01298097*
X00818159Y01297601*
X00818354Y01297118*
X00818583Y01296649*
X00818843Y01296198*
X00819135Y01295766*
X00819456Y01295355*
X00819804Y01294968*
X00820179Y01294605*
X00820579Y0129427*
X00821Y01293964*
X00821442Y01293688*
X00821903Y01293443*
X00822379Y01293231*
X00822869Y01293053*
X0082337Y01292909*
X00823879Y01292801*
X00824396Y01292728*
X00824916Y01292692*
X00825437*
X00825957Y01292728*
X00826473Y01292801*
X00826983Y01292909*
X00827484Y01293053*
X00827974Y01293231*
X0082845Y01293443*
X0082891Y01293688*
X00829352Y01293964*
X00829774Y0129427*
X00830173Y01294605*
X00830549Y01294968*
X00830897Y01295355*
X00831218Y01295766*
X0083151Y01296198*
X0083177Y01296649*
X00831999Y01297118*
X00832194Y01297601*
X00832355Y01298097*
X00832481Y01298603*
X00832572Y01299116*
X00832626Y01299634*
X00832644Y01300155*
X00858044D02*
D01*
X00858026Y01300676*
X00857972Y01301195*
X00857881Y01301708*
X00857755Y01302214*
X00857594Y0130271*
X00857399Y01303193*
X0085717Y01303661*
X0085691Y01304113*
X00856618Y01304545*
X00856297Y01304956*
X00855949Y01305343*
X00855573Y01305705*
X00855174Y0130604*
X00854752Y01306347*
X0085431Y01306623*
X0085385Y01306868*
X00853374Y0130708*
X00852884Y01307258*
X00852383Y01307402*
X00851873Y0130751*
X00851357Y01307582*
X00850837Y01307619*
X00850316*
X00849796Y01307582*
X00849279Y0130751*
X0084877Y01307402*
X00848269Y01307258*
X00847779Y0130708*
X00847303Y01306868*
X00846842Y01306623*
X008464Y01306347*
X00845979Y0130604*
X00845579Y01305705*
X00845204Y01305343*
X00844856Y01304956*
X00844535Y01304545*
X00844243Y01304113*
X00843983Y01303661*
X00843754Y01303193*
X00843559Y0130271*
X00843398Y01302214*
X00843272Y01301708*
X00843181Y01301195*
X00843127Y01300676*
X00843108Y01300155*
X00843127Y01299634*
X00843181Y01299116*
X00843272Y01298603*
X00843398Y01298097*
X00843559Y01297601*
X00843754Y01297118*
X00843983Y01296649*
X00844243Y01296198*
X00844535Y01295766*
X00844856Y01295355*
X00845204Y01294968*
X00845579Y01294605*
X00845979Y0129427*
X008464Y01293964*
X00846842Y01293688*
X00847303Y01293443*
X00847779Y01293231*
X00848269Y01293053*
X0084877Y01292909*
X00849279Y01292801*
X00849796Y01292728*
X00850316Y01292692*
X00850837*
X00851357Y01292728*
X00851873Y01292801*
X00852383Y01292909*
X00852884Y01293053*
X00853374Y01293231*
X0085385Y01293443*
X0085431Y01293688*
X00854752Y01293964*
X00855174Y0129427*
X00855573Y01294605*
X00855949Y01294968*
X00856297Y01295355*
X00856618Y01295766*
X0085691Y01296198*
X0085717Y01296649*
X00857399Y01297118*
X00857594Y01297601*
X00857755Y01298097*
X00857881Y01298603*
X00857972Y01299116*
X00858026Y01299634*
X00858044Y01300155*
X00883444D02*
D01*
X00883426Y01300676*
X00883372Y01301195*
X00883281Y01301708*
X00883155Y01302214*
X00882994Y0130271*
X00882799Y01303193*
X0088257Y01303661*
X0088231Y01304113*
X00882018Y01304545*
X00881697Y01304956*
X00881349Y01305343*
X00880973Y01305705*
X00880574Y0130604*
X00880152Y01306347*
X0087971Y01306623*
X0087925Y01306868*
X00878774Y0130708*
X00878284Y01307258*
X00877783Y01307402*
X00877273Y0130751*
X00876757Y01307582*
X00876237Y01307619*
X00875716*
X00875196Y01307582*
X00874679Y0130751*
X0087417Y01307402*
X00873669Y01307258*
X00873179Y0130708*
X00872703Y01306868*
X00872242Y01306623*
X008718Y01306347*
X00871379Y0130604*
X00870979Y01305705*
X00870604Y01305343*
X00870256Y01304956*
X00869935Y01304545*
X00869643Y01304113*
X00869383Y01303661*
X00869154Y01303193*
X00868959Y0130271*
X00868798Y01302214*
X00868672Y01301708*
X00868581Y01301195*
X00868527Y01300676*
X00868508Y01300155*
X00868527Y01299634*
X00868581Y01299116*
X00868672Y01298603*
X00868798Y01298097*
X00868959Y01297601*
X00869154Y01297118*
X00869383Y01296649*
X00869643Y01296198*
X00869935Y01295766*
X00870256Y01295355*
X00870604Y01294968*
X00870979Y01294605*
X00871379Y0129427*
X008718Y01293964*
X00872242Y01293688*
X00872703Y01293443*
X00873179Y01293231*
X00873669Y01293053*
X0087417Y01292909*
X00874679Y01292801*
X00875196Y01292728*
X00875716Y01292692*
X00876237*
X00876757Y01292728*
X00877273Y01292801*
X00877783Y01292909*
X00878284Y01293053*
X00878774Y01293231*
X0087925Y01293443*
X0087971Y01293688*
X00880152Y01293964*
X00880574Y0129427*
X00880973Y01294605*
X00881349Y01294968*
X00881697Y01295355*
X00882018Y01295766*
X0088231Y01296198*
X0088257Y01296649*
X00882799Y01297118*
X00882994Y01297601*
X00883155Y01298097*
X00883281Y01298603*
X00883372Y01299116*
X00883426Y01299634*
X00883444Y01300155*
X00908844D02*
D01*
X00908826Y01300676*
X00908772Y01301195*
X00908681Y01301708*
X00908555Y01302214*
X00908394Y0130271*
X00908199Y01303193*
X0090797Y01303661*
X0090771Y01304113*
X00907418Y01304545*
X00907097Y01304956*
X00906749Y01305343*
X00906373Y01305705*
X00905974Y0130604*
X00905552Y01306347*
X0090511Y01306623*
X0090465Y01306868*
X00904174Y0130708*
X00903684Y01307258*
X00903183Y01307402*
X00902673Y0130751*
X00902157Y01307582*
X00901637Y01307619*
X00901116*
X00900596Y01307582*
X00900079Y0130751*
X0089957Y01307402*
X00899069Y01307258*
X00898579Y0130708*
X00898103Y01306868*
X00897642Y01306623*
X008972Y01306347*
X00896779Y0130604*
X00896379Y01305705*
X00896004Y01305343*
X00895656Y01304956*
X00895335Y01304545*
X00895043Y01304113*
X00894783Y01303661*
X00894554Y01303193*
X00894359Y0130271*
X00894198Y01302214*
X00894072Y01301708*
X00893981Y01301195*
X00893927Y01300676*
X00893908Y01300155*
X00893927Y01299634*
X00893981Y01299116*
X00894072Y01298603*
X00894198Y01298097*
X00894359Y01297601*
X00894554Y01297118*
X00894783Y01296649*
X00895043Y01296198*
X00895335Y01295766*
X00895656Y01295355*
X00896004Y01294968*
X00896379Y01294605*
X00896779Y0129427*
X008972Y01293964*
X00897642Y01293688*
X00898103Y01293443*
X00898579Y01293231*
X00899069Y01293053*
X0089957Y01292909*
X00900079Y01292801*
X00900596Y01292728*
X00901116Y01292692*
X00901637*
X00902157Y01292728*
X00902673Y01292801*
X00903183Y01292909*
X00903684Y01293053*
X00904174Y01293231*
X0090465Y01293443*
X0090511Y01293688*
X00905552Y01293964*
X00905974Y0129427*
X00906373Y01294605*
X00906749Y01294968*
X00907097Y01295355*
X00907418Y01295766*
X0090771Y01296198*
X0090797Y01296649*
X00908199Y01297118*
X00908394Y01297601*
X00908555Y01298097*
X00908681Y01298603*
X00908772Y01299116*
X00908826Y01299634*
X00908844Y01300155*
X00934244D02*
D01*
X00934226Y01300676*
X00934172Y01301195*
X00934081Y01301708*
X00933955Y01302214*
X00933794Y0130271*
X00933599Y01303193*
X0093337Y01303661*
X0093311Y01304113*
X00932818Y01304545*
X00932497Y01304956*
X00932149Y01305343*
X00931773Y01305705*
X00931374Y0130604*
X00930952Y01306347*
X0093051Y01306623*
X0093005Y01306868*
X00929574Y0130708*
X00929084Y01307258*
X00928583Y01307402*
X00928073Y0130751*
X00927557Y01307582*
X00927037Y01307619*
X00926516*
X00925996Y01307582*
X00925479Y0130751*
X0092497Y01307402*
X00924469Y01307258*
X00923979Y0130708*
X00923503Y01306868*
X00923042Y01306623*
X009226Y01306347*
X00922179Y0130604*
X00921779Y01305705*
X00921404Y01305343*
X00921056Y01304956*
X00920735Y01304545*
X00920443Y01304113*
X00920183Y01303661*
X00919954Y01303193*
X00919759Y0130271*
X00919598Y01302214*
X00919472Y01301708*
X00919381Y01301195*
X00919327Y01300676*
X00919308Y01300155*
X00919327Y01299634*
X00919381Y01299116*
X00919472Y01298603*
X00919598Y01298097*
X00919759Y01297601*
X00919954Y01297118*
X00920183Y01296649*
X00920443Y01296198*
X00920735Y01295766*
X00921056Y01295355*
X00921404Y01294968*
X00921779Y01294605*
X00922179Y0129427*
X009226Y01293964*
X00923042Y01293688*
X00923503Y01293443*
X00923979Y01293231*
X00924469Y01293053*
X0092497Y01292909*
X00925479Y01292801*
X00925996Y01292728*
X00926516Y01292692*
X00927037*
X00927557Y01292728*
X00928073Y01292801*
X00928583Y01292909*
X00929084Y01293053*
X00929574Y01293231*
X0093005Y01293443*
X0093051Y01293688*
X00930952Y01293964*
X00931374Y0129427*
X00931773Y01294605*
X00932149Y01294968*
X00932497Y01295355*
X00932818Y01295766*
X0093311Y01296198*
X0093337Y01296649*
X00933599Y01297118*
X00933794Y01297601*
X00933955Y01298097*
X00934081Y01298603*
X00934172Y01299116*
X00934226Y01299634*
X00934244Y01300155*
X00959644D02*
D01*
X00959626Y01300676*
X00959572Y01301195*
X00959481Y01301708*
X00959355Y01302214*
X00959194Y0130271*
X00958999Y01303193*
X0095877Y01303661*
X0095851Y01304113*
X00958218Y01304545*
X00957897Y01304956*
X00957549Y01305343*
X00957173Y01305705*
X00956774Y0130604*
X00956352Y01306347*
X0095591Y01306623*
X0095545Y01306868*
X00954974Y0130708*
X00954484Y01307258*
X00953983Y01307402*
X00953473Y0130751*
X00952957Y01307582*
X00952437Y01307619*
X00951916*
X00951396Y01307582*
X00950879Y0130751*
X0095037Y01307402*
X00949869Y01307258*
X00949379Y0130708*
X00948903Y01306868*
X00948442Y01306623*
X00948Y01306347*
X00947579Y0130604*
X00947179Y01305705*
X00946804Y01305343*
X00946456Y01304956*
X00946135Y01304545*
X00945843Y01304113*
X00945583Y01303661*
X00945354Y01303193*
X00945159Y0130271*
X00944998Y01302214*
X00944872Y01301708*
X00944781Y01301195*
X00944727Y01300676*
X00944708Y01300155*
X00944727Y01299634*
X00944781Y01299116*
X00944872Y01298603*
X00944998Y01298097*
X00945159Y01297601*
X00945354Y01297118*
X00945583Y01296649*
X00945843Y01296198*
X00946135Y01295766*
X00946456Y01295355*
X00946804Y01294968*
X00947179Y01294605*
X00947579Y0129427*
X00948Y01293964*
X00948442Y01293688*
X00948903Y01293443*
X00949379Y01293231*
X00949869Y01293053*
X0095037Y01292909*
X00950879Y01292801*
X00951396Y01292728*
X00951916Y01292692*
X00952437*
X00952957Y01292728*
X00953473Y01292801*
X00953983Y01292909*
X00954484Y01293053*
X00954974Y01293231*
X0095545Y01293443*
X0095591Y01293688*
X00956352Y01293964*
X00956774Y0129427*
X00957173Y01294605*
X00957549Y01294968*
X00957897Y01295355*
X00958218Y01295766*
X0095851Y01296198*
X0095877Y01296649*
X00958999Y01297118*
X00959194Y01297601*
X00959355Y01298097*
X00959481Y01298603*
X00959572Y01299116*
X00959626Y01299634*
X00959644Y01300155*
X00985044D02*
D01*
X00985026Y01300676*
X00984972Y01301195*
X00984881Y01301708*
X00984755Y01302214*
X00984594Y0130271*
X00984399Y01303193*
X0098417Y01303661*
X0098391Y01304113*
X00983618Y01304545*
X00983297Y01304956*
X00982949Y01305343*
X00982573Y01305705*
X00982174Y0130604*
X00981752Y01306347*
X0098131Y01306623*
X0098085Y01306868*
X00980374Y0130708*
X00979884Y01307258*
X00979383Y01307402*
X00978873Y0130751*
X00978357Y01307582*
X00977837Y01307619*
X00977316*
X00976796Y01307582*
X00976279Y0130751*
X0097577Y01307402*
X00975269Y01307258*
X00974779Y0130708*
X00974303Y01306868*
X00973842Y01306623*
X009734Y01306347*
X00972979Y0130604*
X00972579Y01305705*
X00972204Y01305343*
X00971856Y01304956*
X00971535Y01304545*
X00971243Y01304113*
X00970983Y01303661*
X00970754Y01303193*
X00970559Y0130271*
X00970398Y01302214*
X00970272Y01301708*
X00970181Y01301195*
X00970127Y01300676*
X00970108Y01300155*
X00970127Y01299634*
X00970181Y01299116*
X00970272Y01298603*
X00970398Y01298097*
X00970559Y01297601*
X00970754Y01297118*
X00970983Y01296649*
X00971243Y01296198*
X00971535Y01295766*
X00971856Y01295355*
X00972204Y01294968*
X00972579Y01294605*
X00972979Y0129427*
X009734Y01293964*
X00973842Y01293688*
X00974303Y01293443*
X00974779Y01293231*
X00975269Y01293053*
X0097577Y01292909*
X00976279Y01292801*
X00976796Y01292728*
X00977316Y01292692*
X00977837*
X00978357Y01292728*
X00978873Y01292801*
X00979383Y01292909*
X00979884Y01293053*
X00980374Y01293231*
X0098085Y01293443*
X0098131Y01293688*
X00981752Y01293964*
X00982174Y0129427*
X00982573Y01294605*
X00982949Y01294968*
X00983297Y01295355*
X00983618Y01295766*
X0098391Y01296198*
X0098417Y01296649*
X00984399Y01297118*
X00984594Y01297601*
X00984755Y01298097*
X00984881Y01298603*
X00984972Y01299116*
X00985026Y01299634*
X00985044Y01300155*
X01010444D02*
D01*
X01010426Y01300676*
X01010372Y01301195*
X01010281Y01301708*
X01010155Y01302214*
X01009994Y0130271*
X01009799Y01303193*
X0100957Y01303661*
X0100931Y01304113*
X01009018Y01304545*
X01008697Y01304956*
X01008349Y01305343*
X01007973Y01305705*
X01007574Y0130604*
X01007152Y01306347*
X0100671Y01306623*
X0100625Y01306868*
X01005774Y0130708*
X01005284Y01307258*
X01004783Y01307402*
X01004273Y0130751*
X01003757Y01307582*
X01003237Y01307619*
X01002716*
X01002196Y01307582*
X01001679Y0130751*
X0100117Y01307402*
X01000669Y01307258*
X01000179Y0130708*
X00999703Y01306868*
X00999242Y01306623*
X009988Y01306347*
X00998379Y0130604*
X00997979Y01305705*
X00997604Y01305343*
X00997256Y01304956*
X00996935Y01304545*
X00996643Y01304113*
X00996383Y01303661*
X00996154Y01303193*
X00995959Y0130271*
X00995798Y01302214*
X00995672Y01301708*
X00995581Y01301195*
X00995527Y01300676*
X00995508Y01300155*
X00995527Y01299634*
X00995581Y01299116*
X00995672Y01298603*
X00995798Y01298097*
X00995959Y01297601*
X00996154Y01297118*
X00996383Y01296649*
X00996643Y01296198*
X00996935Y01295766*
X00997256Y01295355*
X00997604Y01294968*
X00997979Y01294605*
X00998379Y0129427*
X009988Y01293964*
X00999242Y01293688*
X00999703Y01293443*
X01000179Y01293231*
X01000669Y01293053*
X0100117Y01292909*
X01001679Y01292801*
X01002196Y01292728*
X01002716Y01292692*
X01003237*
X01003757Y01292728*
X01004273Y01292801*
X01004783Y01292909*
X01005284Y01293053*
X01005774Y01293231*
X0100625Y01293443*
X0100671Y01293688*
X01007152Y01293964*
X01007574Y0129427*
X01007973Y01294605*
X01008349Y01294968*
X01008697Y01295355*
X01009018Y01295766*
X0100931Y01296198*
X0100957Y01296649*
X01009799Y01297118*
X01009994Y01297601*
X01010155Y01298097*
X01010281Y01298603*
X01010372Y01299116*
X01010426Y01299634*
X01010444Y01300155*
X01035844D02*
D01*
X01035826Y01300676*
X01035772Y01301195*
X01035681Y01301708*
X01035555Y01302214*
X01035394Y0130271*
X01035199Y01303193*
X0103497Y01303661*
X0103471Y01304113*
X01034418Y01304545*
X01034097Y01304956*
X01033749Y01305343*
X01033373Y01305705*
X01032974Y0130604*
X01032552Y01306347*
X0103211Y01306623*
X0103165Y01306868*
X01031174Y0130708*
X01030684Y01307258*
X01030183Y01307402*
X01029673Y0130751*
X01029157Y01307582*
X01028637Y01307619*
X01028116*
X01027596Y01307582*
X01027079Y0130751*
X0102657Y01307402*
X01026069Y01307258*
X01025579Y0130708*
X01025103Y01306868*
X01024642Y01306623*
X010242Y01306347*
X01023779Y0130604*
X01023379Y01305705*
X01023004Y01305343*
X01022656Y01304956*
X01022335Y01304545*
X01022043Y01304113*
X01021783Y01303661*
X01021554Y01303193*
X01021359Y0130271*
X01021198Y01302214*
X01021072Y01301708*
X01020981Y01301195*
X01020927Y01300676*
X01020908Y01300155*
X01020927Y01299634*
X01020981Y01299116*
X01021072Y01298603*
X01021198Y01298097*
X01021359Y01297601*
X01021554Y01297118*
X01021783Y01296649*
X01022043Y01296198*
X01022335Y01295766*
X01022656Y01295355*
X01023004Y01294968*
X01023379Y01294605*
X01023779Y0129427*
X010242Y01293964*
X01024642Y01293688*
X01025103Y01293443*
X01025579Y01293231*
X01026069Y01293053*
X0102657Y01292909*
X01027079Y01292801*
X01027596Y01292728*
X01028116Y01292692*
X01028637*
X01029157Y01292728*
X01029673Y01292801*
X01030183Y01292909*
X01030684Y01293053*
X01031174Y01293231*
X0103165Y01293443*
X0103211Y01293688*
X01032552Y01293964*
X01032974Y0129427*
X01033373Y01294605*
X01033749Y01294968*
X01034097Y01295355*
X01034418Y01295766*
X0103471Y01296198*
X0103497Y01296649*
X01035199Y01297118*
X01035394Y01297601*
X01035555Y01298097*
X01035681Y01298603*
X01035772Y01299116*
X01035826Y01299634*
X01035844Y01300155*
X01061244D02*
D01*
X01061226Y01300676*
X01061172Y01301195*
X01061081Y01301708*
X01060955Y01302214*
X01060794Y0130271*
X01060599Y01303193*
X0106037Y01303661*
X0106011Y01304113*
X01059818Y01304545*
X01059497Y01304956*
X01059149Y01305343*
X01058773Y01305705*
X01058374Y0130604*
X01057952Y01306347*
X0105751Y01306623*
X0105705Y01306868*
X01056574Y0130708*
X01056084Y01307258*
X01055583Y01307402*
X01055073Y0130751*
X01054557Y01307582*
X01054037Y01307619*
X01053516*
X01052996Y01307582*
X01052479Y0130751*
X0105197Y01307402*
X01051469Y01307258*
X01050979Y0130708*
X01050503Y01306868*
X01050042Y01306623*
X010496Y01306347*
X01049179Y0130604*
X01048779Y01305705*
X01048404Y01305343*
X01048056Y01304956*
X01047735Y01304545*
X01047443Y01304113*
X01047183Y01303661*
X01046954Y01303193*
X01046759Y0130271*
X01046598Y01302214*
X01046472Y01301708*
X01046381Y01301195*
X01046327Y01300676*
X01046308Y01300155*
X01046327Y01299634*
X01046381Y01299116*
X01046472Y01298603*
X01046598Y01298097*
X01046759Y01297601*
X01046954Y01297118*
X01047183Y01296649*
X01047443Y01296198*
X01047735Y01295766*
X01048056Y01295355*
X01048404Y01294968*
X01048779Y01294605*
X01049179Y0129427*
X010496Y01293964*
X01050042Y01293688*
X01050503Y01293443*
X01050979Y01293231*
X01051469Y01293053*
X0105197Y01292909*
X01052479Y01292801*
X01052996Y01292728*
X01053516Y01292692*
X01054037*
X01054557Y01292728*
X01055073Y01292801*
X01055583Y01292909*
X01056084Y01293053*
X01056574Y01293231*
X0105705Y01293443*
X0105751Y01293688*
X01057952Y01293964*
X01058374Y0129427*
X01058773Y01294605*
X01059149Y01294968*
X01059497Y01295355*
X01059818Y01295766*
X0106011Y01296198*
X0106037Y01296649*
X01060599Y01297118*
X01060794Y01297601*
X01060955Y01298097*
X01061081Y01298603*
X01061172Y01299116*
X01061226Y01299634*
X01061244Y01300155*
X01086644D02*
D01*
X01086626Y01300676*
X01086572Y01301195*
X01086481Y01301708*
X01086355Y01302214*
X01086194Y0130271*
X01085999Y01303193*
X0108577Y01303661*
X0108551Y01304113*
X01085218Y01304545*
X01084897Y01304956*
X01084549Y01305343*
X01084173Y01305705*
X01083774Y0130604*
X01083352Y01306347*
X0108291Y01306623*
X0108245Y01306868*
X01081974Y0130708*
X01081484Y01307258*
X01080983Y01307402*
X01080473Y0130751*
X01079957Y01307582*
X01079437Y01307619*
X01078916*
X01078396Y01307582*
X01077879Y0130751*
X0107737Y01307402*
X01076869Y01307258*
X01076379Y0130708*
X01075903Y01306868*
X01075442Y01306623*
X01075Y01306347*
X01074579Y0130604*
X01074179Y01305705*
X01073804Y01305343*
X01073456Y01304956*
X01073135Y01304545*
X01072843Y01304113*
X01072583Y01303661*
X01072354Y01303193*
X01072159Y0130271*
X01071998Y01302214*
X01071872Y01301708*
X01071781Y01301195*
X01071727Y01300676*
X01071708Y01300155*
X01071727Y01299634*
X01071781Y01299116*
X01071872Y01298603*
X01071998Y01298097*
X01072159Y01297601*
X01072354Y01297118*
X01072583Y01296649*
X01072843Y01296198*
X01073135Y01295766*
X01073456Y01295355*
X01073804Y01294968*
X01074179Y01294605*
X01074579Y0129427*
X01075Y01293964*
X01075442Y01293688*
X01075903Y01293443*
X01076379Y01293231*
X01076869Y01293053*
X0107737Y01292909*
X01077879Y01292801*
X01078396Y01292728*
X01078916Y01292692*
X01079437*
X01079957Y01292728*
X01080473Y01292801*
X01080983Y01292909*
X01081484Y01293053*
X01081974Y01293231*
X0108245Y01293443*
X0108291Y01293688*
X01083352Y01293964*
X01083774Y0129427*
X01084173Y01294605*
X01084549Y01294968*
X01084897Y01295355*
X01085218Y01295766*
X0108551Y01296198*
X0108577Y01296649*
X01085999Y01297118*
X01086194Y01297601*
X01086355Y01298097*
X01086481Y01298603*
X01086572Y01299116*
X01086626Y01299634*
X01086644Y01300155*
X01112044D02*
D01*
X01112026Y01300676*
X01111972Y01301195*
X01111881Y01301708*
X01111755Y01302214*
X01111594Y0130271*
X01111399Y01303193*
X0111117Y01303661*
X0111091Y01304113*
X01110618Y01304545*
X01110297Y01304956*
X01109949Y01305343*
X01109573Y01305705*
X01109174Y0130604*
X01108752Y01306347*
X0110831Y01306623*
X0110785Y01306868*
X01107374Y0130708*
X01106884Y01307258*
X01106383Y01307402*
X01105873Y0130751*
X01105357Y01307582*
X01104837Y01307619*
X01104316*
X01103796Y01307582*
X01103279Y0130751*
X0110277Y01307402*
X01102269Y01307258*
X01101779Y0130708*
X01101303Y01306868*
X01100842Y01306623*
X011004Y01306347*
X01099979Y0130604*
X01099579Y01305705*
X01099204Y01305343*
X01098856Y01304956*
X01098535Y01304545*
X01098243Y01304113*
X01097983Y01303661*
X01097754Y01303193*
X01097559Y0130271*
X01097398Y01302214*
X01097272Y01301708*
X01097181Y01301195*
X01097127Y01300676*
X01097108Y01300155*
X01097127Y01299634*
X01097181Y01299116*
X01097272Y01298603*
X01097398Y01298097*
X01097559Y01297601*
X01097754Y01297118*
X01097983Y01296649*
X01098243Y01296198*
X01098535Y01295766*
X01098856Y01295355*
X01099204Y01294968*
X01099579Y01294605*
X01099979Y0129427*
X011004Y01293964*
X01100842Y01293688*
X01101303Y01293443*
X01101779Y01293231*
X01102269Y01293053*
X0110277Y01292909*
X01103279Y01292801*
X01103796Y01292728*
X01104316Y01292692*
X01104837*
X01105357Y01292728*
X01105873Y01292801*
X01106383Y01292909*
X01106884Y01293053*
X01107374Y01293231*
X0110785Y01293443*
X0110831Y01293688*
X01108752Y01293964*
X01109174Y0129427*
X01109573Y01294605*
X01109949Y01294968*
X01110297Y01295355*
X01110618Y01295766*
X0111091Y01296198*
X0111117Y01296649*
X01111399Y01297118*
X01111594Y01297601*
X01111755Y01298097*
X01111881Y01298603*
X01111972Y01299116*
X01112026Y01299634*
X01112044Y01300155*
X01137444D02*
D01*
X01137426Y01300676*
X01137372Y01301195*
X01137281Y01301708*
X01137155Y01302214*
X01136994Y0130271*
X01136799Y01303193*
X0113657Y01303661*
X0113631Y01304113*
X01136018Y01304545*
X01135697Y01304956*
X01135349Y01305343*
X01134973Y01305705*
X01134574Y0130604*
X01134152Y01306347*
X0113371Y01306623*
X0113325Y01306868*
X01132774Y0130708*
X01132284Y01307258*
X01131783Y01307402*
X01131273Y0130751*
X01130757Y01307582*
X01130237Y01307619*
X01129716*
X01129196Y01307582*
X01128679Y0130751*
X0112817Y01307402*
X01127669Y01307258*
X01127179Y0130708*
X01126703Y01306868*
X01126242Y01306623*
X011258Y01306347*
X01125379Y0130604*
X01124979Y01305705*
X01124604Y01305343*
X01124256Y01304956*
X01123935Y01304545*
X01123643Y01304113*
X01123383Y01303661*
X01123154Y01303193*
X01122959Y0130271*
X01122798Y01302214*
X01122672Y01301708*
X01122581Y01301195*
X01122527Y01300676*
X01122508Y01300155*
X01122527Y01299634*
X01122581Y01299116*
X01122672Y01298603*
X01122798Y01298097*
X01122959Y01297601*
X01123154Y01297118*
X01123383Y01296649*
X01123643Y01296198*
X01123935Y01295766*
X01124256Y01295355*
X01124604Y01294968*
X01124979Y01294605*
X01125379Y0129427*
X011258Y01293964*
X01126242Y01293688*
X01126703Y01293443*
X01127179Y01293231*
X01127669Y01293053*
X0112817Y01292909*
X01128679Y01292801*
X01129196Y01292728*
X01129716Y01292692*
X01130237*
X01130757Y01292728*
X01131273Y01292801*
X01131783Y01292909*
X01132284Y01293053*
X01132774Y01293231*
X0113325Y01293443*
X0113371Y01293688*
X01134152Y01293964*
X01134574Y0129427*
X01134973Y01294605*
X01135349Y01294968*
X01135697Y01295355*
X01136018Y01295766*
X0113631Y01296198*
X0113657Y01296649*
X01136799Y01297118*
X01136994Y01297601*
X01137155Y01298097*
X01137281Y01298603*
X01137372Y01299116*
X01137426Y01299634*
X01137444Y01300155*
X01162844D02*
D01*
X01162826Y01300676*
X01162772Y01301195*
X01162681Y01301708*
X01162555Y01302214*
X01162394Y0130271*
X01162199Y01303193*
X0116197Y01303661*
X0116171Y01304113*
X01161418Y01304545*
X01161097Y01304956*
X01160749Y01305343*
X01160373Y01305705*
X01159974Y0130604*
X01159552Y01306347*
X0115911Y01306623*
X0115865Y01306868*
X01158174Y0130708*
X01157684Y01307258*
X01157183Y01307402*
X01156673Y0130751*
X01156157Y01307582*
X01155637Y01307619*
X01155116*
X01154596Y01307582*
X01154079Y0130751*
X0115357Y01307402*
X01153069Y01307258*
X01152579Y0130708*
X01152103Y01306868*
X01151642Y01306623*
X011512Y01306347*
X01150779Y0130604*
X01150379Y01305705*
X01150004Y01305343*
X01149656Y01304956*
X01149335Y01304545*
X01149043Y01304113*
X01148783Y01303661*
X01148554Y01303193*
X01148359Y0130271*
X01148198Y01302214*
X01148072Y01301708*
X01147981Y01301195*
X01147927Y01300676*
X01147908Y01300155*
X01147927Y01299634*
X01147981Y01299116*
X01148072Y01298603*
X01148198Y01298097*
X01148359Y01297601*
X01148554Y01297118*
X01148783Y01296649*
X01149043Y01296198*
X01149335Y01295766*
X01149656Y01295355*
X01150004Y01294968*
X01150379Y01294605*
X01150779Y0129427*
X011512Y01293964*
X01151642Y01293688*
X01152103Y01293443*
X01152579Y01293231*
X01153069Y01293053*
X0115357Y01292909*
X01154079Y01292801*
X01154596Y01292728*
X01155116Y01292692*
X01155637*
X01156157Y01292728*
X01156673Y01292801*
X01157183Y01292909*
X01157684Y01293053*
X01158174Y01293231*
X0115865Y01293443*
X0115911Y01293688*
X01159552Y01293964*
X01159974Y0129427*
X01160373Y01294605*
X01160749Y01294968*
X01161097Y01295355*
X01161418Y01295766*
X0116171Y01296198*
X0116197Y01296649*
X01162199Y01297118*
X01162394Y01297601*
X01162555Y01298097*
X01162681Y01298603*
X01162772Y01299116*
X01162826Y01299634*
X01162844Y01300155*
X01188244D02*
D01*
X01188226Y01300676*
X01188172Y01301195*
X01188081Y01301708*
X01187955Y01302214*
X01187794Y0130271*
X01187599Y01303193*
X0118737Y01303661*
X0118711Y01304113*
X01186818Y01304545*
X01186497Y01304956*
X01186149Y01305343*
X01185773Y01305705*
X01185374Y0130604*
X01184952Y01306347*
X0118451Y01306623*
X0118405Y01306868*
X01183574Y0130708*
X01183084Y01307258*
X01182583Y01307402*
X01182073Y0130751*
X01181557Y01307582*
X01181037Y01307619*
X01180516*
X01179996Y01307582*
X01179479Y0130751*
X0117897Y01307402*
X01178469Y01307258*
X01177979Y0130708*
X01177503Y01306868*
X01177042Y01306623*
X011766Y01306347*
X01176179Y0130604*
X01175779Y01305705*
X01175404Y01305343*
X01175056Y01304956*
X01174735Y01304545*
X01174443Y01304113*
X01174183Y01303661*
X01173954Y01303193*
X01173759Y0130271*
X01173598Y01302214*
X01173472Y01301708*
X01173381Y01301195*
X01173327Y01300676*
X01173308Y01300155*
X01173327Y01299634*
X01173381Y01299116*
X01173472Y01298603*
X01173598Y01298097*
X01173759Y01297601*
X01173954Y01297118*
X01174183Y01296649*
X01174443Y01296198*
X01174735Y01295766*
X01175056Y01295355*
X01175404Y01294968*
X01175779Y01294605*
X01176179Y0129427*
X011766Y01293964*
X01177042Y01293688*
X01177503Y01293443*
X01177979Y01293231*
X01178469Y01293053*
X0117897Y01292909*
X01179479Y01292801*
X01179996Y01292728*
X01180516Y01292692*
X01181037*
X01181557Y01292728*
X01182073Y01292801*
X01182583Y01292909*
X01183084Y01293053*
X01183574Y01293231*
X0118405Y01293443*
X0118451Y01293688*
X01184952Y01293964*
X01185374Y0129427*
X01185773Y01294605*
X01186149Y01294968*
X01186497Y01295355*
X01186818Y01295766*
X0118711Y01296198*
X0118737Y01296649*
X01187599Y01297118*
X01187794Y01297601*
X01187955Y01298097*
X01188081Y01298603*
X01188172Y01299116*
X01188226Y01299634*
X01188244Y01300155*
X01213644D02*
D01*
X01213626Y01300676*
X01213572Y01301195*
X01213481Y01301708*
X01213355Y01302214*
X01213194Y0130271*
X01212999Y01303193*
X0121277Y01303661*
X0121251Y01304113*
X01212218Y01304545*
X01211897Y01304956*
X01211549Y01305343*
X01211173Y01305705*
X01210774Y0130604*
X01210352Y01306347*
X0120991Y01306623*
X0120945Y01306868*
X01208974Y0130708*
X01208484Y01307258*
X01207983Y01307402*
X01207473Y0130751*
X01206957Y01307582*
X01206437Y01307619*
X01205916*
X01205396Y01307582*
X01204879Y0130751*
X0120437Y01307402*
X01203869Y01307258*
X01203379Y0130708*
X01202903Y01306868*
X01202442Y01306623*
X01202Y01306347*
X01201579Y0130604*
X01201179Y01305705*
X01200804Y01305343*
X01200456Y01304956*
X01200135Y01304545*
X01199843Y01304113*
X01199583Y01303661*
X01199354Y01303193*
X01199159Y0130271*
X01198998Y01302214*
X01198872Y01301708*
X01198781Y01301195*
X01198727Y01300676*
X01198708Y01300155*
X01198727Y01299634*
X01198781Y01299116*
X01198872Y01298603*
X01198998Y01298097*
X01199159Y01297601*
X01199354Y01297118*
X01199583Y01296649*
X01199843Y01296198*
X01200135Y01295766*
X01200456Y01295355*
X01200804Y01294968*
X01201179Y01294605*
X01201579Y0129427*
X01202Y01293964*
X01202442Y01293688*
X01202903Y01293443*
X01203379Y01293231*
X01203869Y01293053*
X0120437Y01292909*
X01204879Y01292801*
X01205396Y01292728*
X01205916Y01292692*
X01206437*
X01206957Y01292728*
X01207473Y01292801*
X01207983Y01292909*
X01208484Y01293053*
X01208974Y01293231*
X0120945Y01293443*
X0120991Y01293688*
X01210352Y01293964*
X01210774Y0129427*
X01211173Y01294605*
X01211549Y01294968*
X01211897Y01295355*
X01212218Y01295766*
X0121251Y01296198*
X0121277Y01296649*
X01212999Y01297118*
X01213194Y01297601*
X01213355Y01298097*
X01213481Y01298603*
X01213572Y01299116*
X01213626Y01299634*
X01213644Y01300155*
X01239044D02*
D01*
X01239026Y01300676*
X01238972Y01301195*
X01238881Y01301708*
X01238755Y01302214*
X01238594Y0130271*
X01238399Y01303193*
X0123817Y01303661*
X0123791Y01304113*
X01237618Y01304545*
X01237297Y01304956*
X01236949Y01305343*
X01236573Y01305705*
X01236174Y0130604*
X01235752Y01306347*
X0123531Y01306623*
X0123485Y01306868*
X01234374Y0130708*
X01233884Y01307258*
X01233383Y01307402*
X01232873Y0130751*
X01232357Y01307582*
X01231837Y01307619*
X01231316*
X01230796Y01307582*
X01230279Y0130751*
X0122977Y01307402*
X01229269Y01307258*
X01228779Y0130708*
X01228303Y01306868*
X01227842Y01306623*
X012274Y01306347*
X01226979Y0130604*
X01226579Y01305705*
X01226204Y01305343*
X01225856Y01304956*
X01225535Y01304545*
X01225243Y01304113*
X01224983Y01303661*
X01224754Y01303193*
X01224559Y0130271*
X01224398Y01302214*
X01224272Y01301708*
X01224181Y01301195*
X01224127Y01300676*
X01224108Y01300155*
X01224127Y01299634*
X01224181Y01299116*
X01224272Y01298603*
X01224398Y01298097*
X01224559Y01297601*
X01224754Y01297118*
X01224983Y01296649*
X01225243Y01296198*
X01225535Y01295766*
X01225856Y01295355*
X01226204Y01294968*
X01226579Y01294605*
X01226979Y0129427*
X012274Y01293964*
X01227842Y01293688*
X01228303Y01293443*
X01228779Y01293231*
X01229269Y01293053*
X0122977Y01292909*
X01230279Y01292801*
X01230796Y01292728*
X01231316Y01292692*
X01231837*
X01232357Y01292728*
X01232873Y01292801*
X01233383Y01292909*
X01233884Y01293053*
X01234374Y01293231*
X0123485Y01293443*
X0123531Y01293688*
X01235752Y01293964*
X01236174Y0129427*
X01236573Y01294605*
X01236949Y01294968*
X01237297Y01295355*
X01237618Y01295766*
X0123791Y01296198*
X0123817Y01296649*
X01238399Y01297118*
X01238594Y01297601*
X01238755Y01298097*
X01238881Y01298603*
X01238972Y01299116*
X01239026Y01299634*
X01239044Y01300155*
X01264444D02*
D01*
X01264426Y01300676*
X01264372Y01301195*
X01264281Y01301708*
X01264155Y01302214*
X01263994Y0130271*
X01263799Y01303193*
X0126357Y01303661*
X0126331Y01304113*
X01263018Y01304545*
X01262697Y01304956*
X01262349Y01305343*
X01261973Y01305705*
X01261574Y0130604*
X01261152Y01306347*
X0126071Y01306623*
X0126025Y01306868*
X01259774Y0130708*
X01259284Y01307258*
X01258783Y01307402*
X01258273Y0130751*
X01257757Y01307582*
X01257237Y01307619*
X01256716*
X01256196Y01307582*
X01255679Y0130751*
X0125517Y01307402*
X01254669Y01307258*
X01254179Y0130708*
X01253703Y01306868*
X01253242Y01306623*
X012528Y01306347*
X01252379Y0130604*
X01251979Y01305705*
X01251604Y01305343*
X01251256Y01304956*
X01250935Y01304545*
X01250643Y01304113*
X01250383Y01303661*
X01250154Y01303193*
X01249959Y0130271*
X01249798Y01302214*
X01249672Y01301708*
X01249581Y01301195*
X01249527Y01300676*
X01249508Y01300155*
X01249527Y01299634*
X01249581Y01299116*
X01249672Y01298603*
X01249798Y01298097*
X01249959Y01297601*
X01250154Y01297118*
X01250383Y01296649*
X01250643Y01296198*
X01250935Y01295766*
X01251256Y01295355*
X01251604Y01294968*
X01251979Y01294605*
X01252379Y0129427*
X012528Y01293964*
X01253242Y01293688*
X01253703Y01293443*
X01254179Y01293231*
X01254669Y01293053*
X0125517Y01292909*
X01255679Y01292801*
X01256196Y01292728*
X01256716Y01292692*
X01257237*
X01257757Y01292728*
X01258273Y01292801*
X01258783Y01292909*
X01259284Y01293053*
X01259774Y01293231*
X0126025Y01293443*
X0126071Y01293688*
X01261152Y01293964*
X01261574Y0129427*
X01261973Y01294605*
X01262349Y01294968*
X01262697Y01295355*
X01263018Y01295766*
X0126331Y01296198*
X0126357Y01296649*
X01263799Y01297118*
X01263994Y01297601*
X01264155Y01298097*
X01264281Y01298603*
X01264372Y01299116*
X01264426Y01299634*
X01264444Y01300155*
X01289844D02*
D01*
X01289826Y01300676*
X01289772Y01301195*
X01289681Y01301708*
X01289555Y01302214*
X01289394Y0130271*
X01289199Y01303193*
X0128897Y01303661*
X0128871Y01304113*
X01288418Y01304545*
X01288097Y01304956*
X01287749Y01305343*
X01287373Y01305705*
X01286974Y0130604*
X01286552Y01306347*
X0128611Y01306623*
X0128565Y01306868*
X01285174Y0130708*
X01284684Y01307258*
X01284183Y01307402*
X01283673Y0130751*
X01283157Y01307582*
X01282637Y01307619*
X01282116*
X01281596Y01307582*
X01281079Y0130751*
X0128057Y01307402*
X01280069Y01307258*
X01279579Y0130708*
X01279103Y01306868*
X01278642Y01306623*
X012782Y01306347*
X01277779Y0130604*
X01277379Y01305705*
X01277004Y01305343*
X01276656Y01304956*
X01276335Y01304545*
X01276043Y01304113*
X01275783Y01303661*
X01275554Y01303193*
X01275359Y0130271*
X01275198Y01302214*
X01275072Y01301708*
X01274981Y01301195*
X01274927Y01300676*
X01274908Y01300155*
X01274927Y01299634*
X01274981Y01299116*
X01275072Y01298603*
X01275198Y01298097*
X01275359Y01297601*
X01275554Y01297118*
X01275783Y01296649*
X01276043Y01296198*
X01276335Y01295766*
X01276656Y01295355*
X01277004Y01294968*
X01277379Y01294605*
X01277779Y0129427*
X012782Y01293964*
X01278642Y01293688*
X01279103Y01293443*
X01279579Y01293231*
X01280069Y01293053*
X0128057Y01292909*
X01281079Y01292801*
X01281596Y01292728*
X01282116Y01292692*
X01282637*
X01283157Y01292728*
X01283673Y01292801*
X01284183Y01292909*
X01284684Y01293053*
X01285174Y01293231*
X0128565Y01293443*
X0128611Y01293688*
X01286552Y01293964*
X01286974Y0129427*
X01287373Y01294605*
X01287749Y01294968*
X01288097Y01295355*
X01288418Y01295766*
X0128871Y01296198*
X0128897Y01296649*
X01289199Y01297118*
X01289394Y01297601*
X01289555Y01298097*
X01289681Y01298603*
X01289772Y01299116*
X01289826Y01299634*
X01289844Y01300155*
X00527844Y01249355D02*
D01*
X00527826Y01249876*
X00527772Y01250395*
X00527681Y01250908*
X00527555Y01251414*
X00527394Y0125191*
X00527199Y01252393*
X0052697Y01252861*
X0052671Y01253313*
X00526418Y01253745*
X00526097Y01254156*
X00525749Y01254543*
X00525373Y01254905*
X00524974Y0125524*
X00524552Y01255547*
X0052411Y01255823*
X0052365Y01256068*
X00523174Y0125628*
X00522684Y01256458*
X00522183Y01256602*
X00521673Y0125671*
X00521157Y01256782*
X00520637Y01256819*
X00520116*
X00519596Y01256782*
X00519079Y0125671*
X0051857Y01256602*
X00518069Y01256458*
X00517579Y0125628*
X00517103Y01256068*
X00516642Y01255823*
X005162Y01255547*
X00515779Y0125524*
X00515379Y01254905*
X00515004Y01254543*
X00514656Y01254156*
X00514335Y01253745*
X00514043Y01253313*
X00513783Y01252861*
X00513554Y01252393*
X00513359Y0125191*
X00513198Y01251414*
X00513072Y01250908*
X00512981Y01250395*
X00512927Y01249876*
X00512908Y01249355*
X00512927Y01248834*
X00512981Y01248316*
X00513072Y01247803*
X00513198Y01247297*
X00513359Y01246801*
X00513554Y01246318*
X00513783Y01245849*
X00514043Y01245398*
X00514335Y01244966*
X00514656Y01244555*
X00515004Y01244168*
X00515379Y01243805*
X00515779Y0124347*
X005162Y01243164*
X00516642Y01242888*
X00517103Y01242643*
X00517579Y01242431*
X00518069Y01242253*
X0051857Y01242109*
X00519079Y01242001*
X00519596Y01241928*
X00520116Y01241892*
X00520637*
X00521157Y01241928*
X00521673Y01242001*
X00522183Y01242109*
X00522684Y01242253*
X00523174Y01242431*
X0052365Y01242643*
X0052411Y01242888*
X00524552Y01243164*
X00524974Y0124347*
X00525373Y01243805*
X00525749Y01244168*
X00526097Y01244555*
X00526418Y01244966*
X0052671Y01245398*
X0052697Y01245849*
X00527199Y01246318*
X00527394Y01246801*
X00527555Y01247297*
X00527681Y01247803*
X00527772Y01248316*
X00527826Y01248834*
X00527844Y01249355*
X00502444D02*
D01*
X00502426Y01249876*
X00502372Y01250395*
X00502281Y01250908*
X00502155Y01251414*
X00501994Y0125191*
X00501799Y01252393*
X0050157Y01252861*
X0050131Y01253313*
X00501018Y01253745*
X00500697Y01254156*
X00500349Y01254543*
X00499973Y01254905*
X00499574Y0125524*
X00499152Y01255547*
X0049871Y01255823*
X0049825Y01256068*
X00497774Y0125628*
X00497284Y01256458*
X00496783Y01256602*
X00496273Y0125671*
X00495757Y01256782*
X00495237Y01256819*
X00494716*
X00494196Y01256782*
X00493679Y0125671*
X0049317Y01256602*
X00492669Y01256458*
X00492179Y0125628*
X00491703Y01256068*
X00491242Y01255823*
X004908Y01255547*
X00490379Y0125524*
X00489979Y01254905*
X00489604Y01254543*
X00489256Y01254156*
X00488935Y01253745*
X00488643Y01253313*
X00488383Y01252861*
X00488154Y01252393*
X00487959Y0125191*
X00487798Y01251414*
X00487672Y01250908*
X00487581Y01250395*
X00487527Y01249876*
X00487508Y01249355*
X00487527Y01248834*
X00487581Y01248316*
X00487672Y01247803*
X00487798Y01247297*
X00487959Y01246801*
X00488154Y01246318*
X00488383Y01245849*
X00488643Y01245398*
X00488935Y01244966*
X00489256Y01244555*
X00489604Y01244168*
X00489979Y01243805*
X00490379Y0124347*
X004908Y01243164*
X00491242Y01242888*
X00491703Y01242643*
X00492179Y01242431*
X00492669Y01242253*
X0049317Y01242109*
X00493679Y01242001*
X00494196Y01241928*
X00494716Y01241892*
X00495237*
X00495757Y01241928*
X00496273Y01242001*
X00496783Y01242109*
X00497284Y01242253*
X00497774Y01242431*
X0049825Y01242643*
X0049871Y01242888*
X00499152Y01243164*
X00499574Y0124347*
X00499973Y01243805*
X00500349Y01244168*
X00500697Y01244555*
X00501018Y01244966*
X0050131Y01245398*
X0050157Y01245849*
X00501799Y01246318*
X00501994Y01246801*
X00502155Y01247297*
X00502281Y01247803*
X00502372Y01248316*
X00502426Y01248834*
X00502444Y01249355*
X00553244D02*
D01*
X00553226Y01249876*
X00553172Y01250395*
X00553081Y01250908*
X00552955Y01251414*
X00552794Y0125191*
X00552599Y01252393*
X0055237Y01252861*
X0055211Y01253313*
X00551818Y01253745*
X00551497Y01254156*
X00551149Y01254543*
X00550773Y01254905*
X00550374Y0125524*
X00549952Y01255547*
X0054951Y01255823*
X0054905Y01256068*
X00548574Y0125628*
X00548084Y01256458*
X00547583Y01256602*
X00547073Y0125671*
X00546557Y01256782*
X00546037Y01256819*
X00545516*
X00544996Y01256782*
X00544479Y0125671*
X0054397Y01256602*
X00543469Y01256458*
X00542979Y0125628*
X00542503Y01256068*
X00542042Y01255823*
X005416Y01255547*
X00541179Y0125524*
X00540779Y01254905*
X00540404Y01254543*
X00540056Y01254156*
X00539735Y01253745*
X00539443Y01253313*
X00539183Y01252861*
X00538954Y01252393*
X00538759Y0125191*
X00538598Y01251414*
X00538472Y01250908*
X00538381Y01250395*
X00538327Y01249876*
X00538308Y01249355*
X00538327Y01248834*
X00538381Y01248316*
X00538472Y01247803*
X00538598Y01247297*
X00538759Y01246801*
X00538954Y01246318*
X00539183Y01245849*
X00539443Y01245398*
X00539735Y01244966*
X00540056Y01244555*
X00540404Y01244168*
X00540779Y01243805*
X00541179Y0124347*
X005416Y01243164*
X00542042Y01242888*
X00542503Y01242643*
X00542979Y01242431*
X00543469Y01242253*
X0054397Y01242109*
X00544479Y01242001*
X00544996Y01241928*
X00545516Y01241892*
X00546037*
X00546557Y01241928*
X00547073Y01242001*
X00547583Y01242109*
X00548084Y01242253*
X00548574Y01242431*
X0054905Y01242643*
X0054951Y01242888*
X00549952Y01243164*
X00550374Y0124347*
X00550773Y01243805*
X00551149Y01244168*
X00551497Y01244555*
X00551818Y01244966*
X0055211Y01245398*
X0055237Y01245849*
X00552599Y01246318*
X00552794Y01246801*
X00552955Y01247297*
X00553081Y01247803*
X00553172Y01248316*
X00553226Y01248834*
X00553244Y01249355*
X00578644D02*
D01*
X00578626Y01249876*
X00578572Y01250395*
X00578481Y01250908*
X00578355Y01251414*
X00578194Y0125191*
X00577999Y01252393*
X0057777Y01252861*
X0057751Y01253313*
X00577218Y01253745*
X00576897Y01254156*
X00576549Y01254543*
X00576173Y01254905*
X00575774Y0125524*
X00575352Y01255547*
X0057491Y01255823*
X0057445Y01256068*
X00573974Y0125628*
X00573484Y01256458*
X00572983Y01256602*
X00572473Y0125671*
X00571957Y01256782*
X00571437Y01256819*
X00570916*
X00570396Y01256782*
X00569879Y0125671*
X0056937Y01256602*
X00568869Y01256458*
X00568379Y0125628*
X00567903Y01256068*
X00567442Y01255823*
X00567Y01255547*
X00566579Y0125524*
X00566179Y01254905*
X00565804Y01254543*
X00565456Y01254156*
X00565135Y01253745*
X00564843Y01253313*
X00564583Y01252861*
X00564354Y01252393*
X00564159Y0125191*
X00563998Y01251414*
X00563872Y01250908*
X00563781Y01250395*
X00563727Y01249876*
X00563708Y01249355*
X00563727Y01248834*
X00563781Y01248316*
X00563872Y01247803*
X00563998Y01247297*
X00564159Y01246801*
X00564354Y01246318*
X00564583Y01245849*
X00564843Y01245398*
X00565135Y01244966*
X00565456Y01244555*
X00565804Y01244168*
X00566179Y01243805*
X00566579Y0124347*
X00567Y01243164*
X00567442Y01242888*
X00567903Y01242643*
X00568379Y01242431*
X00568869Y01242253*
X0056937Y01242109*
X00569879Y01242001*
X00570396Y01241928*
X00570916Y01241892*
X00571437*
X00571957Y01241928*
X00572473Y01242001*
X00572983Y01242109*
X00573484Y01242253*
X00573974Y01242431*
X0057445Y01242643*
X0057491Y01242888*
X00575352Y01243164*
X00575774Y0124347*
X00576173Y01243805*
X00576549Y01244168*
X00576897Y01244555*
X00577218Y01244966*
X0057751Y01245398*
X0057777Y01245849*
X00577999Y01246318*
X00578194Y01246801*
X00578355Y01247297*
X00578481Y01247803*
X00578572Y01248316*
X00578626Y01248834*
X00578644Y01249355*
X00604044D02*
D01*
X00604026Y01249876*
X00603972Y01250395*
X00603881Y01250908*
X00603755Y01251414*
X00603594Y0125191*
X00603399Y01252393*
X0060317Y01252861*
X0060291Y01253313*
X00602618Y01253745*
X00602297Y01254156*
X00601949Y01254543*
X00601573Y01254905*
X00601174Y0125524*
X00600752Y01255547*
X0060031Y01255823*
X0059985Y01256068*
X00599374Y0125628*
X00598884Y01256458*
X00598383Y01256602*
X00597873Y0125671*
X00597357Y01256782*
X00596837Y01256819*
X00596316*
X00595796Y01256782*
X00595279Y0125671*
X0059477Y01256602*
X00594269Y01256458*
X00593779Y0125628*
X00593303Y01256068*
X00592842Y01255823*
X005924Y01255547*
X00591979Y0125524*
X00591579Y01254905*
X00591204Y01254543*
X00590856Y01254156*
X00590535Y01253745*
X00590243Y01253313*
X00589983Y01252861*
X00589754Y01252393*
X00589559Y0125191*
X00589398Y01251414*
X00589272Y01250908*
X00589181Y01250395*
X00589127Y01249876*
X00589108Y01249355*
X00589127Y01248834*
X00589181Y01248316*
X00589272Y01247803*
X00589398Y01247297*
X00589559Y01246801*
X00589754Y01246318*
X00589983Y01245849*
X00590243Y01245398*
X00590535Y01244966*
X00590856Y01244555*
X00591204Y01244168*
X00591579Y01243805*
X00591979Y0124347*
X005924Y01243164*
X00592842Y01242888*
X00593303Y01242643*
X00593779Y01242431*
X00594269Y01242253*
X0059477Y01242109*
X00595279Y01242001*
X00595796Y01241928*
X00596316Y01241892*
X00596837*
X00597357Y01241928*
X00597873Y01242001*
X00598383Y01242109*
X00598884Y01242253*
X00599374Y01242431*
X0059985Y01242643*
X0060031Y01242888*
X00600752Y01243164*
X00601174Y0124347*
X00601573Y01243805*
X00601949Y01244168*
X00602297Y01244555*
X00602618Y01244966*
X0060291Y01245398*
X0060317Y01245849*
X00603399Y01246318*
X00603594Y01246801*
X00603755Y01247297*
X00603881Y01247803*
X00603972Y01248316*
X00604026Y01248834*
X00604044Y01249355*
X00629444D02*
D01*
X00629426Y01249876*
X00629372Y01250395*
X00629281Y01250908*
X00629155Y01251414*
X00628994Y0125191*
X00628799Y01252393*
X0062857Y01252861*
X0062831Y01253313*
X00628018Y01253745*
X00627697Y01254156*
X00627349Y01254543*
X00626973Y01254905*
X00626574Y0125524*
X00626152Y01255547*
X0062571Y01255823*
X0062525Y01256068*
X00624774Y0125628*
X00624284Y01256458*
X00623783Y01256602*
X00623273Y0125671*
X00622757Y01256782*
X00622237Y01256819*
X00621716*
X00621196Y01256782*
X00620679Y0125671*
X0062017Y01256602*
X00619669Y01256458*
X00619179Y0125628*
X00618703Y01256068*
X00618242Y01255823*
X006178Y01255547*
X00617379Y0125524*
X00616979Y01254905*
X00616604Y01254543*
X00616256Y01254156*
X00615935Y01253745*
X00615643Y01253313*
X00615383Y01252861*
X00615154Y01252393*
X00614959Y0125191*
X00614798Y01251414*
X00614672Y01250908*
X00614581Y01250395*
X00614527Y01249876*
X00614508Y01249355*
X00614527Y01248834*
X00614581Y01248316*
X00614672Y01247803*
X00614798Y01247297*
X00614959Y01246801*
X00615154Y01246318*
X00615383Y01245849*
X00615643Y01245398*
X00615935Y01244966*
X00616256Y01244555*
X00616604Y01244168*
X00616979Y01243805*
X00617379Y0124347*
X006178Y01243164*
X00618242Y01242888*
X00618703Y01242643*
X00619179Y01242431*
X00619669Y01242253*
X0062017Y01242109*
X00620679Y01242001*
X00621196Y01241928*
X00621716Y01241892*
X00622237*
X00622757Y01241928*
X00623273Y01242001*
X00623783Y01242109*
X00624284Y01242253*
X00624774Y01242431*
X0062525Y01242643*
X0062571Y01242888*
X00626152Y01243164*
X00626574Y0124347*
X00626973Y01243805*
X00627349Y01244168*
X00627697Y01244555*
X00628018Y01244966*
X0062831Y01245398*
X0062857Y01245849*
X00628799Y01246318*
X00628994Y01246801*
X00629155Y01247297*
X00629281Y01247803*
X00629372Y01248316*
X00629426Y01248834*
X00629444Y01249355*
X00654844D02*
D01*
X00654826Y01249876*
X00654772Y01250395*
X00654681Y01250908*
X00654555Y01251414*
X00654394Y0125191*
X00654199Y01252393*
X0065397Y01252861*
X0065371Y01253313*
X00653418Y01253745*
X00653097Y01254156*
X00652749Y01254543*
X00652373Y01254905*
X00651974Y0125524*
X00651552Y01255547*
X0065111Y01255823*
X0065065Y01256068*
X00650174Y0125628*
X00649684Y01256458*
X00649183Y01256602*
X00648673Y0125671*
X00648157Y01256782*
X00647637Y01256819*
X00647116*
X00646596Y01256782*
X00646079Y0125671*
X0064557Y01256602*
X00645069Y01256458*
X00644579Y0125628*
X00644103Y01256068*
X00643642Y01255823*
X006432Y01255547*
X00642779Y0125524*
X00642379Y01254905*
X00642004Y01254543*
X00641656Y01254156*
X00641335Y01253745*
X00641043Y01253313*
X00640783Y01252861*
X00640554Y01252393*
X00640359Y0125191*
X00640198Y01251414*
X00640072Y01250908*
X00639981Y01250395*
X00639927Y01249876*
X00639908Y01249355*
X00639927Y01248834*
X00639981Y01248316*
X00640072Y01247803*
X00640198Y01247297*
X00640359Y01246801*
X00640554Y01246318*
X00640783Y01245849*
X00641043Y01245398*
X00641335Y01244966*
X00641656Y01244555*
X00642004Y01244168*
X00642379Y01243805*
X00642779Y0124347*
X006432Y01243164*
X00643642Y01242888*
X00644103Y01242643*
X00644579Y01242431*
X00645069Y01242253*
X0064557Y01242109*
X00646079Y01242001*
X00646596Y01241928*
X00647116Y01241892*
X00647637*
X00648157Y01241928*
X00648673Y01242001*
X00649183Y01242109*
X00649684Y01242253*
X00650174Y01242431*
X0065065Y01242643*
X0065111Y01242888*
X00651552Y01243164*
X00651974Y0124347*
X00652373Y01243805*
X00652749Y01244168*
X00653097Y01244555*
X00653418Y01244966*
X0065371Y01245398*
X0065397Y01245849*
X00654199Y01246318*
X00654394Y01246801*
X00654555Y01247297*
X00654681Y01247803*
X00654772Y01248316*
X00654826Y01248834*
X00654844Y01249355*
X00680244D02*
D01*
X00680226Y01249876*
X00680172Y01250395*
X00680081Y01250908*
X00679955Y01251414*
X00679794Y0125191*
X00679599Y01252393*
X0067937Y01252861*
X0067911Y01253313*
X00678818Y01253745*
X00678497Y01254156*
X00678149Y01254543*
X00677773Y01254905*
X00677374Y0125524*
X00676952Y01255547*
X0067651Y01255823*
X0067605Y01256068*
X00675574Y0125628*
X00675084Y01256458*
X00674583Y01256602*
X00674073Y0125671*
X00673557Y01256782*
X00673037Y01256819*
X00672516*
X00671996Y01256782*
X00671479Y0125671*
X0067097Y01256602*
X00670469Y01256458*
X00669979Y0125628*
X00669503Y01256068*
X00669042Y01255823*
X006686Y01255547*
X00668179Y0125524*
X00667779Y01254905*
X00667404Y01254543*
X00667056Y01254156*
X00666735Y01253745*
X00666443Y01253313*
X00666183Y01252861*
X00665954Y01252393*
X00665759Y0125191*
X00665598Y01251414*
X00665472Y01250908*
X00665381Y01250395*
X00665327Y01249876*
X00665308Y01249355*
X00665327Y01248834*
X00665381Y01248316*
X00665472Y01247803*
X00665598Y01247297*
X00665759Y01246801*
X00665954Y01246318*
X00666183Y01245849*
X00666443Y01245398*
X00666735Y01244966*
X00667056Y01244555*
X00667404Y01244168*
X00667779Y01243805*
X00668179Y0124347*
X006686Y01243164*
X00669042Y01242888*
X00669503Y01242643*
X00669979Y01242431*
X00670469Y01242253*
X0067097Y01242109*
X00671479Y01242001*
X00671996Y01241928*
X00672516Y01241892*
X00673037*
X00673557Y01241928*
X00674073Y01242001*
X00674583Y01242109*
X00675084Y01242253*
X00675574Y01242431*
X0067605Y01242643*
X0067651Y01242888*
X00676952Y01243164*
X00677374Y0124347*
X00677773Y01243805*
X00678149Y01244168*
X00678497Y01244555*
X00678818Y01244966*
X0067911Y01245398*
X0067937Y01245849*
X00679599Y01246318*
X00679794Y01246801*
X00679955Y01247297*
X00680081Y01247803*
X00680172Y01248316*
X00680226Y01248834*
X00680244Y01249355*
X01289844D02*
D01*
X01289826Y01249876*
X01289772Y01250395*
X01289681Y01250908*
X01289555Y01251414*
X01289394Y0125191*
X01289199Y01252393*
X0128897Y01252861*
X0128871Y01253313*
X01288418Y01253745*
X01288097Y01254156*
X01287749Y01254543*
X01287373Y01254905*
X01286974Y0125524*
X01286552Y01255547*
X0128611Y01255823*
X0128565Y01256068*
X01285174Y0125628*
X01284684Y01256458*
X01284183Y01256602*
X01283673Y0125671*
X01283157Y01256782*
X01282637Y01256819*
X01282116*
X01281596Y01256782*
X01281079Y0125671*
X0128057Y01256602*
X01280069Y01256458*
X01279579Y0125628*
X01279103Y01256068*
X01278642Y01255823*
X012782Y01255547*
X01277779Y0125524*
X01277379Y01254905*
X01277004Y01254543*
X01276656Y01254156*
X01276335Y01253745*
X01276043Y01253313*
X01275783Y01252861*
X01275554Y01252393*
X01275359Y0125191*
X01275198Y01251414*
X01275072Y01250908*
X01274981Y01250395*
X01274927Y01249876*
X01274908Y01249355*
X01274927Y01248834*
X01274981Y01248316*
X01275072Y01247803*
X01275198Y01247297*
X01275359Y01246801*
X01275554Y01246318*
X01275783Y01245849*
X01276043Y01245398*
X01276335Y01244966*
X01276656Y01244555*
X01277004Y01244168*
X01277379Y01243805*
X01277779Y0124347*
X012782Y01243164*
X01278642Y01242888*
X01279103Y01242643*
X01279579Y01242431*
X01280069Y01242253*
X0128057Y01242109*
X01281079Y01242001*
X01281596Y01241928*
X01282116Y01241892*
X01282637*
X01283157Y01241928*
X01283673Y01242001*
X01284183Y01242109*
X01284684Y01242253*
X01285174Y01242431*
X0128565Y01242643*
X0128611Y01242888*
X01286552Y01243164*
X01286974Y0124347*
X01287373Y01243805*
X01287749Y01244168*
X01288097Y01244555*
X01288418Y01244966*
X0128871Y01245398*
X0128897Y01245849*
X01289199Y01246318*
X01289394Y01246801*
X01289555Y01247297*
X01289681Y01247803*
X01289772Y01248316*
X01289826Y01248834*
X01289844Y01249355*
X01264444D02*
D01*
X01264426Y01249876*
X01264372Y01250395*
X01264281Y01250908*
X01264155Y01251414*
X01263994Y0125191*
X01263799Y01252393*
X0126357Y01252861*
X0126331Y01253313*
X01263018Y01253745*
X01262697Y01254156*
X01262349Y01254543*
X01261973Y01254905*
X01261574Y0125524*
X01261152Y01255547*
X0126071Y01255823*
X0126025Y01256068*
X01259774Y0125628*
X01259284Y01256458*
X01258783Y01256602*
X01258273Y0125671*
X01257757Y01256782*
X01257237Y01256819*
X01256716*
X01256196Y01256782*
X01255679Y0125671*
X0125517Y01256602*
X01254669Y01256458*
X01254179Y0125628*
X01253703Y01256068*
X01253242Y01255823*
X012528Y01255547*
X01252379Y0125524*
X01251979Y01254905*
X01251604Y01254543*
X01251256Y01254156*
X01250935Y01253745*
X01250643Y01253313*
X01250383Y01252861*
X01250154Y01252393*
X01249959Y0125191*
X01249798Y01251414*
X01249672Y01250908*
X01249581Y01250395*
X01249527Y01249876*
X01249508Y01249355*
X01249527Y01248834*
X01249581Y01248316*
X01249672Y01247803*
X01249798Y01247297*
X01249959Y01246801*
X01250154Y01246318*
X01250383Y01245849*
X01250643Y01245398*
X01250935Y01244966*
X01251256Y01244555*
X01251604Y01244168*
X01251979Y01243805*
X01252379Y0124347*
X012528Y01243164*
X01253242Y01242888*
X01253703Y01242643*
X01254179Y01242431*
X01254669Y01242253*
X0125517Y01242109*
X01255679Y01242001*
X01256196Y01241928*
X01256716Y01241892*
X01257237*
X01257757Y01241928*
X01258273Y01242001*
X01258783Y01242109*
X01259284Y01242253*
X01259774Y01242431*
X0126025Y01242643*
X0126071Y01242888*
X01261152Y01243164*
X01261574Y0124347*
X01261973Y01243805*
X01262349Y01244168*
X01262697Y01244555*
X01263018Y01244966*
X0126331Y01245398*
X0126357Y01245849*
X01263799Y01246318*
X01263994Y01246801*
X01264155Y01247297*
X01264281Y01247803*
X01264372Y01248316*
X01264426Y01248834*
X01264444Y01249355*
X01239044D02*
D01*
X01239026Y01249876*
X01238972Y01250395*
X01238881Y01250908*
X01238755Y01251414*
X01238594Y0125191*
X01238399Y01252393*
X0123817Y01252861*
X0123791Y01253313*
X01237618Y01253745*
X01237297Y01254156*
X01236949Y01254543*
X01236573Y01254905*
X01236174Y0125524*
X01235752Y01255547*
X0123531Y01255823*
X0123485Y01256068*
X01234374Y0125628*
X01233884Y01256458*
X01233383Y01256602*
X01232873Y0125671*
X01232357Y01256782*
X01231837Y01256819*
X01231316*
X01230796Y01256782*
X01230279Y0125671*
X0122977Y01256602*
X01229269Y01256458*
X01228779Y0125628*
X01228303Y01256068*
X01227842Y01255823*
X012274Y01255547*
X01226979Y0125524*
X01226579Y01254905*
X01226204Y01254543*
X01225856Y01254156*
X01225535Y01253745*
X01225243Y01253313*
X01224983Y01252861*
X01224754Y01252393*
X01224559Y0125191*
X01224398Y01251414*
X01224272Y01250908*
X01224181Y01250395*
X01224127Y01249876*
X01224108Y01249355*
X01224127Y01248834*
X01224181Y01248316*
X01224272Y01247803*
X01224398Y01247297*
X01224559Y01246801*
X01224754Y01246318*
X01224983Y01245849*
X01225243Y01245398*
X01225535Y01244966*
X01225856Y01244555*
X01226204Y01244168*
X01226579Y01243805*
X01226979Y0124347*
X012274Y01243164*
X01227842Y01242888*
X01228303Y01242643*
X01228779Y01242431*
X01229269Y01242253*
X0122977Y01242109*
X01230279Y01242001*
X01230796Y01241928*
X01231316Y01241892*
X01231837*
X01232357Y01241928*
X01232873Y01242001*
X01233383Y01242109*
X01233884Y01242253*
X01234374Y01242431*
X0123485Y01242643*
X0123531Y01242888*
X01235752Y01243164*
X01236174Y0124347*
X01236573Y01243805*
X01236949Y01244168*
X01237297Y01244555*
X01237618Y01244966*
X0123791Y01245398*
X0123817Y01245849*
X01238399Y01246318*
X01238594Y01246801*
X01238755Y01247297*
X01238881Y01247803*
X01238972Y01248316*
X01239026Y01248834*
X01239044Y01249355*
X01213644D02*
D01*
X01213626Y01249876*
X01213572Y01250395*
X01213481Y01250908*
X01213355Y01251414*
X01213194Y0125191*
X01212999Y01252393*
X0121277Y01252861*
X0121251Y01253313*
X01212218Y01253745*
X01211897Y01254156*
X01211549Y01254543*
X01211173Y01254905*
X01210774Y0125524*
X01210352Y01255547*
X0120991Y01255823*
X0120945Y01256068*
X01208974Y0125628*
X01208484Y01256458*
X01207983Y01256602*
X01207473Y0125671*
X01206957Y01256782*
X01206437Y01256819*
X01205916*
X01205396Y01256782*
X01204879Y0125671*
X0120437Y01256602*
X01203869Y01256458*
X01203379Y0125628*
X01202903Y01256068*
X01202442Y01255823*
X01202Y01255547*
X01201579Y0125524*
X01201179Y01254905*
X01200804Y01254543*
X01200456Y01254156*
X01200135Y01253745*
X01199843Y01253313*
X01199583Y01252861*
X01199354Y01252393*
X01199159Y0125191*
X01198998Y01251414*
X01198872Y01250908*
X01198781Y01250395*
X01198727Y01249876*
X01198708Y01249355*
X01198727Y01248834*
X01198781Y01248316*
X01198872Y01247803*
X01198998Y01247297*
X01199159Y01246801*
X01199354Y01246318*
X01199583Y01245849*
X01199843Y01245398*
X01200135Y01244966*
X01200456Y01244555*
X01200804Y01244168*
X01201179Y01243805*
X01201579Y0124347*
X01202Y01243164*
X01202442Y01242888*
X01202903Y01242643*
X01203379Y01242431*
X01203869Y01242253*
X0120437Y01242109*
X01204879Y01242001*
X01205396Y01241928*
X01205916Y01241892*
X01206437*
X01206957Y01241928*
X01207473Y01242001*
X01207983Y01242109*
X01208484Y01242253*
X01208974Y01242431*
X0120945Y01242643*
X0120991Y01242888*
X01210352Y01243164*
X01210774Y0124347*
X01211173Y01243805*
X01211549Y01244168*
X01211897Y01244555*
X01212218Y01244966*
X0121251Y01245398*
X0121277Y01245849*
X01212999Y01246318*
X01213194Y01246801*
X01213355Y01247297*
X01213481Y01247803*
X01213572Y01248316*
X01213626Y01248834*
X01213644Y01249355*
X01188244D02*
D01*
X01188226Y01249876*
X01188172Y01250395*
X01188081Y01250908*
X01187955Y01251414*
X01187794Y0125191*
X01187599Y01252393*
X0118737Y01252861*
X0118711Y01253313*
X01186818Y01253745*
X01186497Y01254156*
X01186149Y01254543*
X01185773Y01254905*
X01185374Y0125524*
X01184952Y01255547*
X0118451Y01255823*
X0118405Y01256068*
X01183574Y0125628*
X01183084Y01256458*
X01182583Y01256602*
X01182073Y0125671*
X01181557Y01256782*
X01181037Y01256819*
X01180516*
X01179996Y01256782*
X01179479Y0125671*
X0117897Y01256602*
X01178469Y01256458*
X01177979Y0125628*
X01177503Y01256068*
X01177042Y01255823*
X011766Y01255547*
X01176179Y0125524*
X01175779Y01254905*
X01175404Y01254543*
X01175056Y01254156*
X01174735Y01253745*
X01174443Y01253313*
X01174183Y01252861*
X01173954Y01252393*
X01173759Y0125191*
X01173598Y01251414*
X01173472Y01250908*
X01173381Y01250395*
X01173327Y01249876*
X01173308Y01249355*
X01173327Y01248834*
X01173381Y01248316*
X01173472Y01247803*
X01173598Y01247297*
X01173759Y01246801*
X01173954Y01246318*
X01174183Y01245849*
X01174443Y01245398*
X01174735Y01244966*
X01175056Y01244555*
X01175404Y01244168*
X01175779Y01243805*
X01176179Y0124347*
X011766Y01243164*
X01177042Y01242888*
X01177503Y01242643*
X01177979Y01242431*
X01178469Y01242253*
X0117897Y01242109*
X01179479Y01242001*
X01179996Y01241928*
X01180516Y01241892*
X01181037*
X01181557Y01241928*
X01182073Y01242001*
X01182583Y01242109*
X01183084Y01242253*
X01183574Y01242431*
X0118405Y01242643*
X0118451Y01242888*
X01184952Y01243164*
X01185374Y0124347*
X01185773Y01243805*
X01186149Y01244168*
X01186497Y01244555*
X01186818Y01244966*
X0118711Y01245398*
X0118737Y01245849*
X01187599Y01246318*
X01187794Y01246801*
X01187955Y01247297*
X01188081Y01247803*
X01188172Y01248316*
X01188226Y01248834*
X01188244Y01249355*
X01162844D02*
D01*
X01162826Y01249876*
X01162772Y01250395*
X01162681Y01250908*
X01162555Y01251414*
X01162394Y0125191*
X01162199Y01252393*
X0116197Y01252861*
X0116171Y01253313*
X01161418Y01253745*
X01161097Y01254156*
X01160749Y01254543*
X01160373Y01254905*
X01159974Y0125524*
X01159552Y01255547*
X0115911Y01255823*
X0115865Y01256068*
X01158174Y0125628*
X01157684Y01256458*
X01157183Y01256602*
X01156673Y0125671*
X01156157Y01256782*
X01155637Y01256819*
X01155116*
X01154596Y01256782*
X01154079Y0125671*
X0115357Y01256602*
X01153069Y01256458*
X01152579Y0125628*
X01152103Y01256068*
X01151642Y01255823*
X011512Y01255547*
X01150779Y0125524*
X01150379Y01254905*
X01150004Y01254543*
X01149656Y01254156*
X01149335Y01253745*
X01149043Y01253313*
X01148783Y01252861*
X01148554Y01252393*
X01148359Y0125191*
X01148198Y01251414*
X01148072Y01250908*
X01147981Y01250395*
X01147927Y01249876*
X01147908Y01249355*
X01147927Y01248834*
X01147981Y01248316*
X01148072Y01247803*
X01148198Y01247297*
X01148359Y01246801*
X01148554Y01246318*
X01148783Y01245849*
X01149043Y01245398*
X01149335Y01244966*
X01149656Y01244555*
X01150004Y01244168*
X01150379Y01243805*
X01150779Y0124347*
X011512Y01243164*
X01151642Y01242888*
X01152103Y01242643*
X01152579Y01242431*
X01153069Y01242253*
X0115357Y01242109*
X01154079Y01242001*
X01154596Y01241928*
X01155116Y01241892*
X01155637*
X01156157Y01241928*
X01156673Y01242001*
X01157183Y01242109*
X01157684Y01242253*
X01158174Y01242431*
X0115865Y01242643*
X0115911Y01242888*
X01159552Y01243164*
X01159974Y0124347*
X01160373Y01243805*
X01160749Y01244168*
X01161097Y01244555*
X01161418Y01244966*
X0116171Y01245398*
X0116197Y01245849*
X01162199Y01246318*
X01162394Y01246801*
X01162555Y01247297*
X01162681Y01247803*
X01162772Y01248316*
X01162826Y01248834*
X01162844Y01249355*
X01137444D02*
D01*
X01137426Y01249876*
X01137372Y01250395*
X01137281Y01250908*
X01137155Y01251414*
X01136994Y0125191*
X01136799Y01252393*
X0113657Y01252861*
X0113631Y01253313*
X01136018Y01253745*
X01135697Y01254156*
X01135349Y01254543*
X01134973Y01254905*
X01134574Y0125524*
X01134152Y01255547*
X0113371Y01255823*
X0113325Y01256068*
X01132774Y0125628*
X01132284Y01256458*
X01131783Y01256602*
X01131273Y0125671*
X01130757Y01256782*
X01130237Y01256819*
X01129716*
X01129196Y01256782*
X01128679Y0125671*
X0112817Y01256602*
X01127669Y01256458*
X01127179Y0125628*
X01126703Y01256068*
X01126242Y01255823*
X011258Y01255547*
X01125379Y0125524*
X01124979Y01254905*
X01124604Y01254543*
X01124256Y01254156*
X01123935Y01253745*
X01123643Y01253313*
X01123383Y01252861*
X01123154Y01252393*
X01122959Y0125191*
X01122798Y01251414*
X01122672Y01250908*
X01122581Y01250395*
X01122527Y01249876*
X01122508Y01249355*
X01122527Y01248834*
X01122581Y01248316*
X01122672Y01247803*
X01122798Y01247297*
X01122959Y01246801*
X01123154Y01246318*
X01123383Y01245849*
X01123643Y01245398*
X01123935Y01244966*
X01124256Y01244555*
X01124604Y01244168*
X01124979Y01243805*
X01125379Y0124347*
X011258Y01243164*
X01126242Y01242888*
X01126703Y01242643*
X01127179Y01242431*
X01127669Y01242253*
X0112817Y01242109*
X01128679Y01242001*
X01129196Y01241928*
X01129716Y01241892*
X01130237*
X01130757Y01241928*
X01131273Y01242001*
X01131783Y01242109*
X01132284Y01242253*
X01132774Y01242431*
X0113325Y01242643*
X0113371Y01242888*
X01134152Y01243164*
X01134574Y0124347*
X01134973Y01243805*
X01135349Y01244168*
X01135697Y01244555*
X01136018Y01244966*
X0113631Y01245398*
X0113657Y01245849*
X01136799Y01246318*
X01136994Y01246801*
X01137155Y01247297*
X01137281Y01247803*
X01137372Y01248316*
X01137426Y01248834*
X01137444Y01249355*
X01112044D02*
D01*
X01112026Y01249876*
X01111972Y01250395*
X01111881Y01250908*
X01111755Y01251414*
X01111594Y0125191*
X01111399Y01252393*
X0111117Y01252861*
X0111091Y01253313*
X01110618Y01253745*
X01110297Y01254156*
X01109949Y01254543*
X01109573Y01254905*
X01109174Y0125524*
X01108752Y01255547*
X0110831Y01255823*
X0110785Y01256068*
X01107374Y0125628*
X01106884Y01256458*
X01106383Y01256602*
X01105873Y0125671*
X01105357Y01256782*
X01104837Y01256819*
X01104316*
X01103796Y01256782*
X01103279Y0125671*
X0110277Y01256602*
X01102269Y01256458*
X01101779Y0125628*
X01101303Y01256068*
X01100842Y01255823*
X011004Y01255547*
X01099979Y0125524*
X01099579Y01254905*
X01099204Y01254543*
X01098856Y01254156*
X01098535Y01253745*
X01098243Y01253313*
X01097983Y01252861*
X01097754Y01252393*
X01097559Y0125191*
X01097398Y01251414*
X01097272Y01250908*
X01097181Y01250395*
X01097127Y01249876*
X01097108Y01249355*
X01097127Y01248834*
X01097181Y01248316*
X01097272Y01247803*
X01097398Y01247297*
X01097559Y01246801*
X01097754Y01246318*
X01097983Y01245849*
X01098243Y01245398*
X01098535Y01244966*
X01098856Y01244555*
X01099204Y01244168*
X01099579Y01243805*
X01099979Y0124347*
X011004Y01243164*
X01100842Y01242888*
X01101303Y01242643*
X01101779Y01242431*
X01102269Y01242253*
X0110277Y01242109*
X01103279Y01242001*
X01103796Y01241928*
X01104316Y01241892*
X01104837*
X01105357Y01241928*
X01105873Y01242001*
X01106383Y01242109*
X01106884Y01242253*
X01107374Y01242431*
X0110785Y01242643*
X0110831Y01242888*
X01108752Y01243164*
X01109174Y0124347*
X01109573Y01243805*
X01109949Y01244168*
X01110297Y01244555*
X01110618Y01244966*
X0111091Y01245398*
X0111117Y01245849*
X01111399Y01246318*
X01111594Y01246801*
X01111755Y01247297*
X01111881Y01247803*
X01111972Y01248316*
X01112026Y01248834*
X01112044Y01249355*
X01086644D02*
D01*
X01086626Y01249876*
X01086572Y01250395*
X01086481Y01250908*
X01086355Y01251414*
X01086194Y0125191*
X01085999Y01252393*
X0108577Y01252861*
X0108551Y01253313*
X01085218Y01253745*
X01084897Y01254156*
X01084549Y01254543*
X01084173Y01254905*
X01083774Y0125524*
X01083352Y01255547*
X0108291Y01255823*
X0108245Y01256068*
X01081974Y0125628*
X01081484Y01256458*
X01080983Y01256602*
X01080473Y0125671*
X01079957Y01256782*
X01079437Y01256819*
X01078916*
X01078396Y01256782*
X01077879Y0125671*
X0107737Y01256602*
X01076869Y01256458*
X01076379Y0125628*
X01075903Y01256068*
X01075442Y01255823*
X01075Y01255547*
X01074579Y0125524*
X01074179Y01254905*
X01073804Y01254543*
X01073456Y01254156*
X01073135Y01253745*
X01072843Y01253313*
X01072583Y01252861*
X01072354Y01252393*
X01072159Y0125191*
X01071998Y01251414*
X01071872Y01250908*
X01071781Y01250395*
X01071727Y01249876*
X01071708Y01249355*
X01071727Y01248834*
X01071781Y01248316*
X01071872Y01247803*
X01071998Y01247297*
X01072159Y01246801*
X01072354Y01246318*
X01072583Y01245849*
X01072843Y01245398*
X01073135Y01244966*
X01073456Y01244555*
X01073804Y01244168*
X01074179Y01243805*
X01074579Y0124347*
X01075Y01243164*
X01075442Y01242888*
X01075903Y01242643*
X01076379Y01242431*
X01076869Y01242253*
X0107737Y01242109*
X01077879Y01242001*
X01078396Y01241928*
X01078916Y01241892*
X01079437*
X01079957Y01241928*
X01080473Y01242001*
X01080983Y01242109*
X01081484Y01242253*
X01081974Y01242431*
X0108245Y01242643*
X0108291Y01242888*
X01083352Y01243164*
X01083774Y0124347*
X01084173Y01243805*
X01084549Y01244168*
X01084897Y01244555*
X01085218Y01244966*
X0108551Y01245398*
X0108577Y01245849*
X01085999Y01246318*
X01086194Y01246801*
X01086355Y01247297*
X01086481Y01247803*
X01086572Y01248316*
X01086626Y01248834*
X01086644Y01249355*
X01061244D02*
D01*
X01061226Y01249876*
X01061172Y01250395*
X01061081Y01250908*
X01060955Y01251414*
X01060794Y0125191*
X01060599Y01252393*
X0106037Y01252861*
X0106011Y01253313*
X01059818Y01253745*
X01059497Y01254156*
X01059149Y01254543*
X01058773Y01254905*
X01058374Y0125524*
X01057952Y01255547*
X0105751Y01255823*
X0105705Y01256068*
X01056574Y0125628*
X01056084Y01256458*
X01055583Y01256602*
X01055073Y0125671*
X01054557Y01256782*
X01054037Y01256819*
X01053516*
X01052996Y01256782*
X01052479Y0125671*
X0105197Y01256602*
X01051469Y01256458*
X01050979Y0125628*
X01050503Y01256068*
X01050042Y01255823*
X010496Y01255547*
X01049179Y0125524*
X01048779Y01254905*
X01048404Y01254543*
X01048056Y01254156*
X01047735Y01253745*
X01047443Y01253313*
X01047183Y01252861*
X01046954Y01252393*
X01046759Y0125191*
X01046598Y01251414*
X01046472Y01250908*
X01046381Y01250395*
X01046327Y01249876*
X01046308Y01249355*
X01046327Y01248834*
X01046381Y01248316*
X01046472Y01247803*
X01046598Y01247297*
X01046759Y01246801*
X01046954Y01246318*
X01047183Y01245849*
X01047443Y01245398*
X01047735Y01244966*
X01048056Y01244555*
X01048404Y01244168*
X01048779Y01243805*
X01049179Y0124347*
X010496Y01243164*
X01050042Y01242888*
X01050503Y01242643*
X01050979Y01242431*
X01051469Y01242253*
X0105197Y01242109*
X01052479Y01242001*
X01052996Y01241928*
X01053516Y01241892*
X01054037*
X01054557Y01241928*
X01055073Y01242001*
X01055583Y01242109*
X01056084Y01242253*
X01056574Y01242431*
X0105705Y01242643*
X0105751Y01242888*
X01057952Y01243164*
X01058374Y0124347*
X01058773Y01243805*
X01059149Y01244168*
X01059497Y01244555*
X01059818Y01244966*
X0106011Y01245398*
X0106037Y01245849*
X01060599Y01246318*
X01060794Y01246801*
X01060955Y01247297*
X01061081Y01247803*
X01061172Y01248316*
X01061226Y01248834*
X01061244Y01249355*
X01035844D02*
D01*
X01035826Y01249876*
X01035772Y01250395*
X01035681Y01250908*
X01035555Y01251414*
X01035394Y0125191*
X01035199Y01252393*
X0103497Y01252861*
X0103471Y01253313*
X01034418Y01253745*
X01034097Y01254156*
X01033749Y01254543*
X01033373Y01254905*
X01032974Y0125524*
X01032552Y01255547*
X0103211Y01255823*
X0103165Y01256068*
X01031174Y0125628*
X01030684Y01256458*
X01030183Y01256602*
X01029673Y0125671*
X01029157Y01256782*
X01028637Y01256819*
X01028116*
X01027596Y01256782*
X01027079Y0125671*
X0102657Y01256602*
X01026069Y01256458*
X01025579Y0125628*
X01025103Y01256068*
X01024642Y01255823*
X010242Y01255547*
X01023779Y0125524*
X01023379Y01254905*
X01023004Y01254543*
X01022656Y01254156*
X01022335Y01253745*
X01022043Y01253313*
X01021783Y01252861*
X01021554Y01252393*
X01021359Y0125191*
X01021198Y01251414*
X01021072Y01250908*
X01020981Y01250395*
X01020927Y01249876*
X01020908Y01249355*
X01020927Y01248834*
X01020981Y01248316*
X01021072Y01247803*
X01021198Y01247297*
X01021359Y01246801*
X01021554Y01246318*
X01021783Y01245849*
X01022043Y01245398*
X01022335Y01244966*
X01022656Y01244555*
X01023004Y01244168*
X01023379Y01243805*
X01023779Y0124347*
X010242Y01243164*
X01024642Y01242888*
X01025103Y01242643*
X01025579Y01242431*
X01026069Y01242253*
X0102657Y01242109*
X01027079Y01242001*
X01027596Y01241928*
X01028116Y01241892*
X01028637*
X01029157Y01241928*
X01029673Y01242001*
X01030183Y01242109*
X01030684Y01242253*
X01031174Y01242431*
X0103165Y01242643*
X0103211Y01242888*
X01032552Y01243164*
X01032974Y0124347*
X01033373Y01243805*
X01033749Y01244168*
X01034097Y01244555*
X01034418Y01244966*
X0103471Y01245398*
X0103497Y01245849*
X01035199Y01246318*
X01035394Y01246801*
X01035555Y01247297*
X01035681Y01247803*
X01035772Y01248316*
X01035826Y01248834*
X01035844Y01249355*
X01010444D02*
D01*
X01010426Y01249876*
X01010372Y01250395*
X01010281Y01250908*
X01010155Y01251414*
X01009994Y0125191*
X01009799Y01252393*
X0100957Y01252861*
X0100931Y01253313*
X01009018Y01253745*
X01008697Y01254156*
X01008349Y01254543*
X01007973Y01254905*
X01007574Y0125524*
X01007152Y01255547*
X0100671Y01255823*
X0100625Y01256068*
X01005774Y0125628*
X01005284Y01256458*
X01004783Y01256602*
X01004273Y0125671*
X01003757Y01256782*
X01003237Y01256819*
X01002716*
X01002196Y01256782*
X01001679Y0125671*
X0100117Y01256602*
X01000669Y01256458*
X01000179Y0125628*
X00999703Y01256068*
X00999242Y01255823*
X009988Y01255547*
X00998379Y0125524*
X00997979Y01254905*
X00997604Y01254543*
X00997256Y01254156*
X00996935Y01253745*
X00996643Y01253313*
X00996383Y01252861*
X00996154Y01252393*
X00995959Y0125191*
X00995798Y01251414*
X00995672Y01250908*
X00995581Y01250395*
X00995527Y01249876*
X00995508Y01249355*
X00995527Y01248834*
X00995581Y01248316*
X00995672Y01247803*
X00995798Y01247297*
X00995959Y01246801*
X00996154Y01246318*
X00996383Y01245849*
X00996643Y01245398*
X00996935Y01244966*
X00997256Y01244555*
X00997604Y01244168*
X00997979Y01243805*
X00998379Y0124347*
X009988Y01243164*
X00999242Y01242888*
X00999703Y01242643*
X01000179Y01242431*
X01000669Y01242253*
X0100117Y01242109*
X01001679Y01242001*
X01002196Y01241928*
X01002716Y01241892*
X01003237*
X01003757Y01241928*
X01004273Y01242001*
X01004783Y01242109*
X01005284Y01242253*
X01005774Y01242431*
X0100625Y01242643*
X0100671Y01242888*
X01007152Y01243164*
X01007574Y0124347*
X01007973Y01243805*
X01008349Y01244168*
X01008697Y01244555*
X01009018Y01244966*
X0100931Y01245398*
X0100957Y01245849*
X01009799Y01246318*
X01009994Y01246801*
X01010155Y01247297*
X01010281Y01247803*
X01010372Y01248316*
X01010426Y01248834*
X01010444Y01249355*
X00985044D02*
D01*
X00985026Y01249876*
X00984972Y01250395*
X00984881Y01250908*
X00984755Y01251414*
X00984594Y0125191*
X00984399Y01252393*
X0098417Y01252861*
X0098391Y01253313*
X00983618Y01253745*
X00983297Y01254156*
X00982949Y01254543*
X00982573Y01254905*
X00982174Y0125524*
X00981752Y01255547*
X0098131Y01255823*
X0098085Y01256068*
X00980374Y0125628*
X00979884Y01256458*
X00979383Y01256602*
X00978873Y0125671*
X00978357Y01256782*
X00977837Y01256819*
X00977316*
X00976796Y01256782*
X00976279Y0125671*
X0097577Y01256602*
X00975269Y01256458*
X00974779Y0125628*
X00974303Y01256068*
X00973842Y01255823*
X009734Y01255547*
X00972979Y0125524*
X00972579Y01254905*
X00972204Y01254543*
X00971856Y01254156*
X00971535Y01253745*
X00971243Y01253313*
X00970983Y01252861*
X00970754Y01252393*
X00970559Y0125191*
X00970398Y01251414*
X00970272Y01250908*
X00970181Y01250395*
X00970127Y01249876*
X00970108Y01249355*
X00970127Y01248834*
X00970181Y01248316*
X00970272Y01247803*
X00970398Y01247297*
X00970559Y01246801*
X00970754Y01246318*
X00970983Y01245849*
X00971243Y01245398*
X00971535Y01244966*
X00971856Y01244555*
X00972204Y01244168*
X00972579Y01243805*
X00972979Y0124347*
X009734Y01243164*
X00973842Y01242888*
X00974303Y01242643*
X00974779Y01242431*
X00975269Y01242253*
X0097577Y01242109*
X00976279Y01242001*
X00976796Y01241928*
X00977316Y01241892*
X00977837*
X00978357Y01241928*
X00978873Y01242001*
X00979383Y01242109*
X00979884Y01242253*
X00980374Y01242431*
X0098085Y01242643*
X0098131Y01242888*
X00981752Y01243164*
X00982174Y0124347*
X00982573Y01243805*
X00982949Y01244168*
X00983297Y01244555*
X00983618Y01244966*
X0098391Y01245398*
X0098417Y01245849*
X00984399Y01246318*
X00984594Y01246801*
X00984755Y01247297*
X00984881Y01247803*
X00984972Y01248316*
X00985026Y01248834*
X00985044Y01249355*
X00959644D02*
D01*
X00959626Y01249876*
X00959572Y01250395*
X00959481Y01250908*
X00959355Y01251414*
X00959194Y0125191*
X00958999Y01252393*
X0095877Y01252861*
X0095851Y01253313*
X00958218Y01253745*
X00957897Y01254156*
X00957549Y01254543*
X00957173Y01254905*
X00956774Y0125524*
X00956352Y01255547*
X0095591Y01255823*
X0095545Y01256068*
X00954974Y0125628*
X00954484Y01256458*
X00953983Y01256602*
X00953473Y0125671*
X00952957Y01256782*
X00952437Y01256819*
X00951916*
X00951396Y01256782*
X00950879Y0125671*
X0095037Y01256602*
X00949869Y01256458*
X00949379Y0125628*
X00948903Y01256068*
X00948442Y01255823*
X00948Y01255547*
X00947579Y0125524*
X00947179Y01254905*
X00946804Y01254543*
X00946456Y01254156*
X00946135Y01253745*
X00945843Y01253313*
X00945583Y01252861*
X00945354Y01252393*
X00945159Y0125191*
X00944998Y01251414*
X00944872Y01250908*
X00944781Y01250395*
X00944727Y01249876*
X00944708Y01249355*
X00944727Y01248834*
X00944781Y01248316*
X00944872Y01247803*
X00944998Y01247297*
X00945159Y01246801*
X00945354Y01246318*
X00945583Y01245849*
X00945843Y01245398*
X00946135Y01244966*
X00946456Y01244555*
X00946804Y01244168*
X00947179Y01243805*
X00947579Y0124347*
X00948Y01243164*
X00948442Y01242888*
X00948903Y01242643*
X00949379Y01242431*
X00949869Y01242253*
X0095037Y01242109*
X00950879Y01242001*
X00951396Y01241928*
X00951916Y01241892*
X00952437*
X00952957Y01241928*
X00953473Y01242001*
X00953983Y01242109*
X00954484Y01242253*
X00954974Y01242431*
X0095545Y01242643*
X0095591Y01242888*
X00956352Y01243164*
X00956774Y0124347*
X00957173Y01243805*
X00957549Y01244168*
X00957897Y01244555*
X00958218Y01244966*
X0095851Y01245398*
X0095877Y01245849*
X00958999Y01246318*
X00959194Y01246801*
X00959355Y01247297*
X00959481Y01247803*
X00959572Y01248316*
X00959626Y01248834*
X00959644Y01249355*
X00934244D02*
D01*
X00934226Y01249876*
X00934172Y01250395*
X00934081Y01250908*
X00933955Y01251414*
X00933794Y0125191*
X00933599Y01252393*
X0093337Y01252861*
X0093311Y01253313*
X00932818Y01253745*
X00932497Y01254156*
X00932149Y01254543*
X00931773Y01254905*
X00931374Y0125524*
X00930952Y01255547*
X0093051Y01255823*
X0093005Y01256068*
X00929574Y0125628*
X00929084Y01256458*
X00928583Y01256602*
X00928073Y0125671*
X00927557Y01256782*
X00927037Y01256819*
X00926516*
X00925996Y01256782*
X00925479Y0125671*
X0092497Y01256602*
X00924469Y01256458*
X00923979Y0125628*
X00923503Y01256068*
X00923042Y01255823*
X009226Y01255547*
X00922179Y0125524*
X00921779Y01254905*
X00921404Y01254543*
X00921056Y01254156*
X00920735Y01253745*
X00920443Y01253313*
X00920183Y01252861*
X00919954Y01252393*
X00919759Y0125191*
X00919598Y01251414*
X00919472Y01250908*
X00919381Y01250395*
X00919327Y01249876*
X00919308Y01249355*
X00919327Y01248834*
X00919381Y01248316*
X00919472Y01247803*
X00919598Y01247297*
X00919759Y01246801*
X00919954Y01246318*
X00920183Y01245849*
X00920443Y01245398*
X00920735Y01244966*
X00921056Y01244555*
X00921404Y01244168*
X00921779Y01243805*
X00922179Y0124347*
X009226Y01243164*
X00923042Y01242888*
X00923503Y01242643*
X00923979Y01242431*
X00924469Y01242253*
X0092497Y01242109*
X00925479Y01242001*
X00925996Y01241928*
X00926516Y01241892*
X00927037*
X00927557Y01241928*
X00928073Y01242001*
X00928583Y01242109*
X00929084Y01242253*
X00929574Y01242431*
X0093005Y01242643*
X0093051Y01242888*
X00930952Y01243164*
X00931374Y0124347*
X00931773Y01243805*
X00932149Y01244168*
X00932497Y01244555*
X00932818Y01244966*
X0093311Y01245398*
X0093337Y01245849*
X00933599Y01246318*
X00933794Y01246801*
X00933955Y01247297*
X00934081Y01247803*
X00934172Y01248316*
X00934226Y01248834*
X00934244Y01249355*
X00908844D02*
D01*
X00908826Y01249876*
X00908772Y01250395*
X00908681Y01250908*
X00908555Y01251414*
X00908394Y0125191*
X00908199Y01252393*
X0090797Y01252861*
X0090771Y01253313*
X00907418Y01253745*
X00907097Y01254156*
X00906749Y01254543*
X00906373Y01254905*
X00905974Y0125524*
X00905552Y01255547*
X0090511Y01255823*
X0090465Y01256068*
X00904174Y0125628*
X00903684Y01256458*
X00903183Y01256602*
X00902673Y0125671*
X00902157Y01256782*
X00901637Y01256819*
X00901116*
X00900596Y01256782*
X00900079Y0125671*
X0089957Y01256602*
X00899069Y01256458*
X00898579Y0125628*
X00898103Y01256068*
X00897642Y01255823*
X008972Y01255547*
X00896779Y0125524*
X00896379Y01254905*
X00896004Y01254543*
X00895656Y01254156*
X00895335Y01253745*
X00895043Y01253313*
X00894783Y01252861*
X00894554Y01252393*
X00894359Y0125191*
X00894198Y01251414*
X00894072Y01250908*
X00893981Y01250395*
X00893927Y01249876*
X00893908Y01249355*
X00893927Y01248834*
X00893981Y01248316*
X00894072Y01247803*
X00894198Y01247297*
X00894359Y01246801*
X00894554Y01246318*
X00894783Y01245849*
X00895043Y01245398*
X00895335Y01244966*
X00895656Y01244555*
X00896004Y01244168*
X00896379Y01243805*
X00896779Y0124347*
X008972Y01243164*
X00897642Y01242888*
X00898103Y01242643*
X00898579Y01242431*
X00899069Y01242253*
X0089957Y01242109*
X00900079Y01242001*
X00900596Y01241928*
X00901116Y01241892*
X00901637*
X00902157Y01241928*
X00902673Y01242001*
X00903183Y01242109*
X00903684Y01242253*
X00904174Y01242431*
X0090465Y01242643*
X0090511Y01242888*
X00905552Y01243164*
X00905974Y0124347*
X00906373Y01243805*
X00906749Y01244168*
X00907097Y01244555*
X00907418Y01244966*
X0090771Y01245398*
X0090797Y01245849*
X00908199Y01246318*
X00908394Y01246801*
X00908555Y01247297*
X00908681Y01247803*
X00908772Y01248316*
X00908826Y01248834*
X00908844Y01249355*
X00883444D02*
D01*
X00883426Y01249876*
X00883372Y01250395*
X00883281Y01250908*
X00883155Y01251414*
X00882994Y0125191*
X00882799Y01252393*
X0088257Y01252861*
X0088231Y01253313*
X00882018Y01253745*
X00881697Y01254156*
X00881349Y01254543*
X00880973Y01254905*
X00880574Y0125524*
X00880152Y01255547*
X0087971Y01255823*
X0087925Y01256068*
X00878774Y0125628*
X00878284Y01256458*
X00877783Y01256602*
X00877273Y0125671*
X00876757Y01256782*
X00876237Y01256819*
X00875716*
X00875196Y01256782*
X00874679Y0125671*
X0087417Y01256602*
X00873669Y01256458*
X00873179Y0125628*
X00872703Y01256068*
X00872242Y01255823*
X008718Y01255547*
X00871379Y0125524*
X00870979Y01254905*
X00870604Y01254543*
X00870256Y01254156*
X00869935Y01253745*
X00869643Y01253313*
X00869383Y01252861*
X00869154Y01252393*
X00868959Y0125191*
X00868798Y01251414*
X00868672Y01250908*
X00868581Y01250395*
X00868527Y01249876*
X00868508Y01249355*
X00868527Y01248834*
X00868581Y01248316*
X00868672Y01247803*
X00868798Y01247297*
X00868959Y01246801*
X00869154Y01246318*
X00869383Y01245849*
X00869643Y01245398*
X00869935Y01244966*
X00870256Y01244555*
X00870604Y01244168*
X00870979Y01243805*
X00871379Y0124347*
X008718Y01243164*
X00872242Y01242888*
X00872703Y01242643*
X00873179Y01242431*
X00873669Y01242253*
X0087417Y01242109*
X00874679Y01242001*
X00875196Y01241928*
X00875716Y01241892*
X00876237*
X00876757Y01241928*
X00877273Y01242001*
X00877783Y01242109*
X00878284Y01242253*
X00878774Y01242431*
X0087925Y01242643*
X0087971Y01242888*
X00880152Y01243164*
X00880574Y0124347*
X00880973Y01243805*
X00881349Y01244168*
X00881697Y01244555*
X00882018Y01244966*
X0088231Y01245398*
X0088257Y01245849*
X00882799Y01246318*
X00882994Y01246801*
X00883155Y01247297*
X00883281Y01247803*
X00883372Y01248316*
X00883426Y01248834*
X00883444Y01249355*
X00858044D02*
D01*
X00858026Y01249876*
X00857972Y01250395*
X00857881Y01250908*
X00857755Y01251414*
X00857594Y0125191*
X00857399Y01252393*
X0085717Y01252861*
X0085691Y01253313*
X00856618Y01253745*
X00856297Y01254156*
X00855949Y01254543*
X00855573Y01254905*
X00855174Y0125524*
X00854752Y01255547*
X0085431Y01255823*
X0085385Y01256068*
X00853374Y0125628*
X00852884Y01256458*
X00852383Y01256602*
X00851873Y0125671*
X00851357Y01256782*
X00850837Y01256819*
X00850316*
X00849796Y01256782*
X00849279Y0125671*
X0084877Y01256602*
X00848269Y01256458*
X00847779Y0125628*
X00847303Y01256068*
X00846842Y01255823*
X008464Y01255547*
X00845979Y0125524*
X00845579Y01254905*
X00845204Y01254543*
X00844856Y01254156*
X00844535Y01253745*
X00844243Y01253313*
X00843983Y01252861*
X00843754Y01252393*
X00843559Y0125191*
X00843398Y01251414*
X00843272Y01250908*
X00843181Y01250395*
X00843127Y01249876*
X00843108Y01249355*
X00843127Y01248834*
X00843181Y01248316*
X00843272Y01247803*
X00843398Y01247297*
X00843559Y01246801*
X00843754Y01246318*
X00843983Y01245849*
X00844243Y01245398*
X00844535Y01244966*
X00844856Y01244555*
X00845204Y01244168*
X00845579Y01243805*
X00845979Y0124347*
X008464Y01243164*
X00846842Y01242888*
X00847303Y01242643*
X00847779Y01242431*
X00848269Y01242253*
X0084877Y01242109*
X00849279Y01242001*
X00849796Y01241928*
X00850316Y01241892*
X00850837*
X00851357Y01241928*
X00851873Y01242001*
X00852383Y01242109*
X00852884Y01242253*
X00853374Y01242431*
X0085385Y01242643*
X0085431Y01242888*
X00854752Y01243164*
X00855174Y0124347*
X00855573Y01243805*
X00855949Y01244168*
X00856297Y01244555*
X00856618Y01244966*
X0085691Y01245398*
X0085717Y01245849*
X00857399Y01246318*
X00857594Y01246801*
X00857755Y01247297*
X00857881Y01247803*
X00857972Y01248316*
X00858026Y01248834*
X00858044Y01249355*
X00832644D02*
D01*
X00832626Y01249876*
X00832572Y01250395*
X00832481Y01250908*
X00832355Y01251414*
X00832194Y0125191*
X00831999Y01252393*
X0083177Y01252861*
X0083151Y01253313*
X00831218Y01253745*
X00830897Y01254156*
X00830549Y01254543*
X00830173Y01254905*
X00829774Y0125524*
X00829352Y01255547*
X0082891Y01255823*
X0082845Y01256068*
X00827974Y0125628*
X00827484Y01256458*
X00826983Y01256602*
X00826473Y0125671*
X00825957Y01256782*
X00825437Y01256819*
X00824916*
X00824396Y01256782*
X00823879Y0125671*
X0082337Y01256602*
X00822869Y01256458*
X00822379Y0125628*
X00821903Y01256068*
X00821442Y01255823*
X00821Y01255547*
X00820579Y0125524*
X00820179Y01254905*
X00819804Y01254543*
X00819456Y01254156*
X00819135Y01253745*
X00818843Y01253313*
X00818583Y01252861*
X00818354Y01252393*
X00818159Y0125191*
X00817998Y01251414*
X00817872Y01250908*
X00817781Y01250395*
X00817727Y01249876*
X00817708Y01249355*
X00817727Y01248834*
X00817781Y01248316*
X00817872Y01247803*
X00817998Y01247297*
X00818159Y01246801*
X00818354Y01246318*
X00818583Y01245849*
X00818843Y01245398*
X00819135Y01244966*
X00819456Y01244555*
X00819804Y01244168*
X00820179Y01243805*
X00820579Y0124347*
X00821Y01243164*
X00821442Y01242888*
X00821903Y01242643*
X00822379Y01242431*
X00822869Y01242253*
X0082337Y01242109*
X00823879Y01242001*
X00824396Y01241928*
X00824916Y01241892*
X00825437*
X00825957Y01241928*
X00826473Y01242001*
X00826983Y01242109*
X00827484Y01242253*
X00827974Y01242431*
X0082845Y01242643*
X0082891Y01242888*
X00829352Y01243164*
X00829774Y0124347*
X00830173Y01243805*
X00830549Y01244168*
X00830897Y01244555*
X00831218Y01244966*
X0083151Y01245398*
X0083177Y01245849*
X00831999Y01246318*
X00832194Y01246801*
X00832355Y01247297*
X00832481Y01247803*
X00832572Y01248316*
X00832626Y01248834*
X00832644Y01249355*
X00807244D02*
D01*
X00807226Y01249876*
X00807172Y01250395*
X00807081Y01250908*
X00806955Y01251414*
X00806794Y0125191*
X00806599Y01252393*
X0080637Y01252861*
X0080611Y01253313*
X00805818Y01253745*
X00805497Y01254156*
X00805149Y01254543*
X00804773Y01254905*
X00804374Y0125524*
X00803952Y01255547*
X0080351Y01255823*
X0080305Y01256068*
X00802574Y0125628*
X00802084Y01256458*
X00801583Y01256602*
X00801073Y0125671*
X00800557Y01256782*
X00800037Y01256819*
X00799516*
X00798996Y01256782*
X00798479Y0125671*
X0079797Y01256602*
X00797469Y01256458*
X00796979Y0125628*
X00796503Y01256068*
X00796042Y01255823*
X007956Y01255547*
X00795179Y0125524*
X00794779Y01254905*
X00794404Y01254543*
X00794056Y01254156*
X00793735Y01253745*
X00793443Y01253313*
X00793183Y01252861*
X00792954Y01252393*
X00792759Y0125191*
X00792598Y01251414*
X00792472Y01250908*
X00792381Y01250395*
X00792327Y01249876*
X00792308Y01249355*
X00792327Y01248834*
X00792381Y01248316*
X00792472Y01247803*
X00792598Y01247297*
X00792759Y01246801*
X00792954Y01246318*
X00793183Y01245849*
X00793443Y01245398*
X00793735Y01244966*
X00794056Y01244555*
X00794404Y01244168*
X00794779Y01243805*
X00795179Y0124347*
X007956Y01243164*
X00796042Y01242888*
X00796503Y01242643*
X00796979Y01242431*
X00797469Y01242253*
X0079797Y01242109*
X00798479Y01242001*
X00798996Y01241928*
X00799516Y01241892*
X00800037*
X00800557Y01241928*
X00801073Y01242001*
X00801583Y01242109*
X00802084Y01242253*
X00802574Y01242431*
X0080305Y01242643*
X0080351Y01242888*
X00803952Y01243164*
X00804374Y0124347*
X00804773Y01243805*
X00805149Y01244168*
X00805497Y01244555*
X00805818Y01244966*
X0080611Y01245398*
X0080637Y01245849*
X00806599Y01246318*
X00806794Y01246801*
X00806955Y01247297*
X00807081Y01247803*
X00807172Y01248316*
X00807226Y01248834*
X00807244Y01249355*
X00781844D02*
D01*
X00781826Y01249876*
X00781772Y01250395*
X00781681Y01250908*
X00781555Y01251414*
X00781394Y0125191*
X00781199Y01252393*
X0078097Y01252861*
X0078071Y01253313*
X00780418Y01253745*
X00780097Y01254156*
X00779749Y01254543*
X00779373Y01254905*
X00778974Y0125524*
X00778552Y01255547*
X0077811Y01255823*
X0077765Y01256068*
X00777174Y0125628*
X00776684Y01256458*
X00776183Y01256602*
X00775673Y0125671*
X00775157Y01256782*
X00774637Y01256819*
X00774116*
X00773596Y01256782*
X00773079Y0125671*
X0077257Y01256602*
X00772069Y01256458*
X00771579Y0125628*
X00771103Y01256068*
X00770642Y01255823*
X007702Y01255547*
X00769779Y0125524*
X00769379Y01254905*
X00769004Y01254543*
X00768656Y01254156*
X00768335Y01253745*
X00768043Y01253313*
X00767783Y01252861*
X00767554Y01252393*
X00767359Y0125191*
X00767198Y01251414*
X00767072Y01250908*
X00766981Y01250395*
X00766927Y01249876*
X00766908Y01249355*
X00766927Y01248834*
X00766981Y01248316*
X00767072Y01247803*
X00767198Y01247297*
X00767359Y01246801*
X00767554Y01246318*
X00767783Y01245849*
X00768043Y01245398*
X00768335Y01244966*
X00768656Y01244555*
X00769004Y01244168*
X00769379Y01243805*
X00769779Y0124347*
X007702Y01243164*
X00770642Y01242888*
X00771103Y01242643*
X00771579Y01242431*
X00772069Y01242253*
X0077257Y01242109*
X00773079Y01242001*
X00773596Y01241928*
X00774116Y01241892*
X00774637*
X00775157Y01241928*
X00775673Y01242001*
X00776183Y01242109*
X00776684Y01242253*
X00777174Y01242431*
X0077765Y01242643*
X0077811Y01242888*
X00778552Y01243164*
X00778974Y0124347*
X00779373Y01243805*
X00779749Y01244168*
X00780097Y01244555*
X00780418Y01244966*
X0078071Y01245398*
X0078097Y01245849*
X00781199Y01246318*
X00781394Y01246801*
X00781555Y01247297*
X00781681Y01247803*
X00781772Y01248316*
X00781826Y01248834*
X00781844Y01249355*
X00756444D02*
D01*
X00756426Y01249876*
X00756372Y01250395*
X00756281Y01250908*
X00756155Y01251414*
X00755994Y0125191*
X00755799Y01252393*
X0075557Y01252861*
X0075531Y01253313*
X00755018Y01253745*
X00754697Y01254156*
X00754349Y01254543*
X00753973Y01254905*
X00753574Y0125524*
X00753152Y01255547*
X0075271Y01255823*
X0075225Y01256068*
X00751774Y0125628*
X00751284Y01256458*
X00750783Y01256602*
X00750273Y0125671*
X00749757Y01256782*
X00749237Y01256819*
X00748716*
X00748196Y01256782*
X00747679Y0125671*
X0074717Y01256602*
X00746669Y01256458*
X00746179Y0125628*
X00745703Y01256068*
X00745242Y01255823*
X007448Y01255547*
X00744379Y0125524*
X00743979Y01254905*
X00743604Y01254543*
X00743256Y01254156*
X00742935Y01253745*
X00742643Y01253313*
X00742383Y01252861*
X00742154Y01252393*
X00741959Y0125191*
X00741798Y01251414*
X00741672Y01250908*
X00741581Y01250395*
X00741527Y01249876*
X00741508Y01249355*
X00741527Y01248834*
X00741581Y01248316*
X00741672Y01247803*
X00741798Y01247297*
X00741959Y01246801*
X00742154Y01246318*
X00742383Y01245849*
X00742643Y01245398*
X00742935Y01244966*
X00743256Y01244555*
X00743604Y01244168*
X00743979Y01243805*
X00744379Y0124347*
X007448Y01243164*
X00745242Y01242888*
X00745703Y01242643*
X00746179Y01242431*
X00746669Y01242253*
X0074717Y01242109*
X00747679Y01242001*
X00748196Y01241928*
X00748716Y01241892*
X00749237*
X00749757Y01241928*
X00750273Y01242001*
X00750783Y01242109*
X00751284Y01242253*
X00751774Y01242431*
X0075225Y01242643*
X0075271Y01242888*
X00753152Y01243164*
X00753574Y0124347*
X00753973Y01243805*
X00754349Y01244168*
X00754697Y01244555*
X00755018Y01244966*
X0075531Y01245398*
X0075557Y01245849*
X00755799Y01246318*
X00755994Y01246801*
X00756155Y01247297*
X00756281Y01247803*
X00756372Y01248316*
X00756426Y01248834*
X00756444Y01249355*
X00731044D02*
D01*
X00731026Y01249876*
X00730972Y01250395*
X00730881Y01250908*
X00730755Y01251414*
X00730594Y0125191*
X00730399Y01252393*
X0073017Y01252861*
X0072991Y01253313*
X00729618Y01253745*
X00729297Y01254156*
X00728949Y01254543*
X00728573Y01254905*
X00728174Y0125524*
X00727752Y01255547*
X0072731Y01255823*
X0072685Y01256068*
X00726374Y0125628*
X00725884Y01256458*
X00725383Y01256602*
X00724873Y0125671*
X00724357Y01256782*
X00723837Y01256819*
X00723316*
X00722796Y01256782*
X00722279Y0125671*
X0072177Y01256602*
X00721269Y01256458*
X00720779Y0125628*
X00720303Y01256068*
X00719842Y01255823*
X007194Y01255547*
X00718979Y0125524*
X00718579Y01254905*
X00718204Y01254543*
X00717856Y01254156*
X00717535Y01253745*
X00717243Y01253313*
X00716983Y01252861*
X00716754Y01252393*
X00716559Y0125191*
X00716398Y01251414*
X00716272Y01250908*
X00716181Y01250395*
X00716127Y01249876*
X00716108Y01249355*
X00716127Y01248834*
X00716181Y01248316*
X00716272Y01247803*
X00716398Y01247297*
X00716559Y01246801*
X00716754Y01246318*
X00716983Y01245849*
X00717243Y01245398*
X00717535Y01244966*
X00717856Y01244555*
X00718204Y01244168*
X00718579Y01243805*
X00718979Y0124347*
X007194Y01243164*
X00719842Y01242888*
X00720303Y01242643*
X00720779Y01242431*
X00721269Y01242253*
X0072177Y01242109*
X00722279Y01242001*
X00722796Y01241928*
X00723316Y01241892*
X00723837*
X00724357Y01241928*
X00724873Y01242001*
X00725383Y01242109*
X00725884Y01242253*
X00726374Y01242431*
X0072685Y01242643*
X0072731Y01242888*
X00727752Y01243164*
X00728174Y0124347*
X00728573Y01243805*
X00728949Y01244168*
X00729297Y01244555*
X00729618Y01244966*
X0072991Y01245398*
X0073017Y01245849*
X00730399Y01246318*
X00730594Y01246801*
X00730755Y01247297*
X00730881Y01247803*
X00730972Y01248316*
X00731026Y01248834*
X00731044Y01249355*
X00705644D02*
D01*
X00705626Y01249876*
X00705572Y01250395*
X00705481Y01250908*
X00705355Y01251414*
X00705194Y0125191*
X00704999Y01252393*
X0070477Y01252861*
X0070451Y01253313*
X00704218Y01253745*
X00703897Y01254156*
X00703549Y01254543*
X00703173Y01254905*
X00702774Y0125524*
X00702352Y01255547*
X0070191Y01255823*
X0070145Y01256068*
X00700974Y0125628*
X00700484Y01256458*
X00699983Y01256602*
X00699473Y0125671*
X00698957Y01256782*
X00698437Y01256819*
X00697916*
X00697396Y01256782*
X00696879Y0125671*
X0069637Y01256602*
X00695869Y01256458*
X00695379Y0125628*
X00694903Y01256068*
X00694442Y01255823*
X00694Y01255547*
X00693579Y0125524*
X00693179Y01254905*
X00692804Y01254543*
X00692456Y01254156*
X00692135Y01253745*
X00691843Y01253313*
X00691583Y01252861*
X00691354Y01252393*
X00691159Y0125191*
X00690998Y01251414*
X00690872Y01250908*
X00690781Y01250395*
X00690727Y01249876*
X00690708Y01249355*
X00690727Y01248834*
X00690781Y01248316*
X00690872Y01247803*
X00690998Y01247297*
X00691159Y01246801*
X00691354Y01246318*
X00691583Y01245849*
X00691843Y01245398*
X00692135Y01244966*
X00692456Y01244555*
X00692804Y01244168*
X00693179Y01243805*
X00693579Y0124347*
X00694Y01243164*
X00694442Y01242888*
X00694903Y01242643*
X00695379Y01242431*
X00695869Y01242253*
X0069637Y01242109*
X00696879Y01242001*
X00697396Y01241928*
X00697916Y01241892*
X00698437*
X00698957Y01241928*
X00699473Y01242001*
X00699983Y01242109*
X00700484Y01242253*
X00700974Y01242431*
X0070145Y01242643*
X0070191Y01242888*
X00702352Y01243164*
X00702774Y0124347*
X00703173Y01243805*
X00703549Y01244168*
X00703897Y01244555*
X00704218Y01244966*
X0070451Y01245398*
X0070477Y01245849*
X00704999Y01246318*
X00705194Y01246801*
X00705355Y01247297*
X00705481Y01247803*
X00705572Y01248316*
X00705626Y01248834*
X00705644Y01249355*
X00429309Y01274373D02*
D01*
X00429261Y01275759*
X00429116Y01277139*
X00428875Y01278505*
X0042854Y0127985*
X00428111Y01281169*
X00427591Y01282455*
X00426984Y01283702*
X0042629Y01284903*
X00425515Y01286053*
X00424661Y01287146*
X00423733Y01288176*
X00422735Y0128914*
X00421673Y01290031*
X00420551Y01290846*
X00419374Y01291581*
X0041815Y01292232*
X00416883Y01292797*
X0041558Y01293271*
X00414246Y01293653*
X0041289Y01293942*
X00411516Y01294135*
X00410133Y01294231*
X00408746*
X00407362Y01294135*
X00405989Y01293942*
X00404632Y01293653*
X00403299Y01293271*
X00401996Y01292797*
X00400729Y01292232*
X00399504Y01291581*
X00398328Y01290846*
X00397206Y01290031*
X00396144Y0128914*
X00395146Y01288176*
X00394218Y01287146*
X00393364Y01286053*
X00392589Y01284903*
X00391895Y01283702*
X00391287Y01282455*
X00390768Y01281169*
X00390339Y0127985*
X00390004Y01278505*
X00389763Y01277139*
X00389618Y01275759*
X00389569Y01274373*
X00389618Y01272987*
X00389763Y01271608*
X00390004Y01270242*
X00390339Y01268896*
X00390768Y01267577*
X00391287Y01266292*
X00391895Y01265045*
X00392589Y01263844*
X00393364Y01262694*
X00394218Y01261601*
X00395146Y01260571*
X00396144Y01259607*
X00397206Y01258716*
X00398328Y012579*
X00399504Y01257165*
X00400729Y01256514*
X00401996Y0125595*
X00403299Y01255476*
X00404632Y01255094*
X00405989Y01254805*
X00407362Y01254612*
X00408746Y01254515*
X00410133*
X00411516Y01254612*
X0041289Y01254805*
X00414246Y01255094*
X0041558Y01255476*
X00416883Y0125595*
X0041815Y01256514*
X00419374Y01257165*
X00420551Y012579*
X00421673Y01258716*
X00422735Y01259607*
X00423733Y01260571*
X00424661Y01261601*
X00425515Y01262694*
X0042629Y01263844*
X00426984Y01265045*
X00427591Y01266292*
X00428111Y01267577*
X0042854Y01268896*
X00428875Y01270242*
X00429116Y01271608*
X00429261Y01272987*
X00429309Y01274373*
X01385995D02*
D01*
X01385951Y01275649*
X01385817Y01276919*
X01385596Y01278176*
X01385287Y01279415*
X01384892Y01280629*
X01384414Y01281812*
X01383854Y0128296*
X01383216Y01284065*
X01382502Y01285123*
X01381717Y01286129*
X01380862Y01287078*
X01379944Y01287965*
X01378966Y01288785*
X01377933Y01289536*
X01376851Y01290212*
X01375724Y01290811*
X01374558Y01291331*
X01373358Y01291767*
X01372131Y01292119*
X01370882Y01292385*
X01369618Y01292562*
X01368345Y01292651*
X01367068*
X01365795Y01292562*
X0136453Y01292385*
X01363282Y01292119*
X01362055Y01291767*
X01360855Y01291331*
X01359689Y01290811*
X01358562Y01290212*
X01357479Y01289536*
X01356447Y01288785*
X01355469Y01287965*
X0135455Y01287078*
X01353696Y01286129*
X0135291Y01285123*
X01352196Y01284065*
X01351558Y0128296*
X01350999Y01281812*
X0135052Y01280629*
X01350126Y01279415*
X01349817Y01278176*
X01349595Y01276919*
X01349462Y01275649*
X01349417Y01274373*
X01349462Y01273098*
X01349595Y01271828*
X01349817Y01270571*
X01350126Y01269332*
X0135052Y01268118*
X01350999Y01266934*
X01351558Y01265787*
X01352196Y01264682*
X0135291Y01263623*
X01353696Y01262617*
X0135455Y01261669*
X01355469Y01260782*
X01356447Y01259961*
X01357479Y01259211*
X01358562Y01258535*
X01359689Y01257935*
X01360855Y01257416*
X01362055Y01256979*
X01363282Y01256628*
X0136453Y01256362*
X01365795Y01256184*
X01367068Y01256096*
X01368345*
X01369618Y01256184*
X01370882Y01256362*
X01372131Y01256628*
X01373358Y01256979*
X01374558Y01257416*
X01375724Y01257935*
X01376851Y01258535*
X01377933Y01259211*
X01378966Y01259961*
X01379944Y01260782*
X01380862Y01261669*
X01381717Y01262617*
X01382502Y01263623*
X01383216Y01264682*
X01383854Y01265787*
X01384414Y01266934*
X01384892Y01268118*
X01385287Y01269332*
X01385596Y01270571*
X01385817Y01271828*
X01385951Y01273098*
X01385995Y01274373*
X00905579Y00111744D02*
D01*
X00905543Y00112791*
X00905433Y00113832*
X00905252Y00114863*
X00904998Y00115879*
X00904675Y00116875*
X00904283Y00117845*
X00903824Y00118786*
X009033Y00119693*
X00902715Y00120561*
X0090207Y00121386*
X0090137Y00122164*
X00900616Y00122892*
X00899814Y00123565*
X00898967Y0012418*
X00898079Y00124735*
X00897155Y00125226*
X00896198Y00125652*
X00895215Y0012601*
X00894208Y00126299*
X00893184Y00126516*
X00892147Y00126662*
X00891103Y00126735*
X00890056*
X00889011Y00126662*
X00887975Y00126516*
X0088695Y00126299*
X00885944Y0012601*
X0088496Y00125652*
X00884004Y00125226*
X00883079Y00124735*
X00882192Y0012418*
X00881344Y00123565*
X00880542Y00122892*
X00879789Y00122164*
X00879089Y00121386*
X00878444Y00120561*
X00877859Y00119693*
X00877335Y00118786*
X00876876Y00117845*
X00876484Y00116875*
X00876161Y00115879*
X00875907Y00114863*
X00875725Y00113832*
X00875616Y00112791*
X00875579Y00111744*
X00875616Y00110698*
X00875725Y00109657*
X00875907Y00108626*
X00876161Y0010761*
X00876484Y00106614*
X00876876Y00105643*
X00877335Y00104702*
X00877859Y00103796*
X00878444Y00102928*
X00879089Y00102103*
X00879789Y00101324*
X00880542Y00100597*
X00881344Y00099924*
X00882192Y00099309*
X00883079Y00098754*
X00884004Y00098262*
X0088496Y00097836*
X00885944Y00097479*
X0088695Y0009719*
X00887975Y00096972*
X00889011Y00096827*
X00890056Y00096753*
X00891103*
X00892147Y00096827*
X00893184Y00096972*
X00894208Y0009719*
X00895215Y00097479*
X00896198Y00097836*
X00897155Y00098262*
X00898079Y00098754*
X00898967Y00099309*
X00899814Y00099924*
X00900616Y00100597*
X0090137Y00101324*
X0090207Y00102103*
X00902715Y00102928*
X009033Y00103796*
X00903824Y00104702*
X00904283Y00105643*
X00904675Y00106614*
X00904998Y0010761*
X00905252Y00108626*
X00905433Y00109657*
X00905543Y00110698*
X00905579Y00111744*
X00682769Y00085154D02*
D01*
X00682754Y00085609*
X00682706Y00086061*
X00682627Y00086509*
X00682517Y0008695*
X00682377Y00087382*
X00682206Y00087803*
X00682007Y00088212*
X0068178Y00088606*
X00681525Y00088983*
X00681246Y00089341*
X00680941Y00089679*
X00680614Y00089994*
X00680266Y00090287*
X00679898Y00090554*
X00679513Y00090795*
X00679111Y00091008*
X00678696Y00091193*
X00678269Y00091349*
X00677832Y00091474*
X00677387Y00091569*
X00676937Y00091632*
X00676484Y00091664*
X00676029*
X00675575Y00091632*
X00675125Y00091569*
X00674681Y00091474*
X00674244Y00091349*
X00673817Y00091193*
X00673401Y00091008*
X00673Y00090795*
X00672614Y00090554*
X00672247Y00090287*
X00671898Y00089994*
X00671571Y00089679*
X00671267Y00089341*
X00670987Y00088983*
X00670733Y00088606*
X00670506Y00088212*
X00670307Y00087803*
X00670136Y00087382*
X00669996Y0008695*
X00669886Y00086509*
X00669807Y00086061*
X00669759Y00085609*
X00669743Y00085154*
X00669759Y000847*
X00669807Y00084248*
X00669886Y000838*
X00669996Y00083359*
X00670136Y00082927*
X00670307Y00082505*
X00670506Y00082097*
X00670733Y00081703*
X00670987Y00081326*
X00671267Y00080968*
X00671571Y0008063*
X00671898Y00080314*
X00672247Y00080022*
X00672614Y00079755*
X00673Y00079514*
X00673401Y00079301*
X00673817Y00079116*
X00674244Y0007896*
X00674681Y00078835*
X00675125Y0007874*
X00675575Y00078677*
X00676029Y00078645*
X00676484*
X00676937Y00078677*
X00677387Y0007874*
X00677832Y00078835*
X00678269Y0007896*
X00678696Y00079116*
X00679111Y00079301*
X00679513Y00079514*
X00679898Y00079755*
X00680266Y00080022*
X00680614Y00080314*
X00680941Y0008063*
X00681246Y00080968*
X00681525Y00081326*
X0068178Y00081703*
X00682007Y00082097*
X00682206Y00082505*
X00682377Y00082927*
X00682517Y00083359*
X00682627Y000838*
X00682706Y00084248*
X00682754Y000847*
X00682769Y00085154*
X00710469D02*
D01*
X00710454Y00085609*
X00710406Y00086061*
X00710327Y00086509*
X00710217Y0008695*
X00710077Y00087382*
X00709906Y00087803*
X00709707Y00088212*
X0070948Y00088606*
X00709225Y00088983*
X00708946Y00089341*
X00708641Y00089679*
X00708314Y00089994*
X00707966Y00090287*
X00707598Y00090554*
X00707213Y00090795*
X00706811Y00091008*
X00706396Y00091193*
X00705969Y00091349*
X00705532Y00091474*
X00705087Y00091569*
X00704637Y00091632*
X00704184Y00091664*
X00703729*
X00703275Y00091632*
X00702825Y00091569*
X00702381Y00091474*
X00701944Y00091349*
X00701517Y00091193*
X00701101Y00091008*
X007007Y00090795*
X00700314Y00090554*
X00699947Y00090287*
X00699598Y00089994*
X00699271Y00089679*
X00698967Y00089341*
X00698687Y00088983*
X00698433Y00088606*
X00698206Y00088212*
X00698006Y00087803*
X00697836Y00087382*
X00697696Y0008695*
X00697586Y00086509*
X00697507Y00086061*
X00697459Y00085609*
X00697443Y00085154*
X00697459Y000847*
X00697507Y00084248*
X00697586Y000838*
X00697696Y00083359*
X00697836Y00082927*
X00698006Y00082505*
X00698206Y00082097*
X00698433Y00081703*
X00698687Y00081326*
X00698967Y00080968*
X00699271Y0008063*
X00699598Y00080314*
X00699947Y00080022*
X00700314Y00079755*
X007007Y00079514*
X00701101Y00079301*
X00701517Y00079116*
X00701944Y0007896*
X00702381Y00078835*
X00702825Y0007874*
X00703275Y00078677*
X00703729Y00078645*
X00704184*
X00704637Y00078677*
X00705087Y0007874*
X00705532Y00078835*
X00705969Y0007896*
X00706396Y00079116*
X00706811Y00079301*
X00707213Y00079514*
X00707598Y00079755*
X00707966Y00080022*
X00708314Y00080314*
X00708641Y0008063*
X00708946Y00080968*
X00709225Y00081326*
X0070948Y00081703*
X00709707Y00082097*
X00709906Y00082505*
X00710077Y00082927*
X00710217Y00083359*
X00710327Y000838*
X00710406Y00084248*
X00710454Y000847*
X00710469Y00085154*
X00738169D02*
D01*
X00738153Y00085609*
X00738106Y00086061*
X00738027Y00086509*
X00737917Y0008695*
X00737777Y00087382*
X00737606Y00087803*
X00737407Y00088212*
X0073718Y00088606*
X00736925Y00088983*
X00736646Y00089341*
X00736341Y00089679*
X00736015Y00089994*
X00735666Y00090287*
X00735299Y00090554*
X00734913Y00090795*
X00734511Y00091008*
X00734096Y00091193*
X00733669Y00091349*
X00733232Y00091474*
X00732787Y00091569*
X00732337Y00091632*
X00731884Y00091664*
X00731429*
X00730976Y00091632*
X00730525Y00091569*
X00730081Y00091474*
X00729644Y00091349*
X00729216Y00091193*
X00728801Y00091008*
X007284Y00090795*
X00728014Y00090554*
X00727647Y00090287*
X00727298Y00089994*
X00726971Y00089679*
X00726667Y00089341*
X00726387Y00088983*
X00726133Y00088606*
X00725906Y00088212*
X00725706Y00087803*
X00725536Y00087382*
X00725396Y0008695*
X00725286Y00086509*
X00725207Y00086061*
X00725159Y00085609*
X00725143Y00085154*
X00725159Y000847*
X00725207Y00084248*
X00725286Y000838*
X00725396Y00083359*
X00725536Y00082927*
X00725706Y00082505*
X00725906Y00082097*
X00726133Y00081703*
X00726387Y00081326*
X00726667Y00080968*
X00726971Y0008063*
X00727298Y00080314*
X00727647Y00080022*
X00728014Y00079755*
X007284Y00079514*
X00728801Y00079301*
X00729216Y00079116*
X00729644Y0007896*
X00730081Y00078835*
X00730525Y0007874*
X00730976Y00078677*
X00731429Y00078645*
X00731884*
X00732337Y00078677*
X00732787Y0007874*
X00733232Y00078835*
X00733669Y0007896*
X00734096Y00079116*
X00734511Y00079301*
X00734913Y00079514*
X00735299Y00079755*
X00735666Y00080022*
X00736015Y00080314*
X00736341Y0008063*
X00736646Y00080968*
X00736925Y00081326*
X0073718Y00081703*
X00737407Y00082097*
X00737606Y00082505*
X00737777Y00082927*
X00737917Y00083359*
X00738027Y000838*
X00738106Y00084248*
X00738153Y000847*
X00738169Y00085154*
X00765869D02*
D01*
X00765853Y00085609*
X00765806Y00086061*
X00765727Y00086509*
X00765617Y0008695*
X00765477Y00087382*
X00765306Y00087803*
X00765107Y00088212*
X0076488Y00088606*
X00764626Y00088983*
X00764346Y00089341*
X00764041Y00089679*
X00763715Y00089994*
X00763366Y00090287*
X00762998Y00090554*
X00762613Y00090795*
X00762212Y00091008*
X00761796Y00091193*
X00761369Y00091349*
X00760932Y00091474*
X00760487Y00091569*
X00760037Y00091632*
X00759584Y00091664*
X00759129*
X00758676Y00091632*
X00758225Y00091569*
X00757781Y00091474*
X00757344Y00091349*
X00756916Y00091193*
X00756501Y00091008*
X007561Y00090795*
X00755714Y00090554*
X00755346Y00090287*
X00754998Y00089994*
X00754671Y00089679*
X00754367Y00089341*
X00754087Y00088983*
X00753833Y00088606*
X00753606Y00088212*
X00753406Y00087803*
X00753236Y00087382*
X00753096Y0008695*
X00752986Y00086509*
X00752907Y00086061*
X00752859Y00085609*
X00752843Y00085154*
X00752859Y000847*
X00752907Y00084248*
X00752986Y000838*
X00753096Y00083359*
X00753236Y00082927*
X00753406Y00082505*
X00753606Y00082097*
X00753833Y00081703*
X00754087Y00081326*
X00754367Y00080968*
X00754671Y0008063*
X00754998Y00080314*
X00755346Y00080022*
X00755714Y00079755*
X007561Y00079514*
X00756501Y00079301*
X00756916Y00079116*
X00757344Y0007896*
X00757781Y00078835*
X00758225Y0007874*
X00758676Y00078677*
X00759129Y00078645*
X00759584*
X00760037Y00078677*
X00760487Y0007874*
X00760932Y00078835*
X00761369Y0007896*
X00761796Y00079116*
X00762212Y00079301*
X00762613Y00079514*
X00762998Y00079755*
X00763366Y00080022*
X00763715Y00080314*
X00764041Y0008063*
X00764346Y00080968*
X00764626Y00081326*
X0076488Y00081703*
X00765107Y00082097*
X00765306Y00082505*
X00765477Y00082927*
X00765617Y00083359*
X00765727Y000838*
X00765806Y00084248*
X00765853Y000847*
X00765869Y00085154*
X00793569D02*
D01*
X00793553Y00085609*
X00793506Y00086061*
X00793427Y00086509*
X00793317Y0008695*
X00793176Y00087382*
X00793006Y00087803*
X00792807Y00088212*
X0079258Y00088606*
X00792326Y00088983*
X00792046Y00089341*
X00791741Y00089679*
X00791414Y00089994*
X00791066Y00090287*
X00790698Y00090554*
X00790313Y00090795*
X00789912Y00091008*
X00789496Y00091193*
X00789069Y00091349*
X00788632Y00091474*
X00788187Y00091569*
X00787737Y00091632*
X00787284Y00091664*
X00786829*
X00786376Y00091632*
X00785925Y00091569*
X00785481Y00091474*
X00785044Y00091349*
X00784617Y00091193*
X00784201Y00091008*
X007838Y00090795*
X00783414Y00090554*
X00783046Y00090287*
X00782698Y00089994*
X00782371Y00089679*
X00782067Y00089341*
X00781787Y00088983*
X00781533Y00088606*
X00781306Y00088212*
X00781106Y00087803*
X00780936Y00087382*
X00780796Y0008695*
X00780686Y00086509*
X00780607Y00086061*
X00780559Y00085609*
X00780543Y00085154*
X00780559Y000847*
X00780607Y00084248*
X00780686Y000838*
X00780796Y00083359*
X00780936Y00082927*
X00781106Y00082505*
X00781306Y00082097*
X00781533Y00081703*
X00781787Y00081326*
X00782067Y00080968*
X00782371Y0008063*
X00782698Y00080314*
X00783046Y00080022*
X00783414Y00079755*
X007838Y00079514*
X00784201Y00079301*
X00784617Y00079116*
X00785044Y0007896*
X00785481Y00078835*
X00785925Y0007874*
X00786376Y00078677*
X00786829Y00078645*
X00787284*
X00787737Y00078677*
X00788187Y0007874*
X00788632Y00078835*
X00789069Y0007896*
X00789496Y00079116*
X00789912Y00079301*
X00790313Y00079514*
X00790698Y00079755*
X00791066Y00080022*
X00791414Y00080314*
X00791741Y0008063*
X00792046Y00080968*
X00792326Y00081326*
X0079258Y00081703*
X00792807Y00082097*
X00793006Y00082505*
X00793176Y00082927*
X00793317Y00083359*
X00793427Y000838*
X00793506Y00084248*
X00793553Y000847*
X00793569Y00085154*
X01001237D02*
D01*
X01001222Y00085609*
X01001174Y00086061*
X01001095Y00086509*
X01000985Y0008695*
X01000845Y00087382*
X01000674Y00087803*
X01000475Y00088212*
X01000248Y00088606*
X00999993Y00088983*
X00999714Y00089341*
X00999409Y00089679*
X00999082Y00089994*
X00998734Y00090287*
X00998366Y00090554*
X00997981Y00090795*
X00997579Y00091008*
X00997164Y00091193*
X00996737Y00091349*
X009963Y00091474*
X00995855Y00091569*
X00995405Y00091632*
X00994952Y00091664*
X00994497*
X00994043Y00091632*
X00993593Y00091569*
X00993149Y00091474*
X00992712Y00091349*
X00992285Y00091193*
X00991869Y00091008*
X00991468Y00090795*
X00991082Y00090554*
X00990715Y00090287*
X00990366Y00089994*
X00990039Y00089679*
X00989735Y00089341*
X00989455Y00088983*
X00989201Y00088606*
X00988974Y00088212*
X00988775Y00087803*
X00988604Y00087382*
X00988464Y0008695*
X00988354Y00086509*
X00988275Y00086061*
X00988227Y00085609*
X00988211Y00085154*
X00988227Y000847*
X00988275Y00084248*
X00988354Y000838*
X00988464Y00083359*
X00988604Y00082927*
X00988775Y00082505*
X00988974Y00082097*
X00989201Y00081703*
X00989455Y00081326*
X00989735Y00080968*
X00990039Y0008063*
X00990366Y00080314*
X00990715Y00080022*
X00991082Y00079755*
X00991468Y00079514*
X00991869Y00079301*
X00992285Y00079116*
X00992712Y0007896*
X00993149Y00078835*
X00993593Y0007874*
X00994043Y00078677*
X00994497Y00078645*
X00994952*
X00995405Y00078677*
X00995855Y0007874*
X009963Y00078835*
X00996737Y0007896*
X00997164Y00079116*
X00997579Y00079301*
X00997981Y00079514*
X00998366Y00079755*
X00998734Y00080022*
X00999082Y00080314*
X00999409Y0008063*
X00999714Y00080968*
X00999993Y00081326*
X01000248Y00081703*
X01000475Y00082097*
X01000674Y00082505*
X01000845Y00082927*
X01000985Y00083359*
X01001095Y000838*
X01001174Y00084248*
X01001222Y000847*
X01001237Y00085154*
X01028938D02*
D01*
X01028923Y00085609*
X01028875Y00086061*
X01028796Y00086509*
X01028686Y0008695*
X01028546Y00087382*
X01028375Y00087803*
X01028176Y00088212*
X01027949Y00088606*
X01027694Y00088983*
X01027415Y00089341*
X0102711Y00089679*
X01026783Y00089994*
X01026435Y00090287*
X01026067Y00090554*
X01025682Y00090795*
X0102528Y00091008*
X01024865Y00091193*
X01024438Y00091349*
X01024001Y00091474*
X01023556Y00091569*
X01023106Y00091632*
X01022653Y00091664*
X01022198*
X01021744Y00091632*
X01021294Y00091569*
X0102085Y00091474*
X01020413Y00091349*
X01019986Y00091193*
X0101957Y00091008*
X01019169Y00090795*
X01018783Y00090554*
X01018416Y00090287*
X01018067Y00089994*
X0101774Y00089679*
X01017436Y00089341*
X01017156Y00088983*
X01016902Y00088606*
X01016675Y00088212*
X01016475Y00087803*
X01016305Y00087382*
X01016165Y0008695*
X01016055Y00086509*
X01015976Y00086061*
X01015928Y00085609*
X01015912Y00085154*
X01015928Y000847*
X01015976Y00084248*
X01016055Y000838*
X01016165Y00083359*
X01016305Y00082927*
X01016475Y00082505*
X01016675Y00082097*
X01016902Y00081703*
X01017156Y00081326*
X01017436Y00080968*
X0101774Y0008063*
X01018067Y00080314*
X01018416Y00080022*
X01018783Y00079755*
X01019169Y00079514*
X0101957Y00079301*
X01019986Y00079116*
X01020413Y0007896*
X0102085Y00078835*
X01021294Y0007874*
X01021744Y00078677*
X01022198Y00078645*
X01022653*
X01023106Y00078677*
X01023556Y0007874*
X01024001Y00078835*
X01024438Y0007896*
X01024865Y00079116*
X0102528Y00079301*
X01025682Y00079514*
X01026067Y00079755*
X01026435Y00080022*
X01026783Y00080314*
X0102711Y0008063*
X01027415Y00080968*
X01027694Y00081326*
X01027949Y00081703*
X01028176Y00082097*
X01028375Y00082505*
X01028546Y00082927*
X01028686Y00083359*
X01028796Y000838*
X01028875Y00084248*
X01028923Y000847*
X01028938Y00085154*
X01056637D02*
D01*
X01056621Y00085609*
X01056574Y00086061*
X01056495Y00086509*
X01056385Y0008695*
X01056245Y00087382*
X01056074Y00087803*
X01055875Y00088212*
X01055648Y00088606*
X01055393Y00088983*
X01055114Y00089341*
X01054809Y00089679*
X01054483Y00089994*
X01054134Y00090287*
X01053767Y00090554*
X01053381Y00090795*
X01052979Y00091008*
X01052564Y00091193*
X01052137Y00091349*
X010517Y00091474*
X01051255Y00091569*
X01050805Y00091632*
X01050352Y00091664*
X01049897*
X01049444Y00091632*
X01048993Y00091569*
X01048549Y00091474*
X01048112Y00091349*
X01047684Y00091193*
X01047269Y00091008*
X01046868Y00090795*
X01046482Y00090554*
X01046115Y00090287*
X01045766Y00089994*
X01045439Y00089679*
X01045135Y00089341*
X01044855Y00088983*
X01044601Y00088606*
X01044374Y00088212*
X01044174Y00087803*
X01044004Y00087382*
X01043864Y0008695*
X01043754Y00086509*
X01043675Y00086061*
X01043627Y00085609*
X01043611Y00085154*
X01043627Y000847*
X01043675Y00084248*
X01043754Y000838*
X01043864Y00083359*
X01044004Y00082927*
X01044174Y00082505*
X01044374Y00082097*
X01044601Y00081703*
X01044855Y00081326*
X01045135Y00080968*
X01045439Y0008063*
X01045766Y00080314*
X01046115Y00080022*
X01046482Y00079755*
X01046868Y00079514*
X01047269Y00079301*
X01047684Y00079116*
X01048112Y0007896*
X01048549Y00078835*
X01048993Y0007874*
X01049444Y00078677*
X01049897Y00078645*
X01050352*
X01050805Y00078677*
X01051255Y0007874*
X010517Y00078835*
X01052137Y0007896*
X01052564Y00079116*
X01052979Y00079301*
X01053381Y00079514*
X01053767Y00079755*
X01054134Y00080022*
X01054483Y00080314*
X01054809Y0008063*
X01055114Y00080968*
X01055393Y00081326*
X01055648Y00081703*
X01055875Y00082097*
X01056074Y00082505*
X01056245Y00082927*
X01056385Y00083359*
X01056495Y000838*
X01056574Y00084248*
X01056621Y000847*
X01056637Y00085154*
X01084338D02*
D01*
X01084322Y00085609*
X01084275Y00086061*
X01084196Y00086509*
X01084086Y0008695*
X01083946Y00087382*
X01083775Y00087803*
X01083576Y00088212*
X01083349Y00088606*
X01083095Y00088983*
X01082815Y00089341*
X0108251Y00089679*
X01082184Y00089994*
X01081835Y00090287*
X01081467Y00090554*
X01081082Y00090795*
X01080681Y00091008*
X01080265Y00091193*
X01079838Y00091349*
X01079401Y00091474*
X01078956Y00091569*
X01078506Y00091632*
X01078053Y00091664*
X01077598*
X01077145Y00091632*
X01076694Y00091569*
X0107625Y00091474*
X01075813Y00091349*
X01075385Y00091193*
X0107497Y00091008*
X01074569Y00090795*
X01074183Y00090554*
X01073815Y00090287*
X01073467Y00089994*
X0107314Y00089679*
X01072836Y00089341*
X01072556Y00088983*
X01072302Y00088606*
X01072075Y00088212*
X01071875Y00087803*
X01071705Y00087382*
X01071565Y0008695*
X01071455Y00086509*
X01071376Y00086061*
X01071328Y00085609*
X01071312Y00085154*
X01071328Y000847*
X01071376Y00084248*
X01071455Y000838*
X01071565Y00083359*
X01071705Y00082927*
X01071875Y00082505*
X01072075Y00082097*
X01072302Y00081703*
X01072556Y00081326*
X01072836Y00080968*
X0107314Y0008063*
X01073467Y00080314*
X01073815Y00080022*
X01074183Y00079755*
X01074569Y00079514*
X0107497Y00079301*
X01075385Y00079116*
X01075813Y0007896*
X0107625Y00078835*
X01076694Y0007874*
X01077145Y00078677*
X01077598Y00078645*
X01078053*
X01078506Y00078677*
X01078956Y0007874*
X01079401Y00078835*
X01079838Y0007896*
X01080265Y00079116*
X01080681Y00079301*
X01081082Y00079514*
X01081467Y00079755*
X01081835Y00080022*
X01082184Y00080314*
X0108251Y0008063*
X01082815Y00080968*
X01083095Y00081326*
X01083349Y00081703*
X01083576Y00082097*
X01083775Y00082505*
X01083946Y00082927*
X01084086Y00083359*
X01084196Y000838*
X01084275Y00084248*
X01084322Y000847*
X01084338Y00085154*
X01112037D02*
D01*
X01112021Y00085609*
X01111974Y00086061*
X01111895Y00086509*
X01111785Y0008695*
X01111644Y00087382*
X01111474Y00087803*
X01111275Y00088212*
X01111048Y00088606*
X01110794Y00088983*
X01110514Y00089341*
X01110209Y00089679*
X01109882Y00089994*
X01109534Y00090287*
X01109166Y00090554*
X01108781Y00090795*
X0110838Y00091008*
X01107964Y00091193*
X01107537Y00091349*
X011071Y00091474*
X01106655Y00091569*
X01106205Y00091632*
X01105752Y00091664*
X01105297*
X01104844Y00091632*
X01104393Y00091569*
X01103949Y00091474*
X01103512Y00091349*
X01103085Y00091193*
X01102669Y00091008*
X01102268Y00090795*
X01101882Y00090554*
X01101515Y00090287*
X01101166Y00089994*
X01100839Y00089679*
X01100535Y00089341*
X01100255Y00088983*
X01100001Y00088606*
X01099774Y00088212*
X01099574Y00087803*
X01099404Y00087382*
X01099264Y0008695*
X01099154Y00086509*
X01099075Y00086061*
X01099027Y00085609*
X01099011Y00085154*
X01099027Y000847*
X01099075Y00084248*
X01099154Y000838*
X01099264Y00083359*
X01099404Y00082927*
X01099574Y00082505*
X01099774Y00082097*
X01100001Y00081703*
X01100255Y00081326*
X01100535Y00080968*
X01100839Y0008063*
X01101166Y00080314*
X01101515Y00080022*
X01101882Y00079755*
X01102268Y00079514*
X01102669Y00079301*
X01103085Y00079116*
X01103512Y0007896*
X01103949Y00078835*
X01104393Y0007874*
X01104844Y00078677*
X01105297Y00078645*
X01105752*
X01106205Y00078677*
X01106655Y0007874*
X011071Y00078835*
X01107537Y0007896*
X01107964Y00079116*
X0110838Y00079301*
X01108781Y00079514*
X01109166Y00079755*
X01109534Y00080022*
X01109882Y00080314*
X01110209Y0008063*
X01110514Y00080968*
X01110794Y00081326*
X01111048Y00081703*
X01111275Y00082097*
X01111474Y00082505*
X01111644Y00082927*
X01111785Y00083359*
X01111895Y000838*
X01111974Y00084248*
X01112021Y000847*
X01112037Y00085154*
X00395555Y00241039D02*
Y00315514D01*
Y00241039D02*
X00607869D01*
Y00315514*
X00395555D02*
X00607869D01*
X01270635Y00234633D02*
Y0033326D01*
Y00234633D02*
X01369875D01*
Y0033326*
X01270635D02*
X01369875D01*
M02*